<?xml version="1.0" encoding="UTF-8"?>
<!DOCTYPE svg PUBLIC "-//W3C//DTD SVG 1.1//EN" "http://www.w3.org/Graphics/SVG/1.1/DTD/svg11.dtd">
<svg width="178mm" height="154mm" viewBox="0 0 17800 15400" version="1.1" xmlns="http://www.w3.org/2000/svg" xmlns:xlink="http://www.w3.org/1999/xlink" stroke-width="28.222" stroke-linejoin="round" xml:space="preserve">
 <path fill="rgb(255,255,255)" stroke="none" d="M 8885,15344 L 13,15344 13,13 17756,13 17756,15344 8885,15344 Z"/>
 <path fill="none" stroke="rgb(217,217,217)" stroke-width="26" stroke-linejoin="round" d="M 8885,15344 L 13,15344 13,13 17756,13 17756,15344 8885,15344 Z"/>
 <path fill="none" stroke="rgb(217,217,217)" stroke-width="26" stroke-linejoin="round" d="M 3524,2821 L 3524,14567"/>
 <path fill="none" stroke="rgb(217,217,217)" stroke-width="26" stroke-linejoin="round" d="M 5453,2821 L 5453,14567"/>
 <path fill="none" stroke="rgb(217,217,217)" stroke-width="26" stroke-linejoin="round" d="M 7382,2821 L 7382,14567"/>
 <path fill="none" stroke="rgb(217,217,217)" stroke-width="26" stroke-linejoin="round" d="M 9312,2821 L 9312,14567"/>
 <path fill="none" stroke="rgb(217,217,217)" stroke-width="26" stroke-linejoin="round" d="M 11241,2821 L 11241,14567"/>
 <path fill="none" stroke="rgb(217,217,217)" stroke-width="26" stroke-linejoin="round" d="M 13171,2821 L 13171,14567"/>
 <path fill="none" stroke="rgb(217,217,217)" stroke-width="26" stroke-linejoin="round" d="M 15100,2821 L 15100,14567"/>
 <path fill="none" stroke="rgb(217,217,217)" stroke-width="26" stroke-linejoin="round" d="M 17030,2821 L 17030,14567"/>
 <path fill="none" stroke="rgb(242,242,242)" stroke-width="26" stroke-linejoin="round" d="M 3909,2821 L 3909,14567"/>
 <path fill="none" stroke="rgb(242,242,242)" stroke-width="26" stroke-linejoin="round" d="M 4294,2821 L 4294,14567"/>
 <path fill="none" stroke="rgb(242,242,242)" stroke-width="26" stroke-linejoin="round" d="M 4681,2821 L 4681,14567"/>
 <path fill="none" stroke="rgb(242,242,242)" stroke-width="26" stroke-linejoin="round" d="M 5066,2821 L 5066,14567"/>
 <path fill="none" stroke="rgb(242,242,242)" stroke-width="26" stroke-linejoin="round" d="M 5838,2821 L 5838,14567"/>
 <path fill="none" stroke="rgb(242,242,242)" stroke-width="26" stroke-linejoin="round" d="M 6225,2821 L 6225,14567"/>
 <path fill="none" stroke="rgb(242,242,242)" stroke-width="26" stroke-linejoin="round" d="M 6610,2821 L 6610,14567"/>
 <path fill="none" stroke="rgb(242,242,242)" stroke-width="26" stroke-linejoin="round" d="M 6996,2821 L 6996,14567"/>
 <path fill="none" stroke="rgb(242,242,242)" stroke-width="26" stroke-linejoin="round" d="M 7768,2821 L 7768,14567"/>
 <path fill="none" stroke="rgb(242,242,242)" stroke-width="26" stroke-linejoin="round" d="M 8154,2821 L 8154,14567"/>
 <path fill="none" stroke="rgb(242,242,242)" stroke-width="26" stroke-linejoin="round" d="M 8540,2821 L 8540,14567"/>
 <path fill="none" stroke="rgb(242,242,242)" stroke-width="26" stroke-linejoin="round" d="M 8925,2821 L 8925,14567"/>
 <path fill="none" stroke="rgb(242,242,242)" stroke-width="26" stroke-linejoin="round" d="M 9697,2821 L 9697,14567"/>
 <path fill="none" stroke="rgb(242,242,242)" stroke-width="26" stroke-linejoin="round" d="M 10084,2821 L 10084,14567"/>
 <path fill="none" stroke="rgb(242,242,242)" stroke-width="26" stroke-linejoin="round" d="M 10469,2821 L 10469,14567"/>
 <path fill="none" stroke="rgb(242,242,242)" stroke-width="26" stroke-linejoin="round" d="M 10856,2821 L 10856,14567"/>
 <path fill="none" stroke="rgb(242,242,242)" stroke-width="26" stroke-linejoin="round" d="M 11627,2821 L 11627,14567"/>
 <path fill="none" stroke="rgb(242,242,242)" stroke-width="26" stroke-linejoin="round" d="M 12013,2821 L 12013,14567"/>
 <path fill="none" stroke="rgb(242,242,242)" stroke-width="26" stroke-linejoin="round" d="M 12399,2821 L 12399,14567"/>
 <path fill="none" stroke="rgb(242,242,242)" stroke-width="26" stroke-linejoin="round" d="M 12785,2821 L 12785,14567"/>
 <path fill="none" stroke="rgb(242,242,242)" stroke-width="26" stroke-linejoin="round" d="M 13556,2821 L 13556,14567"/>
 <path fill="none" stroke="rgb(242,242,242)" stroke-width="26" stroke-linejoin="round" d="M 13943,2821 L 13943,14567"/>
 <path fill="none" stroke="rgb(242,242,242)" stroke-width="26" stroke-linejoin="round" d="M 14328,2821 L 14328,14567"/>
 <path fill="none" stroke="rgb(242,242,242)" stroke-width="26" stroke-linejoin="round" d="M 14715,2821 L 14715,14567"/>
 <path fill="none" stroke="rgb(242,242,242)" stroke-width="26" stroke-linejoin="round" d="M 15486,2821 L 15486,14567"/>
 <path fill="none" stroke="rgb(242,242,242)" stroke-width="26" stroke-linejoin="round" d="M 15872,2821 L 15872,14567"/>
 <path fill="none" stroke="rgb(242,242,242)" stroke-width="26" stroke-linejoin="round" d="M 16258,2821 L 16258,14567"/>
 <path fill="none" stroke="rgb(242,242,242)" stroke-width="26" stroke-linejoin="round" d="M 16644,2821 L 16644,14567"/>
 <path fill="none" stroke="rgb(217,217,217)" stroke-width="26" stroke-linejoin="round" d="M 3374,14567 L 3524,14567"/>
 <path fill="none" stroke="rgb(217,217,217)" stroke-width="26" stroke-linejoin="round" d="M 3374,14132 L 3524,14132"/>
 <path fill="none" stroke="rgb(217,217,217)" stroke-width="26" stroke-linejoin="round" d="M 3374,13697 L 3524,13697"/>
 <path fill="none" stroke="rgb(217,217,217)" stroke-width="26" stroke-linejoin="round" d="M 3374,13262 L 3524,13262"/>
 <path fill="none" stroke="rgb(217,217,217)" stroke-width="26" stroke-linejoin="round" d="M 3374,12826 L 3524,12826"/>
 <path fill="none" stroke="rgb(217,217,217)" stroke-width="26" stroke-linejoin="round" d="M 3374,12391 L 3524,12391"/>
 <path fill="none" stroke="rgb(217,217,217)" stroke-width="26" stroke-linejoin="round" d="M 3374,11957 L 3524,11957"/>
 <path fill="none" stroke="rgb(217,217,217)" stroke-width="26" stroke-linejoin="round" d="M 3374,11522 L 3524,11522"/>
 <path fill="none" stroke="rgb(217,217,217)" stroke-width="26" stroke-linejoin="round" d="M 3374,11087 L 3524,11087"/>
 <path fill="none" stroke="rgb(217,217,217)" stroke-width="26" stroke-linejoin="round" d="M 3374,10651 L 3524,10651"/>
 <path fill="none" stroke="rgb(217,217,217)" stroke-width="26" stroke-linejoin="round" d="M 3374,10216 L 3524,10216"/>
 <path fill="none" stroke="rgb(217,217,217)" stroke-width="26" stroke-linejoin="round" d="M 3374,9782 L 3524,9782"/>
 <path fill="none" stroke="rgb(217,217,217)" stroke-width="26" stroke-linejoin="round" d="M 3374,9347 L 3524,9347"/>
 <path fill="none" stroke="rgb(217,217,217)" stroke-width="26" stroke-linejoin="round" d="M 3374,8911 L 3524,8911"/>
 <path fill="none" stroke="rgb(217,217,217)" stroke-width="26" stroke-linejoin="round" d="M 3374,8476 L 3524,8476"/>
 <path fill="none" stroke="rgb(217,217,217)" stroke-width="26" stroke-linejoin="round" d="M 3374,8041 L 3524,8041"/>
 <path fill="none" stroke="rgb(217,217,217)" stroke-width="26" stroke-linejoin="round" d="M 3374,7606 L 3524,7606"/>
 <path fill="none" stroke="rgb(217,217,217)" stroke-width="26" stroke-linejoin="round" d="M 3374,7171 L 3524,7171"/>
 <path fill="none" stroke="rgb(217,217,217)" stroke-width="26" stroke-linejoin="round" d="M 3374,6736 L 3524,6736"/>
 <path fill="none" stroke="rgb(217,217,217)" stroke-width="26" stroke-linejoin="round" d="M 3374,6301 L 3524,6301"/>
 <path fill="none" stroke="rgb(217,217,217)" stroke-width="26" stroke-linejoin="round" d="M 3374,5866 L 3524,5866"/>
 <path fill="none" stroke="rgb(217,217,217)" stroke-width="26" stroke-linejoin="round" d="M 3374,5430 L 3524,5430"/>
 <path fill="none" stroke="rgb(217,217,217)" stroke-width="26" stroke-linejoin="round" d="M 3374,4996 L 3524,4996"/>
 <path fill="none" stroke="rgb(217,217,217)" stroke-width="26" stroke-linejoin="round" d="M 3374,4561 L 3524,4561"/>
 <path fill="none" stroke="rgb(217,217,217)" stroke-width="26" stroke-linejoin="round" d="M 3374,4126 L 3524,4126"/>
 <path fill="none" stroke="rgb(217,217,217)" stroke-width="26" stroke-linejoin="round" d="M 3374,3691 L 3524,3691"/>
 <path fill="none" stroke="rgb(217,217,217)" stroke-width="26" stroke-linejoin="round" d="M 3374,3255 L 3524,3255"/>
 <path fill="none" stroke="rgb(217,217,217)" stroke-width="26" stroke-linejoin="round" d="M 3374,2821 L 3524,2821"/>
 <path fill="none" stroke="rgb(217,217,217)" stroke-width="26" stroke-linejoin="round" d="M 3524,14567 L 3524,2821"/>
 <path fill="rgb(99,99,99)" stroke="none" d="M 3524,3097 L 3524,2979 15516,2979 15516,3097 3524,3097 Z"/>
 <path fill="rgb(99,99,99)" stroke="none" d="M 3524,3532 L 3524,3414 13852,3414 13852,3532 3524,3532 Z"/>
 <path fill="rgb(179,179,179)" stroke="none" d="M 3524,3967 L 3524,3849 13171,3849 13171,3967 3524,3967 Z"/>
 <path fill="rgb(99,99,99)" stroke="none" d="M 3524,4402 L 3524,4284 5144,4284 5144,4402 3524,4402 Z"/>
 <path fill="rgb(99,99,99)" stroke="none" d="M 3524,4837 L 3524,4720 5915,4720 5915,4837 3524,4837 Z"/>
 <path fill="rgb(99,99,99)" stroke="none" d="M 3524,5273 L 3524,5154 8544,5154 8544,5273 3524,5273 Z"/>
 <path fill="rgb(99,99,99)" stroke="none" d="M 3524,5707 L 3524,5589 4528,5589 4528,5707 3524,5707 Z"/>
 <path fill="rgb(99,99,99)" stroke="none" d="M 3524,6142 L 3524,6024 5377,6024 5377,6142 3524,6142 Z"/>
 <path fill="rgb(99,99,99)" stroke="none" d="M 3524,6577 L 3524,6460 4465,6460 4465,6577 3524,6577 Z"/>
 <path fill="rgb(99,99,99)" stroke="none" d="M 3524,7013 L 3524,6895 5337,6895 5337,7013 3524,7013 Z"/>
 <path fill="rgb(99,99,99)" stroke="none" d="M 3524,7448 L 3524,7330 5101,7330 5101,7448 3524,7448 Z"/>
 <path fill="rgb(99,99,99)" stroke="none" d="M 3524,7882 L 3524,7764 4974,7764 4974,7882 3524,7882 Z"/>
 <path fill="rgb(99,99,99)" stroke="none" d="M 3524,8317 L 3524,8200 7766,8200 7766,8317 3524,8317 Z"/>
 <path fill="rgb(99,99,99)" stroke="none" d="M 3524,8753 L 3524,8635 6121,8635 6121,8753 3524,8753 Z"/>
 <path fill="rgb(99,99,99)" stroke="none" d="M 3524,9188 L 3524,9070 8830,9070 8830,9188 3524,9188 Z"/>
 <path fill="rgb(99,99,99)" stroke="none" d="M 3524,9623 L 3524,9505 6453,9505 6453,9623 3524,9623 Z"/>
 <path fill="rgb(99,99,99)" stroke="none" d="M 3524,10057 L 3524,9940 5156,9940 5156,10057 3524,10057 Z"/>
 <path fill="rgb(99,99,99)" stroke="none" d="M 3524,10493 L 3524,10375 5156,10375 5156,10493 3524,10493 Z"/>
 <path fill="rgb(99,99,99)" stroke="none" d="M 3524,10928 L 3524,10810 5168,10810 5168,10928 3524,10928 Z"/>
 <path fill="rgb(99,99,99)" stroke="none" d="M 3524,11363 L 3524,11245 6152,11245 6152,11363 3524,11363 Z"/>
 <path fill="rgb(99,99,99)" stroke="none" d="M 3524,11798 L 3524,11680 6049,11680 6049,11798 3524,11798 Z"/>
 <path fill="rgb(99,99,99)" stroke="none" d="M 3524,12233 L 3524,12115 4757,12115 4757,12233 3524,12233 Z"/>
 <path fill="rgb(99,99,99)" stroke="none" d="M 3524,12668 L 3524,12550 4478,12550 4478,12668 3524,12668 Z"/>
 <path fill="rgb(99,99,99)" stroke="none" d="M 3524,13103 L 3524,12985 4381,12985 4381,13103 3524,13103 Z"/>
 <path fill="rgb(99,99,99)" stroke="none" d="M 3524,13538 L 3524,13420 4078,13420 4078,13538 3524,13538 Z"/>
 <path fill="rgb(99,99,99)" stroke="none" d="M 3524,13973 L 3524,13856 3524,13856 3524,13973 Z"/>
 <path fill="rgb(99,99,99)" stroke="none" d="M 3524,14409 L 3524,14291 3524,14291 3524,14409 Z"/>
 <text class="TextShape"><tspan class="TextParagraph" font-family="Calibri, sans-serif" font-size="317px" font-weight="400"><tspan class="TextPosition" x="1081" y="14456"><tspan fill="rgb(89,89,89)" stroke="none">AWS Graviton</tspan></tspan></tspan></text>
 <text class="TextShape"><tspan class="TextParagraph" font-family="Calibri, sans-serif" font-size="317px" font-weight="400"><tspan class="TextPosition" x="1662" y="14021"><tspan fill="rgb(89,89,89)" stroke="none">Odroid N2</tspan></tspan></tspan></text>
 <text class="TextShape"><tspan class="TextParagraph" font-family="Calibri, sans-serif" font-size="317px" font-weight="400"><tspan class="TextPosition" x="1266" y="13586"><tspan fill="rgb(89,89,89)" stroke="none">Raspberry PI</tspan></tspan></tspan></text>
 <text class="TextShape"><tspan class="TextParagraph" font-family="Calibri, sans-serif" font-size="317px" font-weight="400"><tspan class="TextPosition" x="950" y="13150"><tspan fill="rgb(89,89,89)" stroke="none">Pentium M725</tspan></tspan></tspan></text>
 <text class="TextShape"><tspan class="TextParagraph" font-family="Calibri, sans-serif" font-size="317px" font-weight="400"><tspan class="TextPosition" x="1531" y="12715"><tspan fill="rgb(89,89,89)" stroke="none">Pentium III</tspan></tspan></tspan></text>
 <text class="TextShape"><tspan class="TextParagraph" font-family="Calibri, sans-serif" font-size="317px" font-weight="400"><tspan class="TextPosition" x="1662" y="12281"><tspan fill="rgb(89,89,89)" stroke="none">MBE1C-PC</tspan></tspan></tspan></text>
 <text class="TextShape"><tspan class="TextParagraph" font-family="Calibri, sans-serif" font-size="317px" font-weight="400"><tspan class="TextPosition" x="1637" y="11846"><tspan fill="rgb(89,89,89)" stroke="none">Pentium 4</tspan></tspan></tspan></text>
 <text class="TextShape"><tspan class="TextParagraph" font-family="Calibri, sans-serif" font-size="317px" font-weight="400"><tspan class="TextPosition" x="1847" y="11410"><tspan fill="rgb(89,89,89)" stroke="none">Baikal T1</tspan></tspan></tspan></text>
 <text class="TextShape"><tspan class="TextParagraph" font-family="Calibri, sans-serif" font-size="317px" font-weight="400"><tspan class="TextPosition" x="1028" y="10975"><tspan fill="rgb(89,89,89)" stroke="none">Orange Pi PC2</tspan></tspan></tspan></text>
 <text class="TextShape"><tspan class="TextParagraph" font-family="Calibri, sans-serif" font-size="317px" font-weight="400"><tspan class="TextPosition" x="950" y="10540"><tspan fill="rgb(89,89,89)" stroke="none">Raspberry PI 3</tspan></tspan></tspan></text>
 <text class="TextShape"><tspan class="TextParagraph" font-family="Calibri, sans-serif" font-size="317px" font-weight="400"><tspan class="TextPosition" x="1028" y="10105"><tspan fill="rgb(89,89,89)" stroke="none">Orange Pi Win</tspan></tspan></tspan></text>
 <text class="TextShape"><tspan class="TextParagraph" font-family="Calibri, sans-serif" font-size="317px" font-weight="400"><tspan class="TextPosition" x="1266" y="9670"><tspan fill="rgb(89,89,89)" stroke="none">Atom Z8350</tspan></tspan></tspan></text>
 <text class="TextShape"><tspan class="TextParagraph" font-family="Calibri, sans-serif" font-size="317px" font-weight="400"><tspan class="TextPosition" x="368" y="9235"><tspan fill="rgb(89,89,89)" stroke="none">Core 2 Duo T9400</tspan></tspan></tspan></text>
 <text class="TextShape"><tspan class="TextParagraph" font-family="Calibri, sans-serif" font-size="317px" font-weight="400"><tspan class="TextPosition" x="1688" y="8800"><tspan fill="rgb(89,89,89)" stroke="none">Odroid X2</tspan></tspan></tspan></text>
 <text class="TextShape"><tspan class="TextParagraph" font-family="Calibri, sans-serif" font-size="317px" font-weight="400"><tspan class="TextPosition" x="1107" y="8365"><tspan fill="rgb(89,89,89)" stroke="none">Core i3-m330</tspan></tspan></tspan></text>
 <text class="TextShape"><tspan class="TextParagraph" font-family="Calibri, sans-serif" font-size="317px" font-weight="400"><tspan class="TextPosition" x="1478" y="7930"><tspan fill="rgb(89,89,89)" stroke="none">E8C2-1200</tspan></tspan></tspan></text>
 <text class="TextShape"><tspan class="TextParagraph" font-family="Calibri, sans-serif" font-size="317px" font-weight="400"><tspan class="TextPosition" x="1610" y="7495"><tspan fill="rgb(89,89,89)" stroke="none">E8C-SWTX</tspan></tspan></tspan></text>
 <text class="TextShape"><tspan class="TextParagraph" font-family="Calibri, sans-serif" font-size="317px" font-weight="400"><tspan class="TextPosition" x="2428" y="7060"><tspan fill="rgb(89,89,89)" stroke="none">E8C2</tspan></tspan></tspan></text>
 <text class="TextShape"><tspan class="TextParagraph" font-family="Calibri, sans-serif" font-size="317px" font-weight="400"><tspan class="TextPosition" x="1504" y="6625"><tspan fill="rgb(89,89,89)" stroke="none">E2S-EL2S4</tspan></tspan></tspan></text>
 <text class="TextShape"><tspan class="TextParagraph" font-family="Calibri, sans-serif" font-size="317px" font-weight="400"><tspan class="TextPosition" x="1478" y="6190"><tspan fill="rgb(89,89,89)" stroke="none">E8C2-1550</tspan></tspan></tspan></text>
 <text class="TextShape"><tspan class="TextParagraph" font-family="Calibri, sans-serif" font-size="317px" font-weight="400"><tspan class="TextPosition" x="1504" y="5754"><tspan fill="rgb(89,89,89)" stroke="none">E2S-PC401</tspan></tspan></tspan></text>
 <text class="TextShape"><tspan class="TextParagraph" font-family="Calibri, sans-serif" font-size="317px" font-weight="400"><tspan class="TextPosition" x="1081" y="5319"><tspan fill="rgb(89,89,89)" stroke="none">AMD A6-3650</tspan></tspan></tspan></text>
 <text class="TextShape"><tspan class="TextParagraph" font-family="Calibri, sans-serif" font-size="317px" font-weight="400"><tspan class="TextPosition" x="923" y="4885"><tspan fill="rgb(89,89,89)" stroke="none">E16C-APPROX*</tspan></tspan></tspan></text>
 <text class="TextShape"><tspan class="TextParagraph" font-family="Calibri, sans-serif" font-size="317px" font-weight="400"><tspan class="TextPosition" x="1688" y="4450"><tspan fill="rgb(89,89,89)" stroke="none">E8C-E8C4</tspan></tspan></tspan></text>
 <text class="TextShape"><tspan class="TextParagraph" font-family="Calibri, sans-serif" font-size="317px" font-weight="400"><tspan class="TextPosition" x="1213" y="4014"><tspan fill="rgb(89,89,89)" stroke="none">Core i7-2600</tspan></tspan></tspan></text>
 <text class="TextShape"><tspan class="TextParagraph" font-family="Calibri, sans-serif" font-size="317px" font-weight="400"><tspan class="TextPosition" x="712" y="3579"><tspan fill="rgb(89,89,89)" stroke="none">Core i7-4700MQ</tspan></tspan></tspan></text>
 <text class="TextShape"><tspan class="TextParagraph" font-family="Calibri, sans-serif" font-size="317px" font-weight="400"><tspan class="TextPosition" x="1531" y="3144"><tspan fill="rgb(89,89,89)" stroke="none">Xeon 6128</tspan></tspan></tspan></text>
 <text class="TextShape"><tspan class="TextParagraph" font-family="Calibri, sans-serif" font-size="317px" font-weight="400"><tspan class="TextPosition" x="3154" y="14958"><tspan fill="rgb(89,89,89)" stroke="none">0,00</tspan></tspan></tspan></text>
 <text class="TextShape"><tspan class="TextParagraph" font-family="Calibri, sans-serif" font-size="317px" font-weight="400"><tspan class="TextPosition" x="5083" y="14958"><tspan fill="rgb(89,89,89)" stroke="none">0,20</tspan></tspan></tspan></text>
 <text class="TextShape"><tspan class="TextParagraph" font-family="Calibri, sans-serif" font-size="317px" font-weight="400"><tspan class="TextPosition" x="7012" y="14958"><tspan fill="rgb(89,89,89)" stroke="none">0,40</tspan></tspan></tspan></text>
 <text class="TextShape"><tspan class="TextParagraph" font-family="Calibri, sans-serif" font-size="317px" font-weight="400"><tspan class="TextPosition" x="8942" y="14958"><tspan fill="rgb(89,89,89)" stroke="none">0,60</tspan></tspan></tspan></text>
 <text class="TextShape"><tspan class="TextParagraph" font-family="Calibri, sans-serif" font-size="317px" font-weight="400"><tspan class="TextPosition" x="10871" y="14958"><tspan fill="rgb(89,89,89)" stroke="none">0,80</tspan></tspan></tspan></text>
 <text class="TextShape"><tspan class="TextParagraph" font-family="Calibri, sans-serif" font-size="317px" font-weight="400"><tspan class="TextPosition" x="12801" y="14958"><tspan fill="rgb(89,89,89)" stroke="none">1,00</tspan></tspan></tspan></text>
 <text class="TextShape"><tspan class="TextParagraph" font-family="Calibri, sans-serif" font-size="317px" font-weight="400"><tspan class="TextPosition" x="14730" y="14958"><tspan fill="rgb(89,89,89)" stroke="none">1,20</tspan></tspan></tspan></text>
 <text class="TextShape"><tspan class="TextParagraph" font-family="Calibri, sans-serif" font-size="317px" font-weight="400"><tspan class="TextPosition" x="16660" y="14958"><tspan fill="rgb(89,89,89)" stroke="none">1,40</tspan></tspan></tspan></text>
 <text class="TextShape"><tspan class="TextParagraph" font-family="Calibri, sans-serif" font-size="317px" font-weight="400"><tspan class="TextPosition" x="3623" y="14456"><tspan fill="rgb(64,64,64)" stroke="none">0,00</tspan></tspan></tspan></text>
 <text class="TextShape"><tspan class="TextParagraph" font-family="Calibri, sans-serif" font-size="317px" font-weight="400"><tspan class="TextPosition" x="3623" y="14021"><tspan fill="rgb(64,64,64)" stroke="none">0,00</tspan></tspan></tspan></text>
 <text class="TextShape"><tspan class="TextParagraph" font-family="Calibri, sans-serif" font-size="317px" font-weight="400"><tspan class="TextPosition" x="4178" y="13586"><tspan fill="rgb(64,64,64)" stroke="none">0,06</tspan></tspan></tspan></text>
 <text class="TextShape"><tspan class="TextParagraph" font-family="Calibri, sans-serif" font-size="317px" font-weight="400"><tspan class="TextPosition" x="4481" y="13150"><tspan fill="rgb(64,64,64)" stroke="none">0,09</tspan></tspan></tspan></text>
 <text class="TextShape"><tspan class="TextParagraph" font-family="Calibri, sans-serif" font-size="317px" font-weight="400"><tspan class="TextPosition" x="4578" y="12715"><tspan fill="rgb(64,64,64)" stroke="none">0,10</tspan></tspan></tspan></text>
 <text class="TextShape"><tspan class="TextParagraph" font-family="Calibri, sans-serif" font-size="317px" font-weight="400"><tspan class="TextPosition" x="4857" y="12281"><tspan fill="rgb(64,64,64)" stroke="none">0,13</tspan></tspan></tspan></text>
 <text class="TextShape"><tspan class="TextParagraph" font-family="Calibri, sans-serif" font-size="317px" font-weight="400"><tspan class="TextPosition" x="6149" y="11846"><tspan fill="rgb(64,64,64)" stroke="none">0,26</tspan></tspan></tspan></text>
 <text class="TextShape"><tspan class="TextParagraph" font-family="Calibri, sans-serif" font-size="317px" font-weight="400"><tspan class="TextPosition" x="6252" y="11410"><tspan fill="rgb(64,64,64)" stroke="none">0,27</tspan></tspan></tspan></text>
 <text class="TextShape"><tspan class="TextParagraph" font-family="Calibri, sans-serif" font-size="317px" font-weight="400"><tspan class="TextPosition" x="5268" y="10975"><tspan fill="rgb(64,64,64)" stroke="none">0,17</tspan></tspan></tspan></text>
 <text class="TextShape"><tspan class="TextParagraph" font-family="Calibri, sans-serif" font-size="317px" font-weight="400"><tspan class="TextPosition" x="5256" y="10540"><tspan fill="rgb(64,64,64)" stroke="none">0,17</tspan></tspan></tspan></text>
 <text class="TextShape"><tspan class="TextParagraph" font-family="Calibri, sans-serif" font-size="317px" font-weight="400"><tspan class="TextPosition" x="5256" y="10105"><tspan fill="rgb(64,64,64)" stroke="none">0,17</tspan></tspan></tspan></text>
 <text class="TextShape"><tspan class="TextParagraph" font-family="Calibri, sans-serif" font-size="317px" font-weight="400"><tspan class="TextPosition" x="6553" y="9670"><tspan fill="rgb(64,64,64)" stroke="none">0,30</tspan></tspan></tspan></text>
 <text class="TextShape"><tspan class="TextParagraph" font-family="Calibri, sans-serif" font-size="317px" font-weight="400"><tspan class="TextPosition" x="8929" y="9235"><tspan fill="rgb(64,64,64)" stroke="none">0,55</tspan></tspan></tspan></text>
 <text class="TextShape"><tspan class="TextParagraph" font-family="Calibri, sans-serif" font-size="317px" font-weight="400"><tspan class="TextPosition" x="6221" y="8800"><tspan fill="rgb(64,64,64)" stroke="none">0,27</tspan></tspan></tspan></text>
 <text class="TextShape"><tspan class="TextParagraph" font-family="Calibri, sans-serif" font-size="317px" font-weight="400"><tspan class="TextPosition" x="7866" y="8365"><tspan fill="rgb(64,64,64)" stroke="none">0,44</tspan></tspan></tspan></text>
 <text class="TextShape"><tspan class="TextParagraph" font-family="Calibri, sans-serif" font-size="317px" font-weight="400"><tspan class="TextPosition" x="5074" y="7930"><tspan fill="rgb(64,64,64)" stroke="none">0,15</tspan></tspan></tspan></text>
 <text class="TextShape"><tspan class="TextParagraph" font-family="Calibri, sans-serif" font-size="317px" font-weight="400"><tspan class="TextPosition" x="5201" y="7495"><tspan fill="rgb(64,64,64)" stroke="none">0,16</tspan></tspan></tspan></text>
 <text class="TextShape"><tspan class="TextParagraph" font-family="Calibri, sans-serif" font-size="317px" font-weight="400"><tspan class="TextPosition" x="5437" y="7060"><tspan fill="rgb(64,64,64)" stroke="none">0,19</tspan></tspan></tspan></text>
 <text class="TextShape"><tspan class="TextParagraph" font-family="Calibri, sans-serif" font-size="317px" font-weight="400"><tspan class="TextPosition" x="4565" y="6625"><tspan fill="rgb(64,64,64)" stroke="none">0,10</tspan></tspan></tspan></text>
 <text class="TextShape"><tspan class="TextParagraph" font-family="Calibri, sans-serif" font-size="317px" font-weight="400"><tspan class="TextPosition" x="5477" y="6190"><tspan fill="rgb(64,64,64)" stroke="none">0,19</tspan></tspan></tspan></text>
 <text class="TextShape"><tspan class="TextParagraph" font-family="Calibri, sans-serif" font-size="317px" font-weight="400"><tspan class="TextPosition" x="4628" y="5754"><tspan fill="rgb(64,64,64)" stroke="none">0,10</tspan></tspan></tspan></text>
 <text class="TextShape"><tspan class="TextParagraph" font-family="Calibri, sans-serif" font-size="317px" font-weight="400"><tspan class="TextPosition" x="8644" y="5319"><tspan fill="rgb(64,64,64)" stroke="none">0,52</tspan></tspan></tspan></text>
 <text class="TextShape"><tspan class="TextParagraph" font-family="Calibri, sans-serif" font-size="317px" font-weight="400"><tspan class="TextPosition" x="6015" y="4885"><tspan fill="rgb(64,64,64)" stroke="none">0,25</tspan></tspan></tspan></text>
 <text class="TextShape"><tspan class="TextParagraph" font-family="Calibri, sans-serif" font-size="317px" font-weight="400"><tspan class="TextPosition" x="5244" y="4450"><tspan fill="rgb(64,64,64)" stroke="none">0,17</tspan></tspan></tspan></text>
 <text class="TextShape"><tspan class="TextParagraph" font-family="Calibri, sans-serif" font-size="317px" font-weight="400"><tspan class="TextPosition" x="13271" y="4014"><tspan fill="rgb(64,64,64)" stroke="none">1,00</tspan></tspan></tspan></text>
 <text class="TextShape"><tspan class="TextParagraph" font-family="Calibri, sans-serif" font-size="317px" font-weight="400"><tspan class="TextPosition" x="13952" y="3579"><tspan fill="rgb(64,64,64)" stroke="none">1,07</tspan></tspan></tspan></text>
 <text class="TextShape"><tspan class="TextParagraph" font-family="Calibri, sans-serif" font-size="317px" font-weight="400"><tspan class="TextPosition" x="15616" y="3144"><tspan fill="rgb(64,64,64)" stroke="none">1,24</tspan></tspan></tspan></text>
 <text class="TextShape"><tspan class="TextParagraph" font-family="Calibri Light" font-size="705px" font-weight="400"><tspan class="TextPosition" x="246" y="1326"><tspan fill="rgb(89,89,89)" stroke="none">Coremark (single-threaded, Relative to Core i7-</tspan></tspan><tspan class="TextPosition" x="246" y="2145"><tspan fill="rgb(89,89,89)" stroke="none">2600)</tspan></tspan></tspan></text>
</svg>