<?xml version="1.0" encoding="UTF-8"?>
<!DOCTYPE svg PUBLIC "-//W3C//DTD SVG 1.1//EN" "http://www.w3.org/Graphics/SVG/1.1/DTD/svg11.dtd">
<svg width="178mm" height="154mm" viewBox="0 0 17800 15400" version="1.1" xmlns="http://www.w3.org/2000/svg" xmlns:xlink="http://www.w3.org/1999/xlink" stroke-width="28.222" stroke-linejoin="round" xml:space="preserve">
 <path fill="rgb(255,255,255)" stroke="none" d="M 8882,15343 L 13,15343 13,13 17751,13 17751,15343 8882,15343 Z"/>
 <path fill="none" stroke="rgb(217,217,217)" stroke-width="26" stroke-linejoin="round" d="M 8882,15343 L 13,15343 13,13 17751,13 17751,15343 8882,15343 Z"/>
 <path fill="none" stroke="rgb(217,217,217)" stroke-width="26" stroke-linejoin="round" d="M 2922,1881 L 2922,14618"/>
 <path fill="none" stroke="rgb(217,217,217)" stroke-width="26" stroke-linejoin="round" d="M 4946,1881 L 4946,14618"/>
 <path fill="none" stroke="rgb(217,217,217)" stroke-width="26" stroke-linejoin="round" d="M 6971,1881 L 6971,14618"/>
 <path fill="none" stroke="rgb(217,217,217)" stroke-width="26" stroke-linejoin="round" d="M 8997,1881 L 8997,14618"/>
 <path fill="none" stroke="rgb(217,217,217)" stroke-width="26" stroke-linejoin="round" d="M 11022,1881 L 11022,14618"/>
 <path fill="none" stroke="rgb(217,217,217)" stroke-width="26" stroke-linejoin="round" d="M 13048,1881 L 13048,14618"/>
 <path fill="none" stroke="rgb(217,217,217)" stroke-width="26" stroke-linejoin="round" d="M 15073,1881 L 15073,14618"/>
 <path fill="none" stroke="rgb(217,217,217)" stroke-width="26" stroke-linejoin="round" d="M 17099,1881 L 17099,14618"/>
 <path fill="none" stroke="rgb(242,242,242)" stroke-width="26" stroke-linejoin="round" d="M 3326,1881 L 3326,14618"/>
 <path fill="none" stroke="rgb(242,242,242)" stroke-width="26" stroke-linejoin="round" d="M 3731,1881 L 3731,14618"/>
 <path fill="none" stroke="rgb(242,242,242)" stroke-width="26" stroke-linejoin="round" d="M 4137,1881 L 4137,14618"/>
 <path fill="none" stroke="rgb(242,242,242)" stroke-width="26" stroke-linejoin="round" d="M 4541,1881 L 4541,14618"/>
 <path fill="none" stroke="rgb(242,242,242)" stroke-width="26" stroke-linejoin="round" d="M 5352,1881 L 5352,14618"/>
 <path fill="none" stroke="rgb(242,242,242)" stroke-width="26" stroke-linejoin="round" d="M 5756,1881 L 5756,14618"/>
 <path fill="none" stroke="rgb(242,242,242)" stroke-width="26" stroke-linejoin="round" d="M 6162,1881 L 6162,14618"/>
 <path fill="none" stroke="rgb(242,242,242)" stroke-width="26" stroke-linejoin="round" d="M 6567,1881 L 6567,14618"/>
 <path fill="none" stroke="rgb(242,242,242)" stroke-width="26" stroke-linejoin="round" d="M 7377,1881 L 7377,14618"/>
 <path fill="none" stroke="rgb(242,242,242)" stroke-width="26" stroke-linejoin="round" d="M 7782,1881 L 7782,14618"/>
 <path fill="none" stroke="rgb(242,242,242)" stroke-width="26" stroke-linejoin="round" d="M 8187,1881 L 8187,14618"/>
 <path fill="none" stroke="rgb(242,242,242)" stroke-width="26" stroke-linejoin="round" d="M 8592,1881 L 8592,14618"/>
 <path fill="none" stroke="rgb(242,242,242)" stroke-width="26" stroke-linejoin="round" d="M 9402,1881 L 9402,14618"/>
 <path fill="none" stroke="rgb(242,242,242)" stroke-width="26" stroke-linejoin="round" d="M 9807,1881 L 9807,14618"/>
 <path fill="none" stroke="rgb(242,242,242)" stroke-width="26" stroke-linejoin="round" d="M 10212,1881 L 10212,14618"/>
 <path fill="none" stroke="rgb(242,242,242)" stroke-width="26" stroke-linejoin="round" d="M 10618,1881 L 10618,14618"/>
 <path fill="none" stroke="rgb(242,242,242)" stroke-width="26" stroke-linejoin="round" d="M 11428,1881 L 11428,14618"/>
 <path fill="none" stroke="rgb(242,242,242)" stroke-width="26" stroke-linejoin="round" d="M 11833,1881 L 11833,14618"/>
 <path fill="none" stroke="rgb(242,242,242)" stroke-width="26" stroke-linejoin="round" d="M 12237,1881 L 12237,14618"/>
 <path fill="none" stroke="rgb(242,242,242)" stroke-width="26" stroke-linejoin="round" d="M 12643,1881 L 12643,14618"/>
 <path fill="none" stroke="rgb(242,242,242)" stroke-width="26" stroke-linejoin="round" d="M 13453,1881 L 13453,14618"/>
 <path fill="none" stroke="rgb(242,242,242)" stroke-width="26" stroke-linejoin="round" d="M 13858,1881 L 13858,14618"/>
 <path fill="none" stroke="rgb(242,242,242)" stroke-width="26" stroke-linejoin="round" d="M 14263,1881 L 14263,14618"/>
 <path fill="none" stroke="rgb(242,242,242)" stroke-width="26" stroke-linejoin="round" d="M 14668,1881 L 14668,14618"/>
 <path fill="none" stroke="rgb(242,242,242)" stroke-width="26" stroke-linejoin="round" d="M 15478,1881 L 15478,14618"/>
 <path fill="none" stroke="rgb(242,242,242)" stroke-width="26" stroke-linejoin="round" d="M 15883,1881 L 15883,14618"/>
 <path fill="none" stroke="rgb(242,242,242)" stroke-width="26" stroke-linejoin="round" d="M 16288,1881 L 16288,14618"/>
 <path fill="none" stroke="rgb(242,242,242)" stroke-width="26" stroke-linejoin="round" d="M 16694,1881 L 16694,14618"/>
 <path fill="none" stroke="rgb(217,217,217)" stroke-width="26" stroke-linejoin="round" d="M 2772,14618 L 2922,14618"/>
 <path fill="none" stroke="rgb(217,217,217)" stroke-width="26" stroke-linejoin="round" d="M 2772,14146 L 2922,14146"/>
 <path fill="none" stroke="rgb(217,217,217)" stroke-width="26" stroke-linejoin="round" d="M 2772,13674 L 2922,13674"/>
 <path fill="none" stroke="rgb(217,217,217)" stroke-width="26" stroke-linejoin="round" d="M 2772,13203 L 2922,13203"/>
 <path fill="none" stroke="rgb(217,217,217)" stroke-width="26" stroke-linejoin="round" d="M 2772,12731 L 2922,12731"/>
 <path fill="none" stroke="rgb(217,217,217)" stroke-width="26" stroke-linejoin="round" d="M 2772,12259 L 2922,12259"/>
 <path fill="none" stroke="rgb(217,217,217)" stroke-width="26" stroke-linejoin="round" d="M 2772,11787 L 2922,11787"/>
 <path fill="none" stroke="rgb(217,217,217)" stroke-width="26" stroke-linejoin="round" d="M 2772,11316 L 2922,11316"/>
 <path fill="none" stroke="rgb(217,217,217)" stroke-width="26" stroke-linejoin="round" d="M 2772,10844 L 2922,10844"/>
 <path fill="none" stroke="rgb(217,217,217)" stroke-width="26" stroke-linejoin="round" d="M 2772,10373 L 2922,10373"/>
 <path fill="none" stroke="rgb(217,217,217)" stroke-width="26" stroke-linejoin="round" d="M 2772,9901 L 2922,9901"/>
 <path fill="none" stroke="rgb(217,217,217)" stroke-width="26" stroke-linejoin="round" d="M 2772,9428 L 2922,9428"/>
 <path fill="none" stroke="rgb(217,217,217)" stroke-width="26" stroke-linejoin="round" d="M 2772,8957 L 2922,8957"/>
 <path fill="none" stroke="rgb(217,217,217)" stroke-width="26" stroke-linejoin="round" d="M 2772,8485 L 2922,8485"/>
 <path fill="none" stroke="rgb(217,217,217)" stroke-width="26" stroke-linejoin="round" d="M 2772,8014 L 2922,8014"/>
 <path fill="none" stroke="rgb(217,217,217)" stroke-width="26" stroke-linejoin="round" d="M 2772,7542 L 2922,7542"/>
 <path fill="none" stroke="rgb(217,217,217)" stroke-width="26" stroke-linejoin="round" d="M 2772,7071 L 2922,7071"/>
 <path fill="none" stroke="rgb(217,217,217)" stroke-width="26" stroke-linejoin="round" d="M 2772,6598 L 2922,6598"/>
 <path fill="none" stroke="rgb(217,217,217)" stroke-width="26" stroke-linejoin="round" d="M 2772,6127 L 2922,6127"/>
 <path fill="none" stroke="rgb(217,217,217)" stroke-width="26" stroke-linejoin="round" d="M 2772,5655 L 2922,5655"/>
 <path fill="none" stroke="rgb(217,217,217)" stroke-width="26" stroke-linejoin="round" d="M 2772,5183 L 2922,5183"/>
 <path fill="none" stroke="rgb(217,217,217)" stroke-width="26" stroke-linejoin="round" d="M 2772,4712 L 2922,4712"/>
 <path fill="none" stroke="rgb(217,217,217)" stroke-width="26" stroke-linejoin="round" d="M 2772,4240 L 2922,4240"/>
 <path fill="none" stroke="rgb(217,217,217)" stroke-width="26" stroke-linejoin="round" d="M 2772,3768 L 2922,3768"/>
 <path fill="none" stroke="rgb(217,217,217)" stroke-width="26" stroke-linejoin="round" d="M 2772,3296 L 2922,3296"/>
 <path fill="none" stroke="rgb(217,217,217)" stroke-width="26" stroke-linejoin="round" d="M 2772,2825 L 2922,2825"/>
 <path fill="none" stroke="rgb(217,217,217)" stroke-width="26" stroke-linejoin="round" d="M 2772,2353 L 2922,2353"/>
 <path fill="none" stroke="rgb(217,217,217)" stroke-width="26" stroke-linejoin="round" d="M 2772,1881 L 2922,1881"/>
 <path fill="none" stroke="rgb(217,217,217)" stroke-width="26" stroke-linejoin="round" d="M 2922,14618 L 2922,1881"/>
 <path fill="rgb(99,99,99)" stroke="none" d="M 2922,2181 L 2922,2053 15510,2053 15510,2181 2922,2181 Z"/>
 <path fill="rgb(99,99,99)" stroke="none" d="M 2922,2652 L 2922,2525 13763,2525 13763,2652 2922,2652 Z"/>
 <path fill="rgb(179,179,179)" stroke="none" d="M 2922,3125 L 2922,2997 13048,2997 13048,3125 2922,3125 Z"/>
 <path fill="rgb(99,99,99)" stroke="none" d="M 2922,3596 L 2922,3468 8491,3468 8491,3596 2922,3596 Z"/>
 <path fill="rgb(99,99,99)" stroke="none" d="M 2922,4068 L 2922,3940 8192,3940 8192,4068 2922,4068 Z"/>
 <path fill="rgb(99,99,99)" stroke="none" d="M 2922,4540 L 2922,4412 7375,4412 7375,4540 2922,4540 Z"/>
 <path fill="rgb(99,99,99)" stroke="none" d="M 2922,5011 L 2922,4883 5997,4883 5997,5011 2922,5011 Z"/>
 <path fill="rgb(99,99,99)" stroke="none" d="M 2922,5483 L 2922,5356 5679,5356 5679,5483 2922,5483 Z"/>
 <path fill="rgb(99,99,99)" stroke="none" d="M 2922,5955 L 2922,5827 5647,5827 5647,5955 2922,5955 Z"/>
 <path fill="rgb(99,99,99)" stroke="none" d="M 2922,6427 L 2922,6299 5573,6299 5573,6427 2922,6427 Z"/>
 <path fill="rgb(99,99,99)" stroke="none" d="M 2922,6898 L 2922,6770 5432,6770 5432,6898 2922,6898 Z"/>
 <path fill="rgb(99,99,99)" stroke="none" d="M 2922,7370 L 2922,7242 4867,7242 4867,7370 2922,7370 Z"/>
 <path fill="rgb(99,99,99)" stroke="none" d="M 2922,7841 L 2922,7713 4825,7713 4825,7841 2922,7841 Z"/>
 <path fill="rgb(99,99,99)" stroke="none" d="M 2922,8313 L 2922,8186 4648,8186 4648,8313 2922,8313 Z"/>
 <path fill="rgb(99,99,99)" stroke="none" d="M 2922,8786 L 2922,8658 4635,8658 4635,8786 2922,8786 Z"/>
 <path fill="rgb(99,99,99)" stroke="none" d="M 2922,9257 L 2922,9129 4635,9129 4635,9257 2922,9257 Z"/>
 <path fill="rgb(99,99,99)" stroke="none" d="M 2922,9729 L 2922,9601 4623,9601 4623,9729 2922,9729 Z"/>
 <path fill="rgb(99,99,99)" stroke="none" d="M 2922,10200 L 2922,10072 4577,10072 4577,10200 2922,10200 Z"/>
 <path fill="rgb(99,99,99)" stroke="none" d="M 2922,10672 L 2922,10544 4444,10544 4444,10672 2922,10672 Z"/>
 <path fill="rgb(99,99,99)" stroke="none" d="M 2922,11143 L 2922,11016 4216,11016 4216,11143 2922,11143 Z"/>
 <path fill="rgb(99,99,99)" stroke="none" d="M 2922,11616 L 2922,11488 3976,11488 3976,11616 2922,11616 Z"/>
 <path fill="rgb(99,99,99)" stroke="none" d="M 2922,12087 L 2922,11959 3924,11959 3924,12087 2922,12087 Z"/>
 <path fill="rgb(99,99,99)" stroke="none" d="M 2922,12559 L 2922,12431 3910,12431 3910,12559 2922,12559 Z"/>
 <path fill="rgb(99,99,99)" stroke="none" d="M 2922,13031 L 2922,12903 3822,12903 3822,13031 2922,13031 Z"/>
 <path fill="rgb(99,99,99)" stroke="none" d="M 2922,13502 L 2922,13374 3503,13374 3503,13502 2922,13502 Z"/>
 <path fill="rgb(99,99,99)" stroke="none" d="M 2922,13974 L 2922,13847 2922,13847 2922,13974 Z"/>
 <path fill="rgb(99,99,99)" stroke="none" d="M 2922,14446 L 2922,14318 2922,14318 2922,14446 Z"/>
 <text class="TextShape"><tspan class="TextParagraph" font-family="Calibri, sans-serif" font-size="317px" font-weight="400"><tspan class="TextPosition" x="897" y="14456"><tspan fill="rgb(89,89,89)" stroke="none">AWS Graviton</tspan></tspan></tspan></text>
 <text class="TextShape"><tspan class="TextParagraph" font-family="Calibri, sans-serif" font-size="317px" font-weight="400"><tspan class="TextPosition" x="1340" y="13985"><tspan fill="rgb(89,89,89)" stroke="none">Odroid N2</tspan></tspan></tspan></text>
 <text class="TextShape"><tspan class="TextParagraph" font-family="Calibri, sans-serif" font-size="317px" font-weight="400"><tspan class="TextPosition" x="1065" y="13513"><tspan fill="rgb(89,89,89)" stroke="none">Raspberry PI</tspan></tspan></tspan></text>
 <text class="TextShape"><tspan class="TextParagraph" font-family="Calibri, sans-serif" font-size="317px" font-weight="400"><tspan class="TextPosition" x="749" y="13042"><tspan fill="rgb(89,89,89)" stroke="none">Pentium M725</tspan></tspan></tspan></text>
 <text class="TextShape"><tspan class="TextParagraph" font-family="Calibri, sans-serif" font-size="317px" font-weight="400"><tspan class="TextPosition" x="1340" y="12569"><tspan fill="rgb(89,89,89)" stroke="none">E2S-EL2S4</tspan></tspan></tspan></text>
 <text class="TextShape"><tspan class="TextParagraph" font-family="Calibri, sans-serif" font-size="317px" font-weight="400"><tspan class="TextPosition" x="1277" y="12097"><tspan fill="rgb(89,89,89)" stroke="none">Pentium III</tspan></tspan></tspan></text>
 <text class="TextShape"><tspan class="TextParagraph" font-family="Calibri, sans-serif" font-size="317px" font-weight="400"><tspan class="TextPosition" x="1256" y="11626"><tspan fill="rgb(89,89,89)" stroke="none">E2S-PC401</tspan></tspan></tspan></text>
 <text class="TextShape"><tspan class="TextParagraph" font-family="Calibri, sans-serif" font-size="317px" font-weight="400"><tspan class="TextPosition" x="1298" y="11154"><tspan fill="rgb(89,89,89)" stroke="none">MBE1C-PC</tspan></tspan></tspan></text>
 <text class="TextShape"><tspan class="TextParagraph" font-family="Calibri, sans-serif" font-size="317px" font-weight="400"><tspan class="TextPosition" x="1235" y="10683"><tspan fill="rgb(89,89,89)" stroke="none">E8C2-1200</tspan></tspan></tspan></text>
 <text class="TextShape"><tspan class="TextParagraph" font-family="Calibri, sans-serif" font-size="317px" font-weight="400"><tspan class="TextPosition" x="1340" y="10211"><tspan fill="rgb(89,89,89)" stroke="none">E8C-SWTX</tspan></tspan></tspan></text>
 <text class="TextShape"><tspan class="TextParagraph" font-family="Calibri, sans-serif" font-size="317px" font-weight="400"><tspan class="TextPosition" x="1425" y="9739"><tspan fill="rgb(89,89,89)" stroke="none">E8C-E8C4</tspan></tspan></tspan></text>
 <text class="TextShape"><tspan class="TextParagraph" font-family="Calibri, sans-serif" font-size="317px" font-weight="400"><tspan class="TextPosition" x="876" y="9267"><tspan fill="rgb(89,89,89)" stroke="none">Orange Pi Win</tspan></tspan></tspan></text>
 <text class="TextShape"><tspan class="TextParagraph" font-family="Calibri, sans-serif" font-size="317px" font-weight="400"><tspan class="TextPosition" x="833" y="8796"><tspan fill="rgb(89,89,89)" stroke="none">Raspberry PI 3</tspan></tspan></tspan></text>
 <text class="TextShape"><tspan class="TextParagraph" font-family="Calibri, sans-serif" font-size="317px" font-weight="400"><tspan class="TextPosition" x="876" y="8324"><tspan fill="rgb(89,89,89)" stroke="none">Orange Pi PC2</tspan></tspan></tspan></text>
 <text class="TextShape"><tspan class="TextParagraph" font-family="Calibri, sans-serif" font-size="317px" font-weight="400"><tspan class="TextPosition" x="2017" y="7852"><tspan fill="rgb(89,89,89)" stroke="none">E8C2</tspan></tspan></tspan></text>
 <text class="TextShape"><tspan class="TextParagraph" font-family="Calibri, sans-serif" font-size="317px" font-weight="400"><tspan class="TextPosition" x="1235" y="7381"><tspan fill="rgb(89,89,89)" stroke="none">E8C2-1550</tspan></tspan></tspan></text>
 <text class="TextShape"><tspan class="TextParagraph" font-family="Calibri, sans-serif" font-size="317px" font-weight="400"><tspan class="TextPosition" x="685" y="6908"><tspan fill="rgb(89,89,89)" stroke="none">E16C-APPROX*</tspan></tspan></tspan></text>
 <text class="TextShape"><tspan class="TextParagraph" font-family="Calibri, sans-serif" font-size="317px" font-weight="400"><tspan class="TextPosition" x="1362" y="6437"><tspan fill="rgb(89,89,89)" stroke="none">Pentium 4</tspan></tspan></tspan></text>
 <text class="TextShape"><tspan class="TextParagraph" font-family="Calibri, sans-serif" font-size="317px" font-weight="400"><tspan class="TextPosition" x="1383" y="5965"><tspan fill="rgb(89,89,89)" stroke="none">Odroid X2</tspan></tspan></tspan></text>
 <text class="TextShape"><tspan class="TextParagraph" font-family="Calibri, sans-serif" font-size="317px" font-weight="400"><tspan class="TextPosition" x="1552" y="5494"><tspan fill="rgb(89,89,89)" stroke="none">Baikal T1</tspan></tspan></tspan></text>
 <text class="TextShape"><tspan class="TextParagraph" font-family="Calibri, sans-serif" font-size="317px" font-weight="400"><tspan class="TextPosition" x="1065" y="5022"><tspan fill="rgb(89,89,89)" stroke="none">Atom Z8350</tspan></tspan></tspan></text>
 <text class="TextShape"><tspan class="TextParagraph" font-family="Calibri, sans-serif" font-size="317px" font-weight="400"><tspan class="TextPosition" x="918" y="4550"><tspan fill="rgb(89,89,89)" stroke="none">Core i3-m330</tspan></tspan></tspan></text>
 <text class="TextShape"><tspan class="TextParagraph" font-family="Calibri, sans-serif" font-size="317px" font-weight="400"><tspan class="TextPosition" x="812" y="4078"><tspan fill="rgb(89,89,89)" stroke="none">AMD A6-3650</tspan></tspan></tspan></text>
 <text class="TextShape"><tspan class="TextParagraph" font-family="Calibri, sans-serif" font-size="317px" font-weight="400"><tspan class="TextPosition" x="368" y="3606"><tspan fill="rgb(89,89,89)" stroke="none">Core 2 Duo T9400</tspan></tspan></tspan></text>
 <text class="TextShape"><tspan class="TextParagraph" font-family="Calibri, sans-serif" font-size="317px" font-weight="400"><tspan class="TextPosition" x="1002" y="3135"><tspan fill="rgb(89,89,89)" stroke="none">Core i7-2600</tspan></tspan></tspan></text>
 <text class="TextShape"><tspan class="TextParagraph" font-family="Calibri, sans-serif" font-size="317px" font-weight="400"><tspan class="TextPosition" x="516" y="2663"><tspan fill="rgb(89,89,89)" stroke="none">Core i7-4700MQ</tspan></tspan></tspan></text>
 <text class="TextShape"><tspan class="TextParagraph" font-family="Calibri, sans-serif" font-size="317px" font-weight="400"><tspan class="TextPosition" x="1277" y="2192"><tspan fill="rgb(89,89,89)" stroke="none">Xeon 6128</tspan></tspan></tspan></text>
 <text class="TextShape"><tspan class="TextParagraph" font-family="Calibri, sans-serif" font-size="317px" font-weight="400"><tspan class="TextPosition" x="2626" y="14951"><tspan fill="rgb(89,89,89)" stroke="none">0.00</tspan></tspan></tspan></text>
 <text class="TextShape"><tspan class="TextParagraph" font-family="Calibri, sans-serif" font-size="317px" font-weight="400"><tspan class="TextPosition" x="4650" y="14951"><tspan fill="rgb(89,89,89)" stroke="none">0.20</tspan></tspan></tspan></text>
 <text class="TextShape"><tspan class="TextParagraph" font-family="Calibri, sans-serif" font-size="317px" font-weight="400"><tspan class="TextPosition" x="6675" y="14951"><tspan fill="rgb(89,89,89)" stroke="none">0.40</tspan></tspan></tspan></text>
 <text class="TextShape"><tspan class="TextParagraph" font-family="Calibri, sans-serif" font-size="317px" font-weight="400"><tspan class="TextPosition" x="8701" y="14951"><tspan fill="rgb(89,89,89)" stroke="none">0.60</tspan></tspan></tspan></text>
 <text class="TextShape"><tspan class="TextParagraph" font-family="Calibri, sans-serif" font-size="317px" font-weight="400"><tspan class="TextPosition" x="10726" y="14951"><tspan fill="rgb(89,89,89)" stroke="none">0.80</tspan></tspan></tspan></text>
 <text class="TextShape"><tspan class="TextParagraph" font-family="Calibri, sans-serif" font-size="317px" font-weight="400"><tspan class="TextPosition" x="12752" y="14951"><tspan fill="rgb(89,89,89)" stroke="none">1.00</tspan></tspan></tspan></text>
 <text class="TextShape"><tspan class="TextParagraph" font-family="Calibri, sans-serif" font-size="317px" font-weight="400"><tspan class="TextPosition" x="14777" y="14951"><tspan fill="rgb(89,89,89)" stroke="none">1.20</tspan></tspan></tspan></text>
 <text class="TextShape"><tspan class="TextParagraph" font-family="Calibri, sans-serif" font-size="317px" font-weight="400"><tspan class="TextPosition" x="16803" y="14951"><tspan fill="rgb(89,89,89)" stroke="none">1.40</tspan></tspan></tspan></text>
 <text class="TextShape"><tspan class="TextParagraph" font-family="Calibri, sans-serif" font-size="317px" font-weight="400"><tspan class="TextPosition" x="3021" y="14456"><tspan fill="rgb(64,64,64)" stroke="none">0.00</tspan></tspan></tspan></text>
 <text class="TextShape"><tspan class="TextParagraph" font-family="Calibri, sans-serif" font-size="317px" font-weight="400"><tspan class="TextPosition" x="3021" y="13985"><tspan fill="rgb(64,64,64)" stroke="none">0.00</tspan></tspan></tspan></text>
 <text class="TextShape"><tspan class="TextParagraph" font-family="Calibri, sans-serif" font-size="317px" font-weight="400"><tspan class="TextPosition" x="3603" y="13513"><tspan fill="rgb(64,64,64)" stroke="none">0.06</tspan></tspan></tspan></text>
 <text class="TextShape"><tspan class="TextParagraph" font-family="Calibri, sans-serif" font-size="317px" font-weight="400"><tspan class="TextPosition" x="3922" y="13042"><tspan fill="rgb(64,64,64)" stroke="none">0.09</tspan></tspan></tspan></text>
 <text class="TextShape"><tspan class="TextParagraph" font-family="Calibri, sans-serif" font-size="317px" font-weight="400"><tspan class="TextPosition" x="4010" y="12569"><tspan fill="rgb(64,64,64)" stroke="none">0.10</tspan></tspan></tspan></text>
 <text class="TextShape"><tspan class="TextParagraph" font-family="Calibri, sans-serif" font-size="317px" font-weight="400"><tspan class="TextPosition" x="4024" y="12097"><tspan fill="rgb(64,64,64)" stroke="none">0.10</tspan></tspan></tspan></text>
 <text class="TextShape"><tspan class="TextParagraph" font-family="Calibri, sans-serif" font-size="317px" font-weight="400"><tspan class="TextPosition" x="4076" y="11626"><tspan fill="rgb(64,64,64)" stroke="none">0.10</tspan></tspan></tspan></text>
 <text class="TextShape"><tspan class="TextParagraph" font-family="Calibri, sans-serif" font-size="317px" font-weight="400"><tspan class="TextPosition" x="4315" y="11154"><tspan fill="rgb(64,64,64)" stroke="none">0.13</tspan></tspan></tspan></text>
 <text class="TextShape"><tspan class="TextParagraph" font-family="Calibri, sans-serif" font-size="317px" font-weight="400"><tspan class="TextPosition" x="4544" y="10683"><tspan fill="rgb(64,64,64)" stroke="none">0.15</tspan></tspan></tspan></text>
 <text class="TextShape"><tspan class="TextParagraph" font-family="Calibri, sans-serif" font-size="317px" font-weight="400"><tspan class="TextPosition" x="4677" y="10211"><tspan fill="rgb(64,64,64)" stroke="none">0.16</tspan></tspan></tspan></text>
 <text class="TextShape"><tspan class="TextParagraph" font-family="Calibri, sans-serif" font-size="317px" font-weight="400"><tspan class="TextPosition" x="4723" y="9739"><tspan fill="rgb(64,64,64)" stroke="none">0.17</tspan></tspan></tspan></text>
 <text class="TextShape"><tspan class="TextParagraph" font-family="Calibri, sans-serif" font-size="317px" font-weight="400"><tspan class="TextPosition" x="4735" y="9267"><tspan fill="rgb(64,64,64)" stroke="none">0.17</tspan></tspan></tspan></text>
 <text class="TextShape"><tspan class="TextParagraph" font-family="Calibri, sans-serif" font-size="317px" font-weight="400"><tspan class="TextPosition" x="4735" y="8796"><tspan fill="rgb(64,64,64)" stroke="none">0.17</tspan></tspan></tspan></text>
 <text class="TextShape"><tspan class="TextParagraph" font-family="Calibri, sans-serif" font-size="317px" font-weight="400"><tspan class="TextPosition" x="4748" y="8324"><tspan fill="rgb(64,64,64)" stroke="none">0.17</tspan></tspan></tspan></text>
 <text class="TextShape"><tspan class="TextParagraph" font-family="Calibri, sans-serif" font-size="317px" font-weight="400"><tspan class="TextPosition" x="4925" y="7852"><tspan fill="rgb(64,64,64)" stroke="none">0.19</tspan></tspan></tspan></text>
 <text class="TextShape"><tspan class="TextParagraph" font-family="Calibri, sans-serif" font-size="317px" font-weight="400"><tspan class="TextPosition" x="4966" y="7381"><tspan fill="rgb(64,64,64)" stroke="none">0.19</tspan></tspan></tspan></text>
 <text class="TextShape"><tspan class="TextParagraph" font-family="Calibri, sans-serif" font-size="317px" font-weight="400"><tspan class="TextPosition" x="5532" y="6908"><tspan fill="rgb(64,64,64)" stroke="none">0.25</tspan></tspan></tspan></text>
 <text class="TextShape"><tspan class="TextParagraph" font-family="Calibri, sans-serif" font-size="317px" font-weight="400"><tspan class="TextPosition" x="5672" y="6437"><tspan fill="rgb(64,64,64)" stroke="none">0.26</tspan></tspan></tspan></text>
 <text class="TextShape"><tspan class="TextParagraph" font-family="Calibri, sans-serif" font-size="317px" font-weight="400"><tspan class="TextPosition" x="5747" y="5965"><tspan fill="rgb(64,64,64)" stroke="none">0.27</tspan></tspan></tspan></text>
 <text class="TextShape"><tspan class="TextParagraph" font-family="Calibri, sans-serif" font-size="317px" font-weight="400"><tspan class="TextPosition" x="5779" y="5494"><tspan fill="rgb(64,64,64)" stroke="none">0.27</tspan></tspan></tspan></text>
 <text class="TextShape"><tspan class="TextParagraph" font-family="Calibri, sans-serif" font-size="317px" font-weight="400"><tspan class="TextPosition" x="6097" y="5022"><tspan fill="rgb(64,64,64)" stroke="none">0.30</tspan></tspan></tspan></text>
 <text class="TextShape"><tspan class="TextParagraph" font-family="Calibri, sans-serif" font-size="317px" font-weight="400"><tspan class="TextPosition" x="7475" y="4550"><tspan fill="rgb(64,64,64)" stroke="none">0.44</tspan></tspan></tspan></text>
 <text class="TextShape"><tspan class="TextParagraph" font-family="Calibri, sans-serif" font-size="317px" font-weight="400"><tspan class="TextPosition" x="8291" y="4078"><tspan fill="rgb(64,64,64)" stroke="none">0.52</tspan></tspan></tspan></text>
 <text class="TextShape"><tspan class="TextParagraph" font-family="Calibri, sans-serif" font-size="317px" font-weight="400"><tspan class="TextPosition" x="8591" y="3606"><tspan fill="rgb(64,64,64)" stroke="none">0.55</tspan></tspan></tspan></text>
 <text class="TextShape"><tspan class="TextParagraph" font-family="Calibri, sans-serif" font-size="317px" font-weight="400"><tspan class="TextPosition" x="13148" y="3135"><tspan fill="rgb(64,64,64)" stroke="none">1.00</tspan></tspan></tspan></text>
 <text class="TextShape"><tspan class="TextParagraph" font-family="Calibri, sans-serif" font-size="317px" font-weight="400"><tspan class="TextPosition" x="13863" y="2663"><tspan fill="rgb(64,64,64)" stroke="none">1.07</tspan></tspan></tspan></text>
 <text class="TextShape"><tspan class="TextParagraph" font-family="Calibri, sans-serif" font-size="317px" font-weight="400"><tspan class="TextPosition" x="15610" y="2192"><tspan fill="rgb(64,64,64)" stroke="none">1.24</tspan></tspan></tspan></text>
 <text class="TextShape"><tspan class="TextParagraph" font-family="Calibri Light" font-size="705px" font-weight="400"><tspan class="TextPosition" x="1516" y="1195"><tspan fill="rgb(89,89,89)" stroke="none">Coremark (single-threaded, Relative to Core i7-2600)</tspan></tspan></tspan></text>
</svg>