<?xml version="1.0" encoding="UTF-8"?>
<!DOCTYPE svg PUBLIC "-//W3C//DTD SVG 1.1//EN" "http://www.w3.org/Graphics/SVG/1.1/DTD/svg11.dtd">
<svg width="178mm" height="154mm" viewBox="0 0 17800 15400" version="1.1" xmlns="http://www.w3.org/2000/svg" xmlns:xlink="http://www.w3.org/1999/xlink" stroke-width="28.222" stroke-linejoin="round" xml:space="preserve">
 <path fill="rgb(255,255,255)" stroke="none" d="M 8882,15343 L 13,15343 13,13 17751,13 17751,15343 8882,15343 Z"/>
 <path fill="none" stroke="rgb(217,217,217)" stroke-width="26" stroke-linejoin="round" d="M 8882,15343 L 13,15343 13,13 17751,13 17751,15343 8882,15343 Z"/>
 <path fill="none" stroke="rgb(217,217,217)" stroke-width="26" stroke-linejoin="round" d="M 3524,2002 L 3524,14566"/>
 <path fill="none" stroke="rgb(217,217,217)" stroke-width="26" stroke-linejoin="round" d="M 5756,2002 L 5756,14566"/>
 <path fill="none" stroke="rgb(217,217,217)" stroke-width="26" stroke-linejoin="round" d="M 7989,2002 L 7989,14566"/>
 <path fill="none" stroke="rgb(217,217,217)" stroke-width="26" stroke-linejoin="round" d="M 10221,2002 L 10221,14566"/>
 <path fill="none" stroke="rgb(217,217,217)" stroke-width="26" stroke-linejoin="round" d="M 12454,2002 L 12454,14566"/>
 <path fill="none" stroke="rgb(217,217,217)" stroke-width="26" stroke-linejoin="round" d="M 14687,2002 L 14687,14566"/>
 <path fill="none" stroke="rgb(217,217,217)" stroke-width="26" stroke-linejoin="round" d="M 16919,2002 L 16919,14566"/>
 <path fill="none" stroke="rgb(242,242,242)" stroke-width="26" stroke-linejoin="round" d="M 3970,2002 L 3970,14566"/>
 <path fill="none" stroke="rgb(242,242,242)" stroke-width="26" stroke-linejoin="round" d="M 4416,2002 L 4416,14566"/>
 <path fill="none" stroke="rgb(242,242,242)" stroke-width="26" stroke-linejoin="round" d="M 4863,2002 L 4863,14566"/>
 <path fill="none" stroke="rgb(242,242,242)" stroke-width="26" stroke-linejoin="round" d="M 5309,2002 L 5309,14566"/>
 <path fill="none" stroke="rgb(242,242,242)" stroke-width="26" stroke-linejoin="round" d="M 6203,2002 L 6203,14566"/>
 <path fill="none" stroke="rgb(242,242,242)" stroke-width="26" stroke-linejoin="round" d="M 6649,2002 L 6649,14566"/>
 <path fill="none" stroke="rgb(242,242,242)" stroke-width="26" stroke-linejoin="round" d="M 7095,2002 L 7095,14566"/>
 <path fill="none" stroke="rgb(242,242,242)" stroke-width="26" stroke-linejoin="round" d="M 7542,2002 L 7542,14566"/>
 <path fill="none" stroke="rgb(242,242,242)" stroke-width="26" stroke-linejoin="round" d="M 8435,2002 L 8435,14566"/>
 <path fill="none" stroke="rgb(242,242,242)" stroke-width="26" stroke-linejoin="round" d="M 8882,2002 L 8882,14566"/>
 <path fill="none" stroke="rgb(242,242,242)" stroke-width="26" stroke-linejoin="round" d="M 9328,2002 L 9328,14566"/>
 <path fill="none" stroke="rgb(242,242,242)" stroke-width="26" stroke-linejoin="round" d="M 9774,2002 L 9774,14566"/>
 <path fill="none" stroke="rgb(242,242,242)" stroke-width="26" stroke-linejoin="round" d="M 10668,2002 L 10668,14566"/>
 <path fill="none" stroke="rgb(242,242,242)" stroke-width="26" stroke-linejoin="round" d="M 11114,2002 L 11114,14566"/>
 <path fill="none" stroke="rgb(242,242,242)" stroke-width="26" stroke-linejoin="round" d="M 11560,2002 L 11560,14566"/>
 <path fill="none" stroke="rgb(242,242,242)" stroke-width="26" stroke-linejoin="round" d="M 12007,2002 L 12007,14566"/>
 <path fill="none" stroke="rgb(242,242,242)" stroke-width="26" stroke-linejoin="round" d="M 12900,2002 L 12900,14566"/>
 <path fill="none" stroke="rgb(242,242,242)" stroke-width="26" stroke-linejoin="round" d="M 13347,2002 L 13347,14566"/>
 <path fill="none" stroke="rgb(242,242,242)" stroke-width="26" stroke-linejoin="round" d="M 13793,2002 L 13793,14566"/>
 <path fill="none" stroke="rgb(242,242,242)" stroke-width="26" stroke-linejoin="round" d="M 14239,2002 L 14239,14566"/>
 <path fill="none" stroke="rgb(242,242,242)" stroke-width="26" stroke-linejoin="round" d="M 15133,2002 L 15133,14566"/>
 <path fill="none" stroke="rgb(242,242,242)" stroke-width="26" stroke-linejoin="round" d="M 15579,2002 L 15579,14566"/>
 <path fill="none" stroke="rgb(242,242,242)" stroke-width="26" stroke-linejoin="round" d="M 16026,2002 L 16026,14566"/>
 <path fill="none" stroke="rgb(242,242,242)" stroke-width="26" stroke-linejoin="round" d="M 16472,2002 L 16472,14566"/>
 <path fill="none" stroke="rgb(217,217,217)" stroke-width="26" stroke-linejoin="round" d="M 3374,14566 L 3524,14566"/>
 <path fill="none" stroke="rgb(217,217,217)" stroke-width="26" stroke-linejoin="round" d="M 3374,14100 L 3524,14100"/>
 <path fill="none" stroke="rgb(217,217,217)" stroke-width="26" stroke-linejoin="round" d="M 3374,13635 L 3524,13635"/>
 <path fill="none" stroke="rgb(217,217,217)" stroke-width="26" stroke-linejoin="round" d="M 3374,13170 L 3524,13170"/>
 <path fill="none" stroke="rgb(217,217,217)" stroke-width="26" stroke-linejoin="round" d="M 3374,12705 L 3524,12705"/>
 <path fill="none" stroke="rgb(217,217,217)" stroke-width="26" stroke-linejoin="round" d="M 3374,12239 L 3524,12239"/>
 <path fill="none" stroke="rgb(217,217,217)" stroke-width="26" stroke-linejoin="round" d="M 3374,11774 L 3524,11774"/>
 <path fill="none" stroke="rgb(217,217,217)" stroke-width="26" stroke-linejoin="round" d="M 3374,11308 L 3524,11308"/>
 <path fill="none" stroke="rgb(217,217,217)" stroke-width="26" stroke-linejoin="round" d="M 3374,10843 L 3524,10843"/>
 <path fill="none" stroke="rgb(217,217,217)" stroke-width="26" stroke-linejoin="round" d="M 3374,10378 L 3524,10378"/>
 <path fill="none" stroke="rgb(217,217,217)" stroke-width="26" stroke-linejoin="round" d="M 3374,9913 L 3524,9913"/>
 <path fill="none" stroke="rgb(217,217,217)" stroke-width="26" stroke-linejoin="round" d="M 3374,9447 L 3524,9447"/>
 <path fill="none" stroke="rgb(217,217,217)" stroke-width="26" stroke-linejoin="round" d="M 3374,8982 L 3524,8982"/>
 <path fill="none" stroke="rgb(217,217,217)" stroke-width="26" stroke-linejoin="round" d="M 3374,8517 L 3524,8517"/>
 <path fill="none" stroke="rgb(217,217,217)" stroke-width="26" stroke-linejoin="round" d="M 3374,8051 L 3524,8051"/>
 <path fill="none" stroke="rgb(217,217,217)" stroke-width="26" stroke-linejoin="round" d="M 3374,7586 L 3524,7586"/>
 <path fill="none" stroke="rgb(217,217,217)" stroke-width="26" stroke-linejoin="round" d="M 3374,7120 L 3524,7120"/>
 <path fill="none" stroke="rgb(217,217,217)" stroke-width="26" stroke-linejoin="round" d="M 3374,6655 L 3524,6655"/>
 <path fill="none" stroke="rgb(217,217,217)" stroke-width="26" stroke-linejoin="round" d="M 3374,6190 L 3524,6190"/>
 <path fill="none" stroke="rgb(217,217,217)" stroke-width="26" stroke-linejoin="round" d="M 3374,5725 L 3524,5725"/>
 <path fill="none" stroke="rgb(217,217,217)" stroke-width="26" stroke-linejoin="round" d="M 3374,5260 L 3524,5260"/>
 <path fill="none" stroke="rgb(217,217,217)" stroke-width="26" stroke-linejoin="round" d="M 3374,4794 L 3524,4794"/>
 <path fill="none" stroke="rgb(217,217,217)" stroke-width="26" stroke-linejoin="round" d="M 3374,4328 L 3524,4328"/>
 <path fill="none" stroke="rgb(217,217,217)" stroke-width="26" stroke-linejoin="round" d="M 3374,3863 L 3524,3863"/>
 <path fill="none" stroke="rgb(217,217,217)" stroke-width="26" stroke-linejoin="round" d="M 3374,3398 L 3524,3398"/>
 <path fill="none" stroke="rgb(217,217,217)" stroke-width="26" stroke-linejoin="round" d="M 3374,2933 L 3524,2933"/>
 <path fill="none" stroke="rgb(217,217,217)" stroke-width="26" stroke-linejoin="round" d="M 3374,2468 L 3524,2468"/>
 <path fill="none" stroke="rgb(217,217,217)" stroke-width="26" stroke-linejoin="round" d="M 3374,2002 L 3524,2002"/>
 <path fill="none" stroke="rgb(217,217,217)" stroke-width="26" stroke-linejoin="round" d="M 3524,14566 L 3524,2002"/>
 <path fill="rgb(99,99,99)" stroke="none" d="M 3524,2298 L 3524,2171 14823,2171 14823,2298 3524,2298 Z"/>
 <path fill="rgb(99,99,99)" stroke="none" d="M 3524,2763 L 3524,2637 12786,2637 12786,2763 3524,2763 Z"/>
 <path fill="rgb(99,99,99)" stroke="none" d="M 3524,3228 L 3524,3103 10973,3103 10973,3228 3524,3228 Z"/>
 <path fill="rgb(99,99,99)" stroke="none" d="M 3524,3694 L 3524,3568 9274,3568 9274,3694 3524,3694 Z"/>
 <path fill="rgb(99,99,99)" stroke="none" d="M 3524,4159 L 3524,4033 9030,4033 9030,4159 3524,4159 Z"/>
 <path fill="rgb(99,99,99)" stroke="none" d="M 3524,4624 L 3524,4498 8867,4498 8867,4624 3524,4624 Z"/>
 <path fill="rgb(99,99,99)" stroke="none" d="M 3524,5090 L 3524,4963 8747,4963 8747,5090 3524,5090 Z"/>
 <path fill="rgb(99,99,99)" stroke="none" d="M 3524,5555 L 3524,5428 8594,5428 8594,5555 3524,5555 Z"/>
 <path fill="rgb(99,99,99)" stroke="none" d="M 3524,6020 L 3524,5895 7535,5895 7535,6020 3524,6020 Z"/>
 <path fill="rgb(99,99,99)" stroke="none" d="M 3524,6486 L 3524,6360 7273,6360 7273,6486 3524,6486 Z"/>
 <path fill="rgb(99,99,99)" stroke="none" d="M 3524,6951 L 3524,6825 7096,6825 7096,6951 3524,6951 Z"/>
 <path fill="rgb(99,99,99)" stroke="none" d="M 3524,7416 L 3524,7290 6823,7290 6823,7416 3524,7416 Z"/>
 <path fill="rgb(99,99,99)" stroke="none" d="M 3524,7882 L 3524,7755 6823,7755 6823,7882 3524,7882 Z"/>
 <path fill="rgb(99,99,99)" stroke="none" d="M 3524,8347 L 3524,8221 6812,8221 6812,8347 3524,8347 Z"/>
 <path fill="rgb(99,99,99)" stroke="none" d="M 3524,8813 L 3524,8686 6798,8686 6798,8813 3524,8813 Z"/>
 <path fill="rgb(99,99,99)" stroke="none" d="M 3524,9278 L 3524,9152 6714,9152 6714,9278 3524,9278 Z"/>
 <path fill="rgb(99,99,99)" stroke="none" d="M 3524,9743 L 3524,9617 6710,9617 6710,9743 3524,9743 Z"/>
 <path fill="rgb(99,99,99)" stroke="none" d="M 3524,10208 L 3524,10082 6699,10082 6699,10208 3524,10208 Z"/>
 <path fill="rgb(99,99,99)" stroke="none" d="M 3524,10673 L 3524,10547 6699,10547 6699,10673 3524,10673 Z"/>
 <path fill="rgb(99,99,99)" stroke="none" d="M 3524,11139 L 3524,11013 6663,11013 6663,11139 3524,11139 Z"/>
 <path fill="rgb(99,99,99)" stroke="none" d="M 3524,11605 L 3524,11478 6663,11478 6663,11605 3524,11605 Z"/>
 <path fill="rgb(99,99,99)" stroke="none" d="M 3524,12070 L 3524,11944 6031,11944 6031,12070 3524,12070 Z"/>
 <path fill="rgb(99,99,99)" stroke="none" d="M 3524,12535 L 3524,12409 5686,12409 5686,12535 3524,12535 Z"/>
 <path fill="rgb(99,99,99)" stroke="none" d="M 3524,13000 L 3524,12874 5602,12874 5602,13000 3524,13000 Z"/>
 <path fill="rgb(99,99,99)" stroke="none" d="M 3524,13465 L 3524,13340 4932,13340 4932,13465 3524,13465 Z"/>
 <path fill="rgb(99,99,99)" stroke="none" d="M 3524,13931 L 3524,13805 3524,13805 3524,13931 Z"/>
 <path fill="rgb(99,99,99)" stroke="none" d="M 3524,14397 L 3524,14270 3524,14270 3524,14397 Z"/>
 <text class="TextShape"><tspan class="TextParagraph" font-family="Calibri, sans-serif" font-size="317px" font-weight="400"><tspan class="TextPosition" x="1081" y="14439"><tspan fill="rgb(89,89,89)" stroke="none">AWS Graviton</tspan></tspan></tspan></text>
 <text class="TextShape"><tspan class="TextParagraph" font-family="Calibri, sans-serif" font-size="317px" font-weight="400"><tspan class="TextPosition" x="1662" y="13974"><tspan fill="rgb(89,89,89)" stroke="none">Odroid N2</tspan></tspan></tspan></text>
 <text class="TextShape"><tspan class="TextParagraph" font-family="Calibri, sans-serif" font-size="317px" font-weight="400"><tspan class="TextPosition" x="950" y="13509"><tspan fill="rgb(89,89,89)" stroke="none">Pentium M725</tspan></tspan></tspan></text>
 <text class="TextShape"><tspan class="TextParagraph" font-family="Calibri, sans-serif" font-size="317px" font-weight="400"><tspan class="TextPosition" x="1266" y="13044"><tspan fill="rgb(89,89,89)" stroke="none">Raspberry PI</tspan></tspan></tspan></text>
 <text class="TextShape"><tspan class="TextParagraph" font-family="Calibri, sans-serif" font-size="317px" font-weight="400"><tspan class="TextPosition" x="1637" y="12578"><tspan fill="rgb(89,89,89)" stroke="none">Pentium 4</tspan></tspan></tspan></text>
 <text class="TextShape"><tspan class="TextParagraph" font-family="Calibri, sans-serif" font-size="317px" font-weight="400"><tspan class="TextPosition" x="1531" y="12113"><tspan fill="rgb(89,89,89)" stroke="none">Pentium III</tspan></tspan></tspan></text>
 <text class="TextShape"><tspan class="TextParagraph" font-family="Calibri, sans-serif" font-size="317px" font-weight="400"><tspan class="TextPosition" x="1478" y="11648"><tspan fill="rgb(89,89,89)" stroke="none">E8C2-1550</tspan></tspan></tspan></text>
 <text class="TextShape"><tspan class="TextParagraph" font-family="Calibri, sans-serif" font-size="317px" font-weight="400"><tspan class="TextPosition" x="923" y="11182"><tspan fill="rgb(89,89,89)" stroke="none">E16C-APPROX*</tspan></tspan></tspan></text>
 <text class="TextShape"><tspan class="TextParagraph" font-family="Calibri, sans-serif" font-size="317px" font-weight="400"><tspan class="TextPosition" x="1478" y="10717"><tspan fill="rgb(89,89,89)" stroke="none">E8C2-1200</tspan></tspan></tspan></text>
 <text class="TextShape"><tspan class="TextParagraph" font-family="Calibri, sans-serif" font-size="317px" font-weight="400"><tspan class="TextPosition" x="2428" y="10251"><tspan fill="rgb(89,89,89)" stroke="none">E8C2</tspan></tspan></tspan></text>
 <text class="TextShape"><tspan class="TextParagraph" font-family="Calibri, sans-serif" font-size="317px" font-weight="400"><tspan class="TextPosition" x="1610" y="9786"><tspan fill="rgb(89,89,89)" stroke="none">E8C-SWTX</tspan></tspan></tspan></text>
 <text class="TextShape"><tspan class="TextParagraph" font-family="Calibri, sans-serif" font-size="317px" font-weight="400"><tspan class="TextPosition" x="1028" y="9321"><tspan fill="rgb(89,89,89)" stroke="none">Orange Pi Win</tspan></tspan></tspan></text>
 <text class="TextShape"><tspan class="TextParagraph" font-family="Calibri, sans-serif" font-size="317px" font-weight="400"><tspan class="TextPosition" x="1688" y="8856"><tspan fill="rgb(89,89,89)" stroke="none">E8C-E8C4</tspan></tspan></tspan></text>
 <text class="TextShape"><tspan class="TextParagraph" font-family="Calibri, sans-serif" font-size="317px" font-weight="400"><tspan class="TextPosition" x="1662" y="8391"><tspan fill="rgb(89,89,89)" stroke="none">MBE1C-PC</tspan></tspan></tspan></text>
 <text class="TextShape"><tspan class="TextParagraph" font-family="Calibri, sans-serif" font-size="317px" font-weight="400"><tspan class="TextPosition" x="1504" y="7925"><tspan fill="rgb(89,89,89)" stroke="none">E2S-PC401</tspan></tspan></tspan></text>
 <text class="TextShape"><tspan class="TextParagraph" font-family="Calibri, sans-serif" font-size="317px" font-weight="400"><tspan class="TextPosition" x="1504" y="7459"><tspan fill="rgb(89,89,89)" stroke="none">E2S-EL2S4</tspan></tspan></tspan></text>
 <text class="TextShape"><tspan class="TextParagraph" font-family="Calibri, sans-serif" font-size="317px" font-weight="400"><tspan class="TextPosition" x="950" y="6994"><tspan fill="rgb(89,89,89)" stroke="none">Raspberry PI 3</tspan></tspan></tspan></text>
 <text class="TextShape"><tspan class="TextParagraph" font-family="Calibri, sans-serif" font-size="317px" font-weight="400"><tspan class="TextPosition" x="1028" y="6529"><tspan fill="rgb(89,89,89)" stroke="none">Orange Pi PC2</tspan></tspan></tspan></text>
 <text class="TextShape"><tspan class="TextParagraph" font-family="Calibri, sans-serif" font-size="317px" font-weight="400"><tspan class="TextPosition" x="1688" y="6064"><tspan fill="rgb(89,89,89)" stroke="none">Odroid X2</tspan></tspan></tspan></text>
 <text class="TextShape"><tspan class="TextParagraph" font-family="Calibri, sans-serif" font-size="317px" font-weight="400"><tspan class="TextPosition" x="1081" y="5599"><tspan fill="rgb(89,89,89)" stroke="none">AMD A6-3650</tspan></tspan></tspan></text>
 <text class="TextShape"><tspan class="TextParagraph" font-family="Calibri, sans-serif" font-size="317px" font-weight="400"><tspan class="TextPosition" x="1107" y="5132"><tspan fill="rgb(89,89,89)" stroke="none">Core i3-m330</tspan></tspan></tspan></text>
 <text class="TextShape"><tspan class="TextParagraph" font-family="Calibri, sans-serif" font-size="317px" font-weight="400"><tspan class="TextPosition" x="1266" y="4667"><tspan fill="rgb(89,89,89)" stroke="none">Atom Z8350</tspan></tspan></tspan></text>
 <text class="TextShape"><tspan class="TextParagraph" font-family="Calibri, sans-serif" font-size="317px" font-weight="400"><tspan class="TextPosition" x="368" y="4202"><tspan fill="rgb(89,89,89)" stroke="none">Core 2 Duo T9400</tspan></tspan></tspan></text>
 <text class="TextShape"><tspan class="TextParagraph" font-family="Calibri, sans-serif" font-size="317px" font-weight="400"><tspan class="TextPosition" x="1847" y="3737"><tspan fill="rgb(89,89,89)" stroke="none">Baikal T1</tspan></tspan></tspan></text>
 <text class="TextShape"><tspan class="TextParagraph" font-family="Calibri, sans-serif" font-size="317px" font-weight="400"><tspan class="TextPosition" x="1213" y="3272"><tspan fill="rgb(89,89,89)" stroke="none">Core i7-2600</tspan></tspan></tspan></text>
 <text class="TextShape"><tspan class="TextParagraph" font-family="Calibri, sans-serif" font-size="317px" font-weight="400"><tspan class="TextPosition" x="1531" y="2807"><tspan fill="rgb(89,89,89)" stroke="none">Xeon 6128</tspan></tspan></tspan></text>
 <text class="TextShape"><tspan class="TextParagraph" font-family="Calibri, sans-serif" font-size="317px" font-weight="400"><tspan class="TextPosition" x="712" y="2341"><tspan fill="rgb(89,89,89)" stroke="none">Core i7-4700MQ</tspan></tspan></tspan></text>
 <text class="TextShape"><tspan class="TextParagraph" font-family="Calibri, sans-serif" font-size="317px" font-weight="400"><tspan class="TextPosition" x="3154" y="14957"><tspan fill="rgb(89,89,89)" stroke="none">0,00</tspan></tspan></tspan></text>
 <text class="TextShape"><tspan class="TextParagraph" font-family="Calibri, sans-serif" font-size="317px" font-weight="400"><tspan class="TextPosition" x="5386" y="14957"><tspan fill="rgb(89,89,89)" stroke="none">2,00</tspan></tspan></tspan></text>
 <text class="TextShape"><tspan class="TextParagraph" font-family="Calibri, sans-serif" font-size="317px" font-weight="400"><tspan class="TextPosition" x="7619" y="14957"><tspan fill="rgb(89,89,89)" stroke="none">4,00</tspan></tspan></tspan></text>
 <text class="TextShape"><tspan class="TextParagraph" font-family="Calibri, sans-serif" font-size="317px" font-weight="400"><tspan class="TextPosition" x="9852" y="14957"><tspan fill="rgb(89,89,89)" stroke="none">6,00</tspan></tspan></tspan></text>
 <text class="TextShape"><tspan class="TextParagraph" font-family="Calibri, sans-serif" font-size="317px" font-weight="400"><tspan class="TextPosition" x="12084" y="14957"><tspan fill="rgb(89,89,89)" stroke="none">8,00</tspan></tspan></tspan></text>
 <text class="TextShape"><tspan class="TextParagraph" font-family="Calibri, sans-serif" font-size="317px" font-weight="400"><tspan class="TextPosition" x="14210" y="14957"><tspan fill="rgb(89,89,89)" stroke="none">10,00</tspan></tspan></tspan></text>
 <text class="TextShape"><tspan class="TextParagraph" font-family="Calibri, sans-serif" font-size="317px" font-weight="400"><tspan class="TextPosition" x="16444" y="14957"><tspan fill="rgb(89,89,89)" stroke="none">12,00</tspan></tspan></tspan></text>
 <text class="TextShape"><tspan class="TextParagraph" font-family="Calibri, sans-serif" font-size="317px" font-weight="400"><tspan class="TextPosition" x="3623" y="14439"><tspan fill="rgb(64,64,64)" stroke="none">0,00</tspan></tspan></tspan></text>
 <text class="TextShape"><tspan class="TextParagraph" font-family="Calibri, sans-serif" font-size="317px" font-weight="400"><tspan class="TextPosition" x="3623" y="13974"><tspan fill="rgb(64,64,64)" stroke="none">0,00</tspan></tspan></tspan></text>
 <text class="TextShape"><tspan class="TextParagraph" font-family="Calibri, sans-serif" font-size="317px" font-weight="400"><tspan class="TextPosition" x="5031" y="13509"><tspan fill="rgb(64,64,64)" stroke="none">1,26</tspan></tspan></tspan></text>
 <text class="TextShape"><tspan class="TextParagraph" font-family="Calibri, sans-serif" font-size="317px" font-weight="400"><tspan class="TextPosition" x="5702" y="13044"><tspan fill="rgb(64,64,64)" stroke="none">1,86</tspan></tspan></tspan></text>
 <text class="TextShape"><tspan class="TextParagraph" font-family="Calibri, sans-serif" font-size="317px" font-weight="400"><tspan class="TextPosition" x="5786" y="12578"><tspan fill="rgb(64,64,64)" stroke="none">1,94</tspan></tspan></tspan></text>
 <text class="TextShape"><tspan class="TextParagraph" font-family="Calibri, sans-serif" font-size="317px" font-weight="400"><tspan class="TextPosition" x="6131" y="12113"><tspan fill="rgb(64,64,64)" stroke="none">2,25</tspan></tspan></tspan></text>
 <text class="TextShape"><tspan class="TextParagraph" font-family="Calibri, sans-serif" font-size="317px" font-weight="400"><tspan class="TextPosition" x="6763" y="11648"><tspan fill="rgb(64,64,64)" stroke="none">2,81</tspan></tspan></tspan></text>
 <text class="TextShape"><tspan class="TextParagraph" font-family="Calibri, sans-serif" font-size="317px" font-weight="400"><tspan class="TextPosition" x="6763" y="11182"><tspan fill="rgb(64,64,64)" stroke="none">2,81</tspan></tspan></tspan></text>
 <text class="TextShape"><tspan class="TextParagraph" font-family="Calibri, sans-serif" font-size="317px" font-weight="400"><tspan class="TextPosition" x="6799" y="10717"><tspan fill="rgb(64,64,64)" stroke="none">2,84</tspan></tspan></tspan></text>
 <text class="TextShape"><tspan class="TextParagraph" font-family="Calibri, sans-serif" font-size="317px" font-weight="400"><tspan class="TextPosition" x="6799" y="10251"><tspan fill="rgb(64,64,64)" stroke="none">2,84</tspan></tspan></tspan></text>
 <text class="TextShape"><tspan class="TextParagraph" font-family="Calibri, sans-serif" font-size="317px" font-weight="400"><tspan class="TextPosition" x="6810" y="9786"><tspan fill="rgb(64,64,64)" stroke="none">2,85</tspan></tspan></tspan></text>
 <text class="TextShape"><tspan class="TextParagraph" font-family="Calibri, sans-serif" font-size="317px" font-weight="400"><tspan class="TextPosition" x="6814" y="9321"><tspan fill="rgb(64,64,64)" stroke="none">2,86</tspan></tspan></tspan></text>
 <text class="TextShape"><tspan class="TextParagraph" font-family="Calibri, sans-serif" font-size="317px" font-weight="400"><tspan class="TextPosition" x="6898" y="8856"><tspan fill="rgb(64,64,64)" stroke="none">2,93</tspan></tspan></tspan></text>
 <text class="TextShape"><tspan class="TextParagraph" font-family="Calibri, sans-serif" font-size="317px" font-weight="400"><tspan class="TextPosition" x="6911" y="8391"><tspan fill="rgb(64,64,64)" stroke="none">2,95</tspan></tspan></tspan></text>
 <text class="TextShape"><tspan class="TextParagraph" font-family="Calibri, sans-serif" font-size="317px" font-weight="400"><tspan class="TextPosition" x="6922" y="7925"><tspan fill="rgb(64,64,64)" stroke="none">2,96</tspan></tspan></tspan></text>
 <text class="TextShape"><tspan class="TextParagraph" font-family="Calibri, sans-serif" font-size="317px" font-weight="400"><tspan class="TextPosition" x="6922" y="7459"><tspan fill="rgb(64,64,64)" stroke="none">2,96</tspan></tspan></tspan></text>
 <text class="TextShape"><tspan class="TextParagraph" font-family="Calibri, sans-serif" font-size="317px" font-weight="400"><tspan class="TextPosition" x="7196" y="6994"><tspan fill="rgb(64,64,64)" stroke="none">3,20</tspan></tspan></tspan></text>
 <text class="TextShape"><tspan class="TextParagraph" font-family="Calibri, sans-serif" font-size="317px" font-weight="400"><tspan class="TextPosition" x="7373" y="6529"><tspan fill="rgb(64,64,64)" stroke="none">3,36</tspan></tspan></tspan></text>
 <text class="TextShape"><tspan class="TextParagraph" font-family="Calibri, sans-serif" font-size="317px" font-weight="400"><tspan class="TextPosition" x="7634" y="6064"><tspan fill="rgb(64,64,64)" stroke="none">3,59</tspan></tspan></tspan></text>
 <text class="TextShape"><tspan class="TextParagraph" font-family="Calibri, sans-serif" font-size="317px" font-weight="400"><tspan class="TextPosition" x="8694" y="5599"><tspan fill="rgb(64,64,64)" stroke="none">4,54</tspan></tspan></tspan></text>
 <text class="TextShape"><tspan class="TextParagraph" font-family="Calibri, sans-serif" font-size="317px" font-weight="400"><tspan class="TextPosition" x="8847" y="5132"><tspan fill="rgb(64,64,64)" stroke="none">4,68</tspan></tspan></tspan></text>
 <text class="TextShape"><tspan class="TextParagraph" font-family="Calibri, sans-serif" font-size="317px" font-weight="400"><tspan class="TextPosition" x="8966" y="4667"><tspan fill="rgb(64,64,64)" stroke="none">4,79</tspan></tspan></tspan></text>
 <text class="TextShape"><tspan class="TextParagraph" font-family="Calibri, sans-serif" font-size="317px" font-weight="400"><tspan class="TextPosition" x="9130" y="4202"><tspan fill="rgb(64,64,64)" stroke="none">4,93</tspan></tspan></tspan></text>
 <text class="TextShape"><tspan class="TextParagraph" font-family="Calibri, sans-serif" font-size="317px" font-weight="400"><tspan class="TextPosition" x="9374" y="3737"><tspan fill="rgb(64,64,64)" stroke="none">5,15</tspan></tspan></tspan></text>
 <text class="TextShape"><tspan class="TextParagraph" font-family="Calibri, sans-serif" font-size="317px" font-weight="400"><tspan class="TextPosition" x="11073" y="3272"><tspan fill="rgb(64,64,64)" stroke="none">6,67</tspan></tspan></tspan></text>
 <text class="TextShape"><tspan class="TextParagraph" font-family="Calibri, sans-serif" font-size="317px" font-weight="400"><tspan class="TextPosition" x="12885" y="2807"><tspan fill="rgb(64,64,64)" stroke="none">8,30</tspan></tspan></tspan></text>
 <text class="TextShape"><tspan class="TextParagraph" font-family="Calibri, sans-serif" font-size="317px" font-weight="400"><tspan class="TextPosition" x="14923" y="2341"><tspan fill="rgb(64,64,64)" stroke="none">10,12</tspan></tspan></tspan></text>
 <text class="TextShape"><tspan class="TextParagraph" font-family="Calibri Light" font-size="705px" font-weight="400"><tspan class="TextPosition" x="1828" y="1326"><tspan fill="rgb(89,89,89)" stroke="none">Coremark (single-threaded, Per 1 MHz)</tspan></tspan></tspan></text>
</svg>