<?xml version="1.0" encoding="UTF-8"?>
<!DOCTYPE svg PUBLIC "-//W3C//DTD SVG 1.1//EN" "http://www.w3.org/Graphics/SVG/1.1/DTD/svg11.dtd">
<svg width="207mm" height="181mm" viewBox="0 0 20700 18100" version="1.1" xmlns="http://www.w3.org/2000/svg" xmlns:xlink="http://www.w3.org/1999/xlink" stroke-width="28.222" stroke-linejoin="round" xml:space="preserve">
 <path fill="rgb(255,255,255)" stroke="none" d="M 10343,18105 L 13,18105 13,13 20672,13 20672,18105 10343,18105 Z"/>
 <path fill="none" stroke="rgb(217,217,217)" stroke-width="26" stroke-linejoin="round" d="M 10343,18105 L 13,18105 13,13 20672,13 20672,18105 10343,18105 Z"/>
 <path fill="none" stroke="rgb(217,217,217)" stroke-width="26" stroke-linejoin="round" d="M 3582,2112 L 3582,17273"/>
 <path fill="none" stroke="rgb(217,217,217)" stroke-width="26" stroke-linejoin="round" d="M 6300,2112 L 6300,17273"/>
 <path fill="none" stroke="rgb(217,217,217)" stroke-width="26" stroke-linejoin="round" d="M 9017,2112 L 9017,17273"/>
 <path fill="none" stroke="rgb(217,217,217)" stroke-width="26" stroke-linejoin="round" d="M 11735,2112 L 11735,17273"/>
 <path fill="none" stroke="rgb(217,217,217)" stroke-width="26" stroke-linejoin="round" d="M 14452,2112 L 14452,17273"/>
 <path fill="none" stroke="rgb(217,217,217)" stroke-width="26" stroke-linejoin="round" d="M 17170,2112 L 17170,17273"/>
 <path fill="none" stroke="rgb(217,217,217)" stroke-width="26" stroke-linejoin="round" d="M 19888,2112 L 19888,17273"/>
 <path fill="none" stroke="rgb(242,242,242)" stroke-width="26" stroke-linejoin="round" d="M 4126,2112 L 4126,17273"/>
 <path fill="none" stroke="rgb(242,242,242)" stroke-width="26" stroke-linejoin="round" d="M 4669,2112 L 4669,17273"/>
 <path fill="none" stroke="rgb(242,242,242)" stroke-width="26" stroke-linejoin="round" d="M 5212,2112 L 5212,17273"/>
 <path fill="none" stroke="rgb(242,242,242)" stroke-width="26" stroke-linejoin="round" d="M 5755,2112 L 5755,17273"/>
 <path fill="none" stroke="rgb(242,242,242)" stroke-width="26" stroke-linejoin="round" d="M 6843,2112 L 6843,17273"/>
 <path fill="none" stroke="rgb(242,242,242)" stroke-width="26" stroke-linejoin="round" d="M 7386,2112 L 7386,17273"/>
 <path fill="none" stroke="rgb(242,242,242)" stroke-width="26" stroke-linejoin="round" d="M 7930,2112 L 7930,17273"/>
 <path fill="none" stroke="rgb(242,242,242)" stroke-width="26" stroke-linejoin="round" d="M 8474,2112 L 8474,17273"/>
 <path fill="none" stroke="rgb(242,242,242)" stroke-width="26" stroke-linejoin="round" d="M 9561,2112 L 9561,17273"/>
 <path fill="none" stroke="rgb(242,242,242)" stroke-width="26" stroke-linejoin="round" d="M 10104,2112 L 10104,17273"/>
 <path fill="none" stroke="rgb(242,242,242)" stroke-width="26" stroke-linejoin="round" d="M 10648,2112 L 10648,17273"/>
 <path fill="none" stroke="rgb(242,242,242)" stroke-width="26" stroke-linejoin="round" d="M 11191,2112 L 11191,17273"/>
 <path fill="none" stroke="rgb(242,242,242)" stroke-width="26" stroke-linejoin="round" d="M 12278,2112 L 12278,17273"/>
 <path fill="none" stroke="rgb(242,242,242)" stroke-width="26" stroke-linejoin="round" d="M 12821,2112 L 12821,17273"/>
 <path fill="none" stroke="rgb(242,242,242)" stroke-width="26" stroke-linejoin="round" d="M 13366,2112 L 13366,17273"/>
 <path fill="none" stroke="rgb(242,242,242)" stroke-width="26" stroke-linejoin="round" d="M 13909,2112 L 13909,17273"/>
 <path fill="none" stroke="rgb(242,242,242)" stroke-width="26" stroke-linejoin="round" d="M 14995,2112 L 14995,17273"/>
 <path fill="none" stroke="rgb(242,242,242)" stroke-width="26" stroke-linejoin="round" d="M 15540,2112 L 15540,17273"/>
 <path fill="none" stroke="rgb(242,242,242)" stroke-width="26" stroke-linejoin="round" d="M 16083,2112 L 16083,17273"/>
 <path fill="none" stroke="rgb(242,242,242)" stroke-width="26" stroke-linejoin="round" d="M 16626,2112 L 16626,17273"/>
 <path fill="none" stroke="rgb(242,242,242)" stroke-width="26" stroke-linejoin="round" d="M 17714,2112 L 17714,17273"/>
 <path fill="none" stroke="rgb(242,242,242)" stroke-width="26" stroke-linejoin="round" d="M 18257,2112 L 18257,17273"/>
 <path fill="none" stroke="rgb(242,242,242)" stroke-width="26" stroke-linejoin="round" d="M 18800,2112 L 18800,17273"/>
 <path fill="none" stroke="rgb(242,242,242)" stroke-width="26" stroke-linejoin="round" d="M 19344,2112 L 19344,17273"/>
 <path fill="none" stroke="rgb(217,217,217)" stroke-width="26" stroke-linejoin="round" d="M 3433,17273 L 3582,17273"/>
 <path fill="none" stroke="rgb(217,217,217)" stroke-width="26" stroke-linejoin="round" d="M 3433,16711 L 3582,16711"/>
 <path fill="none" stroke="rgb(217,217,217)" stroke-width="26" stroke-linejoin="round" d="M 3433,16150 L 3582,16150"/>
 <path fill="none" stroke="rgb(217,217,217)" stroke-width="26" stroke-linejoin="round" d="M 3433,15589 L 3582,15589"/>
 <path fill="none" stroke="rgb(217,217,217)" stroke-width="26" stroke-linejoin="round" d="M 3433,15027 L 3582,15027"/>
 <path fill="none" stroke="rgb(217,217,217)" stroke-width="26" stroke-linejoin="round" d="M 3433,14465 L 3582,14465"/>
 <path fill="none" stroke="rgb(217,217,217)" stroke-width="26" stroke-linejoin="round" d="M 3433,13904 L 3582,13904"/>
 <path fill="none" stroke="rgb(217,217,217)" stroke-width="26" stroke-linejoin="round" d="M 3433,13342 L 3582,13342"/>
 <path fill="none" stroke="rgb(217,217,217)" stroke-width="26" stroke-linejoin="round" d="M 3433,12781 L 3582,12781"/>
 <path fill="none" stroke="rgb(217,217,217)" stroke-width="26" stroke-linejoin="round" d="M 3433,12220 L 3582,12220"/>
 <path fill="none" stroke="rgb(217,217,217)" stroke-width="26" stroke-linejoin="round" d="M 3433,11658 L 3582,11658"/>
 <path fill="none" stroke="rgb(217,217,217)" stroke-width="26" stroke-linejoin="round" d="M 3433,11096 L 3582,11096"/>
 <path fill="none" stroke="rgb(217,217,217)" stroke-width="26" stroke-linejoin="round" d="M 3433,10535 L 3582,10535"/>
 <path fill="none" stroke="rgb(217,217,217)" stroke-width="26" stroke-linejoin="round" d="M 3433,9973 L 3582,9973"/>
 <path fill="none" stroke="rgb(217,217,217)" stroke-width="26" stroke-linejoin="round" d="M 3433,9412 L 3582,9412"/>
 <path fill="none" stroke="rgb(217,217,217)" stroke-width="26" stroke-linejoin="round" d="M 3433,8850 L 3582,8850"/>
 <path fill="none" stroke="rgb(217,217,217)" stroke-width="26" stroke-linejoin="round" d="M 3433,8289 L 3582,8289"/>
 <path fill="none" stroke="rgb(217,217,217)" stroke-width="26" stroke-linejoin="round" d="M 3433,7727 L 3582,7727"/>
 <path fill="none" stroke="rgb(217,217,217)" stroke-width="26" stroke-linejoin="round" d="M 3433,7166 L 3582,7166"/>
 <path fill="none" stroke="rgb(217,217,217)" stroke-width="26" stroke-linejoin="round" d="M 3433,6604 L 3582,6604"/>
 <path fill="none" stroke="rgb(217,217,217)" stroke-width="26" stroke-linejoin="round" d="M 3433,6043 L 3582,6043"/>
 <path fill="none" stroke="rgb(217,217,217)" stroke-width="26" stroke-linejoin="round" d="M 3433,5482 L 3582,5482"/>
 <path fill="none" stroke="rgb(217,217,217)" stroke-width="26" stroke-linejoin="round" d="M 3433,4920 L 3582,4920"/>
 <path fill="none" stroke="rgb(217,217,217)" stroke-width="26" stroke-linejoin="round" d="M 3433,4359 L 3582,4359"/>
 <path fill="none" stroke="rgb(217,217,217)" stroke-width="26" stroke-linejoin="round" d="M 3433,3797 L 3582,3797"/>
 <path fill="none" stroke="rgb(217,217,217)" stroke-width="26" stroke-linejoin="round" d="M 3433,3235 L 3582,3235"/>
 <path fill="none" stroke="rgb(217,217,217)" stroke-width="26" stroke-linejoin="round" d="M 3433,2674 L 3582,2674"/>
 <path fill="none" stroke="rgb(217,217,217)" stroke-width="26" stroke-linejoin="round" d="M 3433,2112 L 3582,2112"/>
 <path fill="none" stroke="rgb(217,217,217)" stroke-width="26" stroke-linejoin="round" d="M 3582,17273 L 3582,2112"/>
 <path fill="rgb(99,99,99)" stroke="none" d="M 3582,2469 L 3582,2317 19089,2317 19089,2469 3582,2469 Z"/>
 <path fill="rgb(99,99,99)" stroke="none" d="M 3582,3030 L 3582,2879 17730,2879 17730,3030 3582,3030 Z"/>
 <path fill="rgb(191,191,191)" stroke="none" d="M 3582,3593 L 3582,3440 17170,3440 17170,3593 3582,3593 Z"/>
 <path fill="rgb(99,99,99)" stroke="none" d="M 3582,4154 L 3582,4001 11774,4001 11774,4154 3582,4154 Z"/>
 <path fill="rgb(99,99,99)" stroke="none" d="M 3582,4715 L 3582,4563 10633,4563 10633,4715 3582,4715 Z"/>
 <path fill="rgb(99,99,99)" stroke="none" d="M 3582,5277 L 3582,5124 10584,5124 10584,5277 3582,5277 Z"/>
 <path fill="rgb(99,99,99)" stroke="none" d="M 3582,5838 L 3582,5686 10303,5686 10303,5838 3582,5838 Z"/>
 <path fill="rgb(99,99,99)" stroke="none" d="M 3582,6399 L 3582,6248 9136,6248 9136,6399 3582,6399 Z"/>
 <path fill="rgb(99,99,99)" stroke="none" d="M 3582,6962 L 3582,6809 8648,6809 8648,6962 3582,6962 Z"/>
 <path fill="rgb(99,99,99)" stroke="none" d="M 3582,7523 L 3582,7370 7192,7370 7192,7523 3582,7523 Z"/>
 <path fill="rgb(99,99,99)" stroke="none" d="M 3582,8084 L 3582,7932 7180,7932 7180,8084 3582,8084 Z"/>
 <path fill="rgb(99,99,99)" stroke="none" d="M 3582,8646 L 3582,8493 6879,8493 6879,8646 3582,8646 Z"/>
 <path fill="rgb(99,99,99)" stroke="none" d="M 3582,9207 L 3582,9055 6461,9055 6461,9207 3582,9207 Z"/>
 <path fill="rgb(99,99,99)" stroke="none" d="M 3582,9768 L 3582,9617 6349,9617 6349,9768 3582,9768 Z"/>
 <path fill="rgb(99,99,99)" stroke="none" d="M 3582,10331 L 3582,10178 6230,10178 6230,10331 3582,10331 Z"/>
 <path fill="rgb(99,99,99)" stroke="none" d="M 3582,10892 L 3582,10739 6051,10739 6051,10892 3582,10892 Z"/>
 <path fill="rgb(99,99,99)" stroke="none" d="M 3582,11453 L 3582,11301 5828,11301 5828,11453 3582,11453 Z"/>
 <path fill="rgb(99,99,99)" stroke="none" d="M 3582,12015 L 3582,11862 5769,11862 5769,12015 3582,12015 Z"/>
 <path fill="rgb(99,99,99)" stroke="none" d="M 3582,12576 L 3582,12423 5766,12423 5766,12576 3582,12576 Z"/>
 <path fill="rgb(99,99,99)" stroke="none" d="M 3582,13137 L 3582,12986 5631,12986 5631,13137 3582,13137 Z"/>
 <path fill="rgb(99,99,99)" stroke="none" d="M 3582,13700 L 3582,13547 5397,13547 5397,13700 3582,13700 Z"/>
 <path fill="rgb(99,99,99)" stroke="none" d="M 3582,14261 L 3582,14108 5103,14108 5103,14261 3582,14261 Z"/>
 <path fill="rgb(99,99,99)" stroke="none" d="M 3582,14822 L 3582,14670 5101,14670 5101,14822 3582,14822 Z"/>
 <path fill="rgb(99,99,99)" stroke="none" d="M 3582,15384 L 3582,15231 5040,15231 5040,15384 3582,15384 Z"/>
 <path fill="rgb(99,99,99)" stroke="none" d="M 3582,15945 L 3582,15792 4563,15792 4563,15945 3582,15945 Z"/>
 <path fill="rgb(99,99,99)" stroke="none" d="M 3582,16506 L 3582,16355 4250,16355 4250,16506 3582,16506 Z"/>
 <path fill="rgb(99,99,99)" stroke="none" d="M 3582,17069 L 3582,16916 4103,16916 4103,17069 3582,17069 Z"/>
 <text class="TextShape"><tspan class="TextParagraph" font-family="Calibri, sans-serif" font-size="318px" font-weight="400"><tspan class="TextPosition" x="1324" y="17098"><tspan fill="rgb(89,89,89)" stroke="none">Raspberry PI</tspan></tspan></tspan></text>
 <text class="TextShape"><tspan class="TextParagraph" font-family="Calibri, sans-serif" font-size="318px" font-weight="400"><tspan class="TextPosition" x="1008" y="16537"><tspan fill="rgb(89,89,89)" stroke="none">Pentium M725</tspan></tspan></tspan></text>
 <text class="TextShape"><tspan class="TextParagraph" font-family="Calibri, sans-serif" font-size="318px" font-weight="400"><tspan class="TextPosition" x="1589" y="15976"><tspan fill="rgb(89,89,89)" stroke="none">Pentium III</tspan></tspan></tspan></text>
 <text class="TextShape"><tspan class="TextParagraph" font-family="Calibri, sans-serif" font-size="318px" font-weight="400"><tspan class="TextPosition" x="1087" y="15414"><tspan fill="rgb(89,89,89)" stroke="none">Orange Pi Win</tspan></tspan></tspan></text>
 <text class="TextShape"><tspan class="TextParagraph" font-family="Calibri, sans-serif" font-size="318px" font-weight="400"><tspan class="TextPosition" x="1008" y="14852"><tspan fill="rgb(89,89,89)" stroke="none">Raspberry PI 3</tspan></tspan></tspan></text>
 <text class="TextShape"><tspan class="TextParagraph" font-family="Calibri, sans-serif" font-size="318px" font-weight="400"><tspan class="TextPosition" x="2487" y="14291"><tspan fill="rgb(89,89,89)" stroke="none">E8C2</tspan></tspan></tspan></text>
 <text class="TextShape"><tspan class="TextParagraph" font-family="Calibri, sans-serif" font-size="318px" font-weight="400"><tspan class="TextPosition" x="1087" y="13729"><tspan fill="rgb(89,89,89)" stroke="none">Orange Pi PC2</tspan></tspan></tspan></text>
 <text class="TextShape"><tspan class="TextParagraph" font-family="Calibri, sans-serif" font-size="318px" font-weight="400"><tspan class="TextPosition" x="1562" y="13168"><tspan fill="rgb(89,89,89)" stroke="none">E2S-EL2S4</tspan></tspan></tspan></text>
 <text class="TextShape"><tspan class="TextParagraph" font-family="Calibri, sans-serif" font-size="318px" font-weight="400"><tspan class="TextPosition" x="1562" y="12607"><tspan fill="rgb(89,89,89)" stroke="none">E2S-PC401</tspan></tspan></tspan></text>
 <text class="TextShape"><tspan class="TextParagraph" font-family="Calibri, sans-serif" font-size="318px" font-weight="400"><tspan class="TextPosition" x="1536" y="12045"><tspan fill="rgb(89,89,89)" stroke="none">E8C2-1200</tspan></tspan></tspan></text>
 <text class="TextShape"><tspan class="TextParagraph" font-family="Calibri, sans-serif" font-size="318px" font-weight="400"><tspan class="TextPosition" x="1192" y="11483"><tspan fill="rgb(89,89,89)" stroke="none">Baikal T1 BFK</tspan></tspan></tspan></text>
 <text class="TextShape"><tspan class="TextParagraph" font-family="Calibri, sans-serif" font-size="318px" font-weight="400"><tspan class="TextPosition" x="1695" y="10922"><tspan fill="rgb(89,89,89)" stroke="none">Pentium 4</tspan></tspan></tspan></text>
 <text class="TextShape"><tspan class="TextParagraph" font-family="Calibri, sans-serif" font-size="318px" font-weight="400"><tspan class="TextPosition" x="1721" y="10360"><tspan fill="rgb(89,89,89)" stroke="none">MBE1C-PC</tspan></tspan></tspan></text>
 <text class="TextShape"><tspan class="TextParagraph" font-family="Calibri, sans-serif" font-size="318px" font-weight="400"><tspan class="TextPosition" x="1747" y="9799"><tspan fill="rgb(89,89,89)" stroke="none">Odroid X2</tspan></tspan></tspan></text>
 <text class="TextShape"><tspan class="TextParagraph" font-family="Calibri, sans-serif" font-size="318px" font-weight="400"><tspan class="TextPosition" x="1324" y="9238"><tspan fill="rgb(89,89,89)" stroke="none">Atom Z8350</tspan></tspan></tspan></text>
 <text class="TextShape"><tspan class="TextParagraph" font-family="Calibri, sans-serif" font-size="318px" font-weight="400"><tspan class="TextPosition" x="1536" y="8676"><tspan fill="rgb(89,89,89)" stroke="none">E8C2-1550</tspan></tspan></tspan></text>
 <text class="TextShape"><tspan class="TextParagraph" font-family="Calibri, sans-serif" font-size="318px" font-weight="400"><tspan class="TextPosition" x="1747" y="8114"><tspan fill="rgb(89,89,89)" stroke="none">E8C-E8C4</tspan></tspan></tspan></text>
 <text class="TextShape"><tspan class="TextParagraph" font-family="Calibri, sans-serif" font-size="318px" font-weight="400"><tspan class="TextPosition" x="1668" y="7553"><tspan fill="rgb(89,89,89)" stroke="none">E8C-SWTX</tspan></tspan></tspan></text>
 <text class="TextShape"><tspan class="TextParagraph" font-family="Calibri, sans-serif" font-size="318px" font-weight="400"><tspan class="TextPosition" x="1721" y="6991"><tspan fill="rgb(89,89,89)" stroke="none">Odroid N2</tspan></tspan></tspan></text>
 <text class="TextShape"><tspan class="TextParagraph" font-family="Calibri, sans-serif" font-size="318px" font-weight="400"><tspan class="TextPosition" x="981" y="6430"><tspan fill="rgb(89,89,89)" stroke="none">E16C-APPROX*</tspan></tspan></tspan></text>
 <text class="TextShape"><tspan class="TextParagraph" font-family="Calibri, sans-serif" font-size="318px" font-weight="400"><tspan class="TextPosition" x="1165" y="5869"><tspan fill="rgb(89,89,89)" stroke="none">Core i3-m330</tspan></tspan></tspan></text>
 <text class="TextShape"><tspan class="TextParagraph" font-family="Calibri, sans-serif" font-size="318px" font-weight="400"><tspan class="TextPosition" x="1140" y="5307"><tspan fill="rgb(89,89,89)" stroke="none">AWS Graviton</tspan></tspan></tspan></text>
 <text class="TextShape"><tspan class="TextParagraph" font-family="Calibri, sans-serif" font-size="318px" font-weight="400"><tspan class="TextPosition" x="1140" y="4745"><tspan fill="rgb(89,89,89)" stroke="none">AMD A6-3650</tspan></tspan></tspan></text>
 <text class="TextShape"><tspan class="TextParagraph" font-family="Calibri, sans-serif" font-size="318px" font-weight="400"><tspan class="TextPosition" x="426" y="4184"><tspan fill="rgb(89,89,89)" stroke="none">Core 2 Duo T9400</tspan></tspan></tspan></text>
 <text class="TextShape"><tspan class="TextParagraph" font-family="Calibri, sans-serif" font-size="318px" font-weight="400"><tspan class="TextPosition" x="1271" y="3622"><tspan fill="rgb(89,89,89)" stroke="none">Core i7-2600</tspan></tspan></tspan></text>
 <text class="TextShape"><tspan class="TextParagraph" font-family="Calibri, sans-serif" font-size="318px" font-weight="400"><tspan class="TextPosition" x="770" y="3061"><tspan fill="rgb(89,89,89)" stroke="none">Core i7-4700MQ</tspan></tspan></tspan></text>
 <text class="TextShape"><tspan class="TextParagraph" font-family="Calibri, sans-serif" font-size="318px" font-weight="400"><tspan class="TextPosition" x="1589" y="2500"><tspan fill="rgb(89,89,89)" stroke="none">Xeon 6128</tspan></tspan></tspan></text>
 <text class="TextShape"><tspan class="TextParagraph" font-family="Calibri, sans-serif" font-size="318px" font-weight="400"><tspan class="TextPosition" x="3212" y="17664"><tspan fill="rgb(89,89,89)" stroke="none">0,00</tspan></tspan></tspan></text>
 <text class="TextShape"><tspan class="TextParagraph" font-family="Calibri, sans-serif" font-size="318px" font-weight="400"><tspan class="TextPosition" x="5930" y="17664"><tspan fill="rgb(89,89,89)" stroke="none">0,20</tspan></tspan></tspan></text>
 <text class="TextShape"><tspan class="TextParagraph" font-family="Calibri, sans-serif" font-size="318px" font-weight="400"><tspan class="TextPosition" x="8647" y="17664"><tspan fill="rgb(89,89,89)" stroke="none">0,40</tspan></tspan></tspan></text>
 <text class="TextShape"><tspan class="TextParagraph" font-family="Calibri, sans-serif" font-size="318px" font-weight="400"><tspan class="TextPosition" x="11365" y="17664"><tspan fill="rgb(89,89,89)" stroke="none">0,60</tspan></tspan></tspan></text>
 <text class="TextShape"><tspan class="TextParagraph" font-family="Calibri, sans-serif" font-size="318px" font-weight="400"><tspan class="TextPosition" x="14082" y="17664"><tspan fill="rgb(89,89,89)" stroke="none">0,80</tspan></tspan></tspan></text>
 <text class="TextShape"><tspan class="TextParagraph" font-family="Calibri, sans-serif" font-size="318px" font-weight="400"><tspan class="TextPosition" x="16800" y="17664"><tspan fill="rgb(89,89,89)" stroke="none">1,00</tspan></tspan></tspan></text>
 <text class="TextShape"><tspan class="TextParagraph" font-family="Calibri, sans-serif" font-size="318px" font-weight="400"><tspan class="TextPosition" x="19518" y="17664"><tspan fill="rgb(89,89,89)" stroke="none">1,20</tspan></tspan></tspan></text>
 <text class="TextShape"><tspan class="TextParagraph" font-family="Calibri, sans-serif" font-size="318px" font-weight="400"><tspan class="TextPosition" x="4203" y="17098"><tspan fill="rgb(64,64,64)" stroke="none">0,04</tspan></tspan></tspan></text>
 <text class="TextShape"><tspan class="TextParagraph" font-family="Calibri, sans-serif" font-size="318px" font-weight="400"><tspan class="TextPosition" x="4350" y="16537"><tspan fill="rgb(64,64,64)" stroke="none">0,05</tspan></tspan></tspan></text>
 <text class="TextShape"><tspan class="TextParagraph" font-family="Calibri, sans-serif" font-size="318px" font-weight="400"><tspan class="TextPosition" x="4663" y="15976"><tspan fill="rgb(64,64,64)" stroke="none">0,07</tspan></tspan></tspan></text>
 <text class="TextShape"><tspan class="TextParagraph" font-family="Calibri, sans-serif" font-size="318px" font-weight="400"><tspan class="TextPosition" x="5140" y="15414"><tspan fill="rgb(64,64,64)" stroke="none">0,11</tspan></tspan></tspan></text>
 <text class="TextShape"><tspan class="TextParagraph" font-family="Calibri, sans-serif" font-size="318px" font-weight="400"><tspan class="TextPosition" x="5201" y="14852"><tspan fill="rgb(64,64,64)" stroke="none">0,11</tspan></tspan></tspan></text>
 <text class="TextShape"><tspan class="TextParagraph" font-family="Calibri, sans-serif" font-size="318px" font-weight="400"><tspan class="TextPosition" x="5203" y="14291"><tspan fill="rgb(64,64,64)" stroke="none">0,11</tspan></tspan></tspan></text>
 <text class="TextShape"><tspan class="TextParagraph" font-family="Calibri, sans-serif" font-size="318px" font-weight="400"><tspan class="TextPosition" x="5497" y="13729"><tspan fill="rgb(64,64,64)" stroke="none">0,13</tspan></tspan></tspan></text>
 <text class="TextShape"><tspan class="TextParagraph" font-family="Calibri, sans-serif" font-size="318px" font-weight="400"><tspan class="TextPosition" x="5731" y="13168"><tspan fill="rgb(64,64,64)" stroke="none">0,15</tspan></tspan></tspan></text>
 <text class="TextShape"><tspan class="TextParagraph" font-family="Calibri, sans-serif" font-size="318px" font-weight="400"><tspan class="TextPosition" x="5866" y="12607"><tspan fill="rgb(64,64,64)" stroke="none">0,16</tspan></tspan></tspan></text>
 <text class="TextShape"><tspan class="TextParagraph" font-family="Calibri, sans-serif" font-size="318px" font-weight="400"><tspan class="TextPosition" x="5869" y="12045"><tspan fill="rgb(64,64,64)" stroke="none">0,16</tspan></tspan></tspan></text>
 <text class="TextShape"><tspan class="TextParagraph" font-family="Calibri, sans-serif" font-size="318px" font-weight="400"><tspan class="TextPosition" x="5928" y="11483"><tspan fill="rgb(64,64,64)" stroke="none">0,17</tspan></tspan></tspan></text>
 <text class="TextShape"><tspan class="TextParagraph" font-family="Calibri, sans-serif" font-size="318px" font-weight="400"><tspan class="TextPosition" x="6151" y="10922"><tspan fill="rgb(64,64,64)" stroke="none">0,18</tspan></tspan></tspan></text>
 <text class="TextShape"><tspan class="TextParagraph" font-family="Calibri, sans-serif" font-size="318px" font-weight="400"><tspan class="TextPosition" x="6330" y="10360"><tspan fill="rgb(64,64,64)" stroke="none">0,19</tspan></tspan></tspan></text>
 <text class="TextShape"><tspan class="TextParagraph" font-family="Calibri, sans-serif" font-size="318px" font-weight="400"><tspan class="TextPosition" x="6449" y="9799"><tspan fill="rgb(64,64,64)" stroke="none">0,20</tspan></tspan></tspan></text>
 <text class="TextShape"><tspan class="TextParagraph" font-family="Calibri, sans-serif" font-size="318px" font-weight="400"><tspan class="TextPosition" x="6560" y="9238"><tspan fill="rgb(64,64,64)" stroke="none">0,21</tspan></tspan></tspan></text>
 <text class="TextShape"><tspan class="TextParagraph" font-family="Calibri, sans-serif" font-size="318px" font-weight="400"><tspan class="TextPosition" x="6979" y="8676"><tspan fill="rgb(64,64,64)" stroke="none">0,24</tspan></tspan></tspan></text>
 <text class="TextShape"><tspan class="TextParagraph" font-family="Calibri, sans-serif" font-size="318px" font-weight="400"><tspan class="TextPosition" x="7279" y="8114"><tspan fill="rgb(64,64,64)" stroke="none">0,26</tspan></tspan></tspan></text>
 <text class="TextShape"><tspan class="TextParagraph" font-family="Calibri, sans-serif" font-size="318px" font-weight="400"><tspan class="TextPosition" x="7291" y="7553"><tspan fill="rgb(64,64,64)" stroke="none">0,27</tspan></tspan></tspan></text>
 <text class="TextShape"><tspan class="TextParagraph" font-family="Calibri, sans-serif" font-size="318px" font-weight="400"><tspan class="TextPosition" x="8748" y="6991"><tspan fill="rgb(64,64,64)" stroke="none">0,37</tspan></tspan></tspan></text>
 <text class="TextShape"><tspan class="TextParagraph" font-family="Calibri, sans-serif" font-size="318px" font-weight="400"><tspan class="TextPosition" x="9236" y="6430"><tspan fill="rgb(64,64,64)" stroke="none">0,41</tspan></tspan></tspan></text>
 <text class="TextShape"><tspan class="TextParagraph" font-family="Calibri, sans-serif" font-size="318px" font-weight="400"><tspan class="TextPosition" x="10402" y="5869"><tspan fill="rgb(64,64,64)" stroke="none">0,49</tspan></tspan></tspan></text>
 <text class="TextShape"><tspan class="TextParagraph" font-family="Calibri, sans-serif" font-size="318px" font-weight="400"><tspan class="TextPosition" x="10684" y="5307"><tspan fill="rgb(64,64,64)" stroke="none">0,52</tspan></tspan></tspan></text>
 <text class="TextShape"><tspan class="TextParagraph" font-family="Calibri, sans-serif" font-size="318px" font-weight="400"><tspan class="TextPosition" x="10733" y="4745"><tspan fill="rgb(64,64,64)" stroke="none">0,52</tspan></tspan></tspan></text>
 <text class="TextShape"><tspan class="TextParagraph" font-family="Calibri, sans-serif" font-size="318px" font-weight="400"><tspan class="TextPosition" x="11874" y="4184"><tspan fill="rgb(64,64,64)" stroke="none">0,60</tspan></tspan></tspan></text>
 <text class="TextShape"><tspan class="TextParagraph" font-family="Calibri, sans-serif" font-size="318px" font-weight="400"><tspan class="TextPosition" x="17269" y="3622"><tspan fill="rgb(64,64,64)" stroke="none">1,00</tspan></tspan></tspan></text>
 <text class="TextShape"><tspan class="TextParagraph" font-family="Calibri, sans-serif" font-size="318px" font-weight="400"><tspan class="TextPosition" x="17830" y="3061"><tspan fill="rgb(64,64,64)" stroke="none">1,04</tspan></tspan></tspan></text>
 <text class="TextShape"><tspan class="TextParagraph" font-family="Calibri, sans-serif" font-size="318px" font-weight="400"><tspan class="TextPosition" x="19189" y="2500"><tspan fill="rgb(64,64,64)" stroke="none">1,14</tspan></tspan></tspan></text>
 <text class="TextShape"><tspan class="TextParagraph" font-family="Calibri Light" font-size="705px" font-weight="400"><tspan class="TextPosition" x="460" y="1381"><tspan fill="rgb(89,89,89)" stroke="none">Dhrystone Benchmark v 2.1 (Relative to Core i7-2600)</tspan></tspan></tspan></text>
</svg>