<?xml version="1.0" encoding="UTF-8"?>
<!DOCTYPE svg PUBLIC "-//W3C//DTD SVG 1.1//EN" "http://www.w3.org/Graphics/SVG/1.1/DTD/svg11.dtd">
<svg width="270mm" height="331mm" viewBox="0 0 27000 33100" version="1.1" xmlns="http://www.w3.org/2000/svg" xmlns:xlink="http://www.w3.org/1999/xlink" stroke-width="28.222" stroke-linejoin="round" xml:space="preserve">
 <path fill="rgb(68,114,196)" stroke="none" d="M 35,35 L 26917,35 26917,33075 35,33075 35,35 Z"/>
 <path fill="none" stroke="rgb(47,82,143)" stroke-width="35" d="M 17,18 L 26934,18 26934,33093 17,33093 17,18 Z"/>
 <path fill="rgb(255,255,255)" stroke="none" d="M 13476,33062 L 48,33062 48,48 26904,48 26904,33062 13476,33062 Z"/>
 <path fill="none" stroke="rgb(217,217,217)" stroke-width="26" stroke-linejoin="round" d="M 13476,33062 L 48,33062 48,48 26904,48 26904,33062 13476,33062 Z"/>
 <path fill="none" stroke="rgb(217,217,217)" stroke-width="26" stroke-linejoin="round" d="M 3140,3327 L 3140,31983"/>
 <path fill="none" stroke="rgb(217,217,217)" stroke-width="26" stroke-linejoin="round" d="M 5420,3327 L 5420,31983"/>
 <path fill="none" stroke="rgb(217,217,217)" stroke-width="26" stroke-linejoin="round" d="M 7700,3327 L 7700,31983"/>
 <path fill="none" stroke="rgb(217,217,217)" stroke-width="26" stroke-linejoin="round" d="M 9980,3327 L 9980,31983"/>
 <path fill="none" stroke="rgb(217,217,217)" stroke-width="26" stroke-linejoin="round" d="M 12261,3327 L 12261,31983"/>
 <path fill="none" stroke="rgb(217,217,217)" stroke-width="26" stroke-linejoin="round" d="M 14541,3327 L 14541,31983"/>
 <path fill="none" stroke="rgb(217,217,217)" stroke-width="26" stroke-linejoin="round" d="M 16821,3327 L 16821,31983"/>
 <path fill="none" stroke="rgb(217,217,217)" stroke-width="26" stroke-linejoin="round" d="M 19102,3327 L 19102,31983"/>
 <path fill="none" stroke="rgb(217,217,217)" stroke-width="26" stroke-linejoin="round" d="M 21382,3327 L 21382,31983"/>
 <path fill="none" stroke="rgb(217,217,217)" stroke-width="26" stroke-linejoin="round" d="M 23662,3327 L 23662,31983"/>
 <path fill="none" stroke="rgb(217,217,217)" stroke-width="26" stroke-linejoin="round" d="M 25943,3327 L 25943,31983"/>
 <path fill="none" stroke="rgb(242,242,242)" stroke-width="26" stroke-linejoin="round" d="M 4280,3327 L 4280,31983"/>
 <path fill="none" stroke="rgb(242,242,242)" stroke-width="26" stroke-linejoin="round" d="M 6559,3327 L 6559,31983"/>
 <path fill="none" stroke="rgb(242,242,242)" stroke-width="26" stroke-linejoin="round" d="M 8840,3327 L 8840,31983"/>
 <path fill="none" stroke="rgb(242,242,242)" stroke-width="26" stroke-linejoin="round" d="M 11121,3327 L 11121,31983"/>
 <path fill="none" stroke="rgb(242,242,242)" stroke-width="26" stroke-linejoin="round" d="M 13401,3327 L 13401,31983"/>
 <path fill="none" stroke="rgb(242,242,242)" stroke-width="26" stroke-linejoin="round" d="M 15681,3327 L 15681,31983"/>
 <path fill="none" stroke="rgb(242,242,242)" stroke-width="26" stroke-linejoin="round" d="M 17961,3327 L 17961,31983"/>
 <path fill="none" stroke="rgb(242,242,242)" stroke-width="26" stroke-linejoin="round" d="M 20242,3327 L 20242,31983"/>
 <path fill="none" stroke="rgb(242,242,242)" stroke-width="26" stroke-linejoin="round" d="M 22522,3327 L 22522,31983"/>
 <path fill="none" stroke="rgb(242,242,242)" stroke-width="26" stroke-linejoin="round" d="M 24802,3327 L 24802,31983"/>
 <path fill="none" stroke="rgb(217,217,217)" stroke-width="26" stroke-linejoin="round" d="M 2990,31983 L 3140,31983"/>
 <path fill="none" stroke="rgb(217,217,217)" stroke-width="26" stroke-linejoin="round" d="M 2990,30922 L 3140,30922"/>
 <path fill="none" stroke="rgb(217,217,217)" stroke-width="26" stroke-linejoin="round" d="M 2990,29861 L 3140,29861"/>
 <path fill="none" stroke="rgb(217,217,217)" stroke-width="26" stroke-linejoin="round" d="M 2990,28799 L 3140,28799"/>
 <path fill="none" stroke="rgb(217,217,217)" stroke-width="26" stroke-linejoin="round" d="M 2990,27738 L 3140,27738"/>
 <path fill="none" stroke="rgb(217,217,217)" stroke-width="26" stroke-linejoin="round" d="M 2990,26676 L 3140,26676"/>
 <path fill="none" stroke="rgb(217,217,217)" stroke-width="26" stroke-linejoin="round" d="M 2990,25615 L 3140,25615"/>
 <path fill="none" stroke="rgb(217,217,217)" stroke-width="26" stroke-linejoin="round" d="M 2990,24554 L 3140,24554"/>
 <path fill="none" stroke="rgb(217,217,217)" stroke-width="26" stroke-linejoin="round" d="M 2990,23493 L 3140,23493"/>
 <path fill="none" stroke="rgb(217,217,217)" stroke-width="26" stroke-linejoin="round" d="M 2990,22432 L 3140,22432"/>
 <path fill="none" stroke="rgb(217,217,217)" stroke-width="26" stroke-linejoin="round" d="M 2990,21370 L 3140,21370"/>
 <path fill="none" stroke="rgb(217,217,217)" stroke-width="26" stroke-linejoin="round" d="M 2990,20308 L 3140,20308"/>
 <path fill="none" stroke="rgb(217,217,217)" stroke-width="26" stroke-linejoin="round" d="M 2990,19247 L 3140,19247"/>
 <path fill="none" stroke="rgb(217,217,217)" stroke-width="26" stroke-linejoin="round" d="M 2990,18186 L 3140,18186"/>
 <path fill="none" stroke="rgb(217,217,217)" stroke-width="26" stroke-linejoin="round" d="M 2990,17124 L 3140,17124"/>
 <path fill="none" stroke="rgb(217,217,217)" stroke-width="26" stroke-linejoin="round" d="M 2990,16063 L 3140,16063"/>
 <path fill="none" stroke="rgb(217,217,217)" stroke-width="26" stroke-linejoin="round" d="M 2990,15002 L 3140,15002"/>
 <path fill="none" stroke="rgb(217,217,217)" stroke-width="26" stroke-linejoin="round" d="M 2990,13941 L 3140,13941"/>
 <path fill="none" stroke="rgb(217,217,217)" stroke-width="26" stroke-linejoin="round" d="M 2990,12880 L 3140,12880"/>
 <path fill="none" stroke="rgb(217,217,217)" stroke-width="26" stroke-linejoin="round" d="M 2990,11817 L 3140,11817"/>
 <path fill="none" stroke="rgb(217,217,217)" stroke-width="26" stroke-linejoin="round" d="M 2990,10756 L 3140,10756"/>
 <path fill="none" stroke="rgb(217,217,217)" stroke-width="26" stroke-linejoin="round" d="M 2990,9695 L 3140,9695"/>
 <path fill="none" stroke="rgb(217,217,217)" stroke-width="26" stroke-linejoin="round" d="M 2990,8634 L 3140,8634"/>
 <path fill="none" stroke="rgb(217,217,217)" stroke-width="26" stroke-linejoin="round" d="M 2990,7572 L 3140,7572"/>
 <path fill="none" stroke="rgb(217,217,217)" stroke-width="26" stroke-linejoin="round" d="M 2990,6511 L 3140,6511"/>
 <path fill="none" stroke="rgb(217,217,217)" stroke-width="26" stroke-linejoin="round" d="M 2990,5450 L 3140,5450"/>
 <path fill="none" stroke="rgb(217,217,217)" stroke-width="26" stroke-linejoin="round" d="M 2990,4388 L 3140,4388"/>
 <path fill="none" stroke="rgb(217,217,217)" stroke-width="26" stroke-linejoin="round" d="M 2990,3327 L 3140,3327"/>
 <path fill="none" stroke="rgb(217,217,217)" stroke-width="26" stroke-linejoin="round" d="M 3140,31983 L 3140,3327"/>
 <path fill="rgb(95,95,95)" stroke="none" d="M 3140,4154 L 3140,3980 23868,3980 23868,4154 3140,4154 Z"/>
 <path fill="rgb(95,95,95)" stroke="none" d="M 3140,5215 L 3140,5041 21497,5041 21497,5215 3140,5215 Z"/>
 <path fill="rgb(95,95,95)" stroke="none" d="M 3140,6277 L 3140,6102 15156,6102 15156,6277 3140,6277 Z"/>
 <path fill="rgb(95,95,95)" stroke="none" d="M 3140,7338 L 3140,7163 13128,7163 13128,7338 3140,7338 Z"/>
 <path fill="rgb(95,95,95)" stroke="none" d="M 3140,8399 L 3140,8225 11848,8225 11848,8399 3140,8399 Z"/>
 <path fill="rgb(95,95,95)" stroke="none" d="M 3140,9460 L 3140,9286 11473,9286 11473,9460 3140,9460 Z"/>
 <path fill="rgb(95,95,95)" stroke="none" d="M 3140,10521 L 3140,10348 10759,10348 10759,10521 3140,10521 Z"/>
 <path fill="rgb(95,95,95)" stroke="none" d="M 3140,11584 L 3140,11409 9367,11409 9367,11584 3140,11584 Z"/>
 <path fill="rgb(95,95,95)" stroke="none" d="M 3140,12645 L 3140,12470 8666,12470 8666,12645 3140,12645 Z"/>
 <path fill="rgb(95,95,95)" stroke="none" d="M 3140,13706 L 3140,13532 8053,13532 8053,13706 3140,13706 Z"/>
 <path fill="rgb(95,95,95)" stroke="none" d="M 3140,14767 L 3140,14593 7944,14593 7944,14767 3140,14767 Z"/>
 <path fill="rgb(95,95,95)" stroke="none" d="M 3140,15829 L 3140,15654 7734,15654 7734,15829 3140,15829 Z"/>
 <path fill="rgb(95,95,95)" stroke="none" d="M 3140,16890 L 3140,16715 6977,16715 6977,16890 3140,16890 Z"/>
 <path fill="rgb(95,95,95)" stroke="none" d="M 3140,17951 L 3140,17778 6907,17778 6907,17951 3140,17951 Z"/>
 <path fill="rgb(95,95,95)" stroke="none" d="M 3140,19012 L 3140,18839 5932,18839 5932,19012 3140,19012 Z"/>
 <path fill="rgb(95,95,95)" stroke="none" d="M 3140,20074 L 3140,19900 5453,19900 5453,20074 3140,20074 Z"/>
 <path fill="rgb(95,95,95)" stroke="none" d="M 3140,21136 L 3140,20961 5375,20961 5375,21136 3140,21136 Z"/>
 <path fill="rgb(95,95,95)" stroke="none" d="M 3140,22197 L 3140,22022 4898,22022 4898,22197 3140,22197 Z"/>
 <path fill="rgb(95,95,95)" stroke="none" d="M 3140,23258 L 3140,23084 4728,23084 4728,23258 3140,23258 Z"/>
 <path fill="rgb(95,95,95)" stroke="none" d="M 3140,24319 L 3140,24145 4613,24145 4613,24319 3140,24319 Z"/>
 <path fill="rgb(95,95,95)" stroke="none" d="M 3140,25381 L 3140,25206 4569,25206 4569,25381 3140,25381 Z"/>
 <path fill="rgb(95,95,95)" stroke="none" d="M 3140,26442 L 3140,26268 3990,26268 3990,26442 3140,26442 Z"/>
 <path fill="rgb(95,95,95)" stroke="none" d="M 3140,27504 L 3140,27330 3334,27330 3334,27504 3140,27504 Z"/>
 <path fill="rgb(95,95,95)" stroke="none" d="M 3140,28565 L 3140,28391 3140,28391 3140,28565 Z"/>
 <path fill="rgb(95,95,95)" stroke="none" d="M 3140,29626 L 3140,29452 3140,29452 3140,29626 Z"/>
 <path fill="rgb(95,95,95)" stroke="none" d="M 3140,30688 L 3140,30513 3140,30513 3140,30688 Z"/>
 <path fill="rgb(95,95,95)" stroke="none" d="M 3140,31749 L 3140,31574 3140,31574 3140,31749 Z"/>
 <path fill="rgb(179,179,179)" stroke="none" d="M 3140,3945 L 3140,3770 20183,3770 20183,3945 3140,3945 Z"/>
 <path fill="rgb(179,179,179)" stroke="none" d="M 3140,5006 L 3140,4832 10494,4832 10494,5006 3140,5006 Z"/>
 <path fill="rgb(179,179,179)" stroke="none" d="M 3140,6067 L 3140,5893 10683,5893 10683,6067 3140,6067 Z"/>
 <path fill="rgb(179,179,179)" stroke="none" d="M 3140,7128 L 3140,6954 13897,6954 13897,7128 3140,7128 Z"/>
 <path fill="rgb(179,179,179)" stroke="none" d="M 3140,8190 L 3140,8015 11089,8015 11089,8190 3140,8190 Z"/>
 <path fill="rgb(179,179,179)" stroke="none" d="M 3140,9251 L 3140,9078 10846,9078 10846,9251 3140,9251 Z"/>
 <path fill="rgb(179,179,179)" stroke="none" d="M 3140,10313 L 3140,10139 11646,10139 11646,10313 3140,10313 Z"/>
 <path fill="rgb(179,179,179)" stroke="none" d="M 3140,11374 L 3140,11200 7314,11200 7314,11374 3140,11374 Z"/>
 <path fill="rgb(179,179,179)" stroke="none" d="M 3140,12436 L 3140,12261 8667,12261 8667,12436 3140,12436 Z"/>
 <path fill="rgb(179,179,179)" stroke="none" d="M 3140,13497 L 3140,13322 6943,13322 6943,13497 3140,13497 Z"/>
 <path fill="rgb(179,179,179)" stroke="none" d="M 3140,14558 L 3140,14384 8377,14384 8377,14558 3140,14558 Z"/>
 <path fill="rgb(179,179,179)" stroke="none" d="M 3140,15619 L 3140,15445 5692,15445 5692,15619 3140,15619 Z"/>
 <path fill="rgb(179,179,179)" stroke="none" d="M 3140,16680 L 3140,16507 5942,16507 5942,16680 3140,16680 Z"/>
 <path fill="rgb(179,179,179)" stroke="none" d="M 3140,17743 L 3140,17568 6451,17568 6451,17743 3140,17743 Z"/>
 <path fill="rgb(179,179,179)" stroke="none" d="M 3140,18804 L 3140,18630 5135,18630 5135,18804 3140,18804 Z"/>
 <path fill="rgb(179,179,179)" stroke="none" d="M 3140,19865 L 3140,19691 7901,19691 7901,19865 3140,19865 Z"/>
 <path fill="rgb(179,179,179)" stroke="none" d="M 3140,20926 L 3140,20752 4181,20752 4181,20926 3140,20926 Z"/>
 <path fill="rgb(179,179,179)" stroke="none" d="M 3140,21988 L 3140,21813 3743,21813 3743,21988 3140,21988 Z"/>
 <path fill="rgb(179,179,179)" stroke="none" d="M 3140,23049 L 3140,22874 4574,22874 4574,23049 3140,23049 Z"/>
 <path fill="rgb(179,179,179)" stroke="none" d="M 3140,24110 L 3140,23936 5510,23936 5510,24110 3140,24110 Z"/>
 <path fill="rgb(179,179,179)" stroke="none" d="M 3140,25171 L 3140,24998 4409,24998 4409,25171 3140,25171 Z"/>
 <path fill="rgb(179,179,179)" stroke="none" d="M 3140,26233 L 3140,26059 3661,26059 3661,26233 3140,26233 Z"/>
 <path fill="rgb(179,179,179)" stroke="none" d="M 3140,27295 L 3140,27120 3190,27120 3190,27295 3140,27295 Z"/>
 <path fill="rgb(179,179,179)" stroke="none" d="M 3140,28356 L 3140,28182 3140,28182 3140,28356 Z"/>
 <path fill="rgb(179,179,179)" stroke="none" d="M 3140,29417 L 3140,29243 3140,29243 3140,29417 Z"/>
 <path fill="rgb(179,179,179)" stroke="none" d="M 3140,30478 L 3140,30304 3140,30304 3140,30478 Z"/>
 <path fill="rgb(179,179,179)" stroke="none" d="M 3140,31540 L 3140,31365 3140,31365 3140,31540 Z"/>
 <path fill="rgb(137,137,137)" stroke="none" d="M 3140,3736 L 3140,3561 9233,3561 9233,3736 3140,3736 Z"/>
 <path fill="rgb(137,137,137)" stroke="none" d="M 3140,4797 L 3140,4622 7519,4622 7519,4797 3140,4797 Z"/>
 <path fill="rgb(137,137,137)" stroke="none" d="M 3140,5858 L 3140,5684 6932,5684 6932,5858 3140,5858 Z"/>
 <path fill="rgb(137,137,137)" stroke="none" d="M 3140,6919 L 3140,6746 12953,6746 12953,6919 3140,6919 Z"/>
 <path fill="rgb(137,137,137)" stroke="none" d="M 3140,7981 L 3140,7807 9544,7807 9544,7981 3140,7981 Z"/>
 <path fill="rgb(137,137,137)" stroke="none" d="M 3140,9043 L 3140,8868 9433,8868 9433,9043 3140,9043 Z"/>
 <path fill="rgb(137,137,137)" stroke="none" d="M 3140,10104 L 3140,9929 11127,9929 11127,10104 3140,10104 Z"/>
 <path fill="rgb(137,137,137)" stroke="none" d="M 3140,11165 L 3140,10991 4122,10991 4122,11165 3140,11165 Z"/>
 <path fill="rgb(137,137,137)" stroke="none" d="M 3140,12226 L 3140,12052 5156,12052 5156,12226 3140,12226 Z"/>
 <path fill="rgb(137,137,137)" stroke="none" d="M 3140,13288 L 3140,13113 4228,13113 4228,13288 3140,13288 Z"/>
 <path fill="rgb(137,137,137)" stroke="none" d="M 3140,14349 L 3140,14174 5084,14174 5084,14349 3140,14349 Z"/>
 <path fill="rgb(137,137,137)" stroke="none" d="M 3140,15410 L 3140,15237 3762,15237 3762,15410 3140,15410 Z"/>
 <path fill="rgb(137,137,137)" stroke="none" d="M 3140,16472 L 3140,16298 3809,16298 3809,16472 3140,16472 Z"/>
 <path fill="rgb(137,137,137)" stroke="none" d="M 3140,17533 L 3140,17359 4773,17359 4773,17533 3140,17533 Z"/>
 <path fill="rgb(137,137,137)" stroke="none" d="M 3140,18595 L 3140,18420 4652,18420 4652,18595 3140,18595 Z"/>
 <path fill="rgb(137,137,137)" stroke="none" d="M 3140,19656 L 3140,19481 3669,19481 3669,19656 3140,19656 Z"/>
 <path fill="rgb(137,137,137)" stroke="none" d="M 3140,20717 L 3140,20543 3714,20543 3714,20717 3140,20717 Z"/>
 <path fill="rgb(137,137,137)" stroke="none" d="M 3140,21778 L 3140,21604 3426,21604 3426,21778 3140,21778 Z"/>
 <path fill="rgb(137,137,137)" stroke="none" d="M 3140,22840 L 3140,22666 3766,22666 3766,22840 3140,22840 Z"/>
 <path fill="rgb(137,137,137)" stroke="none" d="M 3140,23901 L 3140,23727 4111,23727 4111,23901 3140,23901 Z"/>
 <path fill="rgb(137,137,137)" stroke="none" d="M 3140,24963 L 3140,24789 3536,24789 3536,24963 3140,24963 Z"/>
 <path fill="rgb(137,137,137)" stroke="none" d="M 3140,26024 L 3140,25850 3331,25850 3331,26024 3140,26024 Z"/>
 <path fill="rgb(137,137,137)" stroke="none" d="M 3140,27085 L 3140,26911 3190,26911 3190,27085 3140,27085 Z"/>
 <path fill="rgb(137,137,137)" stroke="none" d="M 3140,28147 L 3140,27972 3140,27972 3140,28147 Z"/>
 <path fill="rgb(137,137,137)" stroke="none" d="M 3140,29208 L 3140,29033 3140,29033 3140,29208 Z"/>
 <path fill="rgb(137,137,137)" stroke="none" d="M 3140,30269 L 3140,30095 3140,30095 3140,30269 Z"/>
 <path fill="rgb(137,137,137)" stroke="none" d="M 3140,31330 L 3140,31157 3140,31157 3140,31330 Z"/>
 <text class="TextShape"><tspan class="TextParagraph" font-family="Calibri, sans-serif" font-size="318px" font-weight="400"><tspan class="TextPosition" x="1579" y="31527"><tspan fill="rgb(89,89,89)" stroke="none">Pentium 4</tspan></tspan></tspan></text>
 <text class="TextShape"><tspan class="TextParagraph" font-family="Calibri, sans-serif" font-size="318px" font-weight="400"><tspan class="TextPosition" x="1495" y="30466"><tspan fill="rgb(89,89,89)" stroke="none">Pentium III</tspan></tspan></tspan></text>
 <text class="TextShape"><tspan class="TextParagraph" font-family="Calibri, sans-serif" font-size="318px" font-weight="400"><tspan class="TextPosition" x="902" y="29404"><tspan fill="rgb(89,89,89)" stroke="none">E16C-APPROX*</tspan></tspan></tspan></text>
 <text class="TextShape"><tspan class="TextParagraph" font-family="Calibri, sans-serif" font-size="318px" font-weight="400"><tspan class="TextPosition" x="1220" y="28343"><tspan fill="rgb(89,89,89)" stroke="none">Baikal T1 BFK</tspan></tspan></tspan></text>
 <text class="TextShape"><tspan class="TextParagraph" font-family="Calibri, sans-serif" font-size="318px" font-weight="400"><tspan class="TextPosition" x="1283" y="27281"><tspan fill="rgb(89,89,89)" stroke="none">Raspberry PI</tspan></tspan></tspan></text>
 <text class="TextShape"><tspan class="TextParagraph" font-family="Calibri, sans-serif" font-size="318px" font-weight="400"><tspan class="TextPosition" x="966" y="26220"><tspan fill="rgb(89,89,89)" stroke="none">Pentium M725</tspan></tspan></tspan></text>
 <text class="TextShape"><tspan class="TextParagraph" font-family="Calibri, sans-serif" font-size="318px" font-weight="400"><tspan class="TextPosition" x="1050" y="25159"><tspan fill="rgb(89,89,89)" stroke="none">Raspberry PI 3</tspan></tspan></tspan></text>
 <text class="TextShape"><tspan class="TextParagraph" font-family="Calibri, sans-serif" font-size="318px" font-weight="400"><tspan class="TextPosition" x="585" y="24098"><tspan fill="rgb(89,89,89)" stroke="none">Core 2 Duo T9400</tspan></tspan></tspan></text>
 <text class="TextShape"><tspan class="TextParagraph" font-family="Calibri, sans-serif" font-size="318px" font-weight="400"><tspan class="TextPosition" x="1093" y="23037"><tspan fill="rgb(89,89,89)" stroke="none">Orange Pi Win</tspan></tspan></tspan></text>
 <text class="TextShape"><tspan class="TextParagraph" font-family="Calibri, sans-serif" font-size="318px" font-weight="400"><tspan class="TextPosition" x="1600" y="21975"><tspan fill="rgb(89,89,89)" stroke="none">Odroid X2</tspan></tspan></tspan></text>
 <text class="TextShape"><tspan class="TextParagraph" font-family="Calibri, sans-serif" font-size="318px" font-weight="400"><tspan class="TextPosition" x="1093" y="20913"><tspan fill="rgb(89,89,89)" stroke="none">Orange Pi PC2</tspan></tspan></tspan></text>
 <text class="TextShape"><tspan class="TextParagraph" font-family="Calibri, sans-serif" font-size="318px" font-weight="400"><tspan class="TextPosition" x="1516" y="19852"><tspan fill="rgb(89,89,89)" stroke="none">MBE1C-PC</tspan></tspan></tspan></text>
 <text class="TextShape"><tspan class="TextParagraph" font-family="Calibri, sans-serif" font-size="318px" font-weight="400"><tspan class="TextPosition" x="2235" y="18791"><tspan fill="rgb(89,89,89)" stroke="none">E8C2</tspan></tspan></tspan></text>
 <text class="TextShape"><tspan class="TextParagraph" font-family="Calibri, sans-serif" font-size="318px" font-weight="400"><tspan class="TextPosition" x="1557" y="17730"><tspan fill="rgb(89,89,89)" stroke="none">Odroid N2</tspan></tspan></tspan></text>
 <text class="TextShape"><tspan class="TextParagraph" font-family="Calibri, sans-serif" font-size="318px" font-weight="400"><tspan class="TextPosition" x="1474" y="16668"><tspan fill="rgb(89,89,89)" stroke="none">E2S-PC401</tspan></tspan></tspan></text>
 <text class="TextShape"><tspan class="TextParagraph" font-family="Calibri, sans-serif" font-size="318px" font-weight="400"><tspan class="TextPosition" x="1283" y="15607"><tspan fill="rgb(89,89,89)" stroke="none">Atom Z8350</tspan></tspan></tspan></text>
 <text class="TextShape"><tspan class="TextParagraph" font-family="Calibri, sans-serif" font-size="318px" font-weight="400"><tspan class="TextPosition" x="1557" y="14546"><tspan fill="rgb(89,89,89)" stroke="none">E2S-EL2S4</tspan></tspan></tspan></text>
 <text class="TextShape"><tspan class="TextParagraph" font-family="Calibri, sans-serif" font-size="318px" font-weight="400"><tspan class="TextPosition" x="1135" y="13485"><tspan fill="rgb(89,89,89)" stroke="none">Core i3-m330</tspan></tspan></tspan></text>
 <text class="TextShape"><tspan class="TextParagraph" font-family="Calibri, sans-serif" font-size="318px" font-weight="400"><tspan class="TextPosition" x="1114" y="12422"><tspan fill="rgb(89,89,89)" stroke="none">AWS Graviton</tspan></tspan></tspan></text>
 <text class="TextShape"><tspan class="TextParagraph" font-family="Calibri, sans-serif" font-size="318px" font-weight="400"><tspan class="TextPosition" x="1029" y="11361"><tspan fill="rgb(89,89,89)" stroke="none">AMD A6-3650</tspan></tspan></tspan></text>
 <text class="TextShape"><tspan class="TextParagraph" font-family="Calibri, sans-serif" font-size="318px" font-weight="400"><tspan class="TextPosition" x="1453" y="10300"><tspan fill="rgb(89,89,89)" stroke="none">E8C2-1200</tspan></tspan></tspan></text>
 <text class="TextShape"><tspan class="TextParagraph" font-family="Calibri, sans-serif" font-size="318px" font-weight="400"><tspan class="TextPosition" x="1642" y="9239"><tspan fill="rgb(89,89,89)" stroke="none">E8C-E8C4</tspan></tspan></tspan></text>
 <text class="TextShape"><tspan class="TextParagraph" font-family="Calibri, sans-serif" font-size="318px" font-weight="400"><tspan class="TextPosition" x="1557" y="8178"><tspan fill="rgb(89,89,89)" stroke="none">E8C-SWTX</tspan></tspan></tspan></text>
 <text class="TextShape"><tspan class="TextParagraph" font-family="Calibri, sans-serif" font-size="318px" font-weight="400"><tspan class="TextPosition" x="1453" y="7116"><tspan fill="rgb(89,89,89)" stroke="none">E8C2-1550</tspan></tspan></tspan></text>
 <text class="TextShape"><tspan class="TextParagraph" font-family="Calibri, sans-serif" font-size="318px" font-weight="400"><tspan class="TextPosition" x="1220" y="6055"><tspan fill="rgb(89,89,89)" stroke="none">Core i7-2600</tspan></tspan></tspan></text>
 <text class="TextShape"><tspan class="TextParagraph" font-family="Calibri, sans-serif" font-size="318px" font-weight="400"><tspan class="TextPosition" x="733" y="4993"><tspan fill="rgb(89,89,89)" stroke="none">Core i7-4700MQ</tspan></tspan></tspan></text>
 <text class="TextShape"><tspan class="TextParagraph" font-family="Calibri, sans-serif" font-size="318px" font-weight="400"><tspan class="TextPosition" x="1495" y="3932"><tspan fill="rgb(89,89,89)" stroke="none">Xeon 6128</tspan></tspan></tspan></text>
 <text class="TextShape"><tspan class="TextParagraph" font-family="Calibri, sans-serif" font-size="318px" font-weight="400"><tspan class="TextPosition" x="3055" y="32316"><tspan fill="rgb(89,89,89)" stroke="none">0</tspan></tspan></tspan></text>
 <text class="TextShape"><tspan class="TextParagraph" font-family="Calibri, sans-serif" font-size="318px" font-weight="400"><tspan class="TextPosition" x="5081" y="32316"><tspan fill="rgb(89,89,89)" stroke="none">5000</tspan></tspan></tspan></text>
 <text class="TextShape"><tspan class="TextParagraph" font-family="Calibri, sans-serif" font-size="318px" font-weight="400"><tspan class="TextPosition" x="7277" y="32316"><tspan fill="rgb(89,89,89)" stroke="none">10000</tspan></tspan></tspan></text>
 <text class="TextShape"><tspan class="TextParagraph" font-family="Calibri, sans-serif" font-size="318px" font-weight="400"><tspan class="TextPosition" x="9557" y="32316"><tspan fill="rgb(89,89,89)" stroke="none">15000</tspan></tspan></tspan></text>
 <text class="TextShape"><tspan class="TextParagraph" font-family="Calibri, sans-serif" font-size="318px" font-weight="400"><tspan class="TextPosition" x="11838" y="32316"><tspan fill="rgb(89,89,89)" stroke="none">20000</tspan></tspan></tspan></text>
 <text class="TextShape"><tspan class="TextParagraph" font-family="Calibri, sans-serif" font-size="318px" font-weight="400"><tspan class="TextPosition" x="14118" y="32316"><tspan fill="rgb(89,89,89)" stroke="none">25000</tspan></tspan></tspan></text>
 <text class="TextShape"><tspan class="TextParagraph" font-family="Calibri, sans-serif" font-size="318px" font-weight="400"><tspan class="TextPosition" x="16398" y="32316"><tspan fill="rgb(89,89,89)" stroke="none">30000</tspan></tspan></tspan></text>
 <text class="TextShape"><tspan class="TextParagraph" font-family="Calibri, sans-serif" font-size="318px" font-weight="400"><tspan class="TextPosition" x="18679" y="32316"><tspan fill="rgb(89,89,89)" stroke="none">35000</tspan></tspan></tspan></text>
 <text class="TextShape"><tspan class="TextParagraph" font-family="Calibri, sans-serif" font-size="318px" font-weight="400"><tspan class="TextPosition" x="20958" y="32316"><tspan fill="rgb(89,89,89)" stroke="none">40000</tspan></tspan></tspan></text>
 <text class="TextShape"><tspan class="TextParagraph" font-family="Calibri, sans-serif" font-size="318px" font-weight="400"><tspan class="TextPosition" x="23239" y="32316"><tspan fill="rgb(89,89,89)" stroke="none">45000</tspan></tspan></tspan></text>
 <text class="TextShape"><tspan class="TextParagraph" font-family="Calibri, sans-serif" font-size="318px" font-weight="400"><tspan class="TextPosition" x="25520" y="32316"><tspan fill="rgb(89,89,89)" stroke="none">50000</tspan></tspan></tspan></text>
 <text class="TextShape"><tspan class="TextParagraph" font-family="Calibri, sans-serif" font-size="318px" font-weight="400"><tspan class="TextPosition" x="3240" y="31737"><tspan fill="rgb(64,64,64)" stroke="none">0</tspan></tspan></tspan></text>
 <text class="TextShape"><tspan class="TextParagraph" font-family="Calibri, sans-serif" font-size="318px" font-weight="400"><tspan class="TextPosition" x="3240" y="30674"><tspan fill="rgb(64,64,64)" stroke="none">0</tspan></tspan></tspan></text>
 <text class="TextShape"><tspan class="TextParagraph" font-family="Calibri, sans-serif" font-size="318px" font-weight="400"><tspan class="TextPosition" x="3240" y="29613"><tspan fill="rgb(64,64,64)" stroke="none">0</tspan></tspan></tspan></text>
 <text class="TextShape"><tspan class="TextParagraph" font-family="Calibri, sans-serif" font-size="318px" font-weight="400"><tspan class="TextPosition" x="3240" y="28552"><tspan fill="rgb(64,64,64)" stroke="none">0</tspan></tspan></tspan></text>
 <text class="TextShape"><tspan class="TextParagraph" font-family="Calibri, sans-serif" font-size="318px" font-weight="400"><tspan class="TextPosition" x="3434" y="27491"><tspan fill="rgb(64,64,64)" stroke="none">426</tspan></tspan></tspan></text>
 <text class="TextShape"><tspan class="TextParagraph" font-family="Calibri, sans-serif" font-size="318px" font-weight="400"><tspan class="TextPosition" x="4090" y="26430"><tspan fill="rgb(64,64,64)" stroke="none">1866</tspan></tspan></tspan></text>
 <text class="TextShape"><tspan class="TextParagraph" font-family="Calibri, sans-serif" font-size="318px" font-weight="400"><tspan class="TextPosition" x="4669" y="25368"><tspan fill="rgb(64,64,64)" stroke="none">3136</tspan></tspan></tspan></text>
 <text class="TextShape"><tspan class="TextParagraph" font-family="Calibri, sans-serif" font-size="318px" font-weight="400"><tspan class="TextPosition" x="4713" y="24307"><tspan fill="rgb(64,64,64)" stroke="none">3232</tspan></tspan></tspan></text>
 <text class="TextShape"><tspan class="TextParagraph" font-family="Calibri, sans-serif" font-size="318px" font-weight="400"><tspan class="TextPosition" x="4828" y="23246"><tspan fill="rgb(64,64,64)" stroke="none">3483</tspan></tspan></tspan></text>
 <text class="TextShape"><tspan class="TextParagraph" font-family="Calibri, sans-serif" font-size="318px" font-weight="400"><tspan class="TextPosition" x="4998" y="22184"><tspan fill="rgb(64,64,64)" stroke="none">3856</tspan></tspan></tspan></text>
 <text class="TextShape"><tspan class="TextParagraph" font-family="Calibri, sans-serif" font-size="318px" font-weight="400"><tspan class="TextPosition" x="5475" y="21122"><tspan fill="rgb(64,64,64)" stroke="none">4902</tspan></tspan></tspan></text>
 <text class="TextShape"><tspan class="TextParagraph" font-family="Calibri, sans-serif" font-size="318px" font-weight="400"><tspan class="TextPosition" x="5552" y="20061"><tspan fill="rgb(64,64,64)" stroke="none">5073</tspan></tspan></tspan></text>
 <text class="TextShape"><tspan class="TextParagraph" font-family="Calibri, sans-serif" font-size="318px" font-weight="400"><tspan class="TextPosition" x="6032" y="19000"><tspan fill="rgb(64,64,64)" stroke="none">6124</tspan></tspan></tspan></text>
 <text class="TextShape"><tspan class="TextParagraph" font-family="Calibri, sans-serif" font-size="318px" font-weight="400"><tspan class="TextPosition" x="7007" y="17939"><tspan fill="rgb(64,64,64)" stroke="none">8261</tspan></tspan></tspan></text>
 <text class="TextShape"><tspan class="TextParagraph" font-family="Calibri, sans-serif" font-size="318px" font-weight="400"><tspan class="TextPosition" x="7077" y="16878"><tspan fill="rgb(64,64,64)" stroke="none">8415</tspan></tspan></tspan></text>
 <text class="TextShape"><tspan class="TextParagraph" font-family="Calibri, sans-serif" font-size="318px" font-weight="400"><tspan class="TextPosition" x="7834" y="15816"><tspan fill="rgb(64,64,64)" stroke="none">10075</tspan></tspan></tspan></text>
 <text class="TextShape"><tspan class="TextParagraph" font-family="Calibri, sans-serif" font-size="318px" font-weight="400"><tspan class="TextPosition" x="8044" y="14754"><tspan fill="rgb(64,64,64)" stroke="none">10535</tspan></tspan></tspan></text>
 <text class="TextShape"><tspan class="TextParagraph" font-family="Calibri, sans-serif" font-size="318px" font-weight="400"><tspan class="TextPosition" x="8153" y="13693"><tspan fill="rgb(64,64,64)" stroke="none">10774</tspan></tspan></tspan></text>
 <text class="TextShape"><tspan class="TextParagraph" font-family="Calibri, sans-serif" font-size="318px" font-weight="400"><tspan class="TextPosition" x="8766" y="12632"><tspan fill="rgb(64,64,64)" stroke="none">12118</tspan></tspan></tspan></text>
 <text class="TextShape"><tspan class="TextParagraph" font-family="Calibri, sans-serif" font-size="318px" font-weight="400"><tspan class="TextPosition" x="9467" y="11570"><tspan fill="rgb(64,64,64)" stroke="none">13655</tspan></tspan></tspan></text>
 <text class="TextShape"><tspan class="TextParagraph" font-family="Calibri, sans-serif" font-size="318px" font-weight="400"><tspan class="TextPosition" x="10859" y="10509"><tspan fill="rgb(64,64,64)" stroke="none">16709</tspan></tspan></tspan></text>
 <text class="TextShape"><tspan class="TextParagraph" font-family="Calibri, sans-serif" font-size="318px" font-weight="400"><tspan class="TextPosition" x="11572" y="9448"><tspan fill="rgb(64,64,64)" stroke="none">18273</tspan></tspan></tspan></text>
 <text class="TextShape"><tspan class="TextParagraph" font-family="Calibri, sans-serif" font-size="318px" font-weight="400"><tspan class="TextPosition" x="11948" y="8387"><tspan fill="rgb(64,64,64)" stroke="none">19096</tspan></tspan></tspan></text>
 <text class="TextShape"><tspan class="TextParagraph" font-family="Calibri, sans-serif" font-size="318px" font-weight="400"><tspan class="TextPosition" x="13228" y="7326"><tspan fill="rgb(64,64,64)" stroke="none">21901</tspan></tspan></tspan></text>
 <text class="TextShape"><tspan class="TextParagraph" font-family="Calibri, sans-serif" font-size="318px" font-weight="400"><tspan class="TextPosition" x="15256" y="6263"><tspan fill="rgb(64,64,64)" stroke="none">26348</tspan></tspan></tspan></text>
 <text class="TextShape"><tspan class="TextParagraph" font-family="Calibri, sans-serif" font-size="318px" font-weight="400"><tspan class="TextPosition" x="21597" y="5202"><tspan fill="rgb(64,64,64)" stroke="none">40254</tspan></tspan></tspan></text>
 <text class="TextShape"><tspan class="TextParagraph" font-family="Calibri, sans-serif" font-size="318px" font-weight="400"><tspan class="TextPosition" x="23968" y="4141"><tspan fill="rgb(64,64,64)" stroke="none">45452</tspan></tspan></tspan></text>
 <text class="TextShape"><tspan class="TextParagraph" font-family="Calibri, sans-serif" font-size="318px" font-weight="400"><tspan class="TextPosition" x="3240" y="31527"><tspan fill="rgb(64,64,64)" stroke="none">0</tspan></tspan></tspan></text>
 <text class="TextShape"><tspan class="TextParagraph" font-family="Calibri, sans-serif" font-size="318px" font-weight="400"><tspan class="TextPosition" x="3240" y="30466"><tspan fill="rgb(64,64,64)" stroke="none">0</tspan></tspan></tspan></text>
 <text class="TextShape"><tspan class="TextParagraph" font-family="Calibri, sans-serif" font-size="318px" font-weight="400"><tspan class="TextPosition" x="3240" y="29404"><tspan fill="rgb(64,64,64)" stroke="none">0</tspan></tspan></tspan></text>
 <text class="TextShape"><tspan class="TextParagraph" font-family="Calibri, sans-serif" font-size="318px" font-weight="400"><tspan class="TextPosition" x="3240" y="28343"><tspan fill="rgb(64,64,64)" stroke="none">0</tspan></tspan></tspan></text>
 <text class="TextShape"><tspan class="TextParagraph" font-family="Calibri, sans-serif" font-size="318px" font-weight="400"><tspan class="TextPosition" x="3290" y="27281"><tspan fill="rgb(64,64,64)" stroke="none">111</tspan></tspan></tspan></text>
 <text class="TextShape"><tspan class="TextParagraph" font-family="Calibri, sans-serif" font-size="318px" font-weight="400"><tspan class="TextPosition" x="3761" y="26220"><tspan fill="rgb(64,64,64)" stroke="none">1145</tspan></tspan></tspan></text>
 <text class="TextShape"><tspan class="TextParagraph" font-family="Calibri, sans-serif" font-size="318px" font-weight="400"><tspan class="TextPosition" x="4509" y="25159"><tspan fill="rgb(64,64,64)" stroke="none">2783</tspan></tspan></tspan></text>
 <text class="TextShape"><tspan class="TextParagraph" font-family="Calibri, sans-serif" font-size="318px" font-weight="400"><tspan class="TextPosition" x="5609" y="24098"><tspan fill="rgb(64,64,64)" stroke="none">5196</tspan></tspan></tspan></text>
 <text class="TextShape"><tspan class="TextParagraph" font-family="Calibri, sans-serif" font-size="318px" font-weight="400"><tspan class="TextPosition" x="4674" y="23037"><tspan fill="rgb(64,64,64)" stroke="none">3146</tspan></tspan></tspan></text>
 <text class="TextShape"><tspan class="TextParagraph" font-family="Calibri, sans-serif" font-size="318px" font-weight="400"><tspan class="TextPosition" x="3843" y="21975"><tspan fill="rgb(64,64,64)" stroke="none">1324</tspan></tspan></tspan></text>
 <text class="TextShape"><tspan class="TextParagraph" font-family="Calibri, sans-serif" font-size="318px" font-weight="400"><tspan class="TextPosition" x="4281" y="20913"><tspan fill="rgb(64,64,64)" stroke="none">2284</tspan></tspan></tspan></text>
 <text class="TextShape"><tspan class="TextParagraph" font-family="Calibri, sans-serif" font-size="318px" font-weight="400"><tspan class="TextPosition" x="8001" y="19852"><tspan fill="rgb(64,64,64)" stroke="none">10442</tspan></tspan></tspan></text>
 <text class="TextShape"><tspan class="TextParagraph" font-family="Calibri, sans-serif" font-size="318px" font-weight="400"><tspan class="TextPosition" x="5235" y="18791"><tspan fill="rgb(64,64,64)" stroke="none">4376</tspan></tspan></tspan></text>
 <text class="TextShape"><tspan class="TextParagraph" font-family="Calibri, sans-serif" font-size="318px" font-weight="400"><tspan class="TextPosition" x="6550" y="17730"><tspan fill="rgb(64,64,64)" stroke="none">7260</tspan></tspan></tspan></text>
 <text class="TextShape"><tspan class="TextParagraph" font-family="Calibri, sans-serif" font-size="318px" font-weight="400"><tspan class="TextPosition" x="6042" y="16668"><tspan fill="rgb(64,64,64)" stroke="none">6145</tspan></tspan></tspan></text>
 <text class="TextShape"><tspan class="TextParagraph" font-family="Calibri, sans-serif" font-size="318px" font-weight="400"><tspan class="TextPosition" x="5792" y="15607"><tspan fill="rgb(64,64,64)" stroke="none">5598</tspan></tspan></tspan></text>
 <text class="TextShape"><tspan class="TextParagraph" font-family="Calibri, sans-serif" font-size="318px" font-weight="400"><tspan class="TextPosition" x="8477" y="14546"><tspan fill="rgb(64,64,64)" stroke="none">11483</tspan></tspan></tspan></text>
 <text class="TextShape"><tspan class="TextParagraph" font-family="Calibri, sans-serif" font-size="318px" font-weight="400"><tspan class="TextPosition" x="7043" y="13485"><tspan fill="rgb(64,64,64)" stroke="none">8340</tspan></tspan></tspan></text>
 <text class="TextShape"><tspan class="TextParagraph" font-family="Calibri, sans-serif" font-size="318px" font-weight="400"><tspan class="TextPosition" x="8767" y="12422"><tspan fill="rgb(64,64,64)" stroke="none">12120</tspan></tspan></tspan></text>
 <text class="TextShape"><tspan class="TextParagraph" font-family="Calibri, sans-serif" font-size="318px" font-weight="400"><tspan class="TextPosition" x="7414" y="11361"><tspan fill="rgb(64,64,64)" stroke="none">9154</tspan></tspan></tspan></text>
 <text class="TextShape"><tspan class="TextParagraph" font-family="Calibri, sans-serif" font-size="318px" font-weight="400"><tspan class="TextPosition" x="11746" y="10300"><tspan fill="rgb(64,64,64)" stroke="none">18654</tspan></tspan></tspan></text>
 <text class="TextShape"><tspan class="TextParagraph" font-family="Calibri, sans-serif" font-size="318px" font-weight="400"><tspan class="TextPosition" x="10946" y="9239"><tspan fill="rgb(64,64,64)" stroke="none">16898</tspan></tspan></tspan></text>
 <text class="TextShape"><tspan class="TextParagraph" font-family="Calibri, sans-serif" font-size="318px" font-weight="400"><tspan class="TextPosition" x="11189" y="8177"><tspan fill="rgb(64,64,64)" stroke="none">17431</tspan></tspan></tspan></text>
 <text class="TextShape"><tspan class="TextParagraph" font-family="Calibri, sans-serif" font-size="318px" font-weight="400"><tspan class="TextPosition" x="13997" y="7116"><tspan fill="rgb(64,64,64)" stroke="none">23589</tspan></tspan></tspan></text>
 <text class="TextShape"><tspan class="TextParagraph" font-family="Calibri, sans-serif" font-size="318px" font-weight="400"><tspan class="TextPosition" x="10783" y="6055"><tspan fill="rgb(64,64,64)" stroke="none">16541</tspan></tspan></tspan></text>
 <text class="TextShape"><tspan class="TextParagraph" font-family="Calibri, sans-serif" font-size="318px" font-weight="400"><tspan class="TextPosition" x="10594" y="4993"><tspan fill="rgb(64,64,64)" stroke="none">16127</tspan></tspan></tspan></text>
 <text class="TextShape"><tspan class="TextParagraph" font-family="Calibri, sans-serif" font-size="318px" font-weight="400"><tspan class="TextPosition" x="20283" y="3932"><tspan fill="rgb(64,64,64)" stroke="none">37370</tspan></tspan></tspan></text>
 <text class="TextShape"><tspan class="TextParagraph" font-family="Calibri, sans-serif" font-size="318px" font-weight="400"><tspan class="TextPosition" x="3240" y="31318"><tspan fill="rgb(64,64,64)" stroke="none">0</tspan></tspan></tspan></text>
 <text class="TextShape"><tspan class="TextParagraph" font-family="Calibri, sans-serif" font-size="318px" font-weight="400"><tspan class="TextPosition" x="3240" y="30257"><tspan fill="rgb(64,64,64)" stroke="none">0</tspan></tspan></tspan></text>
 <text class="TextShape"><tspan class="TextParagraph" font-family="Calibri, sans-serif" font-size="318px" font-weight="400"><tspan class="TextPosition" x="3240" y="29196"><tspan fill="rgb(64,64,64)" stroke="none">0</tspan></tspan></tspan></text>
 <text class="TextShape"><tspan class="TextParagraph" font-family="Calibri, sans-serif" font-size="318px" font-weight="400"><tspan class="TextPosition" x="3240" y="28134"><tspan fill="rgb(64,64,64)" stroke="none">0</tspan></tspan></tspan></text>
 <text class="TextShape"><tspan class="TextParagraph" font-family="Calibri, sans-serif" font-size="318px" font-weight="400"><tspan class="TextPosition" x="3290" y="27072"><tspan fill="rgb(64,64,64)" stroke="none">111</tspan></tspan></tspan></text>
 <text class="TextShape"><tspan class="TextParagraph" font-family="Calibri, sans-serif" font-size="318px" font-weight="400"><tspan class="TextPosition" x="3431" y="26011"><tspan fill="rgb(64,64,64)" stroke="none">420</tspan></tspan></tspan></text>
 <text class="TextShape"><tspan class="TextParagraph" font-family="Calibri, sans-serif" font-size="318px" font-weight="400"><tspan class="TextPosition" x="3636" y="24950"><tspan fill="rgb(64,64,64)" stroke="none">871</tspan></tspan></tspan></text>
 <text class="TextShape"><tspan class="TextParagraph" font-family="Calibri, sans-serif" font-size="318px" font-weight="400"><tspan class="TextPosition" x="4211" y="23889"><tspan fill="rgb(64,64,64)" stroke="none">2131</tspan></tspan></tspan></text>
 <text class="TextShape"><tspan class="TextParagraph" font-family="Calibri, sans-serif" font-size="318px" font-weight="400"><tspan class="TextPosition" x="3866" y="22827"><tspan fill="rgb(64,64,64)" stroke="none">1374</tspan></tspan></tspan></text>
 <text class="TextShape"><tspan class="TextParagraph" font-family="Calibri, sans-serif" font-size="318px" font-weight="400"><tspan class="TextPosition" x="3525" y="21766"><tspan fill="rgb(64,64,64)" stroke="none">627</tspan></tspan></tspan></text>
 <text class="TextShape"><tspan class="TextParagraph" font-family="Calibri, sans-serif" font-size="318px" font-weight="400"><tspan class="TextPosition" x="3814" y="20705"><tspan fill="rgb(64,64,64)" stroke="none">1261</tspan></tspan></tspan></text>
 <text class="TextShape"><tspan class="TextParagraph" font-family="Calibri, sans-serif" font-size="318px" font-weight="400"><tspan class="TextPosition" x="3769" y="19643"><tspan fill="rgb(64,64,64)" stroke="none">1163</tspan></tspan></tspan></text>
 <text class="TextShape"><tspan class="TextParagraph" font-family="Calibri, sans-serif" font-size="318px" font-weight="400"><tspan class="TextPosition" x="4752" y="18581"><tspan fill="rgb(64,64,64)" stroke="none">3318</tspan></tspan></tspan></text>
 <text class="TextShape"><tspan class="TextParagraph" font-family="Calibri, sans-serif" font-size="318px" font-weight="400"><tspan class="TextPosition" x="4873" y="17520"><tspan fill="rgb(64,64,64)" stroke="none">3582</tspan></tspan></tspan></text>
 <text class="TextShape"><tspan class="TextParagraph" font-family="Calibri, sans-serif" font-size="318px" font-weight="400"><tspan class="TextPosition" x="3909" y="16459"><tspan fill="rgb(64,64,64)" stroke="none">1468</tspan></tspan></tspan></text>
 <text class="TextShape"><tspan class="TextParagraph" font-family="Calibri, sans-serif" font-size="318px" font-weight="400"><tspan class="TextPosition" x="3862" y="15398"><tspan fill="rgb(64,64,64)" stroke="none">1365</tspan></tspan></tspan></text>
 <text class="TextShape"><tspan class="TextParagraph" font-family="Calibri, sans-serif" font-size="318px" font-weight="400"><tspan class="TextPosition" x="5184" y="14337"><tspan fill="rgb(64,64,64)" stroke="none">4263</tspan></tspan></tspan></text>
 <text class="TextShape"><tspan class="TextParagraph" font-family="Calibri, sans-serif" font-size="318px" font-weight="400"><tspan class="TextPosition" x="4328" y="13275"><tspan fill="rgb(64,64,64)" stroke="none">2387</tspan></tspan></tspan></text>
 <text class="TextShape"><tspan class="TextParagraph" font-family="Calibri, sans-serif" font-size="318px" font-weight="400"><tspan class="TextPosition" x="5256" y="12214"><tspan fill="rgb(64,64,64)" stroke="none">4422</tspan></tspan></tspan></text>
 <text class="TextShape"><tspan class="TextParagraph" font-family="Calibri, sans-serif" font-size="318px" font-weight="400"><tspan class="TextPosition" x="4222" y="11152"><tspan fill="rgb(64,64,64)" stroke="none">2154</tspan></tspan></tspan></text>
 <text class="TextShape"><tspan class="TextParagraph" font-family="Calibri, sans-serif" font-size="318px" font-weight="400"><tspan class="TextPosition" x="11227" y="10091"><tspan fill="rgb(64,64,64)" stroke="none">17513</tspan></tspan></tspan></text>
 <text class="TextShape"><tspan class="TextParagraph" font-family="Calibri, sans-serif" font-size="318px" font-weight="400"><tspan class="TextPosition" x="9532" y="9029"><tspan fill="rgb(64,64,64)" stroke="none">13798</tspan></tspan></tspan></text>
 <text class="TextShape"><tspan class="TextParagraph" font-family="Calibri, sans-serif" font-size="318px" font-weight="400"><tspan class="TextPosition" x="9644" y="7968"><tspan fill="rgb(64,64,64)" stroke="none">14045</tspan></tspan></tspan></text>
 <text class="TextShape"><tspan class="TextParagraph" font-family="Calibri, sans-serif" font-size="318px" font-weight="400"><tspan class="TextPosition" x="13053" y="6907"><tspan fill="rgb(64,64,64)" stroke="none">21518</tspan></tspan></tspan></text>
 <text class="TextShape"><tspan class="TextParagraph" font-family="Calibri, sans-serif" font-size="318px" font-weight="400"><tspan class="TextPosition" x="7032" y="5846"><tspan fill="rgb(64,64,64)" stroke="none">8317</tspan></tspan></tspan></text>
 <text class="TextShape"><tspan class="TextParagraph" font-family="Calibri, sans-serif" font-size="318px" font-weight="400"><tspan class="TextPosition" x="7619" y="4785"><tspan fill="rgb(64,64,64)" stroke="none">9605</tspan></tspan></tspan></text>
 <text class="TextShape"><tspan class="TextParagraph" font-family="Calibri, sans-serif" font-size="318px" font-weight="400"><tspan class="TextPosition" x="9333" y="3722"><tspan fill="rgb(64,64,64)" stroke="none">13360</tspan></tspan></tspan></text>
 <text class="TextShape"><tspan class="TextParagraph" font-family="Calibri Light" font-size="705px" font-weight="400"><tspan class="TextPosition" x="8612" y="1584"><tspan fill="rgb(89,89,89)" stroke="none">Memspeed (MB/s, x[m]=y[m] Sngl)</tspan></tspan></tspan></text>
 <path fill="rgb(95,95,95)" stroke="none" d="M 14548,2504 L 14454,2504 14454,2314 14643,2314 14643,2504 14548,2504 Z"/>
 <path fill="rgb(179,179,179)" stroke="none" d="M 13139,2504 L 13044,2504 13044,2314 13234,2314 13234,2504 13139,2504 Z"/>
 <path fill="rgb(137,137,137)" stroke="none" d="M 11559,2504 L 11465,2504 11465,2314 11654,2314 11654,2504 11559,2504 Z"/>
 <text class="TextShape"><tspan class="TextParagraph" font-family="Calibri, sans-serif" font-size="318px" font-weight="400"><tspan class="TextPosition" x="11754" y="2483"><tspan fill="rgb(89,89,89)" stroke="none">8192 KB</tspan></tspan></tspan></text>
 <text class="TextShape"><tspan class="TextParagraph" font-family="Calibri, sans-serif" font-size="318px" font-weight="400"><tspan class="TextPosition" x="13334" y="2483"><tspan fill="rgb(89,89,89)" stroke="none">512 KB</tspan></tspan></tspan></text>
 <text class="TextShape"><tspan class="TextParagraph" font-family="Calibri, sans-serif" font-size="318px" font-weight="400"><tspan class="TextPosition" x="14743" y="2483"><tspan fill="rgb(89,89,89)" stroke="none">16 KB</tspan></tspan></tspan></text>
</svg>