<?xml version="1.0" encoding="UTF-8"?>
<!DOCTYPE svg PUBLIC "-//W3C//DTD SVG 1.1//EN" "http://www.w3.org/Graphics/SVG/1.1/DTD/svg11.dtd">
<svg width="269mm" height="329mm" viewBox="0 0 26900 32900" version="1.1" xmlns="http://www.w3.org/2000/svg" xmlns:xlink="http://www.w3.org/1999/xlink" stroke-width="28.222" stroke-linejoin="round" xml:space="preserve">
 <path fill="rgb(68,114,196)" stroke="none" d="M 35,35 L 26891,35 26891,32880 35,32880 35,35 Z"/>
 <path fill="none" stroke="rgb(47,82,143)" stroke-width="35" d="M 18,18 L 26909,18 26909,32898 18,32898 18,18 Z"/>
 <path fill="rgb(255,255,255)" stroke="none" d="M 13463,32867 L 48,32867 48,48 26878,48 26878,32867 13463,32867 Z"/>
 <path fill="none" stroke="rgb(217,217,217)" stroke-width="26" stroke-linejoin="round" d="M 13463,32867 L 48,32867 48,48 26878,48 26878,32867 13463,32867 Z"/>
 <path fill="none" stroke="rgb(217,217,217)" stroke-width="26" stroke-linejoin="round" d="M 3140,3319 L 3140,31793"/>
 <path fill="none" stroke="rgb(217,217,217)" stroke-width="26" stroke-linejoin="round" d="M 5987,3319 L 5987,31793"/>
 <path fill="none" stroke="rgb(217,217,217)" stroke-width="26" stroke-linejoin="round" d="M 8834,3319 L 8834,31793"/>
 <path fill="none" stroke="rgb(217,217,217)" stroke-width="26" stroke-linejoin="round" d="M 11681,3319 L 11681,31793"/>
 <path fill="none" stroke="rgb(217,217,217)" stroke-width="26" stroke-linejoin="round" d="M 14528,3319 L 14528,31793"/>
 <path fill="none" stroke="rgb(217,217,217)" stroke-width="26" stroke-linejoin="round" d="M 17376,3319 L 17376,31793"/>
 <path fill="none" stroke="rgb(217,217,217)" stroke-width="26" stroke-linejoin="round" d="M 20223,3319 L 20223,31793"/>
 <path fill="none" stroke="rgb(217,217,217)" stroke-width="26" stroke-linejoin="round" d="M 23070,3319 L 23070,31793"/>
 <path fill="none" stroke="rgb(217,217,217)" stroke-width="26" stroke-linejoin="round" d="M 25918,3319 L 25918,31793"/>
 <path fill="none" stroke="rgb(242,242,242)" stroke-width="26" stroke-linejoin="round" d="M 4563,3319 L 4563,31793"/>
 <path fill="none" stroke="rgb(242,242,242)" stroke-width="26" stroke-linejoin="round" d="M 7411,3319 L 7411,31793"/>
 <path fill="none" stroke="rgb(242,242,242)" stroke-width="26" stroke-linejoin="round" d="M 10258,3319 L 10258,31793"/>
 <path fill="none" stroke="rgb(242,242,242)" stroke-width="26" stroke-linejoin="round" d="M 13105,3319 L 13105,31793"/>
 <path fill="none" stroke="rgb(242,242,242)" stroke-width="26" stroke-linejoin="round" d="M 15952,3319 L 15952,31793"/>
 <path fill="none" stroke="rgb(242,242,242)" stroke-width="26" stroke-linejoin="round" d="M 18799,3319 L 18799,31793"/>
 <path fill="none" stroke="rgb(242,242,242)" stroke-width="26" stroke-linejoin="round" d="M 21646,3319 L 21646,31793"/>
 <path fill="none" stroke="rgb(242,242,242)" stroke-width="26" stroke-linejoin="round" d="M 24493,3319 L 24493,31793"/>
 <path fill="none" stroke="rgb(217,217,217)" stroke-width="26" stroke-linejoin="round" d="M 2990,31793 L 3140,31793"/>
 <path fill="none" stroke="rgb(217,217,217)" stroke-width="26" stroke-linejoin="round" d="M 2990,30738 L 3140,30738"/>
 <path fill="none" stroke="rgb(217,217,217)" stroke-width="26" stroke-linejoin="round" d="M 2990,29684 L 3140,29684"/>
 <path fill="none" stroke="rgb(217,217,217)" stroke-width="26" stroke-linejoin="round" d="M 2990,28628 L 3140,28628"/>
 <path fill="none" stroke="rgb(217,217,217)" stroke-width="26" stroke-linejoin="round" d="M 2990,27574 L 3140,27574"/>
 <path fill="none" stroke="rgb(217,217,217)" stroke-width="26" stroke-linejoin="round" d="M 2990,26519 L 3140,26519"/>
 <path fill="none" stroke="rgb(217,217,217)" stroke-width="26" stroke-linejoin="round" d="M 2990,25465 L 3140,25465"/>
 <path fill="none" stroke="rgb(217,217,217)" stroke-width="26" stroke-linejoin="round" d="M 2990,24410 L 3140,24410"/>
 <path fill="none" stroke="rgb(217,217,217)" stroke-width="26" stroke-linejoin="round" d="M 2990,23356 L 3140,23356"/>
 <path fill="none" stroke="rgb(217,217,217)" stroke-width="26" stroke-linejoin="round" d="M 2990,22302 L 3140,22302"/>
 <path fill="none" stroke="rgb(217,217,217)" stroke-width="26" stroke-linejoin="round" d="M 2990,21247 L 3140,21247"/>
 <path fill="none" stroke="rgb(217,217,217)" stroke-width="26" stroke-linejoin="round" d="M 2990,20192 L 3140,20192"/>
 <path fill="none" stroke="rgb(217,217,217)" stroke-width="26" stroke-linejoin="round" d="M 2990,19137 L 3140,19137"/>
 <path fill="none" stroke="rgb(217,217,217)" stroke-width="26" stroke-linejoin="round" d="M 2990,18083 L 3140,18083"/>
 <path fill="none" stroke="rgb(217,217,217)" stroke-width="26" stroke-linejoin="round" d="M 2990,17028 L 3140,17028"/>
 <path fill="none" stroke="rgb(217,217,217)" stroke-width="26" stroke-linejoin="round" d="M 2990,15974 L 3140,15974"/>
 <path fill="none" stroke="rgb(217,217,217)" stroke-width="26" stroke-linejoin="round" d="M 2990,14919 L 3140,14919"/>
 <path fill="none" stroke="rgb(217,217,217)" stroke-width="26" stroke-linejoin="round" d="M 2990,13865 L 3140,13865"/>
 <path fill="none" stroke="rgb(217,217,217)" stroke-width="26" stroke-linejoin="round" d="M 2990,12810 L 3140,12810"/>
 <path fill="none" stroke="rgb(217,217,217)" stroke-width="26" stroke-linejoin="round" d="M 2990,11755 L 3140,11755"/>
 <path fill="none" stroke="rgb(217,217,217)" stroke-width="26" stroke-linejoin="round" d="M 2990,10701 L 3140,10701"/>
 <path fill="none" stroke="rgb(217,217,217)" stroke-width="26" stroke-linejoin="round" d="M 2990,9646 L 3140,9646"/>
 <path fill="none" stroke="rgb(217,217,217)" stroke-width="26" stroke-linejoin="round" d="M 2990,8592 L 3140,8592"/>
 <path fill="none" stroke="rgb(217,217,217)" stroke-width="26" stroke-linejoin="round" d="M 2990,7537 L 3140,7537"/>
 <path fill="none" stroke="rgb(217,217,217)" stroke-width="26" stroke-linejoin="round" d="M 2990,6483 L 3140,6483"/>
 <path fill="none" stroke="rgb(217,217,217)" stroke-width="26" stroke-linejoin="round" d="M 2990,5428 L 3140,5428"/>
 <path fill="none" stroke="rgb(217,217,217)" stroke-width="26" stroke-linejoin="round" d="M 2990,4373 L 3140,4373"/>
 <path fill="none" stroke="rgb(217,217,217)" stroke-width="26" stroke-linejoin="round" d="M 2990,3319 L 3140,3319"/>
 <path fill="none" stroke="rgb(217,217,217)" stroke-width="26" stroke-linejoin="round" d="M 3140,31793 L 3140,3319"/>
 <path fill="rgb(95,95,95)" stroke="none" d="M 3140,4141 L 3140,3968 24589,3968 24589,4141 3140,4141 Z"/>
 <path fill="rgb(95,95,95)" stroke="none" d="M 3140,5195 L 3140,5022 19648,5022 19648,5195 3140,5195 Z"/>
 <path fill="rgb(95,95,95)" stroke="none" d="M 3140,6250 L 3140,6076 20023,6076 20023,6250 3140,6250 Z"/>
 <path fill="rgb(95,95,95)" stroke="none" d="M 3140,7304 L 3140,7131 14525,7131 14525,7304 3140,7304 Z"/>
 <path fill="rgb(95,95,95)" stroke="none" d="M 3140,8359 L 3140,8185 8781,8185 8781,8359 3140,8359 Z"/>
 <path fill="rgb(95,95,95)" stroke="none" d="M 3140,9413 L 3140,9240 14810,9240 14810,9413 3140,9413 Z"/>
 <path fill="rgb(95,95,95)" stroke="none" d="M 3140,10468 L 3140,10295 13904,10295 13904,10468 3140,10468 Z"/>
 <path fill="rgb(95,95,95)" stroke="none" d="M 3140,11523 L 3140,11350 13321,11350 13321,11523 3140,11523 Z"/>
 <path fill="rgb(95,95,95)" stroke="none" d="M 3140,12577 L 3140,12404 11685,12404 11685,12577 3140,12577 Z"/>
 <path fill="rgb(95,95,95)" stroke="none" d="M 3140,13632 L 3140,13459 6002,13459 6002,13632 3140,13632 Z"/>
 <path fill="rgb(95,95,95)" stroke="none" d="M 3140,14686 L 3140,14513 9516,14513 9516,14686 3140,14686 Z"/>
 <path fill="rgb(95,95,95)" stroke="none" d="M 3140,15741 L 3140,15567 9022,15567 9022,15741 3140,15741 Z"/>
 <path fill="rgb(95,95,95)" stroke="none" d="M 3140,16795 L 3140,16622 5231,16622 5231,16795 3140,16795 Z"/>
 <path fill="rgb(95,95,95)" stroke="none" d="M 3140,17850 L 3140,17676 8297,17676 8297,17850 3140,17850 Z"/>
 <path fill="rgb(95,95,95)" stroke="none" d="M 3140,18904 L 3140,18732 8098,18732 8098,18904 3140,18904 Z"/>
 <path fill="rgb(95,95,95)" stroke="none" d="M 3140,19960 L 3140,19786 6271,19786 6271,19960 3140,19960 Z"/>
 <path fill="rgb(95,95,95)" stroke="none" d="M 3140,21014 L 3140,20841 5951,20841 5951,21014 3140,21014 Z"/>
 <path fill="rgb(95,95,95)" stroke="none" d="M 3140,22068 L 3140,21895 3863,21895 3863,22068 3140,22068 Z"/>
 <path fill="rgb(95,95,95)" stroke="none" d="M 3140,23123 L 3140,22950 3808,22950 3808,23123 3140,23123 Z"/>
 <path fill="rgb(95,95,95)" stroke="none" d="M 3140,24177 L 3140,24004 3928,24004 3928,24177 3140,24177 Z"/>
 <path fill="rgb(95,95,95)" stroke="none" d="M 3140,25232 L 3140,25058 3777,25058 3777,25232 3140,25232 Z"/>
 <path fill="rgb(95,95,95)" stroke="none" d="M 3140,26286 L 3140,26114 3957,26114 3957,26286 3140,26286 Z"/>
 <path fill="rgb(95,95,95)" stroke="none" d="M 3140,27342 L 3140,27168 3348,27168 3348,27342 3140,27342 Z"/>
 <path fill="rgb(95,95,95)" stroke="none" d="M 3140,28396 L 3140,28223 3140,28223 3140,28396 Z"/>
 <path fill="rgb(95,95,95)" stroke="none" d="M 3140,29451 L 3140,29277 3140,29277 3140,29451 Z"/>
 <path fill="rgb(95,95,95)" stroke="none" d="M 3140,30505 L 3140,30332 3140,30332 3140,30505 Z"/>
 <path fill="rgb(95,95,95)" stroke="none" d="M 3140,31559 L 3140,31386 3140,31386 3140,31559 Z"/>
 <path fill="rgb(179,179,179)" stroke="none" d="M 3140,3933 L 3140,3760 18687,3760 18687,3933 3140,3933 Z"/>
 <path fill="rgb(179,179,179)" stroke="none" d="M 3140,4987 L 3140,4814 18028,4814 18028,4987 3140,4987 Z"/>
 <path fill="rgb(179,179,179)" stroke="none" d="M 3140,6042 L 3140,5868 11961,5868 11961,6042 3140,6042 Z"/>
 <path fill="rgb(179,179,179)" stroke="none" d="M 3140,7096 L 3140,6923 15108,6923 15108,7096 3140,7096 Z"/>
 <path fill="rgb(179,179,179)" stroke="none" d="M 3140,8151 L 3140,7977 6669,7977 6669,8151 3140,8151 Z"/>
 <path fill="rgb(179,179,179)" stroke="none" d="M 3140,9205 L 3140,9033 13540,9033 13540,9205 3140,9205 Z"/>
 <path fill="rgb(179,179,179)" stroke="none" d="M 3140,10261 L 3140,10087 11452,10087 11452,10261 3140,10261 Z"/>
 <path fill="rgb(179,179,179)" stroke="none" d="M 3140,11315 L 3140,11142 11021,11142 11021,11315 3140,11315 Z"/>
 <path fill="rgb(179,179,179)" stroke="none" d="M 3140,12369 L 3140,12196 12886,12196 12886,12369 3140,12369 Z"/>
 <path fill="rgb(179,179,179)" stroke="none" d="M 3140,13424 L 3140,13251 5016,13251 5016,13424 3140,13424 Z"/>
 <path fill="rgb(179,179,179)" stroke="none" d="M 3140,14478 L 3140,14305 6896,14305 6896,14478 3140,14478 Z"/>
 <path fill="rgb(179,179,179)" stroke="none" d="M 3140,15533 L 3140,15359 9697,15359 9697,15533 3140,15533 Z"/>
 <path fill="rgb(179,179,179)" stroke="none" d="M 3140,16587 L 3140,16415 8358,16415 8358,16587 3140,16587 Z"/>
 <path fill="rgb(179,179,179)" stroke="none" d="M 3140,17643 L 3140,17469 5800,17469 5800,17643 3140,17643 Z"/>
 <path fill="rgb(179,179,179)" stroke="none" d="M 3140,18697 L 3140,18524 7227,18524 7227,18697 3140,18697 Z"/>
 <path fill="rgb(179,179,179)" stroke="none" d="M 3140,19752 L 3140,19578 6392,19578 6392,19752 3140,19752 Z"/>
 <path fill="rgb(179,179,179)" stroke="none" d="M 3140,20806 L 3140,20633 5549,20633 5549,20806 3140,20806 Z"/>
 <path fill="rgb(179,179,179)" stroke="none" d="M 3140,21860 L 3140,21687 3558,21687 3558,21860 3140,21860 Z"/>
 <path fill="rgb(179,179,179)" stroke="none" d="M 3140,22915 L 3140,22742 3614,22742 3614,22915 3140,22915 Z"/>
 <path fill="rgb(179,179,179)" stroke="none" d="M 3140,23969 L 3140,23796 3648,23796 3648,23969 3140,23969 Z"/>
 <path fill="rgb(179,179,179)" stroke="none" d="M 3140,25024 L 3140,24851 3682,24851 3682,25024 3140,25024 Z"/>
 <path fill="rgb(179,179,179)" stroke="none" d="M 3140,26079 L 3140,25906 3476,25906 3476,26079 3140,26079 Z"/>
 <path fill="rgb(179,179,179)" stroke="none" d="M 3140,27134 L 3140,26960 3176,26960 3176,27134 3140,27134 Z"/>
 <path fill="rgb(179,179,179)" stroke="none" d="M 3140,28188 L 3140,28015 3140,28015 3140,28188 Z"/>
 <path fill="rgb(179,179,179)" stroke="none" d="M 3140,29243 L 3140,29069 3140,29069 3140,29243 Z"/>
 <path fill="rgb(179,179,179)" stroke="none" d="M 3140,30297 L 3140,30124 3140,30124 3140,30297 Z"/>
 <path fill="rgb(179,179,179)" stroke="none" d="M 3140,31351 L 3140,31178 3140,31178 3140,31351 Z"/>
 <path fill="rgb(137,137,137)" stroke="none" d="M 3140,3725 L 3140,3552 12374,3552 12374,3725 3140,3725 Z"/>
 <path fill="rgb(137,137,137)" stroke="none" d="M 3140,4779 L 3140,4606 10724,4606 10724,4779 3140,4779 Z"/>
 <path fill="rgb(137,137,137)" stroke="none" d="M 3140,5834 L 3140,5660 8370,5660 8370,5834 3140,5834 Z"/>
 <path fill="rgb(137,137,137)" stroke="none" d="M 3140,6888 L 3140,6716 13490,6716 13490,6888 3140,6888 Z"/>
 <path fill="rgb(137,137,137)" stroke="none" d="M 3140,7943 L 3140,7770 5877,7770 5877,7943 3140,7943 Z"/>
 <path fill="rgb(137,137,137)" stroke="none" d="M 3140,8998 L 3140,8825 5566,8825 5566,8998 3140,8998 Z"/>
 <path fill="rgb(137,137,137)" stroke="none" d="M 3140,10053 L 3140,9879 10005,9879 10005,10053 3140,10053 Z"/>
 <path fill="rgb(137,137,137)" stroke="none" d="M 3140,11107 L 3140,10934 9737,10934 9737,11107 3140,11107 Z"/>
 <path fill="rgb(137,137,137)" stroke="none" d="M 3140,12161 L 3140,11988 11374,11988 11374,12161 3140,12161 Z"/>
 <path fill="rgb(137,137,137)" stroke="none" d="M 3140,13216 L 3140,13043 3735,13043 3735,13216 3140,13216 Z"/>
 <path fill="rgb(137,137,137)" stroke="none" d="M 3140,14270 L 3140,14097 4561,14097 4561,14270 3140,14270 Z"/>
 <path fill="rgb(137,137,137)" stroke="none" d="M 3140,15325 L 3140,15152 5363,15152 5363,15325 3140,15325 Z"/>
 <path fill="rgb(137,137,137)" stroke="none" d="M 3140,16380 L 3140,16207 9346,16207 9346,16380 3140,16380 Z"/>
 <path fill="rgb(137,137,137)" stroke="none" d="M 3140,17435 L 3140,17261 5461,17261 5461,17435 3140,17435 Z"/>
 <path fill="rgb(137,137,137)" stroke="none" d="M 3140,18489 L 3140,18316 4625,18316 4625,18489 3140,18489 Z"/>
 <path fill="rgb(137,137,137)" stroke="none" d="M 3140,19544 L 3140,19370 5891,19370 5891,19544 3140,19544 Z"/>
 <path fill="rgb(137,137,137)" stroke="none" d="M 3140,20598 L 3140,20425 4269,20425 4269,20598 3140,20598 Z"/>
 <path fill="rgb(137,137,137)" stroke="none" d="M 3140,21652 L 3140,21479 3502,21479 3502,21652 3140,21652 Z"/>
 <path fill="rgb(137,137,137)" stroke="none" d="M 3140,22707 L 3140,22535 3382,22535 3382,22707 3140,22707 Z"/>
 <path fill="rgb(137,137,137)" stroke="none" d="M 3140,23761 L 3140,23589 3432,23589 3432,23761 3140,23761 Z"/>
 <path fill="rgb(137,137,137)" stroke="none" d="M 3140,24817 L 3140,24643 3411,24643 3411,24817 3140,24817 Z"/>
 <path fill="rgb(137,137,137)" stroke="none" d="M 3140,25871 L 3140,25698 3427,25698 3427,25871 3140,25871 Z"/>
 <path fill="rgb(137,137,137)" stroke="none" d="M 3140,26926 L 3140,26752 3176,26752 3176,26926 3140,26926 Z"/>
 <path fill="rgb(137,137,137)" stroke="none" d="M 3140,27980 L 3140,27807 3140,27807 3140,27980 Z"/>
 <path fill="rgb(137,137,137)" stroke="none" d="M 3140,29035 L 3140,28861 3140,28861 3140,29035 Z"/>
 <path fill="rgb(137,137,137)" stroke="none" d="M 3140,30089 L 3140,29916 3140,29916 3140,30089 Z"/>
 <path fill="rgb(137,137,137)" stroke="none" d="M 3140,31143 L 3140,30971 3140,30971 3140,31143 Z"/>
 <text class="TextShape"><tspan class="TextParagraph" font-family="Calibri, sans-serif" font-size="318px" font-weight="400"><tspan class="TextPosition" x="1579" y="31340"><tspan fill="rgb(89,89,89)" stroke="none">Pentium 4</tspan></tspan></tspan></text>
 <text class="TextShape"><tspan class="TextParagraph" font-family="Calibri, sans-serif" font-size="318px" font-weight="400"><tspan class="TextPosition" x="1495" y="30285"><tspan fill="rgb(89,89,89)" stroke="none">Pentium III</tspan></tspan></tspan></text>
 <text class="TextShape"><tspan class="TextParagraph" font-family="Calibri, sans-serif" font-size="318px" font-weight="400"><tspan class="TextPosition" x="902" y="29231"><tspan fill="rgb(89,89,89)" stroke="none">E16C-APPROX*</tspan></tspan></tspan></text>
 <text class="TextShape"><tspan class="TextParagraph" font-family="Calibri, sans-serif" font-size="318px" font-weight="400"><tspan class="TextPosition" x="1220" y="28175"><tspan fill="rgb(89,89,89)" stroke="none">Baikal T1 BFK</tspan></tspan></tspan></text>
 <text class="TextShape"><tspan class="TextParagraph" font-family="Calibri, sans-serif" font-size="318px" font-weight="400"><tspan class="TextPosition" x="1283" y="27121"><tspan fill="rgb(89,89,89)" stroke="none">Raspberry PI</tspan></tspan></tspan></text>
 <text class="TextShape"><tspan class="TextParagraph" font-family="Calibri, sans-serif" font-size="318px" font-weight="400"><tspan class="TextPosition" x="1093" y="26067"><tspan fill="rgb(89,89,89)" stroke="none">Orange Pi PC2</tspan></tspan></tspan></text>
 <text class="TextShape"><tspan class="TextParagraph" font-family="Calibri, sans-serif" font-size="318px" font-weight="400"><tspan class="TextPosition" x="1050" y="25012"><tspan fill="rgb(89,89,89)" stroke="none">Raspberry PI 3</tspan></tspan></tspan></text>
 <text class="TextShape"><tspan class="TextParagraph" font-family="Calibri, sans-serif" font-size="318px" font-weight="400"><tspan class="TextPosition" x="1093" y="23958"><tspan fill="rgb(89,89,89)" stroke="none">Orange Pi Win</tspan></tspan></tspan></text>
 <text class="TextShape"><tspan class="TextParagraph" font-family="Calibri, sans-serif" font-size="318px" font-weight="400"><tspan class="TextPosition" x="966" y="22903"><tspan fill="rgb(89,89,89)" stroke="none">Pentium M725</tspan></tspan></tspan></text>
 <text class="TextShape"><tspan class="TextParagraph" font-family="Calibri, sans-serif" font-size="318px" font-weight="400"><tspan class="TextPosition" x="1600" y="21849"><tspan fill="rgb(89,89,89)" stroke="none">Odroid X2</tspan></tspan></tspan></text>
 <text class="TextShape"><tspan class="TextParagraph" font-family="Calibri, sans-serif" font-size="318px" font-weight="400"><tspan class="TextPosition" x="1557" y="20793"><tspan fill="rgb(89,89,89)" stroke="none">Odroid N2</tspan></tspan></tspan></text>
 <text class="TextShape"><tspan class="TextParagraph" font-family="Calibri, sans-serif" font-size="318px" font-weight="400"><tspan class="TextPosition" x="1516" y="19739"><tspan fill="rgb(89,89,89)" stroke="none">MBE1C-PC</tspan></tspan></tspan></text>
 <text class="TextShape"><tspan class="TextParagraph" font-family="Calibri, sans-serif" font-size="318px" font-weight="400"><tspan class="TextPosition" x="1283" y="18684"><tspan fill="rgb(89,89,89)" stroke="none">Atom Z8350</tspan></tspan></tspan></text>
 <text class="TextShape"><tspan class="TextParagraph" font-family="Calibri, sans-serif" font-size="318px" font-weight="400"><tspan class="TextPosition" x="585" y="17630"><tspan fill="rgb(89,89,89)" stroke="none">Core 2 Duo T9400</tspan></tspan></tspan></text>
 <text class="TextShape"><tspan class="TextParagraph" font-family="Calibri, sans-serif" font-size="318px" font-weight="400"><tspan class="TextPosition" x="1114" y="16576"><tspan fill="rgb(89,89,89)" stroke="none">AWS Graviton</tspan></tspan></tspan></text>
 <text class="TextShape"><tspan class="TextParagraph" font-family="Calibri, sans-serif" font-size="318px" font-weight="400"><tspan class="TextPosition" x="1557" y="15521"><tspan fill="rgb(89,89,89)" stroke="none">E2S-EL2S4</tspan></tspan></tspan></text>
 <text class="TextShape"><tspan class="TextParagraph" font-family="Calibri, sans-serif" font-size="318px" font-weight="400"><tspan class="TextPosition" x="1135" y="14467"><tspan fill="rgb(89,89,89)" stroke="none">Core i3-m330</tspan></tspan></tspan></text>
 <text class="TextShape"><tspan class="TextParagraph" font-family="Calibri, sans-serif" font-size="318px" font-weight="400"><tspan class="TextPosition" x="1474" y="13412"><tspan fill="rgb(89,89,89)" stroke="none">E2S-PC401</tspan></tspan></tspan></text>
 <text class="TextShape"><tspan class="TextParagraph" font-family="Calibri, sans-serif" font-size="318px" font-weight="400"><tspan class="TextPosition" x="1453" y="12357"><tspan fill="rgb(89,89,89)" stroke="none">E8C2-1200</tspan></tspan></tspan></text>
 <text class="TextShape"><tspan class="TextParagraph" font-family="Calibri, sans-serif" font-size="318px" font-weight="400"><tspan class="TextPosition" x="1642" y="11302"><tspan fill="rgb(89,89,89)" stroke="none">E8C-E8C4</tspan></tspan></tspan></text>
 <text class="TextShape"><tspan class="TextParagraph" font-family="Calibri, sans-serif" font-size="318px" font-weight="400"><tspan class="TextPosition" x="1557" y="10248"><tspan fill="rgb(89,89,89)" stroke="none">E8C-SWTX</tspan></tspan></tspan></text>
 <text class="TextShape"><tspan class="TextParagraph" font-family="Calibri, sans-serif" font-size="318px" font-weight="400"><tspan class="TextPosition" x="1029" y="9193"><tspan fill="rgb(89,89,89)" stroke="none">AMD A6-3650</tspan></tspan></tspan></text>
 <text class="TextShape"><tspan class="TextParagraph" font-family="Calibri, sans-serif" font-size="318px" font-weight="400"><tspan class="TextPosition" x="2235" y="8139"><tspan fill="rgb(89,89,89)" stroke="none">E8C2</tspan></tspan></tspan></text>
 <text class="TextShape"><tspan class="TextParagraph" font-family="Calibri, sans-serif" font-size="318px" font-weight="400"><tspan class="TextPosition" x="1453" y="7085"><tspan fill="rgb(89,89,89)" stroke="none">E8C2-1550</tspan></tspan></tspan></text>
 <text class="TextShape"><tspan class="TextParagraph" font-family="Calibri, sans-serif" font-size="318px" font-weight="400"><tspan class="TextPosition" x="733" y="6030"><tspan fill="rgb(89,89,89)" stroke="none">Core i7-4700MQ</tspan></tspan></tspan></text>
 <text class="TextShape"><tspan class="TextParagraph" font-family="Calibri, sans-serif" font-size="318px" font-weight="400"><tspan class="TextPosition" x="1495" y="4975"><tspan fill="rgb(89,89,89)" stroke="none">Xeon 6128</tspan></tspan></tspan></text>
 <text class="TextShape"><tspan class="TextParagraph" font-family="Calibri, sans-serif" font-size="318px" font-weight="400"><tspan class="TextPosition" x="1220" y="3920"><tspan fill="rgb(89,89,89)" stroke="none">Core i7-2600</tspan></tspan></tspan></text>
 <text class="TextShape"><tspan class="TextParagraph" font-family="Calibri, sans-serif" font-size="318px" font-weight="400"><tspan class="TextPosition" x="3055" y="32126"><tspan fill="rgb(89,89,89)" stroke="none">0</tspan></tspan></tspan></text>
 <text class="TextShape"><tspan class="TextParagraph" font-family="Calibri, sans-serif" font-size="318px" font-weight="400"><tspan class="TextPosition" x="5564" y="32126"><tspan fill="rgb(89,89,89)" stroke="none">10000</tspan></tspan></tspan></text>
 <text class="TextShape"><tspan class="TextParagraph" font-family="Calibri, sans-serif" font-size="318px" font-weight="400"><tspan class="TextPosition" x="8411" y="32126"><tspan fill="rgb(89,89,89)" stroke="none">20000</tspan></tspan></tspan></text>
 <text class="TextShape"><tspan class="TextParagraph" font-family="Calibri, sans-serif" font-size="318px" font-weight="400"><tspan class="TextPosition" x="11258" y="32126"><tspan fill="rgb(89,89,89)" stroke="none">30000</tspan></tspan></tspan></text>
 <text class="TextShape"><tspan class="TextParagraph" font-family="Calibri, sans-serif" font-size="318px" font-weight="400"><tspan class="TextPosition" x="14105" y="32126"><tspan fill="rgb(89,89,89)" stroke="none">40000</tspan></tspan></tspan></text>
 <text class="TextShape"><tspan class="TextParagraph" font-family="Calibri, sans-serif" font-size="318px" font-weight="400"><tspan class="TextPosition" x="16952" y="32126"><tspan fill="rgb(89,89,89)" stroke="none">50000</tspan></tspan></tspan></text>
 <text class="TextShape"><tspan class="TextParagraph" font-family="Calibri, sans-serif" font-size="318px" font-weight="400"><tspan class="TextPosition" x="19800" y="32126"><tspan fill="rgb(89,89,89)" stroke="none">60000</tspan></tspan></tspan></text>
 <text class="TextShape"><tspan class="TextParagraph" font-family="Calibri, sans-serif" font-size="318px" font-weight="400"><tspan class="TextPosition" x="22647" y="32126"><tspan fill="rgb(89,89,89)" stroke="none">70000</tspan></tspan></tspan></text>
 <text class="TextShape"><tspan class="TextParagraph" font-family="Calibri, sans-serif" font-size="318px" font-weight="400"><tspan class="TextPosition" x="25495" y="32126"><tspan fill="rgb(89,89,89)" stroke="none">80000</tspan></tspan></tspan></text>
 <text class="TextShape"><tspan class="TextParagraph" font-family="Calibri, sans-serif" font-size="318px" font-weight="400"><tspan class="TextPosition" x="3240" y="31548"><tspan fill="rgb(64,64,64)" stroke="none">0</tspan></tspan></tspan></text>
 <text class="TextShape"><tspan class="TextParagraph" font-family="Calibri, sans-serif" font-size="318px" font-weight="400"><tspan class="TextPosition" x="3240" y="30492"><tspan fill="rgb(64,64,64)" stroke="none">0</tspan></tspan></tspan></text>
 <text class="TextShape"><tspan class="TextParagraph" font-family="Calibri, sans-serif" font-size="318px" font-weight="400"><tspan class="TextPosition" x="3240" y="29438"><tspan fill="rgb(64,64,64)" stroke="none">0</tspan></tspan></tspan></text>
 <text class="TextShape"><tspan class="TextParagraph" font-family="Calibri, sans-serif" font-size="318px" font-weight="400"><tspan class="TextPosition" x="3240" y="28383"><tspan fill="rgb(64,64,64)" stroke="none">0</tspan></tspan></tspan></text>
 <text class="TextShape"><tspan class="TextParagraph" font-family="Calibri, sans-serif" font-size="318px" font-weight="400"><tspan class="TextPosition" x="3448" y="27329"><tspan fill="rgb(64,64,64)" stroke="none">731</tspan></tspan></tspan></text>
 <text class="TextShape"><tspan class="TextParagraph" font-family="Calibri, sans-serif" font-size="318px" font-weight="400"><tspan class="TextPosition" x="4057" y="26275"><tspan fill="rgb(64,64,64)" stroke="none">2872</tspan></tspan></tspan></text>
 <text class="TextShape"><tspan class="TextParagraph" font-family="Calibri, sans-serif" font-size="318px" font-weight="400"><tspan class="TextPosition" x="3877" y="25220"><tspan fill="rgb(64,64,64)" stroke="none">2240</tspan></tspan></tspan></text>
 <text class="TextShape"><tspan class="TextParagraph" font-family="Calibri, sans-serif" font-size="318px" font-weight="400"><tspan class="TextPosition" x="4028" y="24166"><tspan fill="rgb(64,64,64)" stroke="none">2771</tspan></tspan></tspan></text>
 <text class="TextShape"><tspan class="TextParagraph" font-family="Calibri, sans-serif" font-size="318px" font-weight="400"><tspan class="TextPosition" x="3908" y="23111"><tspan fill="rgb(64,64,64)" stroke="none">2348</tspan></tspan></tspan></text>
 <text class="TextShape"><tspan class="TextParagraph" font-family="Calibri, sans-serif" font-size="318px" font-weight="400"><tspan class="TextPosition" x="3963" y="22056"><tspan fill="rgb(64,64,64)" stroke="none">2543</tspan></tspan></tspan></text>
 <text class="TextShape"><tspan class="TextParagraph" font-family="Calibri, sans-serif" font-size="318px" font-weight="400"><tspan class="TextPosition" x="6051" y="21001"><tspan fill="rgb(64,64,64)" stroke="none">9876</tspan></tspan></tspan></text>
 <text class="TextShape"><tspan class="TextParagraph" font-family="Calibri, sans-serif" font-size="318px" font-weight="400"><tspan class="TextPosition" x="6371" y="19947"><tspan fill="rgb(64,64,64)" stroke="none">10999</tspan></tspan></tspan></text>
 <text class="TextShape"><tspan class="TextParagraph" font-family="Calibri, sans-serif" font-size="318px" font-weight="400"><tspan class="TextPosition" x="8198" y="18892"><tspan fill="rgb(64,64,64)" stroke="none">17415</tspan></tspan></tspan></text>
 <text class="TextShape"><tspan class="TextParagraph" font-family="Calibri, sans-serif" font-size="318px" font-weight="400"><tspan class="TextPosition" x="8397" y="17838"><tspan fill="rgb(64,64,64)" stroke="none">18113</tspan></tspan></tspan></text>
 <text class="TextShape"><tspan class="TextParagraph" font-family="Calibri, sans-serif" font-size="318px" font-weight="400"><tspan class="TextPosition" x="5331" y="16784"><tspan fill="rgb(64,64,64)" stroke="none">7344</tspan></tspan></tspan></text>
 <text class="TextShape"><tspan class="TextParagraph" font-family="Calibri, sans-serif" font-size="318px" font-weight="400"><tspan class="TextPosition" x="9122" y="15729"><tspan fill="rgb(64,64,64)" stroke="none">20662</tspan></tspan></tspan></text>
 <text class="TextShape"><tspan class="TextParagraph" font-family="Calibri, sans-serif" font-size="318px" font-weight="400"><tspan class="TextPosition" x="9616" y="14674"><tspan fill="rgb(64,64,64)" stroke="none">22396</tspan></tspan></tspan></text>
 <text class="TextShape"><tspan class="TextParagraph" font-family="Calibri, sans-serif" font-size="318px" font-weight="400"><tspan class="TextPosition" x="6102" y="13619"><tspan fill="rgb(64,64,64)" stroke="none">10053</tspan></tspan></tspan></text>
 <text class="TextShape"><tspan class="TextParagraph" font-family="Calibri, sans-serif" font-size="318px" font-weight="400"><tspan class="TextPosition" x="11785" y="12565"><tspan fill="rgb(64,64,64)" stroke="none">30016</tspan></tspan></tspan></text>
 <text class="TextShape"><tspan class="TextParagraph" font-family="Calibri, sans-serif" font-size="318px" font-weight="400"><tspan class="TextPosition" x="13421" y="11510"><tspan fill="rgb(64,64,64)" stroke="none">35758</tspan></tspan></tspan></text>
 <text class="TextShape"><tspan class="TextParagraph" font-family="Calibri, sans-serif" font-size="318px" font-weight="400"><tspan class="TextPosition" x="14004" y="10456"><tspan fill="rgb(64,64,64)" stroke="none">37806</tspan></tspan></tspan></text>
 <text class="TextShape"><tspan class="TextParagraph" font-family="Calibri, sans-serif" font-size="318px" font-weight="400"><tspan class="TextPosition" x="14910" y="9401"><tspan fill="rgb(64,64,64)" stroke="none">40988</tspan></tspan></tspan></text>
 <text class="TextShape"><tspan class="TextParagraph" font-family="Calibri, sans-serif" font-size="318px" font-weight="400"><tspan class="TextPosition" x="8881" y="8347"><tspan fill="rgb(64,64,64)" stroke="none">19815</tspan></tspan></tspan></text>
 <text class="TextShape"><tspan class="TextParagraph" font-family="Calibri, sans-serif" font-size="318px" font-weight="400"><tspan class="TextPosition" x="14625" y="7293"><tspan fill="rgb(64,64,64)" stroke="none">39990</tspan></tspan></tspan></text>
 <text class="TextShape"><tspan class="TextParagraph" font-family="Calibri, sans-serif" font-size="318px" font-weight="400"><tspan class="TextPosition" x="20123" y="6237"><tspan fill="rgb(64,64,64)" stroke="none">59299</tspan></tspan></tspan></text>
 <text class="TextShape"><tspan class="TextParagraph" font-family="Calibri, sans-serif" font-size="318px" font-weight="400"><tspan class="TextPosition" x="19748" y="5183"><tspan fill="rgb(64,64,64)" stroke="none">57982</tspan></tspan></tspan></text>
 <text class="TextShape"><tspan class="TextParagraph" font-family="Calibri, sans-serif" font-size="318px" font-weight="400"><tspan class="TextPosition" x="24689" y="4128"><tspan fill="rgb(64,64,64)" stroke="none">75334</tspan></tspan></tspan></text>
 <text class="TextShape"><tspan class="TextParagraph" font-family="Calibri, sans-serif" font-size="318px" font-weight="400"><tspan class="TextPosition" x="3240" y="31340"><tspan fill="rgb(64,64,64)" stroke="none">0</tspan></tspan></tspan></text>
 <text class="TextShape"><tspan class="TextParagraph" font-family="Calibri, sans-serif" font-size="318px" font-weight="400"><tspan class="TextPosition" x="3240" y="30285"><tspan fill="rgb(64,64,64)" stroke="none">0</tspan></tspan></tspan></text>
 <text class="TextShape"><tspan class="TextParagraph" font-family="Calibri, sans-serif" font-size="318px" font-weight="400"><tspan class="TextPosition" x="3240" y="29231"><tspan fill="rgb(64,64,64)" stroke="none">0</tspan></tspan></tspan></text>
 <text class="TextShape"><tspan class="TextParagraph" font-family="Calibri, sans-serif" font-size="318px" font-weight="400"><tspan class="TextPosition" x="3240" y="28175"><tspan fill="rgb(64,64,64)" stroke="none">0</tspan></tspan></tspan></text>
 <text class="TextShape"><tspan class="TextParagraph" font-family="Calibri, sans-serif" font-size="318px" font-weight="400"><tspan class="TextPosition" x="3276" y="27121"><tspan fill="rgb(64,64,64)" stroke="none">127</tspan></tspan></tspan></text>
 <text class="TextShape"><tspan class="TextParagraph" font-family="Calibri, sans-serif" font-size="318px" font-weight="400"><tspan class="TextPosition" x="3575" y="26067"><tspan fill="rgb(64,64,64)" stroke="none">1179</tspan></tspan></tspan></text>
 <text class="TextShape"><tspan class="TextParagraph" font-family="Calibri, sans-serif" font-size="318px" font-weight="400"><tspan class="TextPosition" x="3782" y="25012"><tspan fill="rgb(64,64,64)" stroke="none">1906</tspan></tspan></tspan></text>
 <text class="TextShape"><tspan class="TextParagraph" font-family="Calibri, sans-serif" font-size="318px" font-weight="400"><tspan class="TextPosition" x="3748" y="23958"><tspan fill="rgb(64,64,64)" stroke="none">1787</tspan></tspan></tspan></text>
 <text class="TextShape"><tspan class="TextParagraph" font-family="Calibri, sans-serif" font-size="318px" font-weight="400"><tspan class="TextPosition" x="3714" y="22903"><tspan fill="rgb(64,64,64)" stroke="none">1670</tspan></tspan></tspan></text>
 <text class="TextShape"><tspan class="TextParagraph" font-family="Calibri, sans-serif" font-size="318px" font-weight="400"><tspan class="TextPosition" x="3658" y="21849"><tspan fill="rgb(64,64,64)" stroke="none">1472</tspan></tspan></tspan></text>
 <text class="TextShape"><tspan class="TextParagraph" font-family="Calibri, sans-serif" font-size="318px" font-weight="400"><tspan class="TextPosition" x="5649" y="20793"><tspan fill="rgb(64,64,64)" stroke="none">8463</tspan></tspan></tspan></text>
 <text class="TextShape"><tspan class="TextParagraph" font-family="Calibri, sans-serif" font-size="318px" font-weight="400"><tspan class="TextPosition" x="6492" y="19739"><tspan fill="rgb(64,64,64)" stroke="none">11421</tspan></tspan></tspan></text>
 <text class="TextShape"><tspan class="TextParagraph" font-family="Calibri, sans-serif" font-size="318px" font-weight="400"><tspan class="TextPosition" x="7327" y="18684"><tspan fill="rgb(64,64,64)" stroke="none">14356</tspan></tspan></tspan></text>
 <text class="TextShape"><tspan class="TextParagraph" font-family="Calibri, sans-serif" font-size="318px" font-weight="400"><tspan class="TextPosition" x="5900" y="17630"><tspan fill="rgb(64,64,64)" stroke="none">9344</tspan></tspan></tspan></text>
 <text class="TextShape"><tspan class="TextParagraph" font-family="Calibri, sans-serif" font-size="318px" font-weight="400"><tspan class="TextPosition" x="8458" y="16576"><tspan fill="rgb(64,64,64)" stroke="none">18328</tspan></tspan></tspan></text>
 <text class="TextShape"><tspan class="TextParagraph" font-family="Calibri, sans-serif" font-size="318px" font-weight="400"><tspan class="TextPosition" x="9797" y="15521"><tspan fill="rgb(64,64,64)" stroke="none">23032</tspan></tspan></tspan></text>
 <text class="TextShape"><tspan class="TextParagraph" font-family="Calibri, sans-serif" font-size="318px" font-weight="400"><tspan class="TextPosition" x="6996" y="14467"><tspan fill="rgb(64,64,64)" stroke="none">13193</tspan></tspan></tspan></text>
 <text class="TextShape"><tspan class="TextParagraph" font-family="Calibri, sans-serif" font-size="318px" font-weight="400"><tspan class="TextPosition" x="5116" y="13412"><tspan fill="rgb(64,64,64)" stroke="none">6591</tspan></tspan></tspan></text>
 <text class="TextShape"><tspan class="TextParagraph" font-family="Calibri, sans-serif" font-size="318px" font-weight="400"><tspan class="TextPosition" x="12986" y="12357"><tspan fill="rgb(64,64,64)" stroke="none">34232</tspan></tspan></tspan></text>
 <text class="TextShape"><tspan class="TextParagraph" font-family="Calibri, sans-serif" font-size="318px" font-weight="400"><tspan class="TextPosition" x="11121" y="11302"><tspan fill="rgb(64,64,64)" stroke="none">27681</tspan></tspan></tspan></text>
 <text class="TextShape"><tspan class="TextParagraph" font-family="Calibri, sans-serif" font-size="318px" font-weight="400"><tspan class="TextPosition" x="11551" y="10248"><tspan fill="rgb(64,64,64)" stroke="none">29193</tspan></tspan></tspan></text>
 <text class="TextShape"><tspan class="TextParagraph" font-family="Calibri, sans-serif" font-size="318px" font-weight="400"><tspan class="TextPosition" x="13640" y="9193"><tspan fill="rgb(64,64,64)" stroke="none">36529</tspan></tspan></tspan></text>
 <text class="TextShape"><tspan class="TextParagraph" font-family="Calibri, sans-serif" font-size="318px" font-weight="400"><tspan class="TextPosition" x="6769" y="8139"><tspan fill="rgb(64,64,64)" stroke="none">12399</tspan></tspan></tspan></text>
 <text class="TextShape"><tspan class="TextParagraph" font-family="Calibri, sans-serif" font-size="318px" font-weight="400"><tspan class="TextPosition" x="15208" y="7085"><tspan fill="rgb(64,64,64)" stroke="none">42034</tspan></tspan></tspan></text>
 <text class="TextShape"><tspan class="TextParagraph" font-family="Calibri, sans-serif" font-size="318px" font-weight="400"><tspan class="TextPosition" x="12061" y="6030"><tspan fill="rgb(64,64,64)" stroke="none">30982</tspan></tspan></tspan></text>
 <text class="TextShape"><tspan class="TextParagraph" font-family="Calibri, sans-serif" font-size="318px" font-weight="400"><tspan class="TextPosition" x="18128" y="4975"><tspan fill="rgb(64,64,64)" stroke="none">52292</tspan></tspan></tspan></text>
 <text class="TextShape"><tspan class="TextParagraph" font-family="Calibri, sans-serif" font-size="318px" font-weight="400"><tspan class="TextPosition" x="18787" y="3920"><tspan fill="rgb(64,64,64)" stroke="none">54605</tspan></tspan></tspan></text>
 <text class="TextShape"><tspan class="TextParagraph" font-family="Calibri, sans-serif" font-size="318px" font-weight="400"><tspan class="TextPosition" x="3240" y="31132"><tspan fill="rgb(64,64,64)" stroke="none">0</tspan></tspan></tspan></text>
 <text class="TextShape"><tspan class="TextParagraph" font-family="Calibri, sans-serif" font-size="318px" font-weight="400"><tspan class="TextPosition" x="3240" y="30077"><tspan fill="rgb(64,64,64)" stroke="none">0</tspan></tspan></tspan></text>
 <text class="TextShape"><tspan class="TextParagraph" font-family="Calibri, sans-serif" font-size="318px" font-weight="400"><tspan class="TextPosition" x="3240" y="29023"><tspan fill="rgb(64,64,64)" stroke="none">0</tspan></tspan></tspan></text>
 <text class="TextShape"><tspan class="TextParagraph" font-family="Calibri, sans-serif" font-size="318px" font-weight="400"><tspan class="TextPosition" x="3240" y="27968"><tspan fill="rgb(64,64,64)" stroke="none">0</tspan></tspan></tspan></text>
 <text class="TextShape"><tspan class="TextParagraph" font-family="Calibri, sans-serif" font-size="318px" font-weight="400"><tspan class="TextPosition" x="3276" y="26913"><tspan fill="rgb(64,64,64)" stroke="none">127</tspan></tspan></tspan></text>
 <text class="TextShape"><tspan class="TextParagraph" font-family="Calibri, sans-serif" font-size="318px" font-weight="400"><tspan class="TextPosition" x="3526" y="25859"><tspan fill="rgb(64,64,64)" stroke="none">1009</tspan></tspan></tspan></text>
 <text class="TextShape"><tspan class="TextParagraph" font-family="Calibri, sans-serif" font-size="318px" font-weight="400"><tspan class="TextPosition" x="3511" y="24804"><tspan fill="rgb(64,64,64)" stroke="none">954</tspan></tspan></tspan></text>
 <text class="TextShape"><tspan class="TextParagraph" font-family="Calibri, sans-serif" font-size="318px" font-weight="400"><tspan class="TextPosition" x="3531" y="23750"><tspan fill="rgb(64,64,64)" stroke="none">1028</tspan></tspan></tspan></text>
 <text class="TextShape"><tspan class="TextParagraph" font-family="Calibri, sans-serif" font-size="318px" font-weight="400"><tspan class="TextPosition" x="3482" y="22695"><tspan fill="rgb(64,64,64)" stroke="none">850</tspan></tspan></tspan></text>
 <text class="TextShape"><tspan class="TextParagraph" font-family="Calibri, sans-serif" font-size="318px" font-weight="400"><tspan class="TextPosition" x="3601" y="21641"><tspan fill="rgb(64,64,64)" stroke="none">1271</tspan></tspan></tspan></text>
 <text class="TextShape"><tspan class="TextParagraph" font-family="Calibri, sans-serif" font-size="318px" font-weight="400"><tspan class="TextPosition" x="4369" y="20586"><tspan fill="rgb(64,64,64)" stroke="none">3966</tspan></tspan></tspan></text>
 <text class="TextShape"><tspan class="TextParagraph" font-family="Calibri, sans-serif" font-size="318px" font-weight="400"><tspan class="TextPosition" x="5991" y="19531"><tspan fill="rgb(64,64,64)" stroke="none">9663</tspan></tspan></tspan></text>
 <text class="TextShape"><tspan class="TextParagraph" font-family="Calibri, sans-serif" font-size="318px" font-weight="400"><tspan class="TextPosition" x="4725" y="18476"><tspan fill="rgb(64,64,64)" stroke="none">5219</tspan></tspan></tspan></text>
 <text class="TextShape"><tspan class="TextParagraph" font-family="Calibri, sans-serif" font-size="318px" font-weight="400"><tspan class="TextPosition" x="5560" y="17422"><tspan fill="rgb(64,64,64)" stroke="none">8153</tspan></tspan></tspan></text>
 <text class="TextShape"><tspan class="TextParagraph" font-family="Calibri, sans-serif" font-size="318px" font-weight="400"><tspan class="TextPosition" x="9446" y="16368"><tspan fill="rgb(64,64,64)" stroke="none">21796</tspan></tspan></tspan></text>
 <text class="TextShape"><tspan class="TextParagraph" font-family="Calibri, sans-serif" font-size="318px" font-weight="400"><tspan class="TextPosition" x="5463" y="15313"><tspan fill="rgb(64,64,64)" stroke="none">7809</tspan></tspan></tspan></text>
 <text class="TextShape"><tspan class="TextParagraph" font-family="Calibri, sans-serif" font-size="318px" font-weight="400"><tspan class="TextPosition" x="4661" y="14259"><tspan fill="rgb(64,64,64)" stroke="none">4996</tspan></tspan></tspan></text>
 <text class="TextShape"><tspan class="TextParagraph" font-family="Calibri, sans-serif" font-size="318px" font-weight="400"><tspan class="TextPosition" x="3835" y="13204"><tspan fill="rgb(64,64,64)" stroke="none">2092</tspan></tspan></tspan></text>
 <text class="TextShape"><tspan class="TextParagraph" font-family="Calibri, sans-serif" font-size="318px" font-weight="400"><tspan class="TextPosition" x="11474" y="12150"><tspan fill="rgb(64,64,64)" stroke="none">28920</tspan></tspan></tspan></text>
 <text class="TextShape"><tspan class="TextParagraph" font-family="Calibri, sans-serif" font-size="318px" font-weight="400"><tspan class="TextPosition" x="9837" y="11094"><tspan fill="rgb(64,64,64)" stroke="none">23172</tspan></tspan></tspan></text>
 <text class="TextShape"><tspan class="TextParagraph" font-family="Calibri, sans-serif" font-size="318px" font-weight="400"><tspan class="TextPosition" x="10105" y="10040"><tspan fill="rgb(64,64,64)" stroke="none">24114</tspan></tspan></tspan></text>
 <text class="TextShape"><tspan class="TextParagraph" font-family="Calibri, sans-serif" font-size="318px" font-weight="400"><tspan class="TextPosition" x="5666" y="8985"><tspan fill="rgb(64,64,64)" stroke="none">8523</tspan></tspan></tspan></text>
 <text class="TextShape"><tspan class="TextParagraph" font-family="Calibri, sans-serif" font-size="318px" font-weight="400"><tspan class="TextPosition" x="5977" y="7931"><tspan fill="rgb(64,64,64)" stroke="none">9617</tspan></tspan></tspan></text>
 <text class="TextShape"><tspan class="TextParagraph" font-family="Calibri, sans-serif" font-size="318px" font-weight="400"><tspan class="TextPosition" x="13590" y="6877"><tspan fill="rgb(64,64,64)" stroke="none">36355</tspan></tspan></tspan></text>
 <text class="TextShape"><tspan class="TextParagraph" font-family="Calibri, sans-serif" font-size="318px" font-weight="400"><tspan class="TextPosition" x="8470" y="5822"><tspan fill="rgb(64,64,64)" stroke="none">18371</tspan></tspan></tspan></text>
 <text class="TextShape"><tspan class="TextParagraph" font-family="Calibri, sans-serif" font-size="318px" font-weight="400"><tspan class="TextPosition" x="10824" y="4768"><tspan fill="rgb(64,64,64)" stroke="none">26638</tspan></tspan></tspan></text>
 <text class="TextShape"><tspan class="TextParagraph" font-family="Calibri, sans-serif" font-size="318px" font-weight="400"><tspan class="TextPosition" x="12473" y="3712"><tspan fill="rgb(64,64,64)" stroke="none">32432</tspan></tspan></tspan></text>
 <text class="TextShape"><tspan class="TextParagraph" font-family="Calibri Light" font-size="705px" font-weight="400"><tspan class="TextPosition" x="7796" y="1580"><tspan fill="rgb(89,89,89)" stroke="none">Memspeed (MB/s, x[m]=x[m]+y[m] Sngl)</tspan></tspan></tspan></text>
 <path fill="rgb(95,95,95)" stroke="none" d="M 14535,2500 L 14441,2500 14441,2310 14630,2310 14630,2500 14535,2500 Z"/>
 <path fill="rgb(179,179,179)" stroke="none" d="M 13126,2500 L 13031,2500 13031,2310 13221,2310 13221,2500 13126,2500 Z"/>
 <path fill="rgb(137,137,137)" stroke="none" d="M 11546,2500 L 11452,2500 11452,2310 11641,2310 11641,2500 11546,2500 Z"/>
 <text class="TextShape"><tspan class="TextParagraph" font-family="Calibri, sans-serif" font-size="318px" font-weight="400"><tspan class="TextPosition" x="11741" y="2479"><tspan fill="rgb(89,89,89)" stroke="none">8192 KB</tspan></tspan></tspan></text>
 <text class="TextShape"><tspan class="TextParagraph" font-family="Calibri, sans-serif" font-size="318px" font-weight="400"><tspan class="TextPosition" x="13321" y="2479"><tspan fill="rgb(89,89,89)" stroke="none">512 KB</tspan></tspan></tspan></text>
 <text class="TextShape"><tspan class="TextParagraph" font-family="Calibri, sans-serif" font-size="318px" font-weight="400"><tspan class="TextPosition" x="14730" y="2479"><tspan fill="rgb(89,89,89)" stroke="none">16 KB</tspan></tspan></tspan></text>
</svg>