<?xml version="1.0" encoding="UTF-8"?>
<!DOCTYPE svg PUBLIC "-//W3C//DTD SVG 1.1//EN" "http://www.w3.org/Graphics/SVG/1.1/DTD/svg11.dtd">
<svg width="269mm" height="300mm" viewBox="0 0 26900 30000" version="1.1" xmlns="http://www.w3.org/2000/svg" xmlns:xlink="http://www.w3.org/1999/xlink" stroke-width="28.222" stroke-linejoin="round" xml:space="preserve">
 <path fill="rgb(255,255,255)" stroke="none" d="M 13470,29946 L 13,29946 13,13 26927,13 26927,29946 13470,29946 Z"/>
 <path fill="none" stroke="rgb(217,217,217)" stroke-width="26" stroke-linejoin="round" d="M 13470,29946 L 13,29946 13,13 26927,13 26927,29946 13470,29946 Z"/>
 <path fill="none" stroke="rgb(217,217,217)" stroke-width="26" stroke-linejoin="round" d="M 3708,3343 L 3708,28877"/>
 <path fill="none" stroke="rgb(217,217,217)" stroke-width="26" stroke-linejoin="round" d="M 6477,3343 L 6477,28877"/>
 <path fill="none" stroke="rgb(217,217,217)" stroke-width="26" stroke-linejoin="round" d="M 9246,3343 L 9246,28877"/>
 <path fill="none" stroke="rgb(217,217,217)" stroke-width="26" stroke-linejoin="round" d="M 12014,3343 L 12014,28877"/>
 <path fill="none" stroke="rgb(217,217,217)" stroke-width="26" stroke-linejoin="round" d="M 14783,3343 L 14783,28877"/>
 <path fill="none" stroke="rgb(217,217,217)" stroke-width="26" stroke-linejoin="round" d="M 17552,3343 L 17552,28877"/>
 <path fill="none" stroke="rgb(217,217,217)" stroke-width="26" stroke-linejoin="round" d="M 20321,3343 L 20321,28877"/>
 <path fill="none" stroke="rgb(217,217,217)" stroke-width="26" stroke-linejoin="round" d="M 23090,3343 L 23090,28877"/>
 <path fill="none" stroke="rgb(217,217,217)" stroke-width="26" stroke-linejoin="round" d="M 25859,3343 L 25859,28877"/>
 <path fill="none" stroke="rgb(242,242,242)" stroke-width="26" stroke-linejoin="round" d="M 4262,3343 L 4262,28877"/>
 <path fill="none" stroke="rgb(242,242,242)" stroke-width="26" stroke-linejoin="round" d="M 4815,3343 L 4815,28877"/>
 <path fill="none" stroke="rgb(242,242,242)" stroke-width="26" stroke-linejoin="round" d="M 5369,3343 L 5369,28877"/>
 <path fill="none" stroke="rgb(242,242,242)" stroke-width="26" stroke-linejoin="round" d="M 5923,3343 L 5923,28877"/>
 <path fill="none" stroke="rgb(242,242,242)" stroke-width="26" stroke-linejoin="round" d="M 7030,3343 L 7030,28877"/>
 <path fill="none" stroke="rgb(242,242,242)" stroke-width="26" stroke-linejoin="round" d="M 7584,3343 L 7584,28877"/>
 <path fill="none" stroke="rgb(242,242,242)" stroke-width="26" stroke-linejoin="round" d="M 8138,3343 L 8138,28877"/>
 <path fill="none" stroke="rgb(242,242,242)" stroke-width="26" stroke-linejoin="round" d="M 8691,3343 L 8691,28877"/>
 <path fill="none" stroke="rgb(242,242,242)" stroke-width="26" stroke-linejoin="round" d="M 9799,3343 L 9799,28877"/>
 <path fill="none" stroke="rgb(242,242,242)" stroke-width="26" stroke-linejoin="round" d="M 10353,3343 L 10353,28877"/>
 <path fill="none" stroke="rgb(242,242,242)" stroke-width="26" stroke-linejoin="round" d="M 10907,3343 L 10907,28877"/>
 <path fill="none" stroke="rgb(242,242,242)" stroke-width="26" stroke-linejoin="round" d="M 11461,3343 L 11461,28877"/>
 <path fill="none" stroke="rgb(242,242,242)" stroke-width="26" stroke-linejoin="round" d="M 12568,3343 L 12568,28877"/>
 <path fill="none" stroke="rgb(242,242,242)" stroke-width="26" stroke-linejoin="round" d="M 13122,3343 L 13122,28877"/>
 <path fill="none" stroke="rgb(242,242,242)" stroke-width="26" stroke-linejoin="round" d="M 13675,3343 L 13675,28877"/>
 <path fill="none" stroke="rgb(242,242,242)" stroke-width="26" stroke-linejoin="round" d="M 14230,3343 L 14230,28877"/>
 <path fill="none" stroke="rgb(242,242,242)" stroke-width="26" stroke-linejoin="round" d="M 15337,3343 L 15337,28877"/>
 <path fill="none" stroke="rgb(242,242,242)" stroke-width="26" stroke-linejoin="round" d="M 15891,3343 L 15891,28877"/>
 <path fill="none" stroke="rgb(242,242,242)" stroke-width="26" stroke-linejoin="round" d="M 16445,3343 L 16445,28877"/>
 <path fill="none" stroke="rgb(242,242,242)" stroke-width="26" stroke-linejoin="round" d="M 16998,3343 L 16998,28877"/>
 <path fill="none" stroke="rgb(242,242,242)" stroke-width="26" stroke-linejoin="round" d="M 18106,3343 L 18106,28877"/>
 <path fill="none" stroke="rgb(242,242,242)" stroke-width="26" stroke-linejoin="round" d="M 18659,3343 L 18659,28877"/>
 <path fill="none" stroke="rgb(242,242,242)" stroke-width="26" stroke-linejoin="round" d="M 19214,3343 L 19214,28877"/>
 <path fill="none" stroke="rgb(242,242,242)" stroke-width="26" stroke-linejoin="round" d="M 19767,3343 L 19767,28877"/>
 <path fill="none" stroke="rgb(242,242,242)" stroke-width="26" stroke-linejoin="round" d="M 20875,3343 L 20875,28877"/>
 <path fill="none" stroke="rgb(242,242,242)" stroke-width="26" stroke-linejoin="round" d="M 21429,3343 L 21429,28877"/>
 <path fill="none" stroke="rgb(242,242,242)" stroke-width="26" stroke-linejoin="round" d="M 21982,3343 L 21982,28877"/>
 <path fill="none" stroke="rgb(242,242,242)" stroke-width="26" stroke-linejoin="round" d="M 22536,3343 L 22536,28877"/>
 <path fill="none" stroke="rgb(242,242,242)" stroke-width="26" stroke-linejoin="round" d="M 23643,3343 L 23643,28877"/>
 <path fill="none" stroke="rgb(242,242,242)" stroke-width="26" stroke-linejoin="round" d="M 24198,3343 L 24198,28877"/>
 <path fill="none" stroke="rgb(242,242,242)" stroke-width="26" stroke-linejoin="round" d="M 24751,3343 L 24751,28877"/>
 <path fill="none" stroke="rgb(242,242,242)" stroke-width="26" stroke-linejoin="round" d="M 25305,3343 L 25305,28877"/>
 <path fill="none" stroke="rgb(217,217,217)" stroke-width="26" stroke-linejoin="round" d="M 3558,28877 L 3708,28877"/>
 <path fill="none" stroke="rgb(217,217,217)" stroke-width="26" stroke-linejoin="round" d="M 3558,27931 L 3708,27931"/>
 <path fill="none" stroke="rgb(217,217,217)" stroke-width="26" stroke-linejoin="round" d="M 3558,26985 L 3708,26985"/>
 <path fill="none" stroke="rgb(217,217,217)" stroke-width="26" stroke-linejoin="round" d="M 3558,26040 L 3708,26040"/>
 <path fill="none" stroke="rgb(217,217,217)" stroke-width="26" stroke-linejoin="round" d="M 3558,25093 L 3708,25093"/>
 <path fill="none" stroke="rgb(217,217,217)" stroke-width="26" stroke-linejoin="round" d="M 3558,24148 L 3708,24148"/>
 <path fill="none" stroke="rgb(217,217,217)" stroke-width="26" stroke-linejoin="round" d="M 3558,23202 L 3708,23202"/>
 <path fill="none" stroke="rgb(217,217,217)" stroke-width="26" stroke-linejoin="round" d="M 3558,22257 L 3708,22257"/>
 <path fill="none" stroke="rgb(217,217,217)" stroke-width="26" stroke-linejoin="round" d="M 3558,21311 L 3708,21311"/>
 <path fill="none" stroke="rgb(217,217,217)" stroke-width="26" stroke-linejoin="round" d="M 3558,20366 L 3708,20366"/>
 <path fill="none" stroke="rgb(217,217,217)" stroke-width="26" stroke-linejoin="round" d="M 3558,19419 L 3708,19419"/>
 <path fill="none" stroke="rgb(217,217,217)" stroke-width="26" stroke-linejoin="round" d="M 3558,18473 L 3708,18473"/>
 <path fill="none" stroke="rgb(217,217,217)" stroke-width="26" stroke-linejoin="round" d="M 3558,17528 L 3708,17528"/>
 <path fill="none" stroke="rgb(217,217,217)" stroke-width="26" stroke-linejoin="round" d="M 3558,16582 L 3708,16582"/>
 <path fill="none" stroke="rgb(217,217,217)" stroke-width="26" stroke-linejoin="round" d="M 3558,15637 L 3708,15637"/>
 <path fill="none" stroke="rgb(217,217,217)" stroke-width="26" stroke-linejoin="round" d="M 3558,14691 L 3708,14691"/>
 <path fill="none" stroke="rgb(217,217,217)" stroke-width="26" stroke-linejoin="round" d="M 3558,13746 L 3708,13746"/>
 <path fill="none" stroke="rgb(217,217,217)" stroke-width="26" stroke-linejoin="round" d="M 3558,12799 L 3708,12799"/>
 <path fill="none" stroke="rgb(217,217,217)" stroke-width="26" stroke-linejoin="round" d="M 3558,11854 L 3708,11854"/>
 <path fill="none" stroke="rgb(217,217,217)" stroke-width="26" stroke-linejoin="round" d="M 3558,10908 L 3708,10908"/>
 <path fill="none" stroke="rgb(217,217,217)" stroke-width="26" stroke-linejoin="round" d="M 3558,9962 L 3708,9962"/>
 <path fill="none" stroke="rgb(217,217,217)" stroke-width="26" stroke-linejoin="round" d="M 3558,9017 L 3708,9017"/>
 <path fill="none" stroke="rgb(217,217,217)" stroke-width="26" stroke-linejoin="round" d="M 3558,8071 L 3708,8071"/>
 <path fill="none" stroke="rgb(217,217,217)" stroke-width="26" stroke-linejoin="round" d="M 3558,7126 L 3708,7126"/>
 <path fill="none" stroke="rgb(217,217,217)" stroke-width="26" stroke-linejoin="round" d="M 3558,6179 L 3708,6179"/>
 <path fill="none" stroke="rgb(217,217,217)" stroke-width="26" stroke-linejoin="round" d="M 3558,5234 L 3708,5234"/>
 <path fill="none" stroke="rgb(217,217,217)" stroke-width="26" stroke-linejoin="round" d="M 3558,4288 L 3708,4288"/>
 <path fill="none" stroke="rgb(217,217,217)" stroke-width="26" stroke-linejoin="round" d="M 3558,3343 L 3708,3343"/>
 <path fill="none" stroke="rgb(217,217,217)" stroke-width="26" stroke-linejoin="round" d="M 3708,28877 L 3708,3343"/>
 <path fill="rgb(99,99,99)" stroke="none" d="M 3708,4097 L 3708,3954 24521,3954 24521,4097 3708,4097 Z"/>
 <path fill="rgb(99,99,99)" stroke="none" d="M 3708,5042 L 3708,4901 19671,4901 19671,5042 3708,5042 Z"/>
 <path fill="rgb(99,99,99)" stroke="none" d="M 3708,5989 L 3708,5846 18381,5846 18381,5989 3708,5989 Z"/>
 <path fill="rgb(99,99,99)" stroke="none" d="M 3708,6934 L 3708,6792 15945,6792 15945,6934 3708,6934 Z"/>
 <path fill="rgb(99,99,99)" stroke="none" d="M 3708,7880 L 3708,7737 15069,7737 15069,7880 3708,7880 Z"/>
 <path fill="rgb(99,99,99)" stroke="none" d="M 3708,8825 L 3708,8683 15034,8683 15034,8825 3708,8825 Z"/>
 <path fill="rgb(99,99,99)" stroke="none" d="M 3708,9771 L 3708,9629 13978,9629 13978,9771 3708,9771 Z"/>
 <path fill="rgb(99,99,99)" stroke="none" d="M 3708,10716 L 3708,10574 13971,10574 13971,10716 3708,10716 Z"/>
 <path fill="rgb(99,99,99)" stroke="none" d="M 3708,11662 L 3708,11521 13296,11521 13296,11662 3708,11662 Z"/>
 <path fill="rgb(99,99,99)" stroke="none" d="M 3708,12609 L 3708,12466 10047,12466 10047,12609 3708,12609 Z"/>
 <path fill="rgb(99,99,99)" stroke="none" d="M 3708,13554 L 3708,13412 9873,13412 9873,13554 3708,13554 Z"/>
 <path fill="rgb(99,99,99)" stroke="none" d="M 3708,14500 L 3708,14357 9650,14357 9650,14500 3708,14500 Z"/>
 <path fill="rgb(99,99,99)" stroke="none" d="M 3708,15445 L 3708,15303 9620,15303 9620,15445 3708,15445 Z"/>
 <path fill="rgb(99,99,99)" stroke="none" d="M 3708,16391 L 3708,16248 9357,16248 9357,16391 3708,16391 Z"/>
 <path fill="rgb(99,99,99)" stroke="none" d="M 3708,17336 L 3708,17195 8524,17195 8524,17336 3708,17336 Z"/>
 <path fill="rgb(99,99,99)" stroke="none" d="M 3708,18283 L 3708,18141 7398,18141 7398,18283 3708,18283 Z"/>
 <path fill="rgb(99,99,99)" stroke="none" d="M 3708,19228 L 3708,19086 6048,19086 6048,19228 3708,19228 Z"/>
 <path fill="rgb(99,99,99)" stroke="none" d="M 3708,20174 L 3708,20032 4363,20032 4363,20174 3708,20174 Z"/>
 <path fill="rgb(99,99,99)" stroke="none" d="M 3708,21120 L 3708,20977 4238,20977 4238,21120 3708,21120 Z"/>
 <path fill="rgb(99,99,99)" stroke="none" d="M 3708,22065 L 3708,21923 4150,21923 4150,22065 3708,22065 Z"/>
 <path fill="rgb(99,99,99)" stroke="none" d="M 3708,23011 L 3708,22868 4074,22868 4074,23011 3708,23011 Z"/>
 <path fill="rgb(99,99,99)" stroke="none" d="M 3708,23956 L 3708,23815 4071,23815 4071,23956 3708,23956 Z"/>
 <path fill="rgb(99,99,99)" stroke="none" d="M 3708,24903 L 3708,24760 3743,24760 3743,24903 3708,24903 Z"/>
 <path fill="rgb(99,99,99)" stroke="none" d="M 3708,25848 L 3708,25706 3708,25706 3708,25848 Z"/>
 <path fill="rgb(99,99,99)" stroke="none" d="M 3708,26794 L 3708,26652 3708,26652 3708,26794 Z"/>
 <path fill="rgb(99,99,99)" stroke="none" d="M 3708,27739 L 3708,27597 3708,27597 3708,27739 Z"/>
 <path fill="rgb(99,99,99)" stroke="none" d="M 3708,28685 L 3708,28543 3708,28543 3708,28685 Z"/>
 <path fill="rgb(180,180,180)" stroke="none" d="M 3708,3886 L 3708,3745 18484,3745 18484,3886 3708,3886 Z"/>
 <path fill="rgb(180,180,180)" stroke="none" d="M 3708,4833 L 3708,4690 17926,4690 17926,4833 3708,4833 Z"/>
 <path fill="rgb(180,180,180)" stroke="none" d="M 3708,5778 L 3708,5636 11963,5636 11963,5778 3708,5778 Z"/>
 <path fill="rgb(180,180,180)" stroke="none" d="M 3708,6724 L 3708,6581 15335,6581 15335,6724 3708,6724 Z"/>
 <path fill="rgb(180,180,180)" stroke="none" d="M 3708,7669 L 3708,7527 15256,7527 15256,7669 3708,7669 Z"/>
 <path fill="rgb(180,180,180)" stroke="none" d="M 3708,8615 L 3708,8472 14160,8472 14160,8615 3708,8615 Z"/>
 <path fill="rgb(180,180,180)" stroke="none" d="M 3708,9560 L 3708,9419 11791,9419 11791,9560 3708,9560 Z"/>
 <path fill="rgb(180,180,180)" stroke="none" d="M 3708,10507 L 3708,10364 11428,10364 11428,10507 3708,10507 Z"/>
 <path fill="rgb(180,180,180)" stroke="none" d="M 3708,11452 L 3708,11310 13169,11310 13169,11452 3708,11452 Z"/>
 <path fill="rgb(180,180,180)" stroke="none" d="M 3708,12398 L 3708,12256 9828,12256 9828,12398 3708,12398 Z"/>
 <path fill="rgb(180,180,180)" stroke="none" d="M 3708,13344 L 3708,13201 7262,13201 7262,13344 3708,13344 Z"/>
 <path fill="rgb(180,180,180)" stroke="none" d="M 3708,14289 L 3708,14147 9997,14147 9997,14289 3708,14289 Z"/>
 <path fill="rgb(180,180,180)" stroke="none" d="M 3708,15235 L 3708,15092 8530,15092 8530,15235 3708,15235 Z"/>
 <path fill="rgb(180,180,180)" stroke="none" d="M 3708,16180 L 3708,16039 7636,16039 7636,16180 3708,16180 Z"/>
 <path fill="rgb(180,180,180)" stroke="none" d="M 3708,17127 L 3708,16984 7749,16984 7749,17127 3708,17127 Z"/>
 <path fill="rgb(180,180,180)" stroke="none" d="M 3708,18072 L 3708,17930 12376,17930 12376,18072 3708,18072 Z"/>
 <path fill="rgb(180,180,180)" stroke="none" d="M 3708,19018 L 3708,18875 5982,18875 5982,19018 3708,19018 Z"/>
 <path fill="rgb(180,180,180)" stroke="none" d="M 3708,19963 L 3708,19821 4113,19821 4113,19963 3708,19963 Z"/>
 <path fill="rgb(180,180,180)" stroke="none" d="M 3708,20909 L 3708,20767 4132,20767 4132,20909 3708,20909 Z"/>
 <path fill="rgb(180,180,180)" stroke="none" d="M 3708,21855 L 3708,21712 4193,21712 4193,21855 3708,21855 Z"/>
 <path fill="rgb(180,180,180)" stroke="none" d="M 3708,22800 L 3708,22659 4150,22659 4150,22800 3708,22800 Z"/>
 <path fill="rgb(180,180,180)" stroke="none" d="M 3708,23747 L 3708,23604 4047,23604 4047,23747 3708,23747 Z"/>
 <path fill="rgb(180,180,180)" stroke="none" d="M 3708,24692 L 3708,24550 3743,24550 3743,24692 3708,24692 Z"/>
 <path fill="rgb(180,180,180)" stroke="none" d="M 3708,25638 L 3708,25495 3708,25495 3708,25638 Z"/>
 <path fill="rgb(180,180,180)" stroke="none" d="M 3708,26583 L 3708,26441 3708,26441 3708,26583 Z"/>
 <path fill="rgb(180,180,180)" stroke="none" d="M 3708,27529 L 3708,27386 3708,27386 3708,27529 Z"/>
 <path fill="rgb(180,180,180)" stroke="none" d="M 3708,28474 L 3708,28332 3708,28332 3708,28474 Z"/>
 <path fill="rgb(139,139,139)" stroke="none" d="M 3708,3676 L 3708,3534 12788,3534 12788,3676 3708,3676 Z"/>
 <path fill="rgb(139,139,139)" stroke="none" d="M 3708,4622 L 3708,4480 10999,4480 10999,4622 3708,4622 Z"/>
 <path fill="rgb(139,139,139)" stroke="none" d="M 3708,5567 L 3708,5425 8586,5425 8586,5567 3708,5567 Z"/>
 <path fill="rgb(139,139,139)" stroke="none" d="M 3708,6513 L 3708,6371 13758,6371 13758,6513 3708,6513 Z"/>
 <path fill="rgb(139,139,139)" stroke="none" d="M 3708,7459 L 3708,7316 13089,7316 13089,7459 3708,7459 Z"/>
 <path fill="rgb(139,139,139)" stroke="none" d="M 3708,8404 L 3708,8263 6083,8263 6083,8404 3708,8404 Z"/>
 <path fill="rgb(139,139,139)" stroke="none" d="M 3708,9351 L 3708,9208 10389,9208 10389,9351 3708,9351 Z"/>
 <path fill="rgb(139,139,139)" stroke="none" d="M 3708,10296 L 3708,10154 10164,10154 10164,10296 3708,10296 Z"/>
 <path fill="rgb(139,139,139)" stroke="none" d="M 3708,11242 L 3708,11099 11707,11099 11707,11242 3708,11242 Z"/>
 <path fill="rgb(139,139,139)" stroke="none" d="M 3708,12187 L 3708,12045 6059,12045 6059,12187 3708,12187 Z"/>
 <path fill="rgb(139,139,139)" stroke="none" d="M 3708,13133 L 3708,12991 4991,12991 4991,13133 3708,13133 Z"/>
 <path fill="rgb(139,139,139)" stroke="none" d="M 3708,14078 L 3708,13936 5916,13936 5916,14078 3708,14078 Z"/>
 <path fill="rgb(139,139,139)" stroke="none" d="M 3708,15024 L 3708,14883 5739,14883 5739,15024 3708,15024 Z"/>
 <path fill="rgb(139,139,139)" stroke="none" d="M 3708,15971 L 3708,15828 5992,15828 5992,15971 3708,15971 Z"/>
 <path fill="rgb(139,139,139)" stroke="none" d="M 3708,16916 L 3708,16774 5150,16774 5150,16916 3708,16916 Z"/>
 <path fill="rgb(139,139,139)" stroke="none" d="M 3708,17862 L 3708,17719 5330,17719 5330,17862 3708,17862 Z"/>
 <path fill="rgb(139,139,139)" stroke="none" d="M 3708,18807 L 3708,18665 4784,18665 4784,18807 3708,18807 Z"/>
 <path fill="rgb(139,139,139)" stroke="none" d="M 3708,19753 L 3708,19610 4057,19610 4057,19753 3708,19753 Z"/>
 <path fill="rgb(139,139,139)" stroke="none" d="M 3708,20698 L 3708,20556 3941,20556 3941,20698 3708,20698 Z"/>
 <path fill="rgb(139,139,139)" stroke="none" d="M 3708,21644 L 3708,21503 3990,21503 3990,21644 3708,21644 Z"/>
 <path fill="rgb(139,139,139)" stroke="none" d="M 3708,22590 L 3708,22448 3990,22448 3990,22590 3708,22590 Z"/>
 <path fill="rgb(139,139,139)" stroke="none" d="M 3708,23536 L 3708,23394 3995,23394 3995,23536 3708,23536 Z"/>
 <path fill="rgb(139,139,139)" stroke="none" d="M 3708,24482 L 3708,24339 3743,24339 3743,24482 3708,24482 Z"/>
 <path fill="rgb(139,139,139)" stroke="none" d="M 3708,25427 L 3708,25285 3708,25285 3708,25427 Z"/>
 <path fill="rgb(139,139,139)" stroke="none" d="M 3708,26373 L 3708,26230 3708,26230 3708,26373 Z"/>
 <path fill="rgb(139,139,139)" stroke="none" d="M 3708,27318 L 3708,27177 3708,27177 3708,27318 Z"/>
 <path fill="rgb(139,139,139)" stroke="none" d="M 3708,28265 L 3708,28122 3708,28122 3708,28265 Z"/>
 <text class="TextShape"><tspan class="TextParagraph" font-family="Calibri, sans-serif" font-size="318px" font-weight="400"><tspan class="TextPosition" x="1820" y="28510"><tspan fill="rgb(89,89,89)" stroke="none">Pentium 4</tspan></tspan></tspan></text>
 <text class="TextShape"><tspan class="TextParagraph" font-family="Calibri, sans-serif" font-size="318px" font-weight="400"><tspan class="TextPosition" x="1714" y="27565"><tspan fill="rgb(89,89,89)" stroke="none">Pentium III</tspan></tspan></tspan></text>
 <text class="TextShape"><tspan class="TextParagraph" font-family="Calibri, sans-serif" font-size="318px" font-weight="400"><tspan class="TextPosition" x="1106" y="26619"><tspan fill="rgb(89,89,89)" stroke="none">E16C-APPROX*</tspan></tspan></tspan></text>
 <text class="TextShape"><tspan class="TextParagraph" font-family="Calibri, sans-serif" font-size="318px" font-weight="400"><tspan class="TextPosition" x="1318" y="25673"><tspan fill="rgb(89,89,89)" stroke="none">Baikal T1 BFK</tspan></tspan></tspan></text>
 <text class="TextShape"><tspan class="TextParagraph" font-family="Calibri, sans-serif" font-size="318px" font-weight="400"><tspan class="TextPosition" x="1450" y="24727"><tspan fill="rgb(89,89,89)" stroke="none">Raspberry PI</tspan></tspan></tspan></text>
 <text class="TextShape"><tspan class="TextParagraph" font-family="Calibri, sans-serif" font-size="318px" font-weight="400"><tspan class="TextPosition" x="1212" y="23781"><tspan fill="rgb(89,89,89)" stroke="none">Orange Pi PC2</tspan></tspan></tspan></text>
 <text class="TextShape"><tspan class="TextParagraph" font-family="Calibri, sans-serif" font-size="318px" font-weight="400"><tspan class="TextPosition" x="1133" y="22836"><tspan fill="rgb(89,89,89)" stroke="none">Raspberry PI 3</tspan></tspan></tspan></text>
 <text class="TextShape"><tspan class="TextParagraph" font-family="Calibri, sans-serif" font-size="318px" font-weight="400"><tspan class="TextPosition" x="1212" y="21890"><tspan fill="rgb(89,89,89)" stroke="none">Orange Pi Win</tspan></tspan></tspan></text>
 <text class="TextShape"><tspan class="TextParagraph" font-family="Calibri, sans-serif" font-size="318px" font-weight="400"><tspan class="TextPosition" x="1133" y="20945"><tspan fill="rgb(89,89,89)" stroke="none">Pentium M725</tspan></tspan></tspan></text>
 <text class="TextShape"><tspan class="TextParagraph" font-family="Calibri, sans-serif" font-size="318px" font-weight="400"><tspan class="TextPosition" x="1872" y="19998"><tspan fill="rgb(89,89,89)" stroke="none">Odroid X2</tspan></tspan></tspan></text>
 <text class="TextShape"><tspan class="TextParagraph" font-family="Calibri, sans-serif" font-size="318px" font-weight="400"><tspan class="TextPosition" x="1846" y="19053"><tspan fill="rgb(89,89,89)" stroke="none">Odroid N2</tspan></tspan></tspan></text>
 <text class="TextShape"><tspan class="TextParagraph" font-family="Calibri, sans-serif" font-size="318px" font-weight="400"><tspan class="TextPosition" x="1846" y="18107"><tspan fill="rgb(89,89,89)" stroke="none">MBE1C-PC</tspan></tspan></tspan></text>
 <text class="TextShape"><tspan class="TextParagraph" font-family="Calibri, sans-serif" font-size="318px" font-weight="400"><tspan class="TextPosition" x="1450" y="17162"><tspan fill="rgb(89,89,89)" stroke="none">Atom Z8350</tspan></tspan></tspan></text>
 <text class="TextShape"><tspan class="TextParagraph" font-family="Calibri, sans-serif" font-size="318px" font-weight="400"><tspan class="TextPosition" x="551" y="16216"><tspan fill="rgb(89,89,89)" stroke="none">Core 2 Duo T9400</tspan></tspan></tspan></text>
 <text class="TextShape"><tspan class="TextParagraph" font-family="Calibri, sans-serif" font-size="318px" font-weight="400"><tspan class="TextPosition" x="1265" y="15270"><tspan fill="rgb(89,89,89)" stroke="none">AWS Graviton</tspan></tspan></tspan></text>
 <text class="TextShape"><tspan class="TextParagraph" font-family="Calibri, sans-serif" font-size="318px" font-weight="400"><tspan class="TextPosition" x="1687" y="14325"><tspan fill="rgb(89,89,89)" stroke="none">E2S-EL2S4</tspan></tspan></tspan></text>
 <text class="TextShape"><tspan class="TextParagraph" font-family="Calibri, sans-serif" font-size="318px" font-weight="400"><tspan class="TextPosition" x="1291" y="13378"><tspan fill="rgb(89,89,89)" stroke="none">Core i3-m330</tspan></tspan></tspan></text>
 <text class="TextShape"><tspan class="TextParagraph" font-family="Calibri, sans-serif" font-size="318px" font-weight="400"><tspan class="TextPosition" x="1687" y="12433"><tspan fill="rgb(89,89,89)" stroke="none">E2S-PC401</tspan></tspan></tspan></text>
 <text class="TextShape"><tspan class="TextParagraph" font-family="Calibri, sans-serif" font-size="318px" font-weight="400"><tspan class="TextPosition" x="1661" y="11487"><tspan fill="rgb(89,89,89)" stroke="none">E8C2-1200</tspan></tspan></tspan></text>
 <text class="TextShape"><tspan class="TextParagraph" font-family="Calibri, sans-serif" font-size="318px" font-weight="400"><tspan class="TextPosition" x="1872" y="10542"><tspan fill="rgb(89,89,89)" stroke="none">E8C-E8C4</tspan></tspan></tspan></text>
 <text class="TextShape"><tspan class="TextParagraph" font-family="Calibri, sans-serif" font-size="318px" font-weight="400"><tspan class="TextPosition" x="1793" y="9596"><tspan fill="rgb(89,89,89)" stroke="none">E8C-SWTX</tspan></tspan></tspan></text>
 <text class="TextShape"><tspan class="TextParagraph" font-family="Calibri, sans-serif" font-size="318px" font-weight="400"><tspan class="TextPosition" x="1265" y="8651"><tspan fill="rgb(89,89,89)" stroke="none">AMD A6-3650</tspan></tspan></tspan></text>
 <text class="TextShape"><tspan class="TextParagraph" font-family="Calibri, sans-serif" font-size="318px" font-weight="400"><tspan class="TextPosition" x="2612" y="7705"><tspan fill="rgb(89,89,89)" stroke="none">E8C2</tspan></tspan></tspan></text>
 <text class="TextShape"><tspan class="TextParagraph" font-family="Calibri, sans-serif" font-size="318px" font-weight="400"><tspan class="TextPosition" x="1661" y="6758"><tspan fill="rgb(89,89,89)" stroke="none">E8C2-1550</tspan></tspan></tspan></text>
 <text class="TextShape"><tspan class="TextParagraph" font-family="Calibri, sans-serif" font-size="318px" font-weight="400"><tspan class="TextPosition" x="895" y="5813"><tspan fill="rgb(89,89,89)" stroke="none">Core i7-4700MQ</tspan></tspan></tspan></text>
 <text class="TextShape"><tspan class="TextParagraph" font-family="Calibri, sans-serif" font-size="318px" font-weight="400"><tspan class="TextPosition" x="1714" y="4867"><tspan fill="rgb(89,89,89)" stroke="none">Xeon 6128</tspan></tspan></tspan></text>
 <text class="TextShape"><tspan class="TextParagraph" font-family="Calibri, sans-serif" font-size="318px" font-weight="400"><tspan class="TextPosition" x="1397" y="3922"><tspan fill="rgb(89,89,89)" stroke="none">Core i7-2600</tspan></tspan></tspan></text>
 <text class="TextShape"><tspan class="TextParagraph" font-family="Calibri, sans-serif" font-size="318px" font-weight="400"><tspan class="TextPosition" x="3603" y="29268"><tspan fill="rgb(89,89,89)" stroke="none">0</tspan></tspan></tspan></text>
 <text class="TextShape"><tspan class="TextParagraph" font-family="Calibri, sans-serif" font-size="318px" font-weight="400"><tspan class="TextPosition" x="5949" y="29268"><tspan fill="rgb(89,89,89)" stroke="none">10000</tspan></tspan></tspan></text>
 <text class="TextShape"><tspan class="TextParagraph" font-family="Calibri, sans-serif" font-size="318px" font-weight="400"><tspan class="TextPosition" x="8718" y="29268"><tspan fill="rgb(89,89,89)" stroke="none">20000</tspan></tspan></tspan></text>
 <text class="TextShape"><tspan class="TextParagraph" font-family="Calibri, sans-serif" font-size="318px" font-weight="400"><tspan class="TextPosition" x="11486" y="29268"><tspan fill="rgb(89,89,89)" stroke="none">30000</tspan></tspan></tspan></text>
 <text class="TextShape"><tspan class="TextParagraph" font-family="Calibri, sans-serif" font-size="318px" font-weight="400"><tspan class="TextPosition" x="14255" y="29268"><tspan fill="rgb(89,89,89)" stroke="none">40000</tspan></tspan></tspan></text>
 <text class="TextShape"><tspan class="TextParagraph" font-family="Calibri, sans-serif" font-size="318px" font-weight="400"><tspan class="TextPosition" x="17024" y="29268"><tspan fill="rgb(89,89,89)" stroke="none">50000</tspan></tspan></tspan></text>
 <text class="TextShape"><tspan class="TextParagraph" font-family="Calibri, sans-serif" font-size="318px" font-weight="400"><tspan class="TextPosition" x="19793" y="29268"><tspan fill="rgb(89,89,89)" stroke="none">60000</tspan></tspan></tspan></text>
 <text class="TextShape"><tspan class="TextParagraph" font-family="Calibri, sans-serif" font-size="318px" font-weight="400"><tspan class="TextPosition" x="22562" y="29268"><tspan fill="rgb(89,89,89)" stroke="none">70000</tspan></tspan></tspan></text>
 <text class="TextShape"><tspan class="TextParagraph" font-family="Calibri, sans-serif" font-size="318px" font-weight="400"><tspan class="TextPosition" x="25331" y="29268"><tspan fill="rgb(89,89,89)" stroke="none">80000</tspan></tspan></tspan></text>
 <text class="TextShape"><tspan class="TextParagraph" font-family="Calibri, sans-serif" font-size="318px" font-weight="400"><tspan class="TextPosition" x="3808" y="28721"><tspan fill="rgb(64,64,64)" stroke="none">0</tspan></tspan></tspan></text>
 <text class="TextShape"><tspan class="TextParagraph" font-family="Calibri, sans-serif" font-size="318px" font-weight="400"><tspan class="TextPosition" x="3808" y="27774"><tspan fill="rgb(64,64,64)" stroke="none">0</tspan></tspan></tspan></text>
 <text class="TextShape"><tspan class="TextParagraph" font-family="Calibri, sans-serif" font-size="318px" font-weight="400"><tspan class="TextPosition" x="3808" y="26829"><tspan fill="rgb(64,64,64)" stroke="none">0</tspan></tspan></tspan></text>
 <text class="TextShape"><tspan class="TextParagraph" font-family="Calibri, sans-serif" font-size="318px" font-weight="400"><tspan class="TextPosition" x="3808" y="25883"><tspan fill="rgb(64,64,64)" stroke="none">0</tspan></tspan></tspan></text>
 <text class="TextShape"><tspan class="TextParagraph" font-family="Calibri, sans-serif" font-size="318px" font-weight="400"><tspan class="TextPosition" x="3843" y="24938"><tspan fill="rgb(64,64,64)" stroke="none">127</tspan></tspan></tspan></text>
 <text class="TextShape"><tspan class="TextParagraph" font-family="Calibri, sans-serif" font-size="318px" font-weight="400"><tspan class="TextPosition" x="4171" y="23992"><tspan fill="rgb(64,64,64)" stroke="none">1311</tspan></tspan></tspan></text>
 <text class="TextShape"><tspan class="TextParagraph" font-family="Calibri, sans-serif" font-size="318px" font-weight="400"><tspan class="TextPosition" x="4174" y="23047"><tspan fill="rgb(64,64,64)" stroke="none">1324</tspan></tspan></tspan></text>
 <text class="TextShape"><tspan class="TextParagraph" font-family="Calibri, sans-serif" font-size="318px" font-weight="400"><tspan class="TextPosition" x="4250" y="22101"><tspan fill="rgb(64,64,64)" stroke="none">1598</tspan></tspan></tspan></text>
 <text class="TextShape"><tspan class="TextParagraph" font-family="Calibri, sans-serif" font-size="318px" font-weight="400"><tspan class="TextPosition" x="4338" y="21154"><tspan fill="rgb(64,64,64)" stroke="none">1915</tspan></tspan></tspan></text>
 <text class="TextShape"><tspan class="TextParagraph" font-family="Calibri, sans-serif" font-size="318px" font-weight="400"><tspan class="TextPosition" x="4463" y="20209"><tspan fill="rgb(64,64,64)" stroke="none">2364</tspan></tspan></tspan></text>
 <text class="TextShape"><tspan class="TextParagraph" font-family="Calibri, sans-serif" font-size="318px" font-weight="400"><tspan class="TextPosition" x="6148" y="19263"><tspan fill="rgb(64,64,64)" stroke="none">8452</tspan></tspan></tspan></text>
 <text class="TextShape"><tspan class="TextParagraph" font-family="Calibri, sans-serif" font-size="318px" font-weight="400"><tspan class="TextPosition" x="7497" y="18318"><tspan fill="rgb(64,64,64)" stroke="none">13327</tspan></tspan></tspan></text>
 <text class="TextShape"><tspan class="TextParagraph" font-family="Calibri, sans-serif" font-size="318px" font-weight="400"><tspan class="TextPosition" x="8624" y="17372"><tspan fill="rgb(64,64,64)" stroke="none">17395</tspan></tspan></tspan></text>
 <text class="TextShape"><tspan class="TextParagraph" font-family="Calibri, sans-serif" font-size="318px" font-weight="400"><tspan class="TextPosition" x="9457" y="16427"><tspan fill="rgb(64,64,64)" stroke="none">20403</tspan></tspan></tspan></text>
 <text class="TextShape"><tspan class="TextParagraph" font-family="Calibri, sans-serif" font-size="318px" font-weight="400"><tspan class="TextPosition" x="9720" y="15481"><tspan fill="rgb(64,64,64)" stroke="none">21353</tspan></tspan></tspan></text>
 <text class="TextShape"><tspan class="TextParagraph" font-family="Calibri, sans-serif" font-size="318px" font-weight="400"><tspan class="TextPosition" x="9750" y="14535"><tspan fill="rgb(64,64,64)" stroke="none">21463</tspan></tspan></tspan></text>
 <text class="TextShape"><tspan class="TextParagraph" font-family="Calibri, sans-serif" font-size="318px" font-weight="400"><tspan class="TextPosition" x="9973" y="13589"><tspan fill="rgb(64,64,64)" stroke="none">22267</tspan></tspan></tspan></text>
 <text class="TextShape"><tspan class="TextParagraph" font-family="Calibri, sans-serif" font-size="318px" font-weight="400"><tspan class="TextPosition" x="10147" y="12643"><tspan fill="rgb(64,64,64)" stroke="none">22896</tspan></tspan></tspan></text>
 <text class="TextShape"><tspan class="TextParagraph" font-family="Calibri, sans-serif" font-size="318px" font-weight="400"><tspan class="TextPosition" x="13396" y="11698"><tspan fill="rgb(64,64,64)" stroke="none">34626</tspan></tspan></tspan></text>
 <text class="TextShape"><tspan class="TextParagraph" font-family="Calibri, sans-serif" font-size="318px" font-weight="400"><tspan class="TextPosition" x="14071" y="10752"><tspan fill="rgb(64,64,64)" stroke="none">37065</tspan></tspan></tspan></text>
 <text class="TextShape"><tspan class="TextParagraph" font-family="Calibri, sans-serif" font-size="318px" font-weight="400"><tspan class="TextPosition" x="14078" y="9807"><tspan fill="rgb(64,64,64)" stroke="none">37092</tspan></tspan></tspan></text>
 <text class="TextShape"><tspan class="TextParagraph" font-family="Calibri, sans-serif" font-size="318px" font-weight="400"><tspan class="TextPosition" x="15134" y="8861"><tspan fill="rgb(64,64,64)" stroke="none">40906</tspan></tspan></tspan></text>
 <text class="TextShape"><tspan class="TextParagraph" font-family="Calibri, sans-serif" font-size="318px" font-weight="400"><tspan class="TextPosition" x="15169" y="7915"><tspan fill="rgb(64,64,64)" stroke="none">41032</tspan></tspan></tspan></text>
 <text class="TextShape"><tspan class="TextParagraph" font-family="Calibri, sans-serif" font-size="318px" font-weight="400"><tspan class="TextPosition" x="16045" y="6969"><tspan fill="rgb(64,64,64)" stroke="none">44195</tspan></tspan></tspan></text>
 <text class="TextShape"><tspan class="TextParagraph" font-family="Calibri, sans-serif" font-size="318px" font-weight="400"><tspan class="TextPosition" x="18480" y="6024"><tspan fill="rgb(64,64,64)" stroke="none">52992</tspan></tspan></tspan></text>
 <text class="TextShape"><tspan class="TextParagraph" font-family="Calibri, sans-serif" font-size="318px" font-weight="400"><tspan class="TextPosition" x="19771" y="5078"><tspan fill="rgb(64,64,64)" stroke="none">57653</tspan></tspan></tspan></text>
 <text class="TextShape"><tspan class="TextParagraph" font-family="Calibri, sans-serif" font-size="318px" font-weight="400"><tspan class="TextPosition" x="24621" y="4132"><tspan fill="rgb(64,64,64)" stroke="none">75172</tspan></tspan></tspan></text>
 <text class="TextShape"><tspan class="TextParagraph" font-family="Calibri, sans-serif" font-size="318px" font-weight="400"><tspan class="TextPosition" x="3808" y="28510"><tspan fill="rgb(64,64,64)" stroke="none">0</tspan></tspan></tspan></text>
 <text class="TextShape"><tspan class="TextParagraph" font-family="Calibri, sans-serif" font-size="318px" font-weight="400"><tspan class="TextPosition" x="3808" y="27565"><tspan fill="rgb(64,64,64)" stroke="none">0</tspan></tspan></tspan></text>
 <text class="TextShape"><tspan class="TextParagraph" font-family="Calibri, sans-serif" font-size="318px" font-weight="400"><tspan class="TextPosition" x="3808" y="26619"><tspan fill="rgb(64,64,64)" stroke="none">0</tspan></tspan></tspan></text>
 <text class="TextShape"><tspan class="TextParagraph" font-family="Calibri, sans-serif" font-size="318px" font-weight="400"><tspan class="TextPosition" x="3808" y="25673"><tspan fill="rgb(64,64,64)" stroke="none">0</tspan></tspan></tspan></text>
 <text class="TextShape"><tspan class="TextParagraph" font-family="Calibri, sans-serif" font-size="318px" font-weight="400"><tspan class="TextPosition" x="3843" y="24727"><tspan fill="rgb(64,64,64)" stroke="none">127</tspan></tspan></tspan></text>
 <text class="TextShape"><tspan class="TextParagraph" font-family="Calibri, sans-serif" font-size="318px" font-weight="400"><tspan class="TextPosition" x="4147" y="23781"><tspan fill="rgb(64,64,64)" stroke="none">1224</tspan></tspan></tspan></text>
 <text class="TextShape"><tspan class="TextParagraph" font-family="Calibri, sans-serif" font-size="318px" font-weight="400"><tspan class="TextPosition" x="4250" y="22836"><tspan fill="rgb(64,64,64)" stroke="none">1598</tspan></tspan></tspan></text>
 <text class="TextShape"><tspan class="TextParagraph" font-family="Calibri, sans-serif" font-size="318px" font-weight="400"><tspan class="TextPosition" x="4293" y="21890"><tspan fill="rgb(64,64,64)" stroke="none">1752</tspan></tspan></tspan></text>
 <text class="TextShape"><tspan class="TextParagraph" font-family="Calibri, sans-serif" font-size="318px" font-weight="400"><tspan class="TextPosition" x="4232" y="20945"><tspan fill="rgb(64,64,64)" stroke="none">1530</tspan></tspan></tspan></text>
 <text class="TextShape"><tspan class="TextParagraph" font-family="Calibri, sans-serif" font-size="318px" font-weight="400"><tspan class="TextPosition" x="4213" y="19998"><tspan fill="rgb(64,64,64)" stroke="none">1464</tspan></tspan></tspan></text>
 <text class="TextShape"><tspan class="TextParagraph" font-family="Calibri, sans-serif" font-size="318px" font-weight="400"><tspan class="TextPosition" x="6082" y="19053"><tspan fill="rgb(64,64,64)" stroke="none">8214</tspan></tspan></tspan></text>
 <text class="TextShape"><tspan class="TextParagraph" font-family="Calibri, sans-serif" font-size="318px" font-weight="400"><tspan class="TextPosition" x="12475" y="18107"><tspan fill="rgb(64,64,64)" stroke="none">31305</tspan></tspan></tspan></text>
 <text class="TextShape"><tspan class="TextParagraph" font-family="Calibri, sans-serif" font-size="318px" font-weight="400"><tspan class="TextPosition" x="7849" y="17162"><tspan fill="rgb(64,64,64)" stroke="none">14596</tspan></tspan></tspan></text>
 <text class="TextShape"><tspan class="TextParagraph" font-family="Calibri, sans-serif" font-size="318px" font-weight="400"><tspan class="TextPosition" x="7736" y="16216"><tspan fill="rgb(64,64,64)" stroke="none">14189</tspan></tspan></tspan></text>
 <text class="TextShape"><tspan class="TextParagraph" font-family="Calibri, sans-serif" font-size="318px" font-weight="400"><tspan class="TextPosition" x="8630" y="15270"><tspan fill="rgb(64,64,64)" stroke="none">17418</tspan></tspan></tspan></text>
 <text class="TextShape"><tspan class="TextParagraph" font-family="Calibri, sans-serif" font-size="318px" font-weight="400"><tspan class="TextPosition" x="10097" y="14325"><tspan fill="rgb(64,64,64)" stroke="none">22714</tspan></tspan></tspan></text>
 <text class="TextShape"><tspan class="TextParagraph" font-family="Calibri, sans-serif" font-size="318px" font-weight="400"><tspan class="TextPosition" x="7362" y="13378"><tspan fill="rgb(64,64,64)" stroke="none">12837</tspan></tspan></tspan></text>
 <text class="TextShape"><tspan class="TextParagraph" font-family="Calibri, sans-serif" font-size="318px" font-weight="400"><tspan class="TextPosition" x="9928" y="12433"><tspan fill="rgb(64,64,64)" stroke="none">22106</tspan></tspan></tspan></text>
 <text class="TextShape"><tspan class="TextParagraph" font-family="Calibri, sans-serif" font-size="318px" font-weight="400"><tspan class="TextPosition" x="13269" y="11487"><tspan fill="rgb(64,64,64)" stroke="none">34168</tspan></tspan></tspan></text>
 <text class="TextShape"><tspan class="TextParagraph" font-family="Calibri, sans-serif" font-size="318px" font-weight="400"><tspan class="TextPosition" x="11527" y="10542"><tspan fill="rgb(64,64,64)" stroke="none">27882</tspan></tspan></tspan></text>
 <text class="TextShape"><tspan class="TextParagraph" font-family="Calibri, sans-serif" font-size="318px" font-weight="400"><tspan class="TextPosition" x="11891" y="9596"><tspan fill="rgb(64,64,64)" stroke="none">29195</tspan></tspan></tspan></text>
 <text class="TextShape"><tspan class="TextParagraph" font-family="Calibri, sans-serif" font-size="318px" font-weight="400"><tspan class="TextPosition" x="14260" y="8651"><tspan fill="rgb(64,64,64)" stroke="none">37749</tspan></tspan></tspan></text>
 <text class="TextShape"><tspan class="TextParagraph" font-family="Calibri, sans-serif" font-size="318px" font-weight="400"><tspan class="TextPosition" x="15356" y="7705"><tspan fill="rgb(64,64,64)" stroke="none">41708</tspan></tspan></tspan></text>
 <text class="TextShape"><tspan class="TextParagraph" font-family="Calibri, sans-serif" font-size="318px" font-weight="400"><tspan class="TextPosition" x="15435" y="6758"><tspan fill="rgb(64,64,64)" stroke="none">41990</tspan></tspan></tspan></text>
 <text class="TextShape"><tspan class="TextParagraph" font-family="Calibri, sans-serif" font-size="318px" font-weight="400"><tspan class="TextPosition" x="12063" y="5813"><tspan fill="rgb(64,64,64)" stroke="none">29816</tspan></tspan></tspan></text>
 <text class="TextShape"><tspan class="TextParagraph" font-family="Calibri, sans-serif" font-size="318px" font-weight="400"><tspan class="TextPosition" x="18026" y="4867"><tspan fill="rgb(64,64,64)" stroke="none">51351</tspan></tspan></tspan></text>
 <text class="TextShape"><tspan class="TextParagraph" font-family="Calibri, sans-serif" font-size="318px" font-weight="400"><tspan class="TextPosition" x="18584" y="3922"><tspan fill="rgb(64,64,64)" stroke="none">53366</tspan></tspan></tspan></text>
 <text class="TextShape"><tspan class="TextParagraph" font-family="Calibri, sans-serif" font-size="318px" font-weight="400"><tspan class="TextPosition" x="3808" y="28300"><tspan fill="rgb(64,64,64)" stroke="none">0</tspan></tspan></tspan></text>
 <text class="TextShape"><tspan class="TextParagraph" font-family="Calibri, sans-serif" font-size="318px" font-weight="400"><tspan class="TextPosition" x="3808" y="27354"><tspan fill="rgb(64,64,64)" stroke="none">0</tspan></tspan></tspan></text>
 <text class="TextShape"><tspan class="TextParagraph" font-family="Calibri, sans-serif" font-size="318px" font-weight="400"><tspan class="TextPosition" x="3808" y="26408"><tspan fill="rgb(64,64,64)" stroke="none">0</tspan></tspan></tspan></text>
 <text class="TextShape"><tspan class="TextParagraph" font-family="Calibri, sans-serif" font-size="318px" font-weight="400"><tspan class="TextPosition" x="3808" y="25463"><tspan fill="rgb(64,64,64)" stroke="none">0</tspan></tspan></tspan></text>
 <text class="TextShape"><tspan class="TextParagraph" font-family="Calibri, sans-serif" font-size="318px" font-weight="400"><tspan class="TextPosition" x="3843" y="24516"><tspan fill="rgb(64,64,64)" stroke="none">127</tspan></tspan></tspan></text>
 <text class="TextShape"><tspan class="TextParagraph" font-family="Calibri, sans-serif" font-size="318px" font-weight="400"><tspan class="TextPosition" x="4095" y="23571"><tspan fill="rgb(64,64,64)" stroke="none">1039</tspan></tspan></tspan></text>
 <text class="TextShape"><tspan class="TextParagraph" font-family="Calibri, sans-serif" font-size="318px" font-weight="400"><tspan class="TextPosition" x="4090" y="22625"><tspan fill="rgb(64,64,64)" stroke="none">1019</tspan></tspan></tspan></text>
 <text class="TextShape"><tspan class="TextParagraph" font-family="Calibri, sans-serif" font-size="318px" font-weight="400"><tspan class="TextPosition" x="4090" y="21680"><tspan fill="rgb(64,64,64)" stroke="none">1019</tspan></tspan></tspan></text>
 <text class="TextShape"><tspan class="TextParagraph" font-family="Calibri, sans-serif" font-size="318px" font-weight="400"><tspan class="TextPosition" x="4041" y="20734"><tspan fill="rgb(64,64,64)" stroke="none">844</tspan></tspan></tspan></text>
 <text class="TextShape"><tspan class="TextParagraph" font-family="Calibri, sans-serif" font-size="318px" font-weight="400"><tspan class="TextPosition" x="4157" y="19789"><tspan fill="rgb(64,64,64)" stroke="none">1261</tspan></tspan></tspan></text>
 <text class="TextShape"><tspan class="TextParagraph" font-family="Calibri, sans-serif" font-size="318px" font-weight="400"><tspan class="TextPosition" x="4884" y="18843"><tspan fill="rgb(64,64,64)" stroke="none">3888</tspan></tspan></tspan></text>
 <text class="TextShape"><tspan class="TextParagraph" font-family="Calibri, sans-serif" font-size="318px" font-weight="400"><tspan class="TextPosition" x="5430" y="17896"><tspan fill="rgb(64,64,64)" stroke="none">5856</tspan></tspan></tspan></text>
 <text class="TextShape"><tspan class="TextParagraph" font-family="Calibri, sans-serif" font-size="318px" font-weight="400"><tspan class="TextPosition" x="5250" y="16951"><tspan fill="rgb(64,64,64)" stroke="none">5208</tspan></tspan></tspan></text>
 <text class="TextShape"><tspan class="TextParagraph" font-family="Calibri, sans-serif" font-size="318px" font-weight="400"><tspan class="TextPosition" x="6092" y="16005"><tspan fill="rgb(64,64,64)" stroke="none">8249</tspan></tspan></tspan></text>
 <text class="TextShape"><tspan class="TextParagraph" font-family="Calibri, sans-serif" font-size="318px" font-weight="400"><tspan class="TextPosition" x="5839" y="15060"><tspan fill="rgb(64,64,64)" stroke="none">7336</tspan></tspan></tspan></text>
 <text class="TextShape"><tspan class="TextParagraph" font-family="Calibri, sans-serif" font-size="318px" font-weight="400"><tspan class="TextPosition" x="6016" y="14114"><tspan fill="rgb(64,64,64)" stroke="none">7975</tspan></tspan></tspan></text>
 <text class="TextShape"><tspan class="TextParagraph" font-family="Calibri, sans-serif" font-size="318px" font-weight="400"><tspan class="TextPosition" x="5091" y="13169"><tspan fill="rgb(64,64,64)" stroke="none">4636</tspan></tspan></tspan></text>
 <text class="TextShape"><tspan class="TextParagraph" font-family="Calibri, sans-serif" font-size="318px" font-weight="400"><tspan class="TextPosition" x="6159" y="12222"><tspan fill="rgb(64,64,64)" stroke="none">8491</tspan></tspan></tspan></text>
 <text class="TextShape"><tspan class="TextParagraph" font-family="Calibri, sans-serif" font-size="318px" font-weight="400"><tspan class="TextPosition" x="11807" y="11277"><tspan fill="rgb(64,64,64)" stroke="none">28890</tspan></tspan></tspan></text>
 <text class="TextShape"><tspan class="TextParagraph" font-family="Calibri, sans-serif" font-size="318px" font-weight="400"><tspan class="TextPosition" x="10264" y="10331"><tspan fill="rgb(64,64,64)" stroke="none">23315</tspan></tspan></tspan></text>
 <text class="TextShape"><tspan class="TextParagraph" font-family="Calibri, sans-serif" font-size="318px" font-weight="400"><tspan class="TextPosition" x="10488" y="9385"><tspan fill="rgb(64,64,64)" stroke="none">24130</tspan></tspan></tspan></text>
 <text class="TextShape"><tspan class="TextParagraph" font-family="Calibri, sans-serif" font-size="318px" font-weight="400"><tspan class="TextPosition" x="6183" y="8440"><tspan fill="rgb(64,64,64)" stroke="none">8578</tspan></tspan></tspan></text>
 <text class="TextShape"><tspan class="TextParagraph" font-family="Calibri, sans-serif" font-size="318px" font-weight="400"><tspan class="TextPosition" x="13189" y="7494"><tspan fill="rgb(64,64,64)" stroke="none">33881</tspan></tspan></tspan></text>
 <text class="TextShape"><tspan class="TextParagraph" font-family="Calibri, sans-serif" font-size="318px" font-weight="400"><tspan class="TextPosition" x="13858" y="6549"><tspan fill="rgb(64,64,64)" stroke="none">36299</tspan></tspan></tspan></text>
 <text class="TextShape"><tspan class="TextParagraph" font-family="Calibri, sans-serif" font-size="318px" font-weight="400"><tspan class="TextPosition" x="8686" y="5602"><tspan fill="rgb(64,64,64)" stroke="none">17618</tspan></tspan></tspan></text>
 <text class="TextShape"><tspan class="TextParagraph" font-family="Calibri, sans-serif" font-size="318px" font-weight="400"><tspan class="TextPosition" x="11099" y="4657"><tspan fill="rgb(64,64,64)" stroke="none">26334</tspan></tspan></tspan></text>
 <text class="TextShape"><tspan class="TextParagraph" font-family="Calibri, sans-serif" font-size="318px" font-weight="400"><tspan class="TextPosition" x="12888" y="3711"><tspan fill="rgb(64,64,64)" stroke="none">32794</tspan></tspan></tspan></text>
 <text class="TextShape"><tspan class="TextParagraph" font-family="Calibri Light" font-size="705px" font-weight="400"><tspan class="TextPosition" x="5474" y="1619"><tspan fill="rgb(89,89,89)" stroke="none">Memspeed (MB/s, x[m]=x[m]+s*y[m] Sngl )</tspan></tspan></tspan></text>
 <path fill="rgb(99,99,99)" stroke="none" d="M 14711,2555 L 14616,2555 14616,2365 14806,2365 14806,2555 14711,2555 Z"/>
 <path fill="rgb(180,180,180)" stroke="none" d="M 13048,2555 L 12953,2555 12953,2365 13143,2365 13143,2555 13048,2555 Z"/>
 <path fill="rgb(139,139,139)" stroke="none" d="M 11173,2555 L 11078,2555 11078,2365 11268,2365 11268,2555 11173,2555 Z"/>
 <text class="TextShape"><tspan class="TextParagraph" font-family="Calibri, sans-serif" font-size="318px" font-weight="400"><tspan class="TextPosition" x="11368" y="2566"><tspan fill="rgb(89,89,89)" stroke="none">8192 KB</tspan></tspan></tspan></text>
 <text class="TextShape"><tspan class="TextParagraph" font-family="Calibri, sans-serif" font-size="318px" font-weight="400"><tspan class="TextPosition" x="13243" y="2566"><tspan fill="rgb(89,89,89)" stroke="none">512 KB</tspan></tspan></tspan></text>
 <text class="TextShape"><tspan class="TextParagraph" font-family="Calibri, sans-serif" font-size="318px" font-weight="400"><tspan class="TextPosition" x="14906" y="2566"><tspan fill="rgb(89,89,89)" stroke="none">16 KB</tspan></tspan></tspan></text>
</svg>