<?xml version="1.0" encoding="UTF-8"?>
<!DOCTYPE svg PUBLIC "-//W3C//DTD SVG 1.1//EN" "http://www.w3.org/Graphics/SVG/1.1/DTD/svg11.dtd">
<svg width="269mm" height="300mm" viewBox="0 0 26900 30000" version="1.1" xmlns="http://www.w3.org/2000/svg" xmlns:xlink="http://www.w3.org/1999/xlink" stroke-width="28.222" stroke-linejoin="round" xml:space="preserve">
 <path fill="rgb(255,255,255)" stroke="none" d="M 13470,29946 L 13,29946 13,13 26927,13 26927,29946 13470,29946 Z"/>
 <path fill="none" stroke="rgb(217,217,217)" stroke-width="26" stroke-linejoin="round" d="M 13470,29946 L 13,29946 13,13 26927,13 26927,29946 13470,29946 Z"/>
 <path fill="none" stroke="rgb(217,217,217)" stroke-width="26" stroke-linejoin="round" d="M 3708,3343 L 3708,28877"/>
 <path fill="none" stroke="rgb(217,217,217)" stroke-width="26" stroke-linejoin="round" d="M 6477,3343 L 6477,28877"/>
 <path fill="none" stroke="rgb(217,217,217)" stroke-width="26" stroke-linejoin="round" d="M 9246,3343 L 9246,28877"/>
 <path fill="none" stroke="rgb(217,217,217)" stroke-width="26" stroke-linejoin="round" d="M 12014,3343 L 12014,28877"/>
 <path fill="none" stroke="rgb(217,217,217)" stroke-width="26" stroke-linejoin="round" d="M 14783,3343 L 14783,28877"/>
 <path fill="none" stroke="rgb(217,217,217)" stroke-width="26" stroke-linejoin="round" d="M 17552,3343 L 17552,28877"/>
 <path fill="none" stroke="rgb(217,217,217)" stroke-width="26" stroke-linejoin="round" d="M 20321,3343 L 20321,28877"/>
 <path fill="none" stroke="rgb(217,217,217)" stroke-width="26" stroke-linejoin="round" d="M 23090,3343 L 23090,28877"/>
 <path fill="none" stroke="rgb(217,217,217)" stroke-width="26" stroke-linejoin="round" d="M 25859,3343 L 25859,28877"/>
 <path fill="none" stroke="rgb(242,242,242)" stroke-width="26" stroke-linejoin="round" d="M 4262,3343 L 4262,28877"/>
 <path fill="none" stroke="rgb(242,242,242)" stroke-width="26" stroke-linejoin="round" d="M 4815,3343 L 4815,28877"/>
 <path fill="none" stroke="rgb(242,242,242)" stroke-width="26" stroke-linejoin="round" d="M 5369,3343 L 5369,28877"/>
 <path fill="none" stroke="rgb(242,242,242)" stroke-width="26" stroke-linejoin="round" d="M 5923,3343 L 5923,28877"/>
 <path fill="none" stroke="rgb(242,242,242)" stroke-width="26" stroke-linejoin="round" d="M 7030,3343 L 7030,28877"/>
 <path fill="none" stroke="rgb(242,242,242)" stroke-width="26" stroke-linejoin="round" d="M 7584,3343 L 7584,28877"/>
 <path fill="none" stroke="rgb(242,242,242)" stroke-width="26" stroke-linejoin="round" d="M 8138,3343 L 8138,28877"/>
 <path fill="none" stroke="rgb(242,242,242)" stroke-width="26" stroke-linejoin="round" d="M 8691,3343 L 8691,28877"/>
 <path fill="none" stroke="rgb(242,242,242)" stroke-width="26" stroke-linejoin="round" d="M 9799,3343 L 9799,28877"/>
 <path fill="none" stroke="rgb(242,242,242)" stroke-width="26" stroke-linejoin="round" d="M 10353,3343 L 10353,28877"/>
 <path fill="none" stroke="rgb(242,242,242)" stroke-width="26" stroke-linejoin="round" d="M 10907,3343 L 10907,28877"/>
 <path fill="none" stroke="rgb(242,242,242)" stroke-width="26" stroke-linejoin="round" d="M 11461,3343 L 11461,28877"/>
 <path fill="none" stroke="rgb(242,242,242)" stroke-width="26" stroke-linejoin="round" d="M 12568,3343 L 12568,28877"/>
 <path fill="none" stroke="rgb(242,242,242)" stroke-width="26" stroke-linejoin="round" d="M 13122,3343 L 13122,28877"/>
 <path fill="none" stroke="rgb(242,242,242)" stroke-width="26" stroke-linejoin="round" d="M 13675,3343 L 13675,28877"/>
 <path fill="none" stroke="rgb(242,242,242)" stroke-width="26" stroke-linejoin="round" d="M 14230,3343 L 14230,28877"/>
 <path fill="none" stroke="rgb(242,242,242)" stroke-width="26" stroke-linejoin="round" d="M 15337,3343 L 15337,28877"/>
 <path fill="none" stroke="rgb(242,242,242)" stroke-width="26" stroke-linejoin="round" d="M 15891,3343 L 15891,28877"/>
 <path fill="none" stroke="rgb(242,242,242)" stroke-width="26" stroke-linejoin="round" d="M 16445,3343 L 16445,28877"/>
 <path fill="none" stroke="rgb(242,242,242)" stroke-width="26" stroke-linejoin="round" d="M 16998,3343 L 16998,28877"/>
 <path fill="none" stroke="rgb(242,242,242)" stroke-width="26" stroke-linejoin="round" d="M 18106,3343 L 18106,28877"/>
 <path fill="none" stroke="rgb(242,242,242)" stroke-width="26" stroke-linejoin="round" d="M 18659,3343 L 18659,28877"/>
 <path fill="none" stroke="rgb(242,242,242)" stroke-width="26" stroke-linejoin="round" d="M 19214,3343 L 19214,28877"/>
 <path fill="none" stroke="rgb(242,242,242)" stroke-width="26" stroke-linejoin="round" d="M 19767,3343 L 19767,28877"/>
 <path fill="none" stroke="rgb(242,242,242)" stroke-width="26" stroke-linejoin="round" d="M 20875,3343 L 20875,28877"/>
 <path fill="none" stroke="rgb(242,242,242)" stroke-width="26" stroke-linejoin="round" d="M 21429,3343 L 21429,28877"/>
 <path fill="none" stroke="rgb(242,242,242)" stroke-width="26" stroke-linejoin="round" d="M 21982,3343 L 21982,28877"/>
 <path fill="none" stroke="rgb(242,242,242)" stroke-width="26" stroke-linejoin="round" d="M 22536,3343 L 22536,28877"/>
 <path fill="none" stroke="rgb(242,242,242)" stroke-width="26" stroke-linejoin="round" d="M 23643,3343 L 23643,28877"/>
 <path fill="none" stroke="rgb(242,242,242)" stroke-width="26" stroke-linejoin="round" d="M 24198,3343 L 24198,28877"/>
 <path fill="none" stroke="rgb(242,242,242)" stroke-width="26" stroke-linejoin="round" d="M 24751,3343 L 24751,28877"/>
 <path fill="none" stroke="rgb(242,242,242)" stroke-width="26" stroke-linejoin="round" d="M 25305,3343 L 25305,28877"/>
 <path fill="none" stroke="rgb(217,217,217)" stroke-width="26" stroke-linejoin="round" d="M 3558,28877 L 3708,28877"/>
 <path fill="none" stroke="rgb(217,217,217)" stroke-width="26" stroke-linejoin="round" d="M 3558,27931 L 3708,27931"/>
 <path fill="none" stroke="rgb(217,217,217)" stroke-width="26" stroke-linejoin="round" d="M 3558,26985 L 3708,26985"/>
 <path fill="none" stroke="rgb(217,217,217)" stroke-width="26" stroke-linejoin="round" d="M 3558,26040 L 3708,26040"/>
 <path fill="none" stroke="rgb(217,217,217)" stroke-width="26" stroke-linejoin="round" d="M 3558,25093 L 3708,25093"/>
 <path fill="none" stroke="rgb(217,217,217)" stroke-width="26" stroke-linejoin="round" d="M 3558,24148 L 3708,24148"/>
 <path fill="none" stroke="rgb(217,217,217)" stroke-width="26" stroke-linejoin="round" d="M 3558,23202 L 3708,23202"/>
 <path fill="none" stroke="rgb(217,217,217)" stroke-width="26" stroke-linejoin="round" d="M 3558,22257 L 3708,22257"/>
 <path fill="none" stroke="rgb(217,217,217)" stroke-width="26" stroke-linejoin="round" d="M 3558,21311 L 3708,21311"/>
 <path fill="none" stroke="rgb(217,217,217)" stroke-width="26" stroke-linejoin="round" d="M 3558,20366 L 3708,20366"/>
 <path fill="none" stroke="rgb(217,217,217)" stroke-width="26" stroke-linejoin="round" d="M 3558,19419 L 3708,19419"/>
 <path fill="none" stroke="rgb(217,217,217)" stroke-width="26" stroke-linejoin="round" d="M 3558,18473 L 3708,18473"/>
 <path fill="none" stroke="rgb(217,217,217)" stroke-width="26" stroke-linejoin="round" d="M 3558,17528 L 3708,17528"/>
 <path fill="none" stroke="rgb(217,217,217)" stroke-width="26" stroke-linejoin="round" d="M 3558,16582 L 3708,16582"/>
 <path fill="none" stroke="rgb(217,217,217)" stroke-width="26" stroke-linejoin="round" d="M 3558,15637 L 3708,15637"/>
 <path fill="none" stroke="rgb(217,217,217)" stroke-width="26" stroke-linejoin="round" d="M 3558,14691 L 3708,14691"/>
 <path fill="none" stroke="rgb(217,217,217)" stroke-width="26" stroke-linejoin="round" d="M 3558,13746 L 3708,13746"/>
 <path fill="none" stroke="rgb(217,217,217)" stroke-width="26" stroke-linejoin="round" d="M 3558,12799 L 3708,12799"/>
 <path fill="none" stroke="rgb(217,217,217)" stroke-width="26" stroke-linejoin="round" d="M 3558,11854 L 3708,11854"/>
 <path fill="none" stroke="rgb(217,217,217)" stroke-width="26" stroke-linejoin="round" d="M 3558,10908 L 3708,10908"/>
 <path fill="none" stroke="rgb(217,217,217)" stroke-width="26" stroke-linejoin="round" d="M 3558,9962 L 3708,9962"/>
 <path fill="none" stroke="rgb(217,217,217)" stroke-width="26" stroke-linejoin="round" d="M 3558,9017 L 3708,9017"/>
 <path fill="none" stroke="rgb(217,217,217)" stroke-width="26" stroke-linejoin="round" d="M 3558,8071 L 3708,8071"/>
 <path fill="none" stroke="rgb(217,217,217)" stroke-width="26" stroke-linejoin="round" d="M 3558,7126 L 3708,7126"/>
 <path fill="none" stroke="rgb(217,217,217)" stroke-width="26" stroke-linejoin="round" d="M 3558,6179 L 3708,6179"/>
 <path fill="none" stroke="rgb(217,217,217)" stroke-width="26" stroke-linejoin="round" d="M 3558,5234 L 3708,5234"/>
 <path fill="none" stroke="rgb(217,217,217)" stroke-width="26" stroke-linejoin="round" d="M 3558,4288 L 3708,4288"/>
 <path fill="none" stroke="rgb(217,217,217)" stroke-width="26" stroke-linejoin="round" d="M 3558,3343 L 3708,3343"/>
 <path fill="none" stroke="rgb(217,217,217)" stroke-width="26" stroke-linejoin="round" d="M 3708,28877 L 3708,3343"/>
 <path fill="rgb(99,99,99)" stroke="none" d="M 3708,4079 L 3708,3924 3708,3924 3708,4079 Z"/>
 <path fill="rgb(99,99,99)" stroke="none" d="M 3708,5025 L 3708,4870 3708,4870 3708,5025 Z"/>
 <path fill="rgb(99,99,99)" stroke="none" d="M 3708,5971 L 3708,5816 3708,5816 3708,5971 Z"/>
 <path fill="rgb(99,99,99)" stroke="none" d="M 3708,6917 L 3708,6761 3708,6761 3708,6917 Z"/>
 <path fill="rgb(99,99,99)" stroke="none" d="M 3708,7862 L 3708,7707 3910,7707 3910,7862 3708,7862 Z"/>
 <path fill="rgb(99,99,99)" stroke="none" d="M 3708,8808 L 3708,8652 4328,8652 4328,8808 3708,8808 Z"/>
 <path fill="rgb(99,99,99)" stroke="none" d="M 3708,9753 L 3708,9598 4358,9598 4358,9753 3708,9753 Z"/>
 <path fill="rgb(99,99,99)" stroke="none" d="M 3708,10699 L 3708,10543 4412,10543 4412,10699 3708,10699 Z"/>
 <path fill="rgb(99,99,99)" stroke="none" d="M 3708,11645 L 3708,11490 4476,11490 4476,11645 3708,11645 Z"/>
 <path fill="rgb(99,99,99)" stroke="none" d="M 3708,12591 L 3708,12436 4503,12436 4503,12591 3708,12591 Z"/>
 <path fill="rgb(99,99,99)" stroke="none" d="M 3708,13537 L 3708,13381 5741,13381 5741,13537 3708,13537 Z"/>
 <path fill="rgb(99,99,99)" stroke="none" d="M 3708,14482 L 3708,14327 6443,14327 6443,14482 3708,14482 Z"/>
 <path fill="rgb(99,99,99)" stroke="none" d="M 3708,15428 L 3708,15272 6491,15272 6491,15428 3708,15428 Z"/>
 <path fill="rgb(99,99,99)" stroke="none" d="M 3708,16373 L 3708,16218 6753,16218 6753,16373 3708,16373 Z"/>
 <path fill="rgb(99,99,99)" stroke="none" d="M 3708,17319 L 3708,17164 8529,17164 8529,17319 3708,17319 Z"/>
 <path fill="rgb(99,99,99)" stroke="none" d="M 3708,18265 L 3708,18110 8723,18110 8723,18265 3708,18265 Z"/>
 <path fill="rgb(99,99,99)" stroke="none" d="M 3708,19211 L 3708,19055 9194,19055 9194,19211 3708,19211 Z"/>
 <path fill="rgb(99,99,99)" stroke="none" d="M 3708,20156 L 3708,20001 9429,20001 9429,20156 3708,20156 Z"/>
 <path fill="rgb(99,99,99)" stroke="none" d="M 3708,21102 L 3708,20947 9909,20947 9909,21102 3708,21102 Z"/>
 <path fill="rgb(99,99,99)" stroke="none" d="M 3708,22048 L 3708,21892 12019,21892 12019,22048 3708,22048 Z"/>
 <path fill="rgb(99,99,99)" stroke="none" d="M 3708,22993 L 3708,22838 13608,22838 13608,22993 3708,22993 Z"/>
 <path fill="rgb(99,99,99)" stroke="none" d="M 3708,23939 L 3708,23784 14176,23784 14176,23939 3708,23939 Z"/>
 <path fill="rgb(99,99,99)" stroke="none" d="M 3708,24885 L 3708,24730 14780,24730 14780,24885 3708,24885 Z"/>
 <path fill="rgb(99,99,99)" stroke="none" d="M 3708,25831 L 3708,25675 15057,25675 15057,25831 3708,25831 Z"/>
 <path fill="rgb(99,99,99)" stroke="none" d="M 3708,26776 L 3708,26621 19762,26621 19762,26776 3708,26776 Z"/>
 <path fill="rgb(99,99,99)" stroke="none" d="M 3708,27722 L 3708,27566 20127,27566 20127,27722 3708,27722 Z"/>
 <path fill="rgb(99,99,99)" stroke="none" d="M 3708,28667 L 3708,28512 24566,28512 24566,28667 3708,28667 Z"/>
 <path fill="rgb(180,180,180)" stroke="none" d="M 3708,3892 L 3708,3738 3708,3738 3708,3892 Z"/>
 <path fill="rgb(180,180,180)" stroke="none" d="M 3708,4839 L 3708,4684 3708,4684 3708,4839 Z"/>
 <path fill="rgb(180,180,180)" stroke="none" d="M 3708,5785 L 3708,5629 3708,5629 3708,5785 Z"/>
 <path fill="rgb(180,180,180)" stroke="none" d="M 3708,6730 L 3708,6575 3708,6575 3708,6730 Z"/>
 <path fill="rgb(180,180,180)" stroke="none" d="M 3708,7676 L 3708,7520 3743,7520 3743,7676 3708,7676 Z"/>
 <path fill="rgb(180,180,180)" stroke="none" d="M 3708,8621 L 3708,8466 4236,8466 4236,8621 3708,8621 Z"/>
 <path fill="rgb(180,180,180)" stroke="none" d="M 3708,9567 L 3708,9412 4170,9412 4170,9567 3708,9567 Z"/>
 <path fill="rgb(180,180,180)" stroke="none" d="M 3708,10513 L 3708,10358 4115,10358 4115,10513 3708,10513 Z"/>
 <path fill="rgb(180,180,180)" stroke="none" d="M 3708,11459 L 3708,11304 4203,11304 4203,11459 3708,11459 Z"/>
 <path fill="rgb(180,180,180)" stroke="none" d="M 3708,12404 L 3708,12249 4034,12249 4034,12404 3708,12404 Z"/>
 <path fill="rgb(180,180,180)" stroke="none" d="M 3708,13350 L 3708,13195 8782,13195 8782,13350 3708,13350 Z"/>
 <path fill="rgb(180,180,180)" stroke="none" d="M 3708,14296 L 3708,14140 6051,14140 6051,14296 3708,14296 Z"/>
 <path fill="rgb(180,180,180)" stroke="none" d="M 3708,15241 L 3708,15086 5532,15086 5532,15241 3708,15241 Z"/>
 <path fill="rgb(180,180,180)" stroke="none" d="M 3708,16187 L 3708,16032 6870,16032 6870,16187 3708,16187 Z"/>
 <path fill="rgb(180,180,180)" stroke="none" d="M 3708,17133 L 3708,16978 7682,16978 7682,17133 3708,17133 Z"/>
 <path fill="rgb(180,180,180)" stroke="none" d="M 3708,18079 L 3708,17923 6295,17923 6295,18079 3708,18079 Z"/>
 <path fill="rgb(180,180,180)" stroke="none" d="M 3708,19024 L 3708,18869 7141,18869 7141,19024 3708,19024 Z"/>
 <path fill="rgb(180,180,180)" stroke="none" d="M 3708,19970 L 3708,19815 10085,19815 10085,19970 3708,19970 Z"/>
 <path fill="rgb(180,180,180)" stroke="none" d="M 3708,20915 L 3708,20760 7361,20760 7361,20915 3708,20915 Z"/>
 <path fill="rgb(180,180,180)" stroke="none" d="M 3708,21861 L 3708,21706 13186,21706 13186,21861 3708,21861 Z"/>
 <path fill="rgb(180,180,180)" stroke="none" d="M 3708,22807 L 3708,22652 11373,22652 11373,22807 3708,22807 Z"/>
 <path fill="rgb(180,180,180)" stroke="none" d="M 3708,23753 L 3708,23598 11791,23598 11791,23753 3708,23753 Z"/>
 <path fill="rgb(180,180,180)" stroke="none" d="M 3708,24699 L 3708,24543 15347,24543 15347,24699 3708,24699 Z"/>
 <path fill="rgb(180,180,180)" stroke="none" d="M 3708,25644 L 3708,25489 13822,25489 13822,25644 3708,25644 Z"/>
 <path fill="rgb(180,180,180)" stroke="none" d="M 3708,26590 L 3708,26434 18187,26434 18187,26590 3708,26590 Z"/>
 <path fill="rgb(180,180,180)" stroke="none" d="M 3708,27535 L 3708,27380 12287,27380 12287,27535 3708,27535 Z"/>
 <path fill="rgb(180,180,180)" stroke="none" d="M 3708,28481 L 3708,28326 18827,28326 18827,28481 3708,28481 Z"/>
 <path fill="rgb(139,139,139)" stroke="none" d="M 3708,3707 L 3708,3552 3708,3552 3708,3707 Z"/>
 <path fill="rgb(139,139,139)" stroke="none" d="M 3708,4653 L 3708,4497 3708,4497 3708,4653 Z"/>
 <path fill="rgb(139,139,139)" stroke="none" d="M 3708,5598 L 3708,5443 3708,5443 3708,5598 Z"/>
 <path fill="rgb(139,139,139)" stroke="none" d="M 3708,6544 L 3708,6388 3708,6388 3708,6544 Z"/>
 <path fill="rgb(139,139,139)" stroke="none" d="M 3708,7489 L 3708,7334 3743,7334 3743,7489 3708,7489 Z"/>
 <path fill="rgb(139,139,139)" stroke="none" d="M 3708,8435 L 3708,8280 3972,8280 3972,8435 3708,8435 Z"/>
 <path fill="rgb(139,139,139)" stroke="none" d="M 3708,9381 L 3708,9226 3943,9226 3943,9381 3708,9381 Z"/>
 <path fill="rgb(139,139,139)" stroke="none" d="M 3708,10327 L 3708,10171 4060,10171 4060,10327 3708,10327 Z"/>
 <path fill="rgb(139,139,139)" stroke="none" d="M 3708,11272 L 3708,11117 3992,11117 3992,11272 3708,11272 Z"/>
 <path fill="rgb(139,139,139)" stroke="none" d="M 3708,12218 L 3708,12063 3987,12063 3987,12218 3708,12218 Z"/>
 <path fill="rgb(139,139,139)" stroke="none" d="M 3708,13164 L 3708,13008 9743,13008 9743,13164 3708,13164 Z"/>
 <path fill="rgb(139,139,139)" stroke="none" d="M 3708,14109 L 3708,13954 4806,13954 4806,14109 3708,14109 Z"/>
 <path fill="rgb(139,139,139)" stroke="none" d="M 3708,15055 L 3708,14900 4287,14900 4287,15055 3708,15055 Z"/>
 <path fill="rgb(139,139,139)" stroke="none" d="M 3708,16001 L 3708,15846 6384,15846 6384,16001 3708,16001 Z"/>
 <path fill="rgb(139,139,139)" stroke="none" d="M 3708,16947 L 3708,16791 5153,16791 5153,16947 3708,16947 Z"/>
 <path fill="rgb(139,139,139)" stroke="none" d="M 3708,17892 L 3708,17737 5965,17737 5965,17892 3708,17892 Z"/>
 <path fill="rgb(139,139,139)" stroke="none" d="M 3708,18838 L 3708,18682 6371,18682 6371,18838 3708,18838 Z"/>
 <path fill="rgb(139,139,139)" stroke="none" d="M 3708,19783 L 3708,19628 5870,19628 5870,19783 3708,19783 Z"/>
 <path fill="rgb(139,139,139)" stroke="none" d="M 3708,20729 L 3708,20574 5091,20574 5091,20729 3708,20729 Z"/>
 <path fill="rgb(139,139,139)" stroke="none" d="M 3708,21675 L 3708,21520 11715,21520 11715,21675 3708,21675 Z"/>
 <path fill="rgb(139,139,139)" stroke="none" d="M 3708,22621 L 3708,22466 10124,22466 10124,22621 3708,22621 Z"/>
 <path fill="rgb(139,139,139)" stroke="none" d="M 3708,23567 L 3708,23411 10385,23411 10385,23567 3708,23567 Z"/>
 <path fill="rgb(139,139,139)" stroke="none" d="M 3708,24512 L 3708,24357 13774,24357 13774,24512 3708,24512 Z"/>
 <path fill="rgb(139,139,139)" stroke="none" d="M 3708,25458 L 3708,25302 6068,25302 6068,25458 3708,25458 Z"/>
 <path fill="rgb(139,139,139)" stroke="none" d="M 3708,26403 L 3708,26248 11084,26248 11084,26403 3708,26403 Z"/>
 <path fill="rgb(139,139,139)" stroke="none" d="M 3708,27349 L 3708,27193 8794,27193 8794,27349 3708,27349 Z"/>
 <path fill="rgb(139,139,139)" stroke="none" d="M 3708,28295 L 3708,28140 12687,28140 12687,28295 3708,28295 Z"/>
 <text class="TextShape"><tspan class="TextParagraph" font-family="Calibri, sans-serif" font-size="318px" font-weight="400"><tspan class="TextPosition" x="1397" y="28510"><tspan fill="rgb(89,89,89)" stroke="none">Core i7-2600</tspan></tspan></tspan></text>
 <text class="TextShape"><tspan class="TextParagraph" font-family="Calibri, sans-serif" font-size="318px" font-weight="400"><tspan class="TextPosition" x="895" y="27565"><tspan fill="rgb(89,89,89)" stroke="none">Core i7-4700MQ</tspan></tspan></tspan></text>
 <text class="TextShape"><tspan class="TextParagraph" font-family="Calibri, sans-serif" font-size="318px" font-weight="400"><tspan class="TextPosition" x="1714" y="26619"><tspan fill="rgb(89,89,89)" stroke="none">Xeon 6128</tspan></tspan></tspan></text>
 <text class="TextShape"><tspan class="TextParagraph" font-family="Calibri, sans-serif" font-size="318px" font-weight="400"><tspan class="TextPosition" x="1265" y="25673"><tspan fill="rgb(89,89,89)" stroke="none">AMD A6-3650</tspan></tspan></tspan></text>
 <text class="TextShape"><tspan class="TextParagraph" font-family="Calibri, sans-serif" font-size="318px" font-weight="400"><tspan class="TextPosition" x="1661" y="24727"><tspan fill="rgb(89,89,89)" stroke="none">E8C2-1550</tspan></tspan></tspan></text>
 <text class="TextShape"><tspan class="TextParagraph" font-family="Calibri, sans-serif" font-size="318px" font-weight="400"><tspan class="TextPosition" x="1793" y="23781"><tspan fill="rgb(89,89,89)" stroke="none">E8C-SWTX</tspan></tspan></tspan></text>
 <text class="TextShape"><tspan class="TextParagraph" font-family="Calibri, sans-serif" font-size="318px" font-weight="400"><tspan class="TextPosition" x="1872" y="22836"><tspan fill="rgb(89,89,89)" stroke="none">E8C-E8C4</tspan></tspan></tspan></text>
 <text class="TextShape"><tspan class="TextParagraph" font-family="Calibri, sans-serif" font-size="318px" font-weight="400"><tspan class="TextPosition" x="1661" y="21890"><tspan fill="rgb(89,89,89)" stroke="none">E8C2-1200</tspan></tspan></tspan></text>
 <text class="TextShape"><tspan class="TextParagraph" font-family="Calibri, sans-serif" font-size="318px" font-weight="400"><tspan class="TextPosition" x="1291" y="20945"><tspan fill="rgb(89,89,89)" stroke="none">Core i3-m330</tspan></tspan></tspan></text>
 <text class="TextShape"><tspan class="TextParagraph" font-family="Calibri, sans-serif" font-size="318px" font-weight="400"><tspan class="TextPosition" x="1687" y="19998"><tspan fill="rgb(89,89,89)" stroke="none">E2S-EL2S4</tspan></tspan></tspan></text>
 <text class="TextShape"><tspan class="TextParagraph" font-family="Calibri, sans-serif" font-size="318px" font-weight="400"><tspan class="TextPosition" x="2612" y="19053"><tspan fill="rgb(89,89,89)" stroke="none">E8C2</tspan></tspan></tspan></text>
 <text class="TextShape"><tspan class="TextParagraph" font-family="Calibri, sans-serif" font-size="318px" font-weight="400"><tspan class="TextPosition" x="551" y="18107"><tspan fill="rgb(89,89,89)" stroke="none">Core 2 Duo T9400</tspan></tspan></tspan></text>
 <text class="TextShape"><tspan class="TextParagraph" font-family="Calibri, sans-serif" font-size="318px" font-weight="400"><tspan class="TextPosition" x="1450" y="17162"><tspan fill="rgb(89,89,89)" stroke="none">Atom Z8350</tspan></tspan></tspan></text>
 <text class="TextShape"><tspan class="TextParagraph" font-family="Calibri, sans-serif" font-size="318px" font-weight="400"><tspan class="TextPosition" x="1846" y="16216"><tspan fill="rgb(89,89,89)" stroke="none">MBE1C-PC</tspan></tspan></tspan></text>
 <text class="TextShape"><tspan class="TextParagraph" font-family="Calibri, sans-serif" font-size="318px" font-weight="400"><tspan class="TextPosition" x="1687" y="15270"><tspan fill="rgb(89,89,89)" stroke="none">E2S-PC401</tspan></tspan></tspan></text>
 <text class="TextShape"><tspan class="TextParagraph" font-family="Calibri, sans-serif" font-size="318px" font-weight="400"><tspan class="TextPosition" x="1846" y="14325"><tspan fill="rgb(89,89,89)" stroke="none">Odroid N2</tspan></tspan></tspan></text>
 <text class="TextShape"><tspan class="TextParagraph" font-family="Calibri, sans-serif" font-size="318px" font-weight="400"><tspan class="TextPosition" x="1265" y="13378"><tspan fill="rgb(89,89,89)" stroke="none">AWS Graviton</tspan></tspan></tspan></text>
 <text class="TextShape"><tspan class="TextParagraph" font-family="Calibri, sans-serif" font-size="318px" font-weight="400"><tspan class="TextPosition" x="1212" y="12433"><tspan fill="rgb(89,89,89)" stroke="none">Orange Pi PC2</tspan></tspan></tspan></text>
 <text class="TextShape"><tspan class="TextParagraph" font-family="Calibri, sans-serif" font-size="318px" font-weight="400"><tspan class="TextPosition" x="1212" y="11487"><tspan fill="rgb(89,89,89)" stroke="none">Orange Pi Win</tspan></tspan></tspan></text>
 <text class="TextShape"><tspan class="TextParagraph" font-family="Calibri, sans-serif" font-size="318px" font-weight="400"><tspan class="TextPosition" x="1872" y="10542"><tspan fill="rgb(89,89,89)" stroke="none">Odroid X2</tspan></tspan></tspan></text>
 <text class="TextShape"><tspan class="TextParagraph" font-family="Calibri, sans-serif" font-size="318px" font-weight="400"><tspan class="TextPosition" x="1133" y="9596"><tspan fill="rgb(89,89,89)" stroke="none">Pentium M725</tspan></tspan></tspan></text>
 <text class="TextShape"><tspan class="TextParagraph" font-family="Calibri, sans-serif" font-size="318px" font-weight="400"><tspan class="TextPosition" x="1133" y="8651"><tspan fill="rgb(89,89,89)" stroke="none">Raspberry PI 3</tspan></tspan></tspan></text>
 <text class="TextShape"><tspan class="TextParagraph" font-family="Calibri, sans-serif" font-size="318px" font-weight="400"><tspan class="TextPosition" x="1450" y="7705"><tspan fill="rgb(89,89,89)" stroke="none">Raspberry PI</tspan></tspan></tspan></text>
 <text class="TextShape"><tspan class="TextParagraph" font-family="Calibri, sans-serif" font-size="318px" font-weight="400"><tspan class="TextPosition" x="1820" y="6758"><tspan fill="rgb(89,89,89)" stroke="none">Pentium 4</tspan></tspan></tspan></text>
 <text class="TextShape"><tspan class="TextParagraph" font-family="Calibri, sans-serif" font-size="318px" font-weight="400"><tspan class="TextPosition" x="1714" y="5813"><tspan fill="rgb(89,89,89)" stroke="none">Pentium III</tspan></tspan></tspan></text>
 <text class="TextShape"><tspan class="TextParagraph" font-family="Calibri, sans-serif" font-size="318px" font-weight="400"><tspan class="TextPosition" x="1106" y="4867"><tspan fill="rgb(89,89,89)" stroke="none">E16C-APPROX*</tspan></tspan></tspan></text>
 <text class="TextShape"><tspan class="TextParagraph" font-family="Calibri, sans-serif" font-size="318px" font-weight="400"><tspan class="TextPosition" x="1318" y="3922"><tspan fill="rgb(89,89,89)" stroke="none">Baikal T1 BFK</tspan></tspan></tspan></text>
 <text class="TextShape"><tspan class="TextParagraph" font-family="Calibri, sans-serif" font-size="318px" font-weight="400"><tspan class="TextPosition" x="3603" y="29268"><tspan fill="rgb(89,89,89)" stroke="none">0</tspan></tspan></tspan></text>
 <text class="TextShape"><tspan class="TextParagraph" font-family="Calibri, sans-serif" font-size="318px" font-weight="400"><tspan class="TextPosition" x="5949" y="29268"><tspan fill="rgb(89,89,89)" stroke="none">10000</tspan></tspan></tspan></text>
 <text class="TextShape"><tspan class="TextParagraph" font-family="Calibri, sans-serif" font-size="318px" font-weight="400"><tspan class="TextPosition" x="8718" y="29268"><tspan fill="rgb(89,89,89)" stroke="none">20000</tspan></tspan></tspan></text>
 <text class="TextShape"><tspan class="TextParagraph" font-family="Calibri, sans-serif" font-size="318px" font-weight="400"><tspan class="TextPosition" x="11486" y="29268"><tspan fill="rgb(89,89,89)" stroke="none">30000</tspan></tspan></tspan></text>
 <text class="TextShape"><tspan class="TextParagraph" font-family="Calibri, sans-serif" font-size="318px" font-weight="400"><tspan class="TextPosition" x="14255" y="29268"><tspan fill="rgb(89,89,89)" stroke="none">40000</tspan></tspan></tspan></text>
 <text class="TextShape"><tspan class="TextParagraph" font-family="Calibri, sans-serif" font-size="318px" font-weight="400"><tspan class="TextPosition" x="17024" y="29268"><tspan fill="rgb(89,89,89)" stroke="none">50000</tspan></tspan></tspan></text>
 <text class="TextShape"><tspan class="TextParagraph" font-family="Calibri, sans-serif" font-size="318px" font-weight="400"><tspan class="TextPosition" x="19793" y="29268"><tspan fill="rgb(89,89,89)" stroke="none">60000</tspan></tspan></tspan></text>
 <text class="TextShape"><tspan class="TextParagraph" font-family="Calibri, sans-serif" font-size="318px" font-weight="400"><tspan class="TextPosition" x="22562" y="29268"><tspan fill="rgb(89,89,89)" stroke="none">70000</tspan></tspan></tspan></text>
 <text class="TextShape"><tspan class="TextParagraph" font-family="Calibri, sans-serif" font-size="318px" font-weight="400"><tspan class="TextPosition" x="25331" y="29268"><tspan fill="rgb(89,89,89)" stroke="none">80000</tspan></tspan></tspan></text>
 <text class="TextShape"><tspan class="TextParagraph" font-family="Calibri, sans-serif" font-size="318px" font-weight="400"><tspan class="TextPosition" x="24666" y="28697"><tspan fill="rgb(64,64,64)" stroke="none">75334</tspan></tspan></tspan></text>
 <text class="TextShape"><tspan class="TextParagraph" font-family="Calibri, sans-serif" font-size="318px" font-weight="400"><tspan class="TextPosition" x="20227" y="27750"><tspan fill="rgb(64,64,64)" stroke="none">59299</tspan></tspan></tspan></text>
 <text class="TextShape"><tspan class="TextParagraph" font-family="Calibri, sans-serif" font-size="318px" font-weight="400"><tspan class="TextPosition" x="19862" y="26805"><tspan fill="rgb(64,64,64)" stroke="none">57982</tspan></tspan></tspan></text>
 <text class="TextShape"><tspan class="TextParagraph" font-family="Calibri, sans-serif" font-size="318px" font-weight="400"><tspan class="TextPosition" x="15157" y="25859"><tspan fill="rgb(64,64,64)" stroke="none">40988</tspan></tspan></tspan></text>
 <text class="TextShape"><tspan class="TextParagraph" font-family="Calibri, sans-serif" font-size="318px" font-weight="400"><tspan class="TextPosition" x="14880" y="24914"><tspan fill="rgb(64,64,64)" stroke="none">39990</tspan></tspan></tspan></text>
 <text class="TextShape"><tspan class="TextParagraph" font-family="Calibri, sans-serif" font-size="318px" font-weight="400"><tspan class="TextPosition" x="14276" y="23968"><tspan fill="rgb(64,64,64)" stroke="none">37806</tspan></tspan></tspan></text>
 <text class="TextShape"><tspan class="TextParagraph" font-family="Calibri, sans-serif" font-size="318px" font-weight="400"><tspan class="TextPosition" x="13708" y="23022"><tspan fill="rgb(64,64,64)" stroke="none">35758</tspan></tspan></tspan></text>
 <text class="TextShape"><tspan class="TextParagraph" font-family="Calibri, sans-serif" font-size="318px" font-weight="400"><tspan class="TextPosition" x="12119" y="22077"><tspan fill="rgb(64,64,64)" stroke="none">30016</tspan></tspan></tspan></text>
 <text class="TextShape"><tspan class="TextParagraph" font-family="Calibri, sans-serif" font-size="318px" font-weight="400"><tspan class="TextPosition" x="10009" y="21130"><tspan fill="rgb(64,64,64)" stroke="none">22396</tspan></tspan></tspan></text>
 <text class="TextShape"><tspan class="TextParagraph" font-family="Calibri, sans-serif" font-size="318px" font-weight="400"><tspan class="TextPosition" x="9528" y="20185"><tspan fill="rgb(64,64,64)" stroke="none">20662</tspan></tspan></tspan></text>
 <text class="TextShape"><tspan class="TextParagraph" font-family="Calibri, sans-serif" font-size="318px" font-weight="400"><tspan class="TextPosition" x="9294" y="19239"><tspan fill="rgb(64,64,64)" stroke="none">19815</tspan></tspan></tspan></text>
 <text class="TextShape"><tspan class="TextParagraph" font-family="Calibri, sans-serif" font-size="318px" font-weight="400"><tspan class="TextPosition" x="8823" y="18294"><tspan fill="rgb(64,64,64)" stroke="none">18113</tspan></tspan></tspan></text>
 <text class="TextShape"><tspan class="TextParagraph" font-family="Calibri, sans-serif" font-size="318px" font-weight="400"><tspan class="TextPosition" x="8629" y="17348"><tspan fill="rgb(64,64,64)" stroke="none">17415</tspan></tspan></tspan></text>
 <text class="TextShape"><tspan class="TextParagraph" font-family="Calibri, sans-serif" font-size="318px" font-weight="400"><tspan class="TextPosition" x="6853" y="16403"><tspan fill="rgb(64,64,64)" stroke="none">10999</tspan></tspan></tspan></text>
 <text class="TextShape"><tspan class="TextParagraph" font-family="Calibri, sans-serif" font-size="318px" font-weight="400"><tspan class="TextPosition" x="6591" y="15457"><tspan fill="rgb(64,64,64)" stroke="none">10053</tspan></tspan></tspan></text>
 <text class="TextShape"><tspan class="TextParagraph" font-family="Calibri, sans-serif" font-size="318px" font-weight="400"><tspan class="TextPosition" x="6542" y="14510"><tspan fill="rgb(64,64,64)" stroke="none">9876</tspan></tspan></tspan></text>
 <text class="TextShape"><tspan class="TextParagraph" font-family="Calibri, sans-serif" font-size="318px" font-weight="400"><tspan class="TextPosition" x="5841" y="13565"><tspan fill="rgb(64,64,64)" stroke="none">7344</tspan></tspan></tspan></text>
 <text class="TextShape"><tspan class="TextParagraph" font-family="Calibri, sans-serif" font-size="318px" font-weight="400"><tspan class="TextPosition" x="4603" y="12619"><tspan fill="rgb(64,64,64)" stroke="none">2872</tspan></tspan></tspan></text>
 <text class="TextShape"><tspan class="TextParagraph" font-family="Calibri, sans-serif" font-size="318px" font-weight="400"><tspan class="TextPosition" x="4575" y="11674"><tspan fill="rgb(64,64,64)" stroke="none">2771</tspan></tspan></tspan></text>
 <text class="TextShape"><tspan class="TextParagraph" font-family="Calibri, sans-serif" font-size="318px" font-weight="400"><tspan class="TextPosition" x="4511" y="10728"><tspan fill="rgb(64,64,64)" stroke="none">2543</tspan></tspan></tspan></text>
 <text class="TextShape"><tspan class="TextParagraph" font-family="Calibri, sans-serif" font-size="318px" font-weight="400"><tspan class="TextPosition" x="4458" y="9783"><tspan fill="rgb(64,64,64)" stroke="none">2348</tspan></tspan></tspan></text>
 <text class="TextShape"><tspan class="TextParagraph" font-family="Calibri, sans-serif" font-size="318px" font-weight="400"><tspan class="TextPosition" x="4428" y="8837"><tspan fill="rgb(64,64,64)" stroke="none">2240</tspan></tspan></tspan></text>
 <text class="TextShape"><tspan class="TextParagraph" font-family="Calibri, sans-serif" font-size="318px" font-weight="400"><tspan class="TextPosition" x="4010" y="7891"><tspan fill="rgb(64,64,64)" stroke="none">731</tspan></tspan></tspan></text>
 <text class="TextShape"><tspan class="TextParagraph" font-family="Calibri, sans-serif" font-size="318px" font-weight="400"><tspan class="TextPosition" x="3808" y="6945"><tspan fill="rgb(64,64,64)" stroke="none">0</tspan></tspan></tspan></text>
 <text class="TextShape"><tspan class="TextParagraph" font-family="Calibri, sans-serif" font-size="318px" font-weight="400"><tspan class="TextPosition" x="3808" y="5999"><tspan fill="rgb(64,64,64)" stroke="none">0</tspan></tspan></tspan></text>
 <text class="TextShape"><tspan class="TextParagraph" font-family="Calibri, sans-serif" font-size="318px" font-weight="400"><tspan class="TextPosition" x="3808" y="5054"><tspan fill="rgb(64,64,64)" stroke="none">0</tspan></tspan></tspan></text>
 <text class="TextShape"><tspan class="TextParagraph" font-family="Calibri, sans-serif" font-size="318px" font-weight="400"><tspan class="TextPosition" x="3808" y="4108"><tspan fill="rgb(64,64,64)" stroke="none">0</tspan></tspan></tspan></text>
 <text class="TextShape"><tspan class="TextParagraph" font-family="Calibri, sans-serif" font-size="318px" font-weight="400"><tspan class="TextPosition" x="18927" y="28510"><tspan fill="rgb(64,64,64)" stroke="none">54605</tspan></tspan></tspan></text>
 <text class="TextShape"><tspan class="TextParagraph" font-family="Calibri, sans-serif" font-size="318px" font-weight="400"><tspan class="TextPosition" x="12387" y="27565"><tspan fill="rgb(64,64,64)" stroke="none">30982</tspan></tspan></tspan></text>
 <text class="TextShape"><tspan class="TextParagraph" font-family="Calibri, sans-serif" font-size="318px" font-weight="400"><tspan class="TextPosition" x="18287" y="26619"><tspan fill="rgb(64,64,64)" stroke="none">52292</tspan></tspan></tspan></text>
 <text class="TextShape"><tspan class="TextParagraph" font-family="Calibri, sans-serif" font-size="318px" font-weight="400"><tspan class="TextPosition" x="13922" y="25673"><tspan fill="rgb(64,64,64)" stroke="none">36529</tspan></tspan></tspan></text>
 <text class="TextShape"><tspan class="TextParagraph" font-family="Calibri, sans-serif" font-size="318px" font-weight="400"><tspan class="TextPosition" x="15447" y="24727"><tspan fill="rgb(64,64,64)" stroke="none">42034</tspan></tspan></tspan></text>
 <text class="TextShape"><tspan class="TextParagraph" font-family="Calibri, sans-serif" font-size="318px" font-weight="400"><tspan class="TextPosition" x="11891" y="23781"><tspan fill="rgb(64,64,64)" stroke="none">29193</tspan></tspan></tspan></text>
 <text class="TextShape"><tspan class="TextParagraph" font-family="Calibri, sans-serif" font-size="318px" font-weight="400"><tspan class="TextPosition" x="11473" y="22836"><tspan fill="rgb(64,64,64)" stroke="none">27681</tspan></tspan></tspan></text>
 <text class="TextShape"><tspan class="TextParagraph" font-family="Calibri, sans-serif" font-size="318px" font-weight="400"><tspan class="TextPosition" x="13286" y="21890"><tspan fill="rgb(64,64,64)" stroke="none">34232</tspan></tspan></tspan></text>
 <text class="TextShape"><tspan class="TextParagraph" font-family="Calibri, sans-serif" font-size="318px" font-weight="400"><tspan class="TextPosition" x="7461" y="20945"><tspan fill="rgb(64,64,64)" stroke="none">13193</tspan></tspan></tspan></text>
 <text class="TextShape"><tspan class="TextParagraph" font-family="Calibri, sans-serif" font-size="318px" font-weight="400"><tspan class="TextPosition" x="10185" y="19998"><tspan fill="rgb(64,64,64)" stroke="none">23032</tspan></tspan></tspan></text>
 <text class="TextShape"><tspan class="TextParagraph" font-family="Calibri, sans-serif" font-size="318px" font-weight="400"><tspan class="TextPosition" x="7241" y="19053"><tspan fill="rgb(64,64,64)" stroke="none">12399</tspan></tspan></tspan></text>
 <text class="TextShape"><tspan class="TextParagraph" font-family="Calibri, sans-serif" font-size="318px" font-weight="400"><tspan class="TextPosition" x="6395" y="18107"><tspan fill="rgb(64,64,64)" stroke="none">9344</tspan></tspan></tspan></text>
 <text class="TextShape"><tspan class="TextParagraph" font-family="Calibri, sans-serif" font-size="318px" font-weight="400"><tspan class="TextPosition" x="7782" y="17162"><tspan fill="rgb(64,64,64)" stroke="none">14356</tspan></tspan></tspan></text>
 <text class="TextShape"><tspan class="TextParagraph" font-family="Calibri, sans-serif" font-size="318px" font-weight="400"><tspan class="TextPosition" x="6970" y="16216"><tspan fill="rgb(64,64,64)" stroke="none">11421</tspan></tspan></tspan></text>
 <text class="TextShape"><tspan class="TextParagraph" font-family="Calibri, sans-serif" font-size="318px" font-weight="400"><tspan class="TextPosition" x="5632" y="15270"><tspan fill="rgb(64,64,64)" stroke="none">6591</tspan></tspan></tspan></text>
 <text class="TextShape"><tspan class="TextParagraph" font-family="Calibri, sans-serif" font-size="318px" font-weight="400"><tspan class="TextPosition" x="6151" y="14325"><tspan fill="rgb(64,64,64)" stroke="none">8463</tspan></tspan></tspan></text>
 <text class="TextShape"><tspan class="TextParagraph" font-family="Calibri, sans-serif" font-size="318px" font-weight="400"><tspan class="TextPosition" x="8882" y="13378"><tspan fill="rgb(64,64,64)" stroke="none">18328</tspan></tspan></tspan></text>
 <text class="TextShape"><tspan class="TextParagraph" font-family="Calibri, sans-serif" font-size="318px" font-weight="400"><tspan class="TextPosition" x="4134" y="12433"><tspan fill="rgb(64,64,64)" stroke="none">1179</tspan></tspan></tspan></text>
 <text class="TextShape"><tspan class="TextParagraph" font-family="Calibri, sans-serif" font-size="318px" font-weight="400"><tspan class="TextPosition" x="4303" y="11487"><tspan fill="rgb(64,64,64)" stroke="none">1787</tspan></tspan></tspan></text>
 <text class="TextShape"><tspan class="TextParagraph" font-family="Calibri, sans-serif" font-size="318px" font-weight="400"><tspan class="TextPosition" x="4215" y="10542"><tspan fill="rgb(64,64,64)" stroke="none">1472</tspan></tspan></tspan></text>
 <text class="TextShape"><tspan class="TextParagraph" font-family="Calibri, sans-serif" font-size="318px" font-weight="400"><tspan class="TextPosition" x="4270" y="9596"><tspan fill="rgb(64,64,64)" stroke="none">1670</tspan></tspan></tspan></text>
 <text class="TextShape"><tspan class="TextParagraph" font-family="Calibri, sans-serif" font-size="318px" font-weight="400"><tspan class="TextPosition" x="4336" y="8651"><tspan fill="rgb(64,64,64)" stroke="none">1906</tspan></tspan></tspan></text>
 <text class="TextShape"><tspan class="TextParagraph" font-family="Calibri, sans-serif" font-size="318px" font-weight="400"><tspan class="TextPosition" x="3843" y="7705"><tspan fill="rgb(64,64,64)" stroke="none">127</tspan></tspan></tspan></text>
 <text class="TextShape"><tspan class="TextParagraph" font-family="Calibri, sans-serif" font-size="318px" font-weight="400"><tspan class="TextPosition" x="3808" y="6758"><tspan fill="rgb(64,64,64)" stroke="none">0</tspan></tspan></tspan></text>
 <text class="TextShape"><tspan class="TextParagraph" font-family="Calibri, sans-serif" font-size="318px" font-weight="400"><tspan class="TextPosition" x="3808" y="5813"><tspan fill="rgb(64,64,64)" stroke="none">0</tspan></tspan></tspan></text>
 <text class="TextShape"><tspan class="TextParagraph" font-family="Calibri, sans-serif" font-size="318px" font-weight="400"><tspan class="TextPosition" x="3808" y="4867"><tspan fill="rgb(64,64,64)" stroke="none">0</tspan></tspan></tspan></text>
 <text class="TextShape"><tspan class="TextParagraph" font-family="Calibri, sans-serif" font-size="318px" font-weight="400"><tspan class="TextPosition" x="3808" y="3922"><tspan fill="rgb(64,64,64)" stroke="none">0</tspan></tspan></tspan></text>
 <text class="TextShape"><tspan class="TextParagraph" font-family="Calibri, sans-serif" font-size="318px" font-weight="400"><tspan class="TextPosition" x="12787" y="28324"><tspan fill="rgb(64,64,64)" stroke="none">32432</tspan></tspan></tspan></text>
 <text class="TextShape"><tspan class="TextParagraph" font-family="Calibri, sans-serif" font-size="318px" font-weight="400"><tspan class="TextPosition" x="8894" y="27378"><tspan fill="rgb(64,64,64)" stroke="none">18371</tspan></tspan></tspan></text>
 <text class="TextShape"><tspan class="TextParagraph" font-family="Calibri, sans-serif" font-size="318px" font-weight="400"><tspan class="TextPosition" x="11184" y="26433"><tspan fill="rgb(64,64,64)" stroke="none">26638</tspan></tspan></tspan></text>
 <text class="TextShape"><tspan class="TextParagraph" font-family="Calibri, sans-serif" font-size="318px" font-weight="400"><tspan class="TextPosition" x="6168" y="25487"><tspan fill="rgb(64,64,64)" stroke="none">8523</tspan></tspan></tspan></text>
 <text class="TextShape"><tspan class="TextParagraph" font-family="Calibri, sans-serif" font-size="318px" font-weight="400"><tspan class="TextPosition" x="13874" y="24540"><tspan fill="rgb(64,64,64)" stroke="none">36355</tspan></tspan></tspan></text>
 <text class="TextShape"><tspan class="TextParagraph" font-family="Calibri, sans-serif" font-size="318px" font-weight="400"><tspan class="TextPosition" x="10484" y="23595"><tspan fill="rgb(64,64,64)" stroke="none">24114</tspan></tspan></tspan></text>
 <text class="TextShape"><tspan class="TextParagraph" font-family="Calibri, sans-serif" font-size="318px" font-weight="400"><tspan class="TextPosition" x="10224" y="22649"><tspan fill="rgb(64,64,64)" stroke="none">23172</tspan></tspan></tspan></text>
 <text class="TextShape"><tspan class="TextParagraph" font-family="Calibri, sans-serif" font-size="318px" font-weight="400"><tspan class="TextPosition" x="11815" y="21704"><tspan fill="rgb(64,64,64)" stroke="none">28920</tspan></tspan></tspan></text>
 <text class="TextShape"><tspan class="TextParagraph" font-family="Calibri, sans-serif" font-size="318px" font-weight="400"><tspan class="TextPosition" x="5191" y="20758"><tspan fill="rgb(64,64,64)" stroke="none">4996</tspan></tspan></tspan></text>
 <text class="TextShape"><tspan class="TextParagraph" font-family="Calibri, sans-serif" font-size="318px" font-weight="400"><tspan class="TextPosition" x="5970" y="19813"><tspan fill="rgb(64,64,64)" stroke="none">7809</tspan></tspan></tspan></text>
 <text class="TextShape"><tspan class="TextParagraph" font-family="Calibri, sans-serif" font-size="318px" font-weight="400"><tspan class="TextPosition" x="6471" y="18866"><tspan fill="rgb(64,64,64)" stroke="none">9617</tspan></tspan></tspan></text>
 <text class="TextShape"><tspan class="TextParagraph" font-family="Calibri, sans-serif" font-size="318px" font-weight="400"><tspan class="TextPosition" x="6065" y="17921"><tspan fill="rgb(64,64,64)" stroke="none">8153</tspan></tspan></tspan></text>
 <text class="TextShape"><tspan class="TextParagraph" font-family="Calibri, sans-serif" font-size="318px" font-weight="400"><tspan class="TextPosition" x="5253" y="16975"><tspan fill="rgb(64,64,64)" stroke="none">5219</tspan></tspan></tspan></text>
 <text class="TextShape"><tspan class="TextParagraph" font-family="Calibri, sans-serif" font-size="318px" font-weight="400"><tspan class="TextPosition" x="6484" y="16029"><tspan fill="rgb(64,64,64)" stroke="none">9663</tspan></tspan></tspan></text>
 <text class="TextShape"><tspan class="TextParagraph" font-family="Calibri, sans-serif" font-size="318px" font-weight="400"><tspan class="TextPosition" x="4387" y="15084"><tspan fill="rgb(64,64,64)" stroke="none">2092</tspan></tspan></tspan></text>
 <text class="TextShape"><tspan class="TextParagraph" font-family="Calibri, sans-serif" font-size="318px" font-weight="400"><tspan class="TextPosition" x="4906" y="14138"><tspan fill="rgb(64,64,64)" stroke="none">3966</tspan></tspan></tspan></text>
 <text class="TextShape"><tspan class="TextParagraph" font-family="Calibri, sans-serif" font-size="318px" font-weight="400"><tspan class="TextPosition" x="9843" y="13193"><tspan fill="rgb(64,64,64)" stroke="none">21796</tspan></tspan></tspan></text>
 <text class="TextShape"><tspan class="TextParagraph" font-family="Calibri, sans-serif" font-size="318px" font-weight="400"><tspan class="TextPosition" x="4087" y="12246"><tspan fill="rgb(64,64,64)" stroke="none">1009</tspan></tspan></tspan></text>
 <text class="TextShape"><tspan class="TextParagraph" font-family="Calibri, sans-serif" font-size="318px" font-weight="400"><tspan class="TextPosition" x="4092" y="11301"><tspan fill="rgb(64,64,64)" stroke="none">1028</tspan></tspan></tspan></text>
 <text class="TextShape"><tspan class="TextParagraph" font-family="Calibri, sans-serif" font-size="318px" font-weight="400"><tspan class="TextPosition" x="4160" y="10355"><tspan fill="rgb(64,64,64)" stroke="none">1271</tspan></tspan></tspan></text>
 <text class="TextShape"><tspan class="TextParagraph" font-family="Calibri, sans-serif" font-size="318px" font-weight="400"><tspan class="TextPosition" x="4043" y="9410"><tspan fill="rgb(64,64,64)" stroke="none">850</tspan></tspan></tspan></text>
 <text class="TextShape"><tspan class="TextParagraph" font-family="Calibri, sans-serif" font-size="318px" font-weight="400"><tspan class="TextPosition" x="4072" y="8464"><tspan fill="rgb(64,64,64)" stroke="none">954</tspan></tspan></tspan></text>
 <text class="TextShape"><tspan class="TextParagraph" font-family="Calibri, sans-serif" font-size="318px" font-weight="400"><tspan class="TextPosition" x="3843" y="7518"><tspan fill="rgb(64,64,64)" stroke="none">127</tspan></tspan></tspan></text>
 <text class="TextShape"><tspan class="TextParagraph" font-family="Calibri, sans-serif" font-size="318px" font-weight="400"><tspan class="TextPosition" x="3808" y="6573"><tspan fill="rgb(64,64,64)" stroke="none">0</tspan></tspan></tspan></text>
 <text class="TextShape"><tspan class="TextParagraph" font-family="Calibri, sans-serif" font-size="318px" font-weight="400"><tspan class="TextPosition" x="3808" y="5626"><tspan fill="rgb(64,64,64)" stroke="none">0</tspan></tspan></tspan></text>
 <text class="TextShape"><tspan class="TextParagraph" font-family="Calibri, sans-serif" font-size="318px" font-weight="400"><tspan class="TextPosition" x="3808" y="4681"><tspan fill="rgb(64,64,64)" stroke="none">0</tspan></tspan></tspan></text>
 <text class="TextShape"><tspan class="TextParagraph" font-family="Calibri, sans-serif" font-size="318px" font-weight="400"><tspan class="TextPosition" x="3808" y="3735"><tspan fill="rgb(64,64,64)" stroke="none">0</tspan></tspan></tspan></text>
 <text class="TextShape"><tspan class="TextParagraph" font-family="Calibri Light" font-size="705px" font-weight="400"><tspan class="TextPosition" x="5845" y="1619"><tspan fill="rgb(89,89,89)" stroke="none">Memspeed (MB/s, x[m]=x[m]+y[m] Sngl )</tspan></tspan></tspan></text>
 <path fill="rgb(99,99,99)" stroke="none" d="M 14711,2555 L 14616,2555 14616,2365 14806,2365 14806,2555 14711,2555 Z"/>
 <path fill="rgb(180,180,180)" stroke="none" d="M 13048,2555 L 12953,2555 12953,2365 13143,2365 13143,2555 13048,2555 Z"/>
 <path fill="rgb(139,139,139)" stroke="none" d="M 11173,2555 L 11078,2555 11078,2365 11268,2365 11268,2555 11173,2555 Z"/>
 <text class="TextShape"><tspan class="TextParagraph" font-family="Calibri, sans-serif" font-size="318px" font-weight="400"><tspan class="TextPosition" x="11368" y="2566"><tspan fill="rgb(89,89,89)" stroke="none">8192 KB</tspan></tspan></tspan></text>
 <text class="TextShape"><tspan class="TextParagraph" font-family="Calibri, sans-serif" font-size="318px" font-weight="400"><tspan class="TextPosition" x="13243" y="2566"><tspan fill="rgb(89,89,89)" stroke="none">512 KB</tspan></tspan></tspan></text>
 <text class="TextShape"><tspan class="TextParagraph" font-family="Calibri, sans-serif" font-size="318px" font-weight="400"><tspan class="TextPosition" x="14906" y="2566"><tspan fill="rgb(89,89,89)" stroke="none">16 KB</tspan></tspan></tspan></text>
</svg>