<?xml version="1.0" encoding="UTF-8"?>
<!DOCTYPE svg PUBLIC "-//W3C//DTD SVG 1.1//EN" "http://www.w3.org/Graphics/SVG/1.1/DTD/svg11.dtd">
<svg width="270mm" height="329mm" viewBox="0 0 27000 32900" version="1.1" xmlns="http://www.w3.org/2000/svg" xmlns:xlink="http://www.w3.org/1999/xlink" stroke-width="28.222" stroke-linejoin="round" xml:space="preserve">
 <path fill="rgb(68,114,196)" stroke="none" d="M 35,35 L 26917,35 26917,32911 35,32911 35,35 Z"/>
 <path fill="none" stroke="rgb(47,82,143)" stroke-width="35" d="M 17,18 L 26934,18 26934,32929 17,32929 17,18 Z"/>
 <path fill="rgb(255,255,255)" stroke="none" d="M 13476,32898 L 48,32898 48,48 26904,48 26904,32898 13476,32898 Z"/>
 <path fill="none" stroke="rgb(217,217,217)" stroke-width="26" stroke-linejoin="round" d="M 13476,32898 L 48,32898 48,48 26904,48 26904,32898 13476,32898 Z"/>
 <path fill="none" stroke="rgb(217,217,217)" stroke-width="26" stroke-linejoin="round" d="M 3140,3321 L 3140,31823"/>
 <path fill="none" stroke="rgb(217,217,217)" stroke-width="26" stroke-linejoin="round" d="M 5990,3321 L 5990,31823"/>
 <path fill="none" stroke="rgb(217,217,217)" stroke-width="26" stroke-linejoin="round" d="M 8840,3321 L 8840,31823"/>
 <path fill="none" stroke="rgb(217,217,217)" stroke-width="26" stroke-linejoin="round" d="M 11690,3321 L 11690,31823"/>
 <path fill="none" stroke="rgb(217,217,217)" stroke-width="26" stroke-linejoin="round" d="M 14541,3321 L 14541,31823"/>
 <path fill="none" stroke="rgb(217,217,217)" stroke-width="26" stroke-linejoin="round" d="M 17392,3321 L 17392,31823"/>
 <path fill="none" stroke="rgb(217,217,217)" stroke-width="26" stroke-linejoin="round" d="M 20242,3321 L 20242,31823"/>
 <path fill="none" stroke="rgb(217,217,217)" stroke-width="26" stroke-linejoin="round" d="M 23092,3321 L 23092,31823"/>
 <path fill="none" stroke="rgb(217,217,217)" stroke-width="26" stroke-linejoin="round" d="M 25943,3321 L 25943,31823"/>
 <path fill="none" stroke="rgb(242,242,242)" stroke-width="26" stroke-linejoin="round" d="M 4564,3321 L 4564,31823"/>
 <path fill="none" stroke="rgb(242,242,242)" stroke-width="26" stroke-linejoin="round" d="M 7415,3321 L 7415,31823"/>
 <path fill="none" stroke="rgb(242,242,242)" stroke-width="26" stroke-linejoin="round" d="M 10266,3321 L 10266,31823"/>
 <path fill="none" stroke="rgb(242,242,242)" stroke-width="26" stroke-linejoin="round" d="M 13116,3321 L 13116,31823"/>
 <path fill="none" stroke="rgb(242,242,242)" stroke-width="26" stroke-linejoin="round" d="M 15966,3321 L 15966,31823"/>
 <path fill="none" stroke="rgb(242,242,242)" stroke-width="26" stroke-linejoin="round" d="M 18816,3321 L 18816,31823"/>
 <path fill="none" stroke="rgb(242,242,242)" stroke-width="26" stroke-linejoin="round" d="M 21667,3321 L 21667,31823"/>
 <path fill="none" stroke="rgb(242,242,242)" stroke-width="26" stroke-linejoin="round" d="M 24517,3321 L 24517,31823"/>
 <path fill="none" stroke="rgb(217,217,217)" stroke-width="26" stroke-linejoin="round" d="M 2990,31823 L 3140,31823"/>
 <path fill="none" stroke="rgb(217,217,217)" stroke-width="26" stroke-linejoin="round" d="M 2990,30767 L 3140,30767"/>
 <path fill="none" stroke="rgb(217,217,217)" stroke-width="26" stroke-linejoin="round" d="M 2990,29712 L 3140,29712"/>
 <path fill="none" stroke="rgb(217,217,217)" stroke-width="26" stroke-linejoin="round" d="M 2990,28655 L 3140,28655"/>
 <path fill="none" stroke="rgb(217,217,217)" stroke-width="26" stroke-linejoin="round" d="M 2990,27600 L 3140,27600"/>
 <path fill="none" stroke="rgb(217,217,217)" stroke-width="26" stroke-linejoin="round" d="M 2990,26544 L 3140,26544"/>
 <path fill="none" stroke="rgb(217,217,217)" stroke-width="26" stroke-linejoin="round" d="M 2990,25489 L 3140,25489"/>
 <path fill="none" stroke="rgb(217,217,217)" stroke-width="26" stroke-linejoin="round" d="M 2990,24433 L 3140,24433"/>
 <path fill="none" stroke="rgb(217,217,217)" stroke-width="26" stroke-linejoin="round" d="M 2990,23378 L 3140,23378"/>
 <path fill="none" stroke="rgb(217,217,217)" stroke-width="26" stroke-linejoin="round" d="M 2990,22322 L 3140,22322"/>
 <path fill="none" stroke="rgb(217,217,217)" stroke-width="26" stroke-linejoin="round" d="M 2990,21267 L 3140,21267"/>
 <path fill="none" stroke="rgb(217,217,217)" stroke-width="26" stroke-linejoin="round" d="M 2990,20210 L 3140,20210"/>
 <path fill="none" stroke="rgb(217,217,217)" stroke-width="26" stroke-linejoin="round" d="M 2990,19155 L 3140,19155"/>
 <path fill="none" stroke="rgb(217,217,217)" stroke-width="26" stroke-linejoin="round" d="M 2990,18099 L 3140,18099"/>
 <path fill="none" stroke="rgb(217,217,217)" stroke-width="26" stroke-linejoin="round" d="M 2990,17044 L 3140,17044"/>
 <path fill="none" stroke="rgb(217,217,217)" stroke-width="26" stroke-linejoin="round" d="M 2990,15988 L 3140,15988"/>
 <path fill="none" stroke="rgb(217,217,217)" stroke-width="26" stroke-linejoin="round" d="M 2990,14933 L 3140,14933"/>
 <path fill="none" stroke="rgb(217,217,217)" stroke-width="26" stroke-linejoin="round" d="M 2990,13877 L 3140,13877"/>
 <path fill="none" stroke="rgb(217,217,217)" stroke-width="26" stroke-linejoin="round" d="M 2990,12821 L 3140,12821"/>
 <path fill="none" stroke="rgb(217,217,217)" stroke-width="26" stroke-linejoin="round" d="M 2990,11765 L 3140,11765"/>
 <path fill="none" stroke="rgb(217,217,217)" stroke-width="26" stroke-linejoin="round" d="M 2990,10710 L 3140,10710"/>
 <path fill="none" stroke="rgb(217,217,217)" stroke-width="26" stroke-linejoin="round" d="M 2990,9654 L 3140,9654"/>
 <path fill="none" stroke="rgb(217,217,217)" stroke-width="26" stroke-linejoin="round" d="M 2990,8599 L 3140,8599"/>
 <path fill="none" stroke="rgb(217,217,217)" stroke-width="26" stroke-linejoin="round" d="M 2990,7543 L 3140,7543"/>
 <path fill="none" stroke="rgb(217,217,217)" stroke-width="26" stroke-linejoin="round" d="M 2990,6488 L 3140,6488"/>
 <path fill="none" stroke="rgb(217,217,217)" stroke-width="26" stroke-linejoin="round" d="M 2990,5432 L 3140,5432"/>
 <path fill="none" stroke="rgb(217,217,217)" stroke-width="26" stroke-linejoin="round" d="M 2990,4376 L 3140,4376"/>
 <path fill="none" stroke="rgb(217,217,217)" stroke-width="26" stroke-linejoin="round" d="M 2990,3321 L 3140,3321"/>
 <path fill="none" stroke="rgb(217,217,217)" stroke-width="26" stroke-linejoin="round" d="M 3140,31823 L 3140,3321"/>
 <path fill="rgb(95,95,95)" stroke="none" d="M 3140,4144 L 3140,3970 24566,3970 24566,4144 3140,4144 Z"/>
 <path fill="rgb(95,95,95)" stroke="none" d="M 3140,5199 L 3140,5026 19572,5026 19572,5199 3140,5199 Z"/>
 <path fill="rgb(95,95,95)" stroke="none" d="M 3140,6255 L 3140,6081 18244,6081 18244,6255 3140,6255 Z"/>
 <path fill="rgb(95,95,95)" stroke="none" d="M 3140,7310 L 3140,7137 15736,7137 15736,7310 3140,7310 Z"/>
 <path fill="rgb(95,95,95)" stroke="none" d="M 3140,8366 L 3140,8192 14835,8192 14835,8366 3140,8366 Z"/>
 <path fill="rgb(95,95,95)" stroke="none" d="M 3140,9421 L 3140,9248 14799,9248 14799,9421 3140,9421 Z"/>
 <path fill="rgb(95,95,95)" stroke="none" d="M 3140,10477 L 3140,10304 13712,10304 13712,10477 3140,10477 Z"/>
 <path fill="rgb(95,95,95)" stroke="none" d="M 3140,11533 L 3140,11360 13704,11360 13704,11533 3140,11533 Z"/>
 <path fill="rgb(95,95,95)" stroke="none" d="M 3140,12589 L 3140,12415 13009,12415 13009,12589 3140,12589 Z"/>
 <path fill="rgb(95,95,95)" stroke="none" d="M 3140,13644 L 3140,13471 9665,13471 9665,13644 3140,13644 Z"/>
 <path fill="rgb(95,95,95)" stroke="none" d="M 3140,14699 L 3140,14526 9487,14526 9487,14699 3140,14699 Z"/>
 <path fill="rgb(95,95,95)" stroke="none" d="M 3140,15755 L 3140,15581 9257,15581 9257,15755 3140,15755 Z"/>
 <path fill="rgb(95,95,95)" stroke="none" d="M 3140,16810 L 3140,16637 9226,16637 9226,16810 3140,16810 Z"/>
 <path fill="rgb(95,95,95)" stroke="none" d="M 3140,17866 L 3140,17692 8955,17692 8955,17866 3140,17866 Z"/>
 <path fill="rgb(95,95,95)" stroke="none" d="M 3140,18921 L 3140,18749 8098,18749 8098,18921 3140,18921 Z"/>
 <path fill="rgb(95,95,95)" stroke="none" d="M 3140,19978 L 3140,19804 6938,19804 6938,19978 3140,19978 Z"/>
 <path fill="rgb(95,95,95)" stroke="none" d="M 3140,21033 L 3140,20860 5548,20860 5548,21033 3140,21033 Z"/>
 <path fill="rgb(95,95,95)" stroke="none" d="M 3140,22089 L 3140,21915 3813,21915 3813,22089 3140,22089 Z"/>
 <path fill="rgb(95,95,95)" stroke="none" d="M 3140,23144 L 3140,22971 3685,22971 3685,23144 3140,23144 Z"/>
 <path fill="rgb(95,95,95)" stroke="none" d="M 3140,24200 L 3140,24026 3594,24026 3594,24200 3140,24200 Z"/>
 <path fill="rgb(95,95,95)" stroke="none" d="M 3140,25255 L 3140,25082 3517,25082 3517,25255 3140,25255 Z"/>
 <path fill="rgb(95,95,95)" stroke="none" d="M 3140,26311 L 3140,26138 3514,26138 3514,26311 3140,26311 Z"/>
 <path fill="rgb(95,95,95)" stroke="none" d="M 3140,27367 L 3140,27194 3176,27194 3176,27367 3140,27367 Z"/>
 <path fill="rgb(95,95,95)" stroke="none" d="M 3140,28423 L 3140,28249 3140,28249 3140,28423 Z"/>
 <path fill="rgb(95,95,95)" stroke="none" d="M 3140,29478 L 3140,29305 3140,29305 3140,29478 Z"/>
 <path fill="rgb(95,95,95)" stroke="none" d="M 3140,30534 L 3140,30360 3140,30360 3140,30534 Z"/>
 <path fill="rgb(95,95,95)" stroke="none" d="M 3140,31589 L 3140,31416 3140,31416 3140,31589 Z"/>
 <path fill="rgb(179,179,179)" stroke="none" d="M 3140,3935 L 3140,3762 18351,3762 18351,3935 3140,3935 Z"/>
 <path fill="rgb(179,179,179)" stroke="none" d="M 3140,4991 L 3140,4817 17776,4817 17776,4991 3140,4991 Z"/>
 <path fill="rgb(179,179,179)" stroke="none" d="M 3140,6046 L 3140,5873 11638,5873 11638,6046 3140,6046 Z"/>
 <path fill="rgb(179,179,179)" stroke="none" d="M 3140,7102 L 3140,6928 15108,6928 15108,7102 3140,7102 Z"/>
 <path fill="rgb(179,179,179)" stroke="none" d="M 3140,8157 L 3140,7984 15028,7984 15028,8157 3140,8157 Z"/>
 <path fill="rgb(179,179,179)" stroke="none" d="M 3140,9213 L 3140,9040 13899,9040 13899,9213 3140,9213 Z"/>
 <path fill="rgb(179,179,179)" stroke="none" d="M 3140,10269 L 3140,10096 11462,10096 11462,10269 3140,10269 Z"/>
 <path fill="rgb(179,179,179)" stroke="none" d="M 3140,11325 L 3140,11151 11087,11151 11087,11325 3140,11325 Z"/>
 <path fill="rgb(179,179,179)" stroke="none" d="M 3140,12380 L 3140,12207 12878,12207 12878,12380 3140,12380 Z"/>
 <path fill="rgb(179,179,179)" stroke="none" d="M 3140,13436 L 3140,13262 9441,13262 9441,13436 3140,13436 Z"/>
 <path fill="rgb(179,179,179)" stroke="none" d="M 3140,14491 L 3140,14318 6798,14318 6798,14491 3140,14491 Z"/>
 <path fill="rgb(179,179,179)" stroke="none" d="M 3140,15547 L 3140,15373 9613,15373 9613,15547 3140,15547 Z"/>
 <path fill="rgb(179,179,179)" stroke="none" d="M 3140,16602 L 3140,16430 8104,16430 8104,16602 3140,16602 Z"/>
 <path fill="rgb(179,179,179)" stroke="none" d="M 3140,17659 L 3140,17485 7184,17485 7184,17659 3140,17659 Z"/>
 <path fill="rgb(179,179,179)" stroke="none" d="M 3140,18714 L 3140,18541 7300,18541 7300,18714 3140,18714 Z"/>
 <path fill="rgb(179,179,179)" stroke="none" d="M 3140,19770 L 3140,19596 12063,19596 12063,19770 3140,19770 Z"/>
 <path fill="rgb(179,179,179)" stroke="none" d="M 3140,20825 L 3140,20652 5481,20652 5481,20825 3140,20825 Z"/>
 <path fill="rgb(179,179,179)" stroke="none" d="M 3140,21881 L 3140,21707 3556,21707 3556,21881 3140,21881 Z"/>
 <path fill="rgb(179,179,179)" stroke="none" d="M 3140,22936 L 3140,22763 3575,22763 3575,22936 3140,22936 Z"/>
 <path fill="rgb(179,179,179)" stroke="none" d="M 3140,23992 L 3140,23818 3638,23818 3638,23992 3140,23992 Z"/>
 <path fill="rgb(179,179,179)" stroke="none" d="M 3140,25047 L 3140,24875 3594,24875 3594,25047 3140,25047 Z"/>
 <path fill="rgb(179,179,179)" stroke="none" d="M 3140,26104 L 3140,25930 3489,25930 3489,26104 3140,26104 Z"/>
 <path fill="rgb(179,179,179)" stroke="none" d="M 3140,27159 L 3140,26986 3176,26986 3176,27159 3140,27159 Z"/>
 <path fill="rgb(179,179,179)" stroke="none" d="M 3140,28215 L 3140,28041 3140,28041 3140,28215 Z"/>
 <path fill="rgb(179,179,179)" stroke="none" d="M 3140,29270 L 3140,29097 3140,29097 3140,29270 Z"/>
 <path fill="rgb(179,179,179)" stroke="none" d="M 3140,30326 L 3140,30152 3140,30152 3140,30326 Z"/>
 <path fill="rgb(179,179,179)" stroke="none" d="M 3140,31381 L 3140,31208 3140,31208 3140,31381 Z"/>
 <path fill="rgb(137,137,137)" stroke="none" d="M 3140,3727 L 3140,3554 12486,3554 12486,3727 3140,3727 Z"/>
 <path fill="rgb(137,137,137)" stroke="none" d="M 3140,4783 L 3140,4609 10645,4609 10645,4783 3140,4783 Z"/>
 <path fill="rgb(137,137,137)" stroke="none" d="M 3140,5838 L 3140,5665 8161,5665 8161,5838 3140,5838 Z"/>
 <path fill="rgb(137,137,137)" stroke="none" d="M 3140,6894 L 3140,6721 13486,6721 13486,6894 3140,6894 Z"/>
 <path fill="rgb(137,137,137)" stroke="none" d="M 3140,7950 L 3140,7777 12797,7777 12797,7950 3140,7950 Z"/>
 <path fill="rgb(137,137,137)" stroke="none" d="M 3140,9006 L 3140,8832 5584,8832 5584,9006 3140,9006 Z"/>
 <path fill="rgb(137,137,137)" stroke="none" d="M 3140,10061 L 3140,9888 10017,9888 10017,10061 3140,10061 Z"/>
 <path fill="rgb(137,137,137)" stroke="none" d="M 3140,11117 L 3140,10943 9785,10943 9785,11117 3140,11117 Z"/>
 <path fill="rgb(137,137,137)" stroke="none" d="M 3140,12172 L 3140,11999 11375,11999 11375,12172 3140,12172 Z"/>
 <path fill="rgb(137,137,137)" stroke="none" d="M 3140,13228 L 3140,13054 5559,13054 5559,13228 3140,13228 Z"/>
 <path fill="rgb(137,137,137)" stroke="none" d="M 3140,14283 L 3140,14110 4461,14110 4461,14283 3140,14283 Z"/>
 <path fill="rgb(137,137,137)" stroke="none" d="M 3140,15339 L 3140,15166 5413,15166 5413,15339 3140,15339 Z"/>
 <path fill="rgb(137,137,137)" stroke="none" d="M 3140,16395 L 3140,16222 5231,16222 5231,16395 3140,16395 Z"/>
 <path fill="rgb(137,137,137)" stroke="none" d="M 3140,17451 L 3140,17277 5491,17277 5491,17451 3140,17451 Z"/>
 <path fill="rgb(137,137,137)" stroke="none" d="M 3140,18506 L 3140,18333 4623,18333 4623,18506 3140,18506 Z"/>
 <path fill="rgb(137,137,137)" stroke="none" d="M 3140,19562 L 3140,19388 4808,19388 4808,19562 3140,19562 Z"/>
 <path fill="rgb(137,137,137)" stroke="none" d="M 3140,20617 L 3140,20444 4248,20444 4248,20617 3140,20617 Z"/>
 <path fill="rgb(137,137,137)" stroke="none" d="M 3140,21672 L 3140,21499 3499,21499 3499,21672 3140,21672 Z"/>
 <path fill="rgb(137,137,137)" stroke="none" d="M 3140,22728 L 3140,22555 3380,22555 3380,22728 3140,22728 Z"/>
 <path fill="rgb(137,137,137)" stroke="none" d="M 3140,23783 L 3140,23611 3430,23611 3430,23783 3140,23783 Z"/>
 <path fill="rgb(137,137,137)" stroke="none" d="M 3140,24840 L 3140,24666 3430,24666 3430,24840 3140,24840 Z"/>
 <path fill="rgb(137,137,137)" stroke="none" d="M 3140,25895 L 3140,25722 3436,25722 3436,25895 3140,25895 Z"/>
 <path fill="rgb(137,137,137)" stroke="none" d="M 3140,26951 L 3140,26777 3176,26777 3176,26951 3140,26951 Z"/>
 <path fill="rgb(137,137,137)" stroke="none" d="M 3140,28006 L 3140,27833 3140,27833 3140,28006 Z"/>
 <path fill="rgb(137,137,137)" stroke="none" d="M 3140,29062 L 3140,28888 3140,28888 3140,29062 Z"/>
 <path fill="rgb(137,137,137)" stroke="none" d="M 3140,30117 L 3140,29944 3140,29944 3140,30117 Z"/>
 <path fill="rgb(137,137,137)" stroke="none" d="M 3140,31173 L 3140,31000 3140,31000 3140,31173 Z"/>
 <text class="TextShape"><tspan class="TextParagraph" font-family="Calibri, sans-serif" font-size="318px" font-weight="400"><tspan class="TextPosition" x="1579" y="31369"><tspan fill="rgb(89,89,89)" stroke="none">Pentium 4</tspan></tspan></tspan></text>
 <text class="TextShape"><tspan class="TextParagraph" font-family="Calibri, sans-serif" font-size="318px" font-weight="400"><tspan class="TextPosition" x="1495" y="30314"><tspan fill="rgb(89,89,89)" stroke="none">Pentium III</tspan></tspan></tspan></text>
 <text class="TextShape"><tspan class="TextParagraph" font-family="Calibri, sans-serif" font-size="318px" font-weight="400"><tspan class="TextPosition" x="902" y="29258"><tspan fill="rgb(89,89,89)" stroke="none">E16C-APPROX*</tspan></tspan></tspan></text>
 <text class="TextShape"><tspan class="TextParagraph" font-family="Calibri, sans-serif" font-size="318px" font-weight="400"><tspan class="TextPosition" x="1220" y="28202"><tspan fill="rgb(89,89,89)" stroke="none">Baikal T1 BFK</tspan></tspan></tspan></text>
 <text class="TextShape"><tspan class="TextParagraph" font-family="Calibri, sans-serif" font-size="318px" font-weight="400"><tspan class="TextPosition" x="1283" y="27146"><tspan fill="rgb(89,89,89)" stroke="none">Raspberry PI</tspan></tspan></tspan></text>
 <text class="TextShape"><tspan class="TextParagraph" font-family="Calibri, sans-serif" font-size="318px" font-weight="400"><tspan class="TextPosition" x="1093" y="26091"><tspan fill="rgb(89,89,89)" stroke="none">Orange Pi PC2</tspan></tspan></tspan></text>
 <text class="TextShape"><tspan class="TextParagraph" font-family="Calibri, sans-serif" font-size="318px" font-weight="400"><tspan class="TextPosition" x="1050" y="25035"><tspan fill="rgb(89,89,89)" stroke="none">Raspberry PI 3</tspan></tspan></tspan></text>
 <text class="TextShape"><tspan class="TextParagraph" font-family="Calibri, sans-serif" font-size="318px" font-weight="400"><tspan class="TextPosition" x="1093" y="23980"><tspan fill="rgb(89,89,89)" stroke="none">Orange Pi Win</tspan></tspan></tspan></text>
 <text class="TextShape"><tspan class="TextParagraph" font-family="Calibri, sans-serif" font-size="318px" font-weight="400"><tspan class="TextPosition" x="966" y="22924"><tspan fill="rgb(89,89,89)" stroke="none">Pentium M725</tspan></tspan></tspan></text>
 <text class="TextShape"><tspan class="TextParagraph" font-family="Calibri, sans-serif" font-size="318px" font-weight="400"><tspan class="TextPosition" x="1600" y="21869"><tspan fill="rgb(89,89,89)" stroke="none">Odroid X2</tspan></tspan></tspan></text>
 <text class="TextShape"><tspan class="TextParagraph" font-family="Calibri, sans-serif" font-size="318px" font-weight="400"><tspan class="TextPosition" x="1557" y="20812"><tspan fill="rgb(89,89,89)" stroke="none">Odroid N2</tspan></tspan></tspan></text>
 <text class="TextShape"><tspan class="TextParagraph" font-family="Calibri, sans-serif" font-size="318px" font-weight="400"><tspan class="TextPosition" x="1516" y="19757"><tspan fill="rgb(89,89,89)" stroke="none">MBE1C-PC</tspan></tspan></tspan></text>
 <text class="TextShape"><tspan class="TextParagraph" font-family="Calibri, sans-serif" font-size="318px" font-weight="400"><tspan class="TextPosition" x="1283" y="18701"><tspan fill="rgb(89,89,89)" stroke="none">Atom Z8350</tspan></tspan></tspan></text>
 <text class="TextShape"><tspan class="TextParagraph" font-family="Calibri, sans-serif" font-size="318px" font-weight="400"><tspan class="TextPosition" x="585" y="17646"><tspan fill="rgb(89,89,89)" stroke="none">Core 2 Duo T9400</tspan></tspan></tspan></text>
 <text class="TextShape"><tspan class="TextParagraph" font-family="Calibri, sans-serif" font-size="318px" font-weight="400"><tspan class="TextPosition" x="1114" y="16591"><tspan fill="rgb(89,89,89)" stroke="none">AWS Graviton</tspan></tspan></tspan></text>
 <text class="TextShape"><tspan class="TextParagraph" font-family="Calibri, sans-serif" font-size="318px" font-weight="400"><tspan class="TextPosition" x="1557" y="15535"><tspan fill="rgb(89,89,89)" stroke="none">E2S-EL2S4</tspan></tspan></tspan></text>
 <text class="TextShape"><tspan class="TextParagraph" font-family="Calibri, sans-serif" font-size="318px" font-weight="400"><tspan class="TextPosition" x="1135" y="14480"><tspan fill="rgb(89,89,89)" stroke="none">Core i3-m330</tspan></tspan></tspan></text>
 <text class="TextShape"><tspan class="TextParagraph" font-family="Calibri, sans-serif" font-size="318px" font-weight="400"><tspan class="TextPosition" x="1474" y="13424"><tspan fill="rgb(89,89,89)" stroke="none">E2S-PC401</tspan></tspan></tspan></text>
 <text class="TextShape"><tspan class="TextParagraph" font-family="Calibri, sans-serif" font-size="318px" font-weight="400"><tspan class="TextPosition" x="1453" y="12368"><tspan fill="rgb(89,89,89)" stroke="none">E8C2-1200</tspan></tspan></tspan></text>
 <text class="TextShape"><tspan class="TextParagraph" font-family="Calibri, sans-serif" font-size="318px" font-weight="400"><tspan class="TextPosition" x="1642" y="11312"><tspan fill="rgb(89,89,89)" stroke="none">E8C-E8C4</tspan></tspan></tspan></text>
 <text class="TextShape"><tspan class="TextParagraph" font-family="Calibri, sans-serif" font-size="318px" font-weight="400"><tspan class="TextPosition" x="1557" y="10257"><tspan fill="rgb(89,89,89)" stroke="none">E8C-SWTX</tspan></tspan></tspan></text>
 <text class="TextShape"><tspan class="TextParagraph" font-family="Calibri, sans-serif" font-size="318px" font-weight="400"><tspan class="TextPosition" x="1029" y="9201"><tspan fill="rgb(89,89,89)" stroke="none">AMD A6-3650</tspan></tspan></tspan></text>
 <text class="TextShape"><tspan class="TextParagraph" font-family="Calibri, sans-serif" font-size="318px" font-weight="400"><tspan class="TextPosition" x="2235" y="8146"><tspan fill="rgb(89,89,89)" stroke="none">E8C2</tspan></tspan></tspan></text>
 <text class="TextShape"><tspan class="TextParagraph" font-family="Calibri, sans-serif" font-size="318px" font-weight="400"><tspan class="TextPosition" x="1453" y="7090"><tspan fill="rgb(89,89,89)" stroke="none">E8C2-1550</tspan></tspan></tspan></text>
 <text class="TextShape"><tspan class="TextParagraph" font-family="Calibri, sans-serif" font-size="318px" font-weight="400"><tspan class="TextPosition" x="733" y="6035"><tspan fill="rgb(89,89,89)" stroke="none">Core i7-4700MQ</tspan></tspan></tspan></text>
 <text class="TextShape"><tspan class="TextParagraph" font-family="Calibri, sans-serif" font-size="318px" font-weight="400"><tspan class="TextPosition" x="1495" y="4978"><tspan fill="rgb(89,89,89)" stroke="none">Xeon 6128</tspan></tspan></tspan></text>
 <text class="TextShape"><tspan class="TextParagraph" font-family="Calibri, sans-serif" font-size="318px" font-weight="400"><tspan class="TextPosition" x="1220" y="3923"><tspan fill="rgb(89,89,89)" stroke="none">Core i7-2600</tspan></tspan></tspan></text>
 <text class="TextShape"><tspan class="TextParagraph" font-family="Calibri, sans-serif" font-size="318px" font-weight="400"><tspan class="TextPosition" x="3055" y="32156"><tspan fill="rgb(89,89,89)" stroke="none">0</tspan></tspan></tspan></text>
 <text class="TextShape"><tspan class="TextParagraph" font-family="Calibri, sans-serif" font-size="318px" font-weight="400"><tspan class="TextPosition" x="5567" y="32156"><tspan fill="rgb(89,89,89)" stroke="none">10000</tspan></tspan></tspan></text>
 <text class="TextShape"><tspan class="TextParagraph" font-family="Calibri, sans-serif" font-size="318px" font-weight="400"><tspan class="TextPosition" x="8417" y="32156"><tspan fill="rgb(89,89,89)" stroke="none">20000</tspan></tspan></tspan></text>
 <text class="TextShape"><tspan class="TextParagraph" font-family="Calibri, sans-serif" font-size="318px" font-weight="400"><tspan class="TextPosition" x="11267" y="32156"><tspan fill="rgb(89,89,89)" stroke="none">30000</tspan></tspan></tspan></text>
 <text class="TextShape"><tspan class="TextParagraph" font-family="Calibri, sans-serif" font-size="318px" font-weight="400"><tspan class="TextPosition" x="14118" y="32156"><tspan fill="rgb(89,89,89)" stroke="none">40000</tspan></tspan></tspan></text>
 <text class="TextShape"><tspan class="TextParagraph" font-family="Calibri, sans-serif" font-size="318px" font-weight="400"><tspan class="TextPosition" x="16968" y="32156"><tspan fill="rgb(89,89,89)" stroke="none">50000</tspan></tspan></tspan></text>
 <text class="TextShape"><tspan class="TextParagraph" font-family="Calibri, sans-serif" font-size="318px" font-weight="400"><tspan class="TextPosition" x="19819" y="32156"><tspan fill="rgb(89,89,89)" stroke="none">60000</tspan></tspan></tspan></text>
 <text class="TextShape"><tspan class="TextParagraph" font-family="Calibri, sans-serif" font-size="318px" font-weight="400"><tspan class="TextPosition" x="22669" y="32156"><tspan fill="rgb(89,89,89)" stroke="none">70000</tspan></tspan></tspan></text>
 <text class="TextShape"><tspan class="TextParagraph" font-family="Calibri, sans-serif" font-size="318px" font-weight="400"><tspan class="TextPosition" x="25520" y="32156"><tspan fill="rgb(89,89,89)" stroke="none">80000</tspan></tspan></tspan></text>
 <text class="TextShape"><tspan class="TextParagraph" font-family="Calibri, sans-serif" font-size="318px" font-weight="400"><tspan class="TextPosition" x="3240" y="31577"><tspan fill="rgb(64,64,64)" stroke="none">0</tspan></tspan></tspan></text>
 <text class="TextShape"><tspan class="TextParagraph" font-family="Calibri, sans-serif" font-size="318px" font-weight="400"><tspan class="TextPosition" x="3240" y="30521"><tspan fill="rgb(64,64,64)" stroke="none">0</tspan></tspan></tspan></text>
 <text class="TextShape"><tspan class="TextParagraph" font-family="Calibri, sans-serif" font-size="318px" font-weight="400"><tspan class="TextPosition" x="3240" y="29465"><tspan fill="rgb(64,64,64)" stroke="none">0</tspan></tspan></tspan></text>
 <text class="TextShape"><tspan class="TextParagraph" font-family="Calibri, sans-serif" font-size="318px" font-weight="400"><tspan class="TextPosition" x="3240" y="28410"><tspan fill="rgb(64,64,64)" stroke="none">0</tspan></tspan></tspan></text>
 <text class="TextShape"><tspan class="TextParagraph" font-family="Calibri, sans-serif" font-size="318px" font-weight="400"><tspan class="TextPosition" x="3276" y="27355"><tspan fill="rgb(64,64,64)" stroke="none">127</tspan></tspan></tspan></text>
 <text class="TextShape"><tspan class="TextParagraph" font-family="Calibri, sans-serif" font-size="318px" font-weight="400"><tspan class="TextPosition" x="3613" y="26299"><tspan fill="rgb(64,64,64)" stroke="none">1311</tspan></tspan></tspan></text>
 <text class="TextShape"><tspan class="TextParagraph" font-family="Calibri, sans-serif" font-size="318px" font-weight="400"><tspan class="TextPosition" x="3616" y="25244"><tspan fill="rgb(64,64,64)" stroke="none">1324</tspan></tspan></tspan></text>
 <text class="TextShape"><tspan class="TextParagraph" font-family="Calibri, sans-serif" font-size="318px" font-weight="400"><tspan class="TextPosition" x="3694" y="24188"><tspan fill="rgb(64,64,64)" stroke="none">1598</tspan></tspan></tspan></text>
 <text class="TextShape"><tspan class="TextParagraph" font-family="Calibri, sans-serif" font-size="318px" font-weight="400"><tspan class="TextPosition" x="3785" y="23133"><tspan fill="rgb(64,64,64)" stroke="none">1915</tspan></tspan></tspan></text>
 <text class="TextShape"><tspan class="TextParagraph" font-family="Calibri, sans-serif" font-size="318px" font-weight="400"><tspan class="TextPosition" x="3913" y="22076"><tspan fill="rgb(64,64,64)" stroke="none">2364</tspan></tspan></tspan></text>
 <text class="TextShape"><tspan class="TextParagraph" font-family="Calibri, sans-serif" font-size="318px" font-weight="400"><tspan class="TextPosition" x="5648" y="21021"><tspan fill="rgb(64,64,64)" stroke="none">8452</tspan></tspan></tspan></text>
 <text class="TextShape"><tspan class="TextParagraph" font-family="Calibri, sans-serif" font-size="318px" font-weight="400"><tspan class="TextPosition" x="7038" y="19965"><tspan fill="rgb(64,64,64)" stroke="none">13327</tspan></tspan></tspan></text>
 <text class="TextShape"><tspan class="TextParagraph" font-family="Calibri, sans-serif" font-size="318px" font-weight="400"><tspan class="TextPosition" x="8198" y="18910"><tspan fill="rgb(64,64,64)" stroke="none">17395</tspan></tspan></tspan></text>
 <text class="TextShape"><tspan class="TextParagraph" font-family="Calibri, sans-serif" font-size="318px" font-weight="400"><tspan class="TextPosition" x="9055" y="17854"><tspan fill="rgb(64,64,64)" stroke="none">20403</tspan></tspan></tspan></text>
 <text class="TextShape"><tspan class="TextParagraph" font-family="Calibri, sans-serif" font-size="318px" font-weight="400"><tspan class="TextPosition" x="9326" y="16799"><tspan fill="rgb(64,64,64)" stroke="none">21353</tspan></tspan></tspan></text>
 <text class="TextShape"><tspan class="TextParagraph" font-family="Calibri, sans-serif" font-size="318px" font-weight="400"><tspan class="TextPosition" x="9357" y="15743"><tspan fill="rgb(64,64,64)" stroke="none">21463</tspan></tspan></tspan></text>
 <text class="TextShape"><tspan class="TextParagraph" font-family="Calibri, sans-serif" font-size="318px" font-weight="400"><tspan class="TextPosition" x="9586" y="14687"><tspan fill="rgb(64,64,64)" stroke="none">22267</tspan></tspan></tspan></text>
 <text class="TextShape"><tspan class="TextParagraph" font-family="Calibri, sans-serif" font-size="318px" font-weight="400"><tspan class="TextPosition" x="9765" y="13631"><tspan fill="rgb(64,64,64)" stroke="none">22896</tspan></tspan></tspan></text>
 <text class="TextShape"><tspan class="TextParagraph" font-family="Calibri, sans-serif" font-size="318px" font-weight="400"><tspan class="TextPosition" x="13109" y="12576"><tspan fill="rgb(64,64,64)" stroke="none">34626</tspan></tspan></tspan></text>
 <text class="TextShape"><tspan class="TextParagraph" font-family="Calibri, sans-serif" font-size="318px" font-weight="400"><tspan class="TextPosition" x="13804" y="11520"><tspan fill="rgb(64,64,64)" stroke="none">37065</tspan></tspan></tspan></text>
 <text class="TextShape"><tspan class="TextParagraph" font-family="Calibri, sans-serif" font-size="318px" font-weight="400"><tspan class="TextPosition" x="13812" y="10465"><tspan fill="rgb(64,64,64)" stroke="none">37092</tspan></tspan></tspan></text>
 <text class="TextShape"><tspan class="TextParagraph" font-family="Calibri, sans-serif" font-size="318px" font-weight="400"><tspan class="TextPosition" x="14899" y="9409"><tspan fill="rgb(64,64,64)" stroke="none">40906</tspan></tspan></tspan></text>
 <text class="TextShape"><tspan class="TextParagraph" font-family="Calibri, sans-serif" font-size="318px" font-weight="400"><tspan class="TextPosition" x="14935" y="8354"><tspan fill="rgb(64,64,64)" stroke="none">41032</tspan></tspan></tspan></text>
 <text class="TextShape"><tspan class="TextParagraph" font-family="Calibri, sans-serif" font-size="318px" font-weight="400"><tspan class="TextPosition" x="15836" y="7298"><tspan fill="rgb(64,64,64)" stroke="none">44195</tspan></tspan></tspan></text>
 <text class="TextShape"><tspan class="TextParagraph" font-family="Calibri, sans-serif" font-size="318px" font-weight="400"><tspan class="TextPosition" x="18344" y="6242"><tspan fill="rgb(64,64,64)" stroke="none">52992</tspan></tspan></tspan></text>
 <text class="TextShape"><tspan class="TextParagraph" font-family="Calibri, sans-serif" font-size="318px" font-weight="400"><tspan class="TextPosition" x="19672" y="5186"><tspan fill="rgb(64,64,64)" stroke="none">57653</tspan></tspan></tspan></text>
 <text class="TextShape"><tspan class="TextParagraph" font-family="Calibri, sans-serif" font-size="318px" font-weight="400"><tspan class="TextPosition" x="24666" y="4131"><tspan fill="rgb(64,64,64)" stroke="none">75172</tspan></tspan></tspan></text>
 <text class="TextShape"><tspan class="TextParagraph" font-family="Calibri, sans-serif" font-size="318px" font-weight="400"><tspan class="TextPosition" x="3240" y="31369"><tspan fill="rgb(64,64,64)" stroke="none">0</tspan></tspan></tspan></text>
 <text class="TextShape"><tspan class="TextParagraph" font-family="Calibri, sans-serif" font-size="318px" font-weight="400"><tspan class="TextPosition" x="3240" y="30314"><tspan fill="rgb(64,64,64)" stroke="none">0</tspan></tspan></tspan></text>
 <text class="TextShape"><tspan class="TextParagraph" font-family="Calibri, sans-serif" font-size="318px" font-weight="400"><tspan class="TextPosition" x="3240" y="29258"><tspan fill="rgb(64,64,64)" stroke="none">0</tspan></tspan></tspan></text>
 <text class="TextShape"><tspan class="TextParagraph" font-family="Calibri, sans-serif" font-size="318px" font-weight="400"><tspan class="TextPosition" x="3240" y="28202"><tspan fill="rgb(64,64,64)" stroke="none">0</tspan></tspan></tspan></text>
 <text class="TextShape"><tspan class="TextParagraph" font-family="Calibri, sans-serif" font-size="318px" font-weight="400"><tspan class="TextPosition" x="3276" y="27146"><tspan fill="rgb(64,64,64)" stroke="none">127</tspan></tspan></tspan></text>
 <text class="TextShape"><tspan class="TextParagraph" font-family="Calibri, sans-serif" font-size="318px" font-weight="400"><tspan class="TextPosition" x="3588" y="26091"><tspan fill="rgb(64,64,64)" stroke="none">1224</tspan></tspan></tspan></text>
 <text class="TextShape"><tspan class="TextParagraph" font-family="Calibri, sans-serif" font-size="318px" font-weight="400"><tspan class="TextPosition" x="3694" y="25035"><tspan fill="rgb(64,64,64)" stroke="none">1598</tspan></tspan></tspan></text>
 <text class="TextShape"><tspan class="TextParagraph" font-family="Calibri, sans-serif" font-size="318px" font-weight="400"><tspan class="TextPosition" x="3738" y="23980"><tspan fill="rgb(64,64,64)" stroke="none">1752</tspan></tspan></tspan></text>
 <text class="TextShape"><tspan class="TextParagraph" font-family="Calibri, sans-serif" font-size="318px" font-weight="400"><tspan class="TextPosition" x="3675" y="22924"><tspan fill="rgb(64,64,64)" stroke="none">1530</tspan></tspan></tspan></text>
 <text class="TextShape"><tspan class="TextParagraph" font-family="Calibri, sans-serif" font-size="318px" font-weight="400"><tspan class="TextPosition" x="3656" y="21869"><tspan fill="rgb(64,64,64)" stroke="none">1464</tspan></tspan></tspan></text>
 <text class="TextShape"><tspan class="TextParagraph" font-family="Calibri, sans-serif" font-size="318px" font-weight="400"><tspan class="TextPosition" x="5580" y="20812"><tspan fill="rgb(64,64,64)" stroke="none">8214</tspan></tspan></tspan></text>
 <text class="TextShape"><tspan class="TextParagraph" font-family="Calibri, sans-serif" font-size="318px" font-weight="400"><tspan class="TextPosition" x="12163" y="19757"><tspan fill="rgb(64,64,64)" stroke="none">31305</tspan></tspan></tspan></text>
 <text class="TextShape"><tspan class="TextParagraph" font-family="Calibri, sans-serif" font-size="318px" font-weight="400"><tspan class="TextPosition" x="7400" y="18701"><tspan fill="rgb(64,64,64)" stroke="none">14596</tspan></tspan></tspan></text>
 <text class="TextShape"><tspan class="TextParagraph" font-family="Calibri, sans-serif" font-size="318px" font-weight="400"><tspan class="TextPosition" x="7284" y="17646"><tspan fill="rgb(64,64,64)" stroke="none">14189</tspan></tspan></tspan></text>
 <text class="TextShape"><tspan class="TextParagraph" font-family="Calibri, sans-serif" font-size="318px" font-weight="400"><tspan class="TextPosition" x="8204" y="16591"><tspan fill="rgb(64,64,64)" stroke="none">17418</tspan></tspan></tspan></text>
 <text class="TextShape"><tspan class="TextParagraph" font-family="Calibri, sans-serif" font-size="318px" font-weight="400"><tspan class="TextPosition" x="9713" y="15535"><tspan fill="rgb(64,64,64)" stroke="none">22714</tspan></tspan></tspan></text>
 <text class="TextShape"><tspan class="TextParagraph" font-family="Calibri, sans-serif" font-size="318px" font-weight="400"><tspan class="TextPosition" x="6898" y="14480"><tspan fill="rgb(64,64,64)" stroke="none">12837</tspan></tspan></tspan></text>
 <text class="TextShape"><tspan class="TextParagraph" font-family="Calibri, sans-serif" font-size="318px" font-weight="400"><tspan class="TextPosition" x="9540" y="13424"><tspan fill="rgb(64,64,64)" stroke="none">22106</tspan></tspan></tspan></text>
 <text class="TextShape"><tspan class="TextParagraph" font-family="Calibri, sans-serif" font-size="318px" font-weight="400"><tspan class="TextPosition" x="12978" y="12368"><tspan fill="rgb(64,64,64)" stroke="none">34168</tspan></tspan></tspan></text>
 <text class="TextShape"><tspan class="TextParagraph" font-family="Calibri, sans-serif" font-size="318px" font-weight="400"><tspan class="TextPosition" x="11187" y="11312"><tspan fill="rgb(64,64,64)" stroke="none">27882</tspan></tspan></tspan></text>
 <text class="TextShape"><tspan class="TextParagraph" font-family="Calibri, sans-serif" font-size="318px" font-weight="400"><tspan class="TextPosition" x="11561" y="10257"><tspan fill="rgb(64,64,64)" stroke="none">29195</tspan></tspan></tspan></text>
 <text class="TextShape"><tspan class="TextParagraph" font-family="Calibri, sans-serif" font-size="318px" font-weight="400"><tspan class="TextPosition" x="13999" y="9201"><tspan fill="rgb(64,64,64)" stroke="none">37749</tspan></tspan></tspan></text>
 <text class="TextShape"><tspan class="TextParagraph" font-family="Calibri, sans-serif" font-size="318px" font-weight="400"><tspan class="TextPosition" x="15128" y="8146"><tspan fill="rgb(64,64,64)" stroke="none">41708</tspan></tspan></tspan></text>
 <text class="TextShape"><tspan class="TextParagraph" font-family="Calibri, sans-serif" font-size="318px" font-weight="400"><tspan class="TextPosition" x="15208" y="7090"><tspan fill="rgb(64,64,64)" stroke="none">41990</tspan></tspan></tspan></text>
 <text class="TextShape"><tspan class="TextParagraph" font-family="Calibri, sans-serif" font-size="318px" font-weight="400"><tspan class="TextPosition" x="11738" y="6035"><tspan fill="rgb(64,64,64)" stroke="none">29816</tspan></tspan></tspan></text>
 <text class="TextShape"><tspan class="TextParagraph" font-family="Calibri, sans-serif" font-size="318px" font-weight="400"><tspan class="TextPosition" x="17876" y="4978"><tspan fill="rgb(64,64,64)" stroke="none">51351</tspan></tspan></tspan></text>
 <text class="TextShape"><tspan class="TextParagraph" font-family="Calibri, sans-serif" font-size="318px" font-weight="400"><tspan class="TextPosition" x="18451" y="3923"><tspan fill="rgb(64,64,64)" stroke="none">53366</tspan></tspan></tspan></text>
 <text class="TextShape"><tspan class="TextParagraph" font-family="Calibri, sans-serif" font-size="318px" font-weight="400"><tspan class="TextPosition" x="3240" y="31161"><tspan fill="rgb(64,64,64)" stroke="none">0</tspan></tspan></tspan></text>
 <text class="TextShape"><tspan class="TextParagraph" font-family="Calibri, sans-serif" font-size="318px" font-weight="400"><tspan class="TextPosition" x="3240" y="30106"><tspan fill="rgb(64,64,64)" stroke="none">0</tspan></tspan></tspan></text>
 <text class="TextShape"><tspan class="TextParagraph" font-family="Calibri, sans-serif" font-size="318px" font-weight="400"><tspan class="TextPosition" x="3240" y="29050"><tspan fill="rgb(64,64,64)" stroke="none">0</tspan></tspan></tspan></text>
 <text class="TextShape"><tspan class="TextParagraph" font-family="Calibri, sans-serif" font-size="318px" font-weight="400"><tspan class="TextPosition" x="3240" y="27995"><tspan fill="rgb(64,64,64)" stroke="none">0</tspan></tspan></tspan></text>
 <text class="TextShape"><tspan class="TextParagraph" font-family="Calibri, sans-serif" font-size="318px" font-weight="400"><tspan class="TextPosition" x="3276" y="26938"><tspan fill="rgb(64,64,64)" stroke="none">127</tspan></tspan></tspan></text>
 <text class="TextShape"><tspan class="TextParagraph" font-family="Calibri, sans-serif" font-size="318px" font-weight="400"><tspan class="TextPosition" x="3535" y="25883"><tspan fill="rgb(64,64,64)" stroke="none">1039</tspan></tspan></tspan></text>
 <text class="TextShape"><tspan class="TextParagraph" font-family="Calibri, sans-serif" font-size="318px" font-weight="400"><tspan class="TextPosition" x="3529" y="24827"><tspan fill="rgb(64,64,64)" stroke="none">1019</tspan></tspan></tspan></text>
 <text class="TextShape"><tspan class="TextParagraph" font-family="Calibri, sans-serif" font-size="318px" font-weight="400"><tspan class="TextPosition" x="3529" y="23772"><tspan fill="rgb(64,64,64)" stroke="none">1019</tspan></tspan></tspan></text>
 <text class="TextShape"><tspan class="TextParagraph" font-family="Calibri, sans-serif" font-size="318px" font-weight="400"><tspan class="TextPosition" x="3480" y="22716"><tspan fill="rgb(64,64,64)" stroke="none">844</tspan></tspan></tspan></text>
 <text class="TextShape"><tspan class="TextParagraph" font-family="Calibri, sans-serif" font-size="318px" font-weight="400"><tspan class="TextPosition" x="3598" y="21661"><tspan fill="rgb(64,64,64)" stroke="none">1261</tspan></tspan></tspan></text>
 <text class="TextShape"><tspan class="TextParagraph" font-family="Calibri, sans-serif" font-size="318px" font-weight="400"><tspan class="TextPosition" x="4348" y="20605"><tspan fill="rgb(64,64,64)" stroke="none">3888</tspan></tspan></tspan></text>
 <text class="TextShape"><tspan class="TextParagraph" font-family="Calibri, sans-serif" font-size="318px" font-weight="400"><tspan class="TextPosition" x="4908" y="19549"><tspan fill="rgb(64,64,64)" stroke="none">5856</tspan></tspan></tspan></text>
 <text class="TextShape"><tspan class="TextParagraph" font-family="Calibri, sans-serif" font-size="318px" font-weight="400"><tspan class="TextPosition" x="4723" y="18493"><tspan fill="rgb(64,64,64)" stroke="none">5208</tspan></tspan></tspan></text>
 <text class="TextShape"><tspan class="TextParagraph" font-family="Calibri, sans-serif" font-size="318px" font-weight="400"><tspan class="TextPosition" x="5590" y="17438"><tspan fill="rgb(64,64,64)" stroke="none">8249</tspan></tspan></tspan></text>
 <text class="TextShape"><tspan class="TextParagraph" font-family="Calibri, sans-serif" font-size="318px" font-weight="400"><tspan class="TextPosition" x="5331" y="16382"><tspan fill="rgb(64,64,64)" stroke="none">7336</tspan></tspan></tspan></text>
 <text class="TextShape"><tspan class="TextParagraph" font-family="Calibri, sans-serif" font-size="318px" font-weight="400"><tspan class="TextPosition" x="5512" y="15327"><tspan fill="rgb(64,64,64)" stroke="none">7975</tspan></tspan></tspan></text>
 <text class="TextShape"><tspan class="TextParagraph" font-family="Calibri, sans-serif" font-size="318px" font-weight="400"><tspan class="TextPosition" x="4560" y="14271"><tspan fill="rgb(64,64,64)" stroke="none">4636</tspan></tspan></tspan></text>
 <text class="TextShape"><tspan class="TextParagraph" font-family="Calibri, sans-serif" font-size="318px" font-weight="400"><tspan class="TextPosition" x="5659" y="13216"><tspan fill="rgb(64,64,64)" stroke="none">8491</tspan></tspan></tspan></text>
 <text class="TextShape"><tspan class="TextParagraph" font-family="Calibri, sans-serif" font-size="318px" font-weight="400"><tspan class="TextPosition" x="11475" y="12160"><tspan fill="rgb(64,64,64)" stroke="none">28890</tspan></tspan></tspan></text>
 <text class="TextShape"><tspan class="TextParagraph" font-family="Calibri, sans-serif" font-size="318px" font-weight="400"><tspan class="TextPosition" x="9885" y="11104"><tspan fill="rgb(64,64,64)" stroke="none">23315</tspan></tspan></tspan></text>
 <text class="TextShape"><tspan class="TextParagraph" font-family="Calibri, sans-serif" font-size="318px" font-weight="400"><tspan class="TextPosition" x="10117" y="10048"><tspan fill="rgb(64,64,64)" stroke="none">24130</tspan></tspan></tspan></text>
 <text class="TextShape"><tspan class="TextParagraph" font-family="Calibri, sans-serif" font-size="318px" font-weight="400"><tspan class="TextPosition" x="5684" y="8993"><tspan fill="rgb(64,64,64)" stroke="none">8578</tspan></tspan></tspan></text>
 <text class="TextShape"><tspan class="TextParagraph" font-family="Calibri, sans-serif" font-size="318px" font-weight="400"><tspan class="TextPosition" x="12897" y="7937"><tspan fill="rgb(64,64,64)" stroke="none">33881</tspan></tspan></tspan></text>
 <text class="TextShape"><tspan class="TextParagraph" font-family="Calibri, sans-serif" font-size="318px" font-weight="400"><tspan class="TextPosition" x="13586" y="6882"><tspan fill="rgb(64,64,64)" stroke="none">36299</tspan></tspan></tspan></text>
 <text class="TextShape"><tspan class="TextParagraph" font-family="Calibri, sans-serif" font-size="318px" font-weight="400"><tspan class="TextPosition" x="8261" y="5827"><tspan fill="rgb(64,64,64)" stroke="none">17618</tspan></tspan></tspan></text>
 <text class="TextShape"><tspan class="TextParagraph" font-family="Calibri, sans-serif" font-size="318px" font-weight="400"><tspan class="TextPosition" x="10745" y="4771"><tspan fill="rgb(64,64,64)" stroke="none">26334</tspan></tspan></tspan></text>
 <text class="TextShape"><tspan class="TextParagraph" font-family="Calibri, sans-serif" font-size="318px" font-weight="400"><tspan class="TextPosition" x="12586" y="3715"><tspan fill="rgb(64,64,64)" stroke="none">32794</tspan></tspan></tspan></text>
 <text class="TextShape"><tspan class="TextParagraph" font-family="Calibri Light" font-size="705px" font-weight="400"><tspan class="TextPosition" x="7502" y="1581"><tspan fill="rgb(89,89,89)" stroke="none">Memspeed (MB/s, x[m]=x[m]+s*y[m] Sngl)</tspan></tspan></tspan></text>
 <path fill="rgb(95,95,95)" stroke="none" d="M 14548,2501 L 14454,2501 14454,2311 14643,2311 14643,2501 14548,2501 Z"/>
 <path fill="rgb(179,179,179)" stroke="none" d="M 13139,2501 L 13044,2501 13044,2311 13234,2311 13234,2501 13139,2501 Z"/>
 <path fill="rgb(137,137,137)" stroke="none" d="M 11559,2501 L 11465,2501 11465,2311 11654,2311 11654,2501 11559,2501 Z"/>
 <text class="TextShape"><tspan class="TextParagraph" font-family="Calibri, sans-serif" font-size="318px" font-weight="400"><tspan class="TextPosition" x="11754" y="2480"><tspan fill="rgb(89,89,89)" stroke="none">8192 KB</tspan></tspan></tspan></text>
 <text class="TextShape"><tspan class="TextParagraph" font-family="Calibri, sans-serif" font-size="318px" font-weight="400"><tspan class="TextPosition" x="13334" y="2480"><tspan fill="rgb(89,89,89)" stroke="none">512 KB</tspan></tspan></tspan></text>
 <text class="TextShape"><tspan class="TextParagraph" font-family="Calibri, sans-serif" font-size="318px" font-weight="400"><tspan class="TextPosition" x="14743" y="2480"><tspan fill="rgb(89,89,89)" stroke="none">16 KB</tspan></tspan></tspan></text>
</svg>