<?xml version="1.0" encoding="UTF-8"?>
<!DOCTYPE svg PUBLIC "-//W3C//DTD SVG 1.1//EN" "http://www.w3.org/Graphics/SVG/1.1/DTD/svg11.dtd">
<svg width="372mm" height="347mm" viewBox="0 0 37200 34700" version="1.1" xmlns="http://www.w3.org/2000/svg" xmlns:xlink="http://www.w3.org/1999/xlink" stroke-width="28.222" stroke-linejoin="round" xml:space="preserve">
 <path fill="rgb(68,114,196)" stroke="none" d="M 35,35 L 37132,35 37132,34706 35,34706 35,35 Z"/>
 <path fill="none" stroke="rgb(47,82,143)" stroke-width="35" d="M 18,18 L 37150,18 37150,34724 18,34724 18,18 Z"/>
 <path fill="rgb(255,255,255)" stroke="none" d="M 18584,34693 L 48,34693 48,48 37119,48 37119,34693 18584,34693 Z"/>
 <path fill="none" stroke="rgb(217,217,217)" stroke-width="26" stroke-linejoin="round" d="M 18584,34693 L 48,34693 48,48 37119,48 37119,34693 18584,34693 Z"/>
 <path fill="none" stroke="rgb(217,217,217)" stroke-width="26" stroke-linejoin="round" d="M 3345,3392 L 3345,33582"/>
 <path fill="none" stroke="rgb(217,217,217)" stroke-width="26" stroke-linejoin="round" d="M 9782,3392 L 9782,33582"/>
 <path fill="none" stroke="rgb(217,217,217)" stroke-width="26" stroke-linejoin="round" d="M 16220,3392 L 16220,33582"/>
 <path fill="none" stroke="rgb(217,217,217)" stroke-width="26" stroke-linejoin="round" d="M 22657,3392 L 22657,33582"/>
 <path fill="none" stroke="rgb(217,217,217)" stroke-width="26" stroke-linejoin="round" d="M 29095,3392 L 29095,33582"/>
 <path fill="none" stroke="rgb(217,217,217)" stroke-width="26" stroke-linejoin="round" d="M 35532,3392 L 35532,33582"/>
 <path fill="none" stroke="rgb(242,242,242)" stroke-width="26" stroke-linejoin="round" d="M 6563,3392 L 6563,33582"/>
 <path fill="none" stroke="rgb(242,242,242)" stroke-width="26" stroke-linejoin="round" d="M 13001,3392 L 13001,33582"/>
 <path fill="none" stroke="rgb(242,242,242)" stroke-width="26" stroke-linejoin="round" d="M 19438,3392 L 19438,33582"/>
 <path fill="none" stroke="rgb(242,242,242)" stroke-width="26" stroke-linejoin="round" d="M 25876,3392 L 25876,33582"/>
 <path fill="none" stroke="rgb(242,242,242)" stroke-width="26" stroke-linejoin="round" d="M 32313,3392 L 32313,33582"/>
 <path fill="none" stroke="rgb(217,217,217)" stroke-width="26" stroke-linejoin="round" d="M 3345,33582 L 3345,3392"/>
 <path fill="rgb(99,99,99)" stroke="none" d="M 3345,4264 L 3345,4081 30267,4081 30267,4264 3345,4264 Z"/>
 <path fill="rgb(99,99,99)" stroke="none" d="M 3345,5382 L 3345,5199 20705,5199 20705,5382 3345,5382 Z"/>
 <path fill="rgb(99,99,99)" stroke="none" d="M 3345,6500 L 3345,6316 18872,6316 18872,6500 3345,6500 Z"/>
 <path fill="rgb(99,99,99)" stroke="none" d="M 3345,7618 L 3345,7434 13776,7434 13776,7618 3345,7618 Z"/>
 <path fill="rgb(99,99,99)" stroke="none" d="M 3345,8736 L 3345,8553 13440,8553 13440,8736 3345,8736 Z"/>
 <path fill="rgb(99,99,99)" stroke="none" d="M 3345,9855 L 3345,9671 10176,9671 10176,9855 3345,9855 Z"/>
 <path fill="rgb(99,99,99)" stroke="none" d="M 3345,10973 L 3345,10789 9390,10789 9390,10973 3345,10973 Z"/>
 <path fill="rgb(99,99,99)" stroke="none" d="M 3345,12091 L 3345,11907 10468,11907 10468,12091 3345,12091 Z"/>
 <path fill="rgb(99,99,99)" stroke="none" d="M 3345,13209 L 3345,13025 11249,13025 11249,13209 3345,13209 Z"/>
 <path fill="rgb(99,99,99)" stroke="none" d="M 3345,14327 L 3345,14143 9088,14143 9088,14327 3345,14327 Z"/>
 <path fill="rgb(99,99,99)" stroke="none" d="M 3345,15445 L 3345,15262 8920,15262 8920,15445 3345,15445 Z"/>
 <path fill="rgb(99,99,99)" stroke="none" d="M 3345,16563 L 3345,16380 5445,16380 5445,16563 3345,16563 Z"/>
 <path fill="rgb(99,99,99)" stroke="none" d="M 3345,17681 L 3345,17498 5446,17498 5446,17681 3345,17681 Z"/>
 <path fill="rgb(99,99,99)" stroke="none" d="M 3345,18799 L 3345,18616 4278,18616 4278,18799 3345,18799 Z"/>
 <path fill="rgb(99,99,99)" stroke="none" d="M 3345,19917 L 3345,19734 4196,19734 4196,19917 3345,19917 Z"/>
 <path fill="rgb(99,99,99)" stroke="none" d="M 3345,21035 L 3345,20851 4614,20851 4614,21035 3345,21035 Z"/>
 <path fill="rgb(99,99,99)" stroke="none" d="M 3345,22153 L 3345,21970 4349,21970 4349,22153 3345,22153 Z"/>
 <path fill="rgb(99,99,99)" stroke="none" d="M 3345,23272 L 3345,23088 4081,23088 4081,23272 3345,23272 Z"/>
 <path fill="rgb(99,99,99)" stroke="none" d="M 3345,24390 L 3345,24206 3696,24206 3696,24390 3345,24390 Z"/>
 <path fill="rgb(99,99,99)" stroke="none" d="M 3345,25508 L 3345,25324 3460,25324 3460,25508 3345,25508 Z"/>
 <path fill="rgb(99,99,99)" stroke="none" d="M 3345,26626 L 3345,26442 3522,26442 3522,26626 3345,26626 Z"/>
 <path fill="rgb(99,99,99)" stroke="none" d="M 3345,27744 L 3345,27560 3390,27560 3390,27744 3345,27744 Z"/>
 <path fill="rgb(99,99,99)" stroke="none" d="M 3345,28862 L 3345,28679 3384,28679 3384,28862 3345,28862 Z"/>
 <path fill="rgb(99,99,99)" stroke="none" d="M 3345,29981 L 3345,29797 3350,29797 3350,29981 3345,29981 Z"/>
 <path fill="rgb(99,99,99)" stroke="none" d="M 3345,31099 L 3345,30915 3345,30915 3345,31099 Z"/>
 <path fill="rgb(99,99,99)" stroke="none" d="M 3345,32216 L 3345,32033 3345,32033 3345,32216 Z"/>
 <path fill="rgb(99,99,99)" stroke="none" d="M 3345,33334 L 3345,33151 3345,33151 3345,33334 Z"/>
 <path fill="rgb(180,180,180)" stroke="none" d="M 3345,4044 L 3345,3860 33521,3860 33521,4044 3345,4044 Z"/>
 <path fill="rgb(180,180,180)" stroke="none" d="M 3345,5162 L 3345,4978 19021,4978 19021,5162 3345,5162 Z"/>
 <path fill="rgb(180,180,180)" stroke="none" d="M 3345,6280 L 3345,6096 21506,6096 21506,6280 3345,6280 Z"/>
 <path fill="rgb(180,180,180)" stroke="none" d="M 3345,7398 L 3345,7215 15037,7215 15037,7398 3345,7398 Z"/>
 <path fill="rgb(180,180,180)" stroke="none" d="M 3345,8517 L 3345,8333 14661,8333 14661,8517 3345,8517 Z"/>
 <path fill="rgb(180,180,180)" stroke="none" d="M 3345,9634 L 3345,9451 12723,9451 12723,9634 3345,9634 Z"/>
 <path fill="rgb(180,180,180)" stroke="none" d="M 3345,10752 L 3345,10569 11768,10569 11768,10752 3345,10752 Z"/>
 <path fill="rgb(180,180,180)" stroke="none" d="M 3345,11870 L 3345,11687 13899,11687 13899,11870 3345,11870 Z"/>
 <path fill="rgb(180,180,180)" stroke="none" d="M 3345,12988 L 3345,12805 9480,12805 9480,12988 3345,12988 Z"/>
 <path fill="rgb(180,180,180)" stroke="none" d="M 3345,14106 L 3345,13923 8453,13923 8453,14106 3345,14106 Z"/>
 <path fill="rgb(180,180,180)" stroke="none" d="M 3345,15225 L 3345,15041 7874,15041 7874,15225 3345,15225 Z"/>
 <path fill="rgb(180,180,180)" stroke="none" d="M 3345,16343 L 3345,16159 5597,16159 5597,16343 3345,16343 Z"/>
 <path fill="rgb(180,180,180)" stroke="none" d="M 3345,17461 L 3345,17277 3897,17277 3897,17461 3345,17461 Z"/>
 <path fill="rgb(180,180,180)" stroke="none" d="M 3345,18579 L 3345,18395 3741,18395 3741,18579 3345,18579 Z"/>
 <path fill="rgb(180,180,180)" stroke="none" d="M 3345,19697 L 3345,19513 4181,19513 4181,19697 3345,19697 Z"/>
 <path fill="rgb(180,180,180)" stroke="none" d="M 3345,20815 L 3345,20632 3520,20632 3520,20815 3345,20815 Z"/>
 <path fill="rgb(180,180,180)" stroke="none" d="M 3345,21934 L 3345,21750 3614,21750 3614,21934 3345,21934 Z"/>
 <path fill="rgb(180,180,180)" stroke="none" d="M 3345,23052 L 3345,22868 3512,22868 3512,23052 3345,23052 Z"/>
 <path fill="rgb(180,180,180)" stroke="none" d="M 3345,24169 L 3345,23986 3407,23986 3407,24169 3345,24169 Z"/>
 <path fill="rgb(180,180,180)" stroke="none" d="M 3345,25287 L 3345,25104 3422,25104 3422,25287 3345,25287 Z"/>
 <path fill="rgb(180,180,180)" stroke="none" d="M 3345,26405 L 3345,26222 3401,26222 3401,26405 3345,26405 Z"/>
 <path fill="rgb(180,180,180)" stroke="none" d="M 3345,27523 L 3345,27341 3391,27341 3391,27523 3345,27523 Z"/>
 <path fill="rgb(180,180,180)" stroke="none" d="M 3345,28642 L 3345,28458 3384,28458 3384,28642 3345,28642 Z"/>
 <path fill="rgb(180,180,180)" stroke="none" d="M 3345,29760 L 3345,29576 3350,29576 3350,29760 3345,29760 Z"/>
 <path fill="rgb(180,180,180)" stroke="none" d="M 3345,30878 L 3345,30694 3345,30694 3345,30878 Z"/>
 <path fill="rgb(180,180,180)" stroke="none" d="M 3345,31996 L 3345,31812 3345,31812 3345,31996 Z"/>
 <path fill="rgb(180,180,180)" stroke="none" d="M 3345,33114 L 3345,32930 3345,32930 3345,33114 Z"/>
 <path fill="rgb(139,139,139)" stroke="none" d="M 3345,3823 L 3345,3640 6302,3640 6302,3823 3345,3823 Z"/>
 <path fill="rgb(139,139,139)" stroke="none" d="M 3345,4941 L 3345,4758 18337,4758 18337,4941 3345,4941 Z"/>
 <path fill="rgb(139,139,139)" stroke="none" d="M 3345,6059 L 3345,5876 16834,5876 16834,6059 3345,6059 Z"/>
 <path fill="rgb(139,139,139)" stroke="none" d="M 3345,7178 L 3345,6994 4490,6994 4490,7178 3345,7178 Z"/>
 <path fill="rgb(139,139,139)" stroke="none" d="M 3345,8296 L 3345,8112 4453,8112 4453,8296 3345,8296 Z"/>
 <path fill="rgb(139,139,139)" stroke="none" d="M 3345,9414 L 3345,9230 4524,9230 4524,9414 3345,9414 Z"/>
 <path fill="rgb(139,139,139)" stroke="none" d="M 3345,10532 L 3345,10348 3924,10348 3924,10532 3345,10532 Z"/>
 <path fill="rgb(139,139,139)" stroke="none" d="M 3345,11650 L 3345,11466 3821,11466 3821,11650 3345,11650 Z"/>
 <path fill="rgb(139,139,139)" stroke="none" d="M 3345,12768 L 3345,12585 4009,12585 4009,12768 3345,12768 Z"/>
 <path fill="rgb(139,139,139)" stroke="none" d="M 3345,13887 L 3345,13703 3967,13703 3967,13887 3345,13887 Z"/>
 <path fill="rgb(139,139,139)" stroke="none" d="M 3345,15005 L 3345,14821 3917,14821 3917,15005 3345,15005 Z"/>
 <path fill="rgb(139,139,139)" stroke="none" d="M 3345,16123 L 3345,15939 3730,15939 3730,16123 3345,16123 Z"/>
 <path fill="rgb(139,139,139)" stroke="none" d="M 3345,17240 L 3345,17057 3630,17057 3630,17240 3345,17240 Z"/>
 <path fill="rgb(139,139,139)" stroke="none" d="M 3345,18358 L 3345,18175 3624,18175 3624,18358 3345,18358 Z"/>
 <path fill="rgb(139,139,139)" stroke="none" d="M 3345,19476 L 3345,19294 3467,19294 3467,19476 3345,19476 Z"/>
 <path fill="rgb(139,139,139)" stroke="none" d="M 3345,20595 L 3345,20412 3516,20412 3516,20595 3345,20595 Z"/>
 <path fill="rgb(139,139,139)" stroke="none" d="M 3345,21713 L 3345,21529 3613,21529 3613,21713 3345,21713 Z"/>
 <path fill="rgb(139,139,139)" stroke="none" d="M 3345,22831 L 3345,22647 3480,22647 3480,22831 3345,22831 Z"/>
 <path fill="rgb(139,139,139)" stroke="none" d="M 3345,23949 L 3345,23765 3406,23765 3406,23949 3345,23949 Z"/>
 <path fill="rgb(139,139,139)" stroke="none" d="M 3345,25067 L 3345,24883 3424,24883 3424,25067 3345,25067 Z"/>
 <path fill="rgb(139,139,139)" stroke="none" d="M 3345,26185 L 3345,26002 3401,26002 3401,26185 3345,26185 Z"/>
 <path fill="rgb(139,139,139)" stroke="none" d="M 3345,27304 L 3345,27120 3387,27120 3387,27304 3345,27304 Z"/>
 <path fill="rgb(139,139,139)" stroke="none" d="M 3345,28422 L 3345,28238 3376,28238 3376,28422 3345,28422 Z"/>
 <path fill="rgb(139,139,139)" stroke="none" d="M 3345,29540 L 3345,29356 3348,29356 3348,29540 3345,29540 Z"/>
 <path fill="rgb(139,139,139)" stroke="none" d="M 3345,30658 L 3345,30474 3345,30474 3345,30658 Z"/>
 <path fill="rgb(139,139,139)" stroke="none" d="M 3345,31775 L 3345,31592 3345,31592 3345,31775 Z"/>
 <path fill="rgb(139,139,139)" stroke="none" d="M 3345,32893 L 3345,32710 3345,32710 3345,32893 Z"/>
 <text class="TextShape"><tspan class="TextParagraph" font-family="Calibri, sans-serif" font-size="318px" font-weight="400"><tspan class="TextPosition" x="1424" y="33097"><tspan fill="rgb(89,89,89)" stroke="none">Baikal T1 BFK</tspan></tspan></tspan></text>
 <text class="TextShape"><tspan class="TextParagraph" font-family="Calibri, sans-serif" font-size="318px" font-weight="400"><tspan class="TextPosition" x="1297" y="31979"><tspan fill="rgb(89,89,89)" stroke="none">Orange Pi Win</tspan></tspan></tspan></text>
 <text class="TextShape"><tspan class="TextParagraph" font-family="Calibri, sans-serif" font-size="318px" font-weight="400"><tspan class="TextPosition" x="1699" y="30860"><tspan fill="rgb(89,89,89)" stroke="none">Pentium III</tspan></tspan></tspan></text>
 <text class="TextShape"><tspan class="TextParagraph" font-family="Calibri, sans-serif" font-size="318px" font-weight="400"><tspan class="TextPosition" x="1487" y="29742"><tspan fill="rgb(89,89,89)" stroke="none">Raspberry PI</tspan></tspan></tspan></text>
 <text class="TextShape"><tspan class="TextParagraph" font-family="Calibri, sans-serif" font-size="318px" font-weight="400"><tspan class="TextPosition" x="1170" y="28624"><tspan fill="rgb(89,89,89)" stroke="none">Pentium M725</tspan></tspan></tspan></text>
 <text class="TextShape"><tspan class="TextParagraph" font-family="Calibri, sans-serif" font-size="318px" font-weight="400"><tspan class="TextPosition" x="1784" y="27506"><tspan fill="rgb(89,89,89)" stroke="none">Pentium 4</tspan></tspan></tspan></text>
 <text class="TextShape"><tspan class="TextParagraph" font-family="Calibri, sans-serif" font-size="318px" font-weight="400"><tspan class="TextPosition" x="1254" y="26388"><tspan fill="rgb(89,89,89)" stroke="none">Raspberry PI 3</tspan></tspan></tspan></text>
 <text class="TextShape"><tspan class="TextParagraph" font-family="Calibri, sans-serif" font-size="318px" font-weight="400"><tspan class="TextPosition" x="1805" y="25271"><tspan fill="rgb(89,89,89)" stroke="none">Odroid X2</tspan></tspan></tspan></text>
 <text class="TextShape"><tspan class="TextParagraph" font-family="Calibri, sans-serif" font-size="318px" font-weight="400"><tspan class="TextPosition" x="1297" y="24152"><tspan fill="rgb(89,89,89)" stroke="none">Orange Pi PC2</tspan></tspan></tspan></text>
 <text class="TextShape"><tspan class="TextParagraph" font-family="Calibri, sans-serif" font-size="318px" font-weight="400"><tspan class="TextPosition" x="1487" y="23034"><tspan fill="rgb(89,89,89)" stroke="none">Atom Z8350</tspan></tspan></tspan></text>
 <text class="TextShape"><tspan class="TextParagraph" font-family="Calibri, sans-serif" font-size="318px" font-weight="400"><tspan class="TextPosition" x="1720" y="21916"><tspan fill="rgb(89,89,89)" stroke="none">MBE1C-PC</tspan></tspan></tspan></text>
 <text class="TextShape"><tspan class="TextParagraph" font-family="Calibri, sans-serif" font-size="318px" font-weight="400"><tspan class="TextPosition" x="1762" y="20798"><tspan fill="rgb(89,89,89)" stroke="none">Odroid N2</tspan></tspan></tspan></text>
 <text class="TextShape"><tspan class="TextParagraph" font-family="Calibri, sans-serif" font-size="318px" font-weight="400"><tspan class="TextPosition" x="789" y="19680"><tspan fill="rgb(89,89,89)" stroke="none">Core 2 Duo T9400</tspan></tspan></tspan></text>
 <text class="TextShape"><tspan class="TextParagraph" font-family="Calibri, sans-serif" font-size="318px" font-weight="400"><tspan class="TextPosition" x="1339" y="18562"><tspan fill="rgb(89,89,89)" stroke="none">Core i3-m330</tspan></tspan></tspan></text>
 <text class="TextShape"><tspan class="TextParagraph" font-family="Calibri, sans-serif" font-size="318px" font-weight="400"><tspan class="TextPosition" x="1233" y="17443"><tspan fill="rgb(89,89,89)" stroke="none">AMD A6-3650</tspan></tspan></tspan></text>
 <text class="TextShape"><tspan class="TextParagraph" font-family="Calibri, sans-serif" font-size="318px" font-weight="400"><tspan class="TextPosition" x="1678" y="16325"><tspan fill="rgb(89,89,89)" stroke="none">E2S-PC401</tspan></tspan></tspan></text>
 <text class="TextShape"><tspan class="TextParagraph" font-family="Calibri, sans-serif" font-size="318px" font-weight="400"><tspan class="TextPosition" x="1424" y="15207"><tspan fill="rgb(89,89,89)" stroke="none">Core i7-2600</tspan></tspan></tspan></text>
 <text class="TextShape"><tspan class="TextParagraph" font-family="Calibri, sans-serif" font-size="318px" font-weight="400"><tspan class="TextPosition" x="937" y="14089"><tspan fill="rgb(89,89,89)" stroke="none">Core i7-4700MQ</tspan></tspan></tspan></text>
 <text class="TextShape"><tspan class="TextParagraph" font-family="Calibri, sans-serif" font-size="318px" font-weight="400"><tspan class="TextPosition" x="1318" y="12971"><tspan fill="rgb(89,89,89)" stroke="none">AWS Graviton</tspan></tspan></tspan></text>
 <text class="TextShape"><tspan class="TextParagraph" font-family="Calibri, sans-serif" font-size="318px" font-weight="400"><tspan class="TextPosition" x="1762" y="11853"><tspan fill="rgb(89,89,89)" stroke="none">E2S-EL2S4</tspan></tspan></tspan></text>
 <text class="TextShape"><tspan class="TextParagraph" font-family="Calibri, sans-serif" font-size="318px" font-weight="400"><tspan class="TextPosition" x="1762" y="10735"><tspan fill="rgb(89,89,89)" stroke="none">E8C-SWTX</tspan></tspan></tspan></text>
 <text class="TextShape"><tspan class="TextParagraph" font-family="Calibri, sans-serif" font-size="318px" font-weight="400"><tspan class="TextPosition" x="1657" y="9617"><tspan fill="rgb(89,89,89)" stroke="none">E8C2-1200</tspan></tspan></tspan></text>
 <text class="TextShape"><tspan class="TextParagraph" font-family="Calibri, sans-serif" font-size="318px" font-weight="400"><tspan class="TextPosition" x="2439" y="8499"><tspan fill="rgb(89,89,89)" stroke="none">E8C2</tspan></tspan></tspan></text>
 <text class="TextShape"><tspan class="TextParagraph" font-family="Calibri, sans-serif" font-size="318px" font-weight="400"><tspan class="TextPosition" x="1657" y="7381"><tspan fill="rgb(89,89,89)" stroke="none">E8C2-1550</tspan></tspan></tspan></text>
 <text class="TextShape"><tspan class="TextParagraph" font-family="Calibri, sans-serif" font-size="318px" font-weight="400"><tspan class="TextPosition" x="1699" y="6263"><tspan fill="rgb(89,89,89)" stroke="none">Xeon 6128</tspan></tspan></tspan></text>
 <text class="TextShape"><tspan class="TextParagraph" font-family="Calibri, sans-serif" font-size="318px" font-weight="400"><tspan class="TextPosition" x="1847" y="5145"><tspan fill="rgb(89,89,89)" stroke="none">E8C-E8C4</tspan></tspan></tspan></text>
 <text class="TextShape"><tspan class="TextParagraph" font-family="Calibri, sans-serif" font-size="318px" font-weight="400"><tspan class="TextPosition" x="1254" y="4027"><tspan fill="rgb(89,89,89)" stroke="none">E16C-APPROX</tspan></tspan></tspan></text>
 <text class="TextShape"><tspan class="TextParagraph" font-family="Calibri, sans-serif" font-size="318px" font-weight="400"><tspan class="TextPosition" x="3006" y="33915"><tspan fill="rgb(89,89,89)" stroke="none">.000.</tspan></tspan></tspan></text>
 <text class="TextShape"><tspan class="TextParagraph" font-family="Calibri, sans-serif" font-size="318px" font-weight="400"><tspan class="TextPosition" x="9021" y="33915"><tspan fill="rgb(89,89,89)" stroke="none">50000.000.</tspan></tspan></tspan></text>
 <text class="TextShape"><tspan class="TextParagraph" font-family="Calibri, sans-serif" font-size="318px" font-weight="400"><tspan class="TextPosition" x="15373" y="33915"><tspan fill="rgb(89,89,89)" stroke="none">100000.000.</tspan></tspan></tspan></text>
 <text class="TextShape"><tspan class="TextParagraph" font-family="Calibri, sans-serif" font-size="318px" font-weight="400"><tspan class="TextPosition" x="21811" y="33915"><tspan fill="rgb(89,89,89)" stroke="none">150000.000.</tspan></tspan></tspan></text>
 <text class="TextShape"><tspan class="TextParagraph" font-family="Calibri, sans-serif" font-size="318px" font-weight="400"><tspan class="TextPosition" x="28248" y="33915"><tspan fill="rgb(89,89,89)" stroke="none">200000.000.</tspan></tspan></tspan></text>
 <text class="TextShape"><tspan class="TextParagraph" font-family="Calibri, sans-serif" font-size="318px" font-weight="400"><tspan class="TextPosition" x="34686" y="33915"><tspan fill="rgb(89,89,89)" stroke="none">250000.000.</tspan></tspan></tspan></text>
 <text class="TextShape"><tspan class="TextParagraph" font-family="Calibri, sans-serif" font-size="318px" font-weight="400"><tspan class="TextPosition" x="3445" y="33318"><tspan fill="rgb(64,64,64)" stroke="none">0.00</tspan></tspan></tspan></text>
 <text class="TextShape"><tspan class="TextParagraph" font-family="Calibri, sans-serif" font-size="318px" font-weight="400"><tspan class="TextPosition" x="3445" y="32199"><tspan fill="rgb(64,64,64)" stroke="none">0.00</tspan></tspan></tspan></text>
 <text class="TextShape"><tspan class="TextParagraph" font-family="Calibri, sans-serif" font-size="318px" font-weight="400"><tspan class="TextPosition" x="3445" y="31081"><tspan fill="rgb(64,64,64)" stroke="none">0.00</tspan></tspan></tspan></text>
 <text class="TextShape"><tspan class="TextParagraph" font-family="Calibri, sans-serif" font-size="318px" font-weight="400"><tspan class="TextPosition" x="3450" y="29963"><tspan fill="rgb(64,64,64)" stroke="none">44</tspan></tspan></tspan></text>
 <text class="TextShape"><tspan class="TextParagraph" font-family="Calibri, sans-serif" font-size="318px" font-weight="400"><tspan class="TextPosition" x="3484" y="28845"><tspan fill="rgb(64,64,64)" stroke="none">309.00</tspan></tspan></tspan></text>
 <text class="TextShape"><tspan class="TextParagraph" font-family="Calibri, sans-serif" font-size="318px" font-weight="400"><tspan class="TextPosition" x="3490" y="27727"><tspan fill="rgb(64,64,64)" stroke="none">355.81</tspan></tspan></tspan></text>
 <text class="TextShape"><tspan class="TextParagraph" font-family="Calibri, sans-serif" font-size="318px" font-weight="400"><tspan class="TextPosition" x="3621" y="26609"><tspan fill="rgb(64,64,64)" stroke="none">1,375.00</tspan></tspan></tspan></text>
 <text class="TextShape"><tspan class="TextParagraph" font-family="Calibri, sans-serif" font-size="318px" font-weight="400"><tspan class="TextPosition" x="3560" y="25490"><tspan fill="rgb(64,64,64)" stroke="none">893.00</tspan></tspan></tspan></text>
 <text class="TextShape"><tspan class="TextParagraph" font-family="Calibri, sans-serif" font-size="318px" font-weight="400"><tspan class="TextPosition" x="3796" y="24372"><tspan fill="rgb(64,64,64)" stroke="none">2,737.00</tspan></tspan></tspan></text>
 <text class="TextShape"><tspan class="TextParagraph" font-family="Calibri, sans-serif" font-size="318px" font-weight="400"><tspan class="TextPosition" x="4181" y="23254"><tspan fill="rgb(64,64,64)" stroke="none">5,725.00</tspan></tspan></tspan></text>
 <text class="TextShape"><tspan class="TextParagraph" font-family="Calibri, sans-serif" font-size="318px" font-weight="400"><tspan class="TextPosition" x="4449" y="22136"><tspan fill="rgb(64,64,64)" stroke="none">7,804.00</tspan></tspan></tspan></text>
 <text class="TextShape"><tspan class="TextParagraph" font-family="Calibri, sans-serif" font-size="318px" font-weight="400"><tspan class="TextPosition" x="4714" y="21018"><tspan fill="rgb(64,64,64)" stroke="none">9,859.00</tspan></tspan></tspan></text>
 <text class="TextShape"><tspan class="TextParagraph" font-family="Calibri, sans-serif" font-size="318px" font-weight="400"><tspan class="TextPosition" x="4296" y="19900"><tspan fill="rgb(64,64,64)" stroke="none">6,614.00</tspan></tspan></tspan></text>
 <text class="TextShape"><tspan class="TextParagraph" font-family="Calibri, sans-serif" font-size="318px" font-weight="400"><tspan class="TextPosition" x="4378" y="18781"><tspan fill="rgb(64,64,64)" stroke="none">7,256.00</tspan></tspan></tspan></text>
 <text class="TextShape"><tspan class="TextParagraph" font-family="Calibri, sans-serif" font-size="318px" font-weight="400"><tspan class="TextPosition" x="5546" y="17664"><tspan fill="rgb(64,64,64)" stroke="none">16,325.00</tspan></tspan></tspan></text>
 <text class="TextShape"><tspan class="TextParagraph" font-family="Calibri, sans-serif" font-size="318px" font-weight="400"><tspan class="TextPosition" x="5545" y="16546"><tspan fill="rgb(64,64,64)" stroke="none">16,319.00</tspan></tspan></tspan></text>
 <text class="TextShape"><tspan class="TextParagraph" font-family="Calibri, sans-serif" font-size="318px" font-weight="400"><tspan class="TextPosition" x="9020" y="15428"><tspan fill="rgb(64,64,64)" stroke="none">43,309.00</tspan></tspan></tspan></text>
 <text class="TextShape"><tspan class="TextParagraph" font-family="Calibri, sans-serif" font-size="318px" font-weight="400"><tspan class="TextPosition" x="9188" y="14310"><tspan fill="rgb(64,64,64)" stroke="none">44,608.00</tspan></tspan></tspan></text>
 <text class="TextShape"><tspan class="TextParagraph" font-family="Calibri, sans-serif" font-size="318px" font-weight="400"><tspan class="TextPosition" x="11349" y="13192"><tspan fill="rgb(64,64,64)" stroke="none">61,397.00</tspan></tspan></tspan></text>
 <text class="TextShape"><tspan class="TextParagraph" font-family="Calibri, sans-serif" font-size="318px" font-weight="400"><tspan class="TextPosition" x="10568" y="12073"><tspan fill="rgb(64,64,64)" stroke="none">55,325.00</tspan></tspan></tspan></text>
 <text class="TextShape"><tspan class="TextParagraph" font-family="Calibri, sans-serif" font-size="318px" font-weight="400"><tspan class="TextPosition" x="9490" y="10955"><tspan fill="rgb(64,64,64)" stroke="none">46,965.00</tspan></tspan></tspan></text>
 <text class="TextShape"><tspan class="TextParagraph" font-family="Calibri, sans-serif" font-size="318px" font-weight="400"><tspan class="TextPosition" x="10276" y="9837"><tspan fill="rgb(64,64,64)" stroke="none">53,065.00</tspan></tspan></tspan></text>
 <text class="TextShape"><tspan class="TextParagraph" font-family="Calibri, sans-serif" font-size="318px" font-weight="400"><tspan class="TextPosition" x="13540" y="8719"><tspan fill="rgb(64,64,64)" stroke="none">78,414.19</tspan></tspan></tspan></text>
 <text class="TextShape"><tspan class="TextParagraph" font-family="Calibri, sans-serif" font-size="318px" font-weight="400"><tspan class="TextPosition" x="13876" y="7601"><tspan fill="rgb(64,64,64)" stroke="none">81,028.00</tspan></tspan></tspan></text>
 <text class="TextShape"><tspan class="TextParagraph" font-family="Calibri, sans-serif" font-size="318px" font-weight="400"><tspan class="TextPosition" x="18972" y="6483"><tspan fill="rgb(64,64,64)" stroke="none">120,605.00</tspan></tspan></tspan></text>
 <text class="TextShape"><tspan class="TextParagraph" font-family="Calibri, sans-serif" font-size="318px" font-weight="400"><tspan class="TextPosition" x="20804" y="5365"><tspan fill="rgb(64,64,64)" stroke="none">134,841.00</tspan></tspan></tspan></text>
 <text class="TextShape"><tspan class="TextParagraph" font-family="Calibri, sans-serif" font-size="318px" font-weight="400"><tspan class="TextPosition" x="30367" y="4246"><tspan fill="rgb(64,64,64)" stroke="none">209,104.52</tspan></tspan></tspan></text>
 <text class="TextShape"><tspan class="TextParagraph" font-family="Calibri, sans-serif" font-size="318px" font-weight="400"><tspan class="TextPosition" x="3445" y="33097"><tspan fill="rgb(64,64,64)" stroke="none">0.00</tspan></tspan></tspan></text>
 <text class="TextShape"><tspan class="TextParagraph" font-family="Calibri, sans-serif" font-size="318px" font-weight="400"><tspan class="TextPosition" x="3445" y="31979"><tspan fill="rgb(64,64,64)" stroke="none">0.00</tspan></tspan></tspan></text>
 <text class="TextShape"><tspan class="TextParagraph" font-family="Calibri, sans-serif" font-size="318px" font-weight="400"><tspan class="TextPosition" x="3445" y="30860"><tspan fill="rgb(64,64,64)" stroke="none">0.00</tspan></tspan></tspan></text>
 <text class="TextShape"><tspan class="TextParagraph" font-family="Calibri, sans-serif" font-size="318px" font-weight="400"><tspan class="TextPosition" x="3450" y="29742"><tspan fill="rgb(64,64,64)" stroke="none">43</tspan></tspan></tspan></text>
 <text class="TextShape"><tspan class="TextParagraph" font-family="Calibri, sans-serif" font-size="318px" font-weight="400"><tspan class="TextPosition" x="3484" y="28624"><tspan fill="rgb(64,64,64)" stroke="none">304.00</tspan></tspan></tspan></text>
 <text class="TextShape"><tspan class="TextParagraph" font-family="Calibri, sans-serif" font-size="318px" font-weight="400"><tspan class="TextPosition" x="3491" y="27506"><tspan fill="rgb(64,64,64)" stroke="none">360.64</tspan></tspan></tspan></text>
 <text class="TextShape"><tspan class="TextParagraph" font-family="Calibri, sans-serif" font-size="318px" font-weight="400"><tspan class="TextPosition" x="3501" y="26388"><tspan fill="rgb(64,64,64)" stroke="none">441.00</tspan></tspan></tspan></text>
 <text class="TextShape"><tspan class="TextParagraph" font-family="Calibri, sans-serif" font-size="318px" font-weight="400"><tspan class="TextPosition" x="3522" y="25271"><tspan fill="rgb(64,64,64)" stroke="none">598.00</tspan></tspan></tspan></text>
 <text class="TextShape"><tspan class="TextParagraph" font-family="Calibri, sans-serif" font-size="318px" font-weight="400"><tspan class="TextPosition" x="3507" y="24152"><tspan fill="rgb(64,64,64)" stroke="none">482.00</tspan></tspan></tspan></text>
 <text class="TextShape"><tspan class="TextParagraph" font-family="Calibri, sans-serif" font-size="318px" font-weight="400"><tspan class="TextPosition" x="3611" y="23034"><tspan fill="rgb(64,64,64)" stroke="none">1,303.00</tspan></tspan></tspan></text>
 <text class="TextShape"><tspan class="TextParagraph" font-family="Calibri, sans-serif" font-size="318px" font-weight="400"><tspan class="TextPosition" x="3714" y="21916"><tspan fill="rgb(64,64,64)" stroke="none">2,103.00</tspan></tspan></tspan></text>
 <text class="TextShape"><tspan class="TextParagraph" font-family="Calibri, sans-serif" font-size="318px" font-weight="400"><tspan class="TextPosition" x="3619" y="20798"><tspan fill="rgb(64,64,64)" stroke="none">1,360.00</tspan></tspan></tspan></text>
 <text class="TextShape"><tspan class="TextParagraph" font-family="Calibri, sans-serif" font-size="318px" font-weight="400"><tspan class="TextPosition" x="4281" y="19680"><tspan fill="rgb(64,64,64)" stroke="none">6,501.00</tspan></tspan></tspan></text>
 <text class="TextShape"><tspan class="TextParagraph" font-family="Calibri, sans-serif" font-size="318px" font-weight="400"><tspan class="TextPosition" x="3841" y="18562"><tspan fill="rgb(64,64,64)" stroke="none">3,089.00</tspan></tspan></tspan></text>
 <text class="TextShape"><tspan class="TextParagraph" font-family="Calibri, sans-serif" font-size="318px" font-weight="400"><tspan class="TextPosition" x="3997" y="17443"><tspan fill="rgb(64,64,64)" stroke="none">4,294.00</tspan></tspan></tspan></text>
 <text class="TextShape"><tspan class="TextParagraph" font-family="Calibri, sans-serif" font-size="318px" font-weight="400"><tspan class="TextPosition" x="5697" y="16325"><tspan fill="rgb(64,64,64)" stroke="none">17,495.00</tspan></tspan></tspan></text>
 <text class="TextShape"><tspan class="TextParagraph" font-family="Calibri, sans-serif" font-size="318px" font-weight="400"><tspan class="TextPosition" x="7973" y="15207"><tspan fill="rgb(64,64,64)" stroke="none">35,180.00</tspan></tspan></tspan></text>
 <text class="TextShape"><tspan class="TextParagraph" font-family="Calibri, sans-serif" font-size="318px" font-weight="400"><tspan class="TextPosition" x="8553" y="14089"><tspan fill="rgb(64,64,64)" stroke="none">39,682.00</tspan></tspan></tspan></text>
 <text class="TextShape"><tspan class="TextParagraph" font-family="Calibri, sans-serif" font-size="318px" font-weight="400"><tspan class="TextPosition" x="9580" y="12971"><tspan fill="rgb(64,64,64)" stroke="none">47,660.00</tspan></tspan></tspan></text>
 <text class="TextShape"><tspan class="TextParagraph" font-family="Calibri, sans-serif" font-size="318px" font-weight="400"><tspan class="TextPosition" x="13999" y="11853"><tspan fill="rgb(64,64,64)" stroke="none">81,983.00</tspan></tspan></tspan></text>
 <text class="TextShape"><tspan class="TextParagraph" font-family="Calibri, sans-serif" font-size="318px" font-weight="400"><tspan class="TextPosition" x="11868" y="10735"><tspan fill="rgb(64,64,64)" stroke="none">65,423.00</tspan></tspan></tspan></text>
 <text class="TextShape"><tspan class="TextParagraph" font-family="Calibri, sans-serif" font-size="318px" font-weight="400"><tspan class="TextPosition" x="12823" y="9617"><tspan fill="rgb(64,64,64)" stroke="none">72,849.00</tspan></tspan></tspan></text>
 <text class="TextShape"><tspan class="TextParagraph" font-family="Calibri, sans-serif" font-size="318px" font-weight="400"><tspan class="TextPosition" x="14761" y="8499"><tspan fill="rgb(64,64,64)" stroke="none">87,892.26</tspan></tspan></tspan></text>
 <text class="TextShape"><tspan class="TextParagraph" font-family="Calibri, sans-serif" font-size="318px" font-weight="400"><tspan class="TextPosition" x="15137" y="7381"><tspan fill="rgb(64,64,64)" stroke="none">90,822.00</tspan></tspan></tspan></text>
 <text class="TextShape"><tspan class="TextParagraph" font-family="Calibri, sans-serif" font-size="318px" font-weight="400"><tspan class="TextPosition" x="21606" y="6263"><tspan fill="rgb(64,64,64)" stroke="none">141,059.00</tspan></tspan></tspan></text>
 <text class="TextShape"><tspan class="TextParagraph" font-family="Calibri, sans-serif" font-size="318px" font-weight="400"><tspan class="TextPosition" x="19121" y="5145"><tspan fill="rgb(64,64,64)" stroke="none">121,759.00</tspan></tspan></tspan></text>
 <text class="TextShape"><tspan class="TextParagraph" font-family="Calibri, sans-serif" font-size="318px" font-weight="400"><tspan class="TextPosition" x="33620" y="4027"><tspan fill="rgb(64,64,64)" stroke="none">234,379.35</tspan></tspan></tspan></text>
 <text class="TextShape"><tspan class="TextParagraph" font-family="Calibri, sans-serif" font-size="318px" font-weight="400"><tspan class="TextPosition" x="3445" y="32877"><tspan fill="rgb(64,64,64)" stroke="none">0.00</tspan></tspan></tspan></text>
 <text class="TextShape"><tspan class="TextParagraph" font-family="Calibri, sans-serif" font-size="318px" font-weight="400"><tspan class="TextPosition" x="3445" y="31759"><tspan fill="rgb(64,64,64)" stroke="none">0.00</tspan></tspan></tspan></text>
 <text class="TextShape"><tspan class="TextParagraph" font-family="Calibri, sans-serif" font-size="318px" font-weight="400"><tspan class="TextPosition" x="3445" y="30641"><tspan fill="rgb(64,64,64)" stroke="none">0.00</tspan></tspan></tspan></text>
 <text class="TextShape"><tspan class="TextParagraph" font-family="Calibri, sans-serif" font-size="318px" font-weight="400"><tspan class="TextPosition" x="3448" y="29522"><tspan fill="rgb(64,64,64)" stroke="none">31</tspan></tspan></tspan></text>
 <text class="TextShape"><tspan class="TextParagraph" font-family="Calibri, sans-serif" font-size="318px" font-weight="400"><tspan class="TextPosition" x="3476" y="28404"><tspan fill="rgb(64,64,64)" stroke="none">243.00</tspan></tspan></tspan></text>
 <text class="TextShape"><tspan class="TextParagraph" font-family="Calibri, sans-serif" font-size="318px" font-weight="400"><tspan class="TextPosition" x="3487" y="27286"><tspan fill="rgb(64,64,64)" stroke="none">328.44</tspan></tspan></tspan></text>
 <text class="TextShape"><tspan class="TextParagraph" font-family="Calibri, sans-serif" font-size="318px" font-weight="400"><tspan class="TextPosition" x="3501" y="26168"><tspan fill="rgb(64,64,64)" stroke="none">435.00</tspan></tspan></tspan></text>
 <text class="TextShape"><tspan class="TextParagraph" font-family="Calibri, sans-serif" font-size="318px" font-weight="400"><tspan class="TextPosition" x="3524" y="25050"><tspan fill="rgb(64,64,64)" stroke="none">620.00</tspan></tspan></tspan></text>
 <text class="TextShape"><tspan class="TextParagraph" font-family="Calibri, sans-serif" font-size="318px" font-weight="400"><tspan class="TextPosition" x="3506" y="23932"><tspan fill="rgb(64,64,64)" stroke="none">475.00</tspan></tspan></tspan></text>
 <text class="TextShape"><tspan class="TextParagraph" font-family="Calibri, sans-serif" font-size="318px" font-weight="400"><tspan class="TextPosition" x="3580" y="22813"><tspan fill="rgb(64,64,64)" stroke="none">1,052.00</tspan></tspan></tspan></text>
 <text class="TextShape"><tspan class="TextParagraph" font-family="Calibri, sans-serif" font-size="318px" font-weight="400"><tspan class="TextPosition" x="3713" y="21695"><tspan fill="rgb(64,64,64)" stroke="none">2,089.00</tspan></tspan></tspan></text>
 <text class="TextShape"><tspan class="TextParagraph" font-family="Calibri, sans-serif" font-size="318px" font-weight="400"><tspan class="TextPosition" x="3615" y="20577"><tspan fill="rgb(64,64,64)" stroke="none">1,328.00</tspan></tspan></tspan></text>
 <text class="TextShape"><tspan class="TextParagraph" font-family="Calibri, sans-serif" font-size="318px" font-weight="400"><tspan class="TextPosition" x="3567" y="19459"><tspan fill="rgb(64,64,64)" stroke="none">949.00</tspan></tspan></tspan></text>
 <text class="TextShape"><tspan class="TextParagraph" font-family="Calibri, sans-serif" font-size="318px" font-weight="400"><tspan class="TextPosition" x="3724" y="18342"><tspan fill="rgb(64,64,64)" stroke="none">2,177.00</tspan></tspan></tspan></text>
 <text class="TextShape"><tspan class="TextParagraph" font-family="Calibri, sans-serif" font-size="318px" font-weight="400"><tspan class="TextPosition" x="3730" y="17224"><tspan fill="rgb(64,64,64)" stroke="none">2,226.00</tspan></tspan></tspan></text>
 <text class="TextShape"><tspan class="TextParagraph" font-family="Calibri, sans-serif" font-size="318px" font-weight="400"><tspan class="TextPosition" x="3830" y="16105"><tspan fill="rgb(64,64,64)" stroke="none">2,998.00</tspan></tspan></tspan></text>
 <text class="TextShape"><tspan class="TextParagraph" font-family="Calibri, sans-serif" font-size="318px" font-weight="400"><tspan class="TextPosition" x="4017" y="14987"><tspan fill="rgb(64,64,64)" stroke="none">4,454.00</tspan></tspan></tspan></text>
 <text class="TextShape"><tspan class="TextParagraph" font-family="Calibri, sans-serif" font-size="318px" font-weight="400"><tspan class="TextPosition" x="4067" y="13869"><tspan fill="rgb(64,64,64)" stroke="none">4,836.00</tspan></tspan></tspan></text>
 <text class="TextShape"><tspan class="TextParagraph" font-family="Calibri, sans-serif" font-size="318px" font-weight="400"><tspan class="TextPosition" x="4109" y="12751"><tspan fill="rgb(64,64,64)" stroke="none">5,169.00</tspan></tspan></tspan></text>
 <text class="TextShape"><tspan class="TextParagraph" font-family="Calibri, sans-serif" font-size="318px" font-weight="400"><tspan class="TextPosition" x="3921" y="11633"><tspan fill="rgb(64,64,64)" stroke="none">3,706.00</tspan></tspan></tspan></text>
 <text class="TextShape"><tspan class="TextParagraph" font-family="Calibri, sans-serif" font-size="318px" font-weight="400"><tspan class="TextPosition" x="4024" y="10515"><tspan fill="rgb(64,64,64)" stroke="none">4,505.00</tspan></tspan></tspan></text>
 <text class="TextShape"><tspan class="TextParagraph" font-family="Calibri, sans-serif" font-size="318px" font-weight="400"><tspan class="TextPosition" x="4624" y="9396"><tspan fill="rgb(64,64,64)" stroke="none">9,159.00</tspan></tspan></tspan></text>
 <text class="TextShape"><tspan class="TextParagraph" font-family="Calibri, sans-serif" font-size="318px" font-weight="400"><tspan class="TextPosition" x="4553" y="8278"><tspan fill="rgb(64,64,64)" stroke="none">8,612.90</tspan></tspan></tspan></text>
 <text class="TextShape"><tspan class="TextParagraph" font-family="Calibri, sans-serif" font-size="318px" font-weight="400"><tspan class="TextPosition" x="4590" y="7160"><tspan fill="rgb(64,64,64)" stroke="none">8,900.00</tspan></tspan></tspan></text>
 <text class="TextShape"><tspan class="TextParagraph" font-family="Calibri, sans-serif" font-size="318px" font-weight="400"><tspan class="TextPosition" x="16934" y="6042"><tspan fill="rgb(64,64,64)" stroke="none">104,776.00</tspan></tspan></tspan></text>
 <text class="TextShape"><tspan class="TextParagraph" font-family="Calibri, sans-serif" font-size="318px" font-weight="400"><tspan class="TextPosition" x="18437" y="4924"><tspan fill="rgb(64,64,64)" stroke="none">116,454.00</tspan></tspan></tspan></text>
 <text class="TextShape"><tspan class="TextParagraph" font-family="Calibri, sans-serif" font-size="318px" font-weight="400"><tspan class="TextPosition" x="6402" y="3806"><tspan fill="rgb(64,64,64)" stroke="none">22,967.74</tspan></tspan></tspan></text>
 <text class="TextShape"><tspan class="TextParagraph" font-family="Calibri Light" font-size="705px" font-weight="400"><tspan class="TextPosition" x="15453" y="1617"><tspan fill="rgb(89,89,89)" stroke="none">MP MFLOPS (2 ops/w)</tspan></tspan></tspan></text>
 <path fill="rgb(99,99,99)" stroke="none" d="M 21094,2537 L 20999,2537 20999,2347 21189,2347 21189,2537 21094,2537 Z"/>
 <path fill="rgb(180,180,180)" stroke="none" d="M 16807,2537 L 16712,2537 16712,2347 16902,2347 16902,2537 16807,2537 Z"/>
 <path fill="rgb(139,139,139)" stroke="none" d="M 12351,2537 L 12256,2537 12256,2347 12446,2347 12446,2537 12351,2537 Z"/>
 <text class="TextShape"><tspan class="TextParagraph" font-family="Calibri, sans-serif" font-size="318px" font-weight="400"><tspan class="TextPosition" x="12546" y="2516"><tspan fill="rgb(89,89,89)" stroke="none">2 ops/w – 10240000 4B words</tspan></tspan></tspan></text>
 <text class="TextShape"><tspan class="TextParagraph" font-family="Calibri, sans-serif" font-size="318px" font-weight="400"><tspan class="TextPosition" x="17002" y="2516"><tspan fill="rgb(89,89,89)" stroke="none">2 ops/w – 1024000 4B words</tspan></tspan></tspan></text>
 <text class="TextShape"><tspan class="TextParagraph" font-family="Calibri, sans-serif" font-size="318px" font-weight="400"><tspan class="TextPosition" x="21289" y="2516"><tspan fill="rgb(89,89,89)" stroke="none">2 ops/w – 102400 4B words</tspan></tspan></tspan></text>
</svg>