<?xml version="1.0" encoding="UTF-8"?>
<!DOCTYPE svg PUBLIC "-//W3C//DTD SVG 1.1//EN" "http://www.w3.org/Graphics/SVG/1.1/DTD/svg11.dtd">
<svg width="371mm" height="347mm" viewBox="0 0 37100 34700" version="1.1" xmlns="http://www.w3.org/2000/svg" xmlns:xlink="http://www.w3.org/1999/xlink" stroke-width="28.222" stroke-linejoin="round" xml:space="preserve">
 <path fill="rgb(68,114,196)" stroke="none" d="M 35,35 L 37096,35 37096,34697 35,34697 35,35 Z"/>
 <path fill="none" stroke="rgb(47,82,143)" stroke-width="35" d="M 18,18 L 37114,18 37114,34715 18,34715 18,18 Z"/>
 <path fill="rgb(255,255,255)" stroke="none" d="M 18566,34684 L 48,34684 48,48 37083,48 37083,34684 18566,34684 Z"/>
 <path fill="none" stroke="rgb(217,217,217)" stroke-width="26" stroke-linejoin="round" d="M 18566,34684 L 48,34684 48,48 37083,48 37083,34684 18566,34684 Z"/>
 <path fill="none" stroke="rgb(217,217,217)" stroke-width="26" stroke-linejoin="round" d="M 3345,3393 L 3345,33573"/>
 <path fill="none" stroke="rgb(217,217,217)" stroke-width="26" stroke-linejoin="round" d="M 6550,3393 L 6550,33573"/>
 <path fill="none" stroke="rgb(217,217,217)" stroke-width="26" stroke-linejoin="round" d="M 9757,3393 L 9757,33573"/>
 <path fill="none" stroke="rgb(217,217,217)" stroke-width="26" stroke-linejoin="round" d="M 12964,3393 L 12964,33573"/>
 <path fill="none" stroke="rgb(217,217,217)" stroke-width="26" stroke-linejoin="round" d="M 16171,3393 L 16171,33573"/>
 <path fill="none" stroke="rgb(217,217,217)" stroke-width="26" stroke-linejoin="round" d="M 19377,3393 L 19377,33573"/>
 <path fill="none" stroke="rgb(217,217,217)" stroke-width="26" stroke-linejoin="round" d="M 22583,3393 L 22583,33573"/>
 <path fill="none" stroke="rgb(217,217,217)" stroke-width="26" stroke-linejoin="round" d="M 25790,3393 L 25790,33573"/>
 <path fill="none" stroke="rgb(217,217,217)" stroke-width="26" stroke-linejoin="round" d="M 28997,3393 L 28997,33573"/>
 <path fill="none" stroke="rgb(217,217,217)" stroke-width="26" stroke-linejoin="round" d="M 32203,3393 L 32203,33573"/>
 <path fill="none" stroke="rgb(217,217,217)" stroke-width="26" stroke-linejoin="round" d="M 35410,3393 L 35410,33573"/>
 <path fill="none" stroke="rgb(242,242,242)" stroke-width="26" stroke-linejoin="round" d="M 4948,3393 L 4948,33573"/>
 <path fill="none" stroke="rgb(242,242,242)" stroke-width="26" stroke-linejoin="round" d="M 8154,3393 L 8154,33573"/>
 <path fill="none" stroke="rgb(242,242,242)" stroke-width="26" stroke-linejoin="round" d="M 11361,3393 L 11361,33573"/>
 <path fill="none" stroke="rgb(242,242,242)" stroke-width="26" stroke-linejoin="round" d="M 14567,3393 L 14567,33573"/>
 <path fill="none" stroke="rgb(242,242,242)" stroke-width="26" stroke-linejoin="round" d="M 17774,3393 L 17774,33573"/>
 <path fill="none" stroke="rgb(242,242,242)" stroke-width="26" stroke-linejoin="round" d="M 20980,3393 L 20980,33573"/>
 <path fill="none" stroke="rgb(242,242,242)" stroke-width="26" stroke-linejoin="round" d="M 24187,3393 L 24187,33573"/>
 <path fill="none" stroke="rgb(242,242,242)" stroke-width="26" stroke-linejoin="round" d="M 27394,3393 L 27394,33573"/>
 <path fill="none" stroke="rgb(242,242,242)" stroke-width="26" stroke-linejoin="round" d="M 30600,3393 L 30600,33573"/>
 <path fill="none" stroke="rgb(242,242,242)" stroke-width="26" stroke-linejoin="round" d="M 33806,3393 L 33806,33573"/>
 <path fill="none" stroke="rgb(217,217,217)" stroke-width="26" stroke-linejoin="round" d="M 3345,33573 L 3345,3393"/>
 <path fill="rgb(99,99,99)" stroke="none" d="M 3345,4264 L 3345,4080 30667,4080 30667,4264 3345,4264 Z"/>
 <path fill="rgb(99,99,99)" stroke="none" d="M 3345,5382 L 3345,5198 16246,5198 16246,5382 3345,5382 Z"/>
 <path fill="rgb(99,99,99)" stroke="none" d="M 3345,6499 L 3345,6316 13931,6316 13931,6499 3345,6499 Z"/>
 <path fill="rgb(99,99,99)" stroke="none" d="M 3345,7617 L 3345,7433 13913,7433 13913,7617 3345,7617 Z"/>
 <path fill="rgb(99,99,99)" stroke="none" d="M 3345,8734 L 3345,8552 13590,8552 13590,8734 3345,8734 Z"/>
 <path fill="rgb(99,99,99)" stroke="none" d="M 3345,9853 L 3345,9669 12083,9669 12083,9853 3345,9853 Z"/>
 <path fill="rgb(99,99,99)" stroke="none" d="M 3345,10971 L 3345,10787 8053,10787 8053,10971 3345,10971 Z"/>
 <path fill="rgb(99,99,99)" stroke="none" d="M 3345,12088 L 3345,11905 7071,11905 7071,12088 3345,12088 Z"/>
 <path fill="rgb(99,99,99)" stroke="none" d="M 3345,13206 L 3345,13022 6988,13022 6988,13206 3345,13206 Z"/>
 <path fill="rgb(99,99,99)" stroke="none" d="M 3345,14323 L 3345,14140 5972,14140 5972,14323 3345,14323 Z"/>
 <path fill="rgb(99,99,99)" stroke="none" d="M 3345,15441 L 3345,15258 5816,15258 5816,15441 3345,15441 Z"/>
 <path fill="rgb(99,99,99)" stroke="none" d="M 3345,16560 L 3345,16376 4698,16376 4698,16560 3345,16560 Z"/>
 <path fill="rgb(99,99,99)" stroke="none" d="M 3345,17677 L 3345,17493 4492,17493 4492,17677 3345,17677 Z"/>
 <path fill="rgb(99,99,99)" stroke="none" d="M 3345,18795 L 3345,18611 4149,18611 4149,18795 3345,18795 Z"/>
 <path fill="rgb(99,99,99)" stroke="none" d="M 3345,19912 L 3345,19729 4121,19729 4121,19912 3345,19912 Z"/>
 <path fill="rgb(99,99,99)" stroke="none" d="M 3345,21030 L 3345,20846 4030,20846 4030,21030 3345,21030 Z"/>
 <path fill="rgb(99,99,99)" stroke="none" d="M 3345,22148 L 3345,21965 3847,21965 3847,22148 3345,22148 Z"/>
 <path fill="rgb(99,99,99)" stroke="none" d="M 3345,23266 L 3345,23082 3686,23082 3686,23266 3345,23266 Z"/>
 <path fill="rgb(99,99,99)" stroke="none" d="M 3345,24384 L 3345,24200 3538,24200 3538,24384 3345,24384 Z"/>
 <path fill="rgb(99,99,99)" stroke="none" d="M 3345,25501 L 3345,25318 3450,25318 3450,25501 3345,25501 Z"/>
 <path fill="rgb(99,99,99)" stroke="none" d="M 3345,26619 L 3345,26435 3411,26435 3411,26619 3345,26619 Z"/>
 <path fill="rgb(99,99,99)" stroke="none" d="M 3345,27736 L 3345,27553 3404,27553 3404,27736 3345,27736 Z"/>
 <path fill="rgb(99,99,99)" stroke="none" d="M 3345,28854 L 3345,28671 3358,28671 3358,28854 3345,28854 Z"/>
 <path fill="rgb(99,99,99)" stroke="none" d="M 3345,29973 L 3345,29789 3351,29789 3351,29973 3345,29973 Z"/>
 <path fill="rgb(99,99,99)" stroke="none" d="M 3345,31090 L 3345,30907 3345,30907 3345,31090 Z"/>
 <path fill="rgb(99,99,99)" stroke="none" d="M 3345,32208 L 3345,32024 3345,32024 3345,32208 Z"/>
 <path fill="rgb(99,99,99)" stroke="none" d="M 3345,33325 L 3345,33142 3345,33142 3345,33325 Z"/>
 <path fill="rgb(180,180,180)" stroke="none" d="M 3345,4044 L 3345,3860 31187,3860 31187,4044 3345,4044 Z"/>
 <path fill="rgb(180,180,180)" stroke="none" d="M 3345,5161 L 3345,4978 18132,4978 18132,5161 3345,5161 Z"/>
 <path fill="rgb(180,180,180)" stroke="none" d="M 3345,6279 L 3345,6095 14133,6095 14133,6279 3345,6279 Z"/>
 <path fill="rgb(180,180,180)" stroke="none" d="M 3345,7396 L 3345,7214 14361,7214 14361,7396 3345,7396 Z"/>
 <path fill="rgb(180,180,180)" stroke="none" d="M 3345,8515 L 3345,8331 13785,8331 13785,8515 3345,8515 Z"/>
 <path fill="rgb(180,180,180)" stroke="none" d="M 3345,9633 L 3345,9449 13047,9449 13047,9633 3345,9633 Z"/>
 <path fill="rgb(180,180,180)" stroke="none" d="M 3345,10750 L 3345,10567 8485,10567 8485,10750 3345,10750 Z"/>
 <path fill="rgb(180,180,180)" stroke="none" d="M 3345,11868 L 3345,11684 7619,11684 7619,11868 3345,11868 Z"/>
 <path fill="rgb(180,180,180)" stroke="none" d="M 3345,12985 L 3345,12802 7110,12802 7110,12985 3345,12985 Z"/>
 <path fill="rgb(180,180,180)" stroke="none" d="M 3345,14103 L 3345,13920 5993,13920 5993,14103 3345,14103 Z"/>
 <path fill="rgb(180,180,180)" stroke="none" d="M 3345,15222 L 3345,15038 5828,15038 5828,15222 3345,15222 Z"/>
 <path fill="rgb(180,180,180)" stroke="none" d="M 3345,16339 L 3345,16155 4436,16155 4436,16339 3345,16339 Z"/>
 <path fill="rgb(180,180,180)" stroke="none" d="M 3345,17457 L 3345,17273 4491,17273 4491,17457 3345,17457 Z"/>
 <path fill="rgb(180,180,180)" stroke="none" d="M 3345,18574 L 3345,18391 4097,18391 4097,18574 3345,18574 Z"/>
 <path fill="rgb(180,180,180)" stroke="none" d="M 3345,19692 L 3345,19508 4118,19508 4118,19692 3345,19692 Z"/>
 <path fill="rgb(180,180,180)" stroke="none" d="M 3345,20810 L 3345,20627 3931,20627 3931,20810 3345,20810 Z"/>
 <path fill="rgb(180,180,180)" stroke="none" d="M 3345,21928 L 3345,21744 3845,21744 3845,21928 3345,21928 Z"/>
 <path fill="rgb(180,180,180)" stroke="none" d="M 3345,23046 L 3345,22862 3679,22862 3679,23046 3345,23046 Z"/>
 <path fill="rgb(180,180,180)" stroke="none" d="M 3345,24163 L 3345,23980 3531,23980 3531,24163 3345,24163 Z"/>
 <path fill="rgb(180,180,180)" stroke="none" d="M 3345,25281 L 3345,25097 3448,25097 3448,25281 3345,25281 Z"/>
 <path fill="rgb(180,180,180)" stroke="none" d="M 3345,26398 L 3345,26215 3413,26215 3413,26398 3345,26398 Z"/>
 <path fill="rgb(180,180,180)" stroke="none" d="M 3345,27516 L 3345,27333 3405,27333 3405,27516 3345,27516 Z"/>
 <path fill="rgb(180,180,180)" stroke="none" d="M 3345,28635 L 3345,28451 3358,28451 3358,28635 3345,28635 Z"/>
 <path fill="rgb(180,180,180)" stroke="none" d="M 3345,29752 L 3345,29569 3350,29569 3350,29752 3345,29752 Z"/>
 <path fill="rgb(180,180,180)" stroke="none" d="M 3345,30870 L 3345,30686 3345,30686 3345,30870 Z"/>
 <path fill="rgb(180,180,180)" stroke="none" d="M 3345,31987 L 3345,31804 3345,31804 3345,31987 Z"/>
 <path fill="rgb(180,180,180)" stroke="none" d="M 3345,33105 L 3345,32921 3345,32921 3345,33105 Z"/>
 <path fill="rgb(139,139,139)" stroke="none" d="M 3345,3823 L 3345,3640 14997,3640 14997,3823 3345,3823 Z"/>
 <path fill="rgb(139,139,139)" stroke="none" d="M 3345,4941 L 3345,4757 15491,4757 15491,4941 3345,4941 Z"/>
 <path fill="rgb(139,139,139)" stroke="none" d="M 3345,6058 L 3345,5876 7860,5876 7860,6058 3345,6058 Z"/>
 <path fill="rgb(139,139,139)" stroke="none" d="M 3345,7177 L 3345,6993 14224,6993 14224,7177 3345,7177 Z"/>
 <path fill="rgb(139,139,139)" stroke="none" d="M 3345,8295 L 3345,8111 7714,8111 7714,8295 3345,8295 Z"/>
 <path fill="rgb(139,139,139)" stroke="none" d="M 3345,9412 L 3345,9229 7732,9229 7732,9412 3345,9412 Z"/>
 <path fill="rgb(139,139,139)" stroke="none" d="M 3345,10530 L 3345,10346 5525,10346 5525,10530 3345,10530 Z"/>
 <path fill="rgb(139,139,139)" stroke="none" d="M 3345,11647 L 3345,11464 5227,11464 5227,11647 3345,11647 Z"/>
 <path fill="rgb(139,139,139)" stroke="none" d="M 3345,12765 L 3345,12582 5966,12582 5966,12765 3345,12765 Z"/>
 <path fill="rgb(139,139,139)" stroke="none" d="M 3345,13884 L 3345,13700 5542,13700 5542,13884 3345,13884 Z"/>
 <path fill="rgb(139,139,139)" stroke="none" d="M 3345,15001 L 3345,14817 5673,14817 5673,15001 3345,15001 Z"/>
 <path fill="rgb(139,139,139)" stroke="none" d="M 3345,16119 L 3345,15935 4204,15935 4204,16119 3345,16119 Z"/>
 <path fill="rgb(139,139,139)" stroke="none" d="M 3345,17236 L 3345,17053 4119,17053 4119,17236 3345,17236 Z"/>
 <path fill="rgb(139,139,139)" stroke="none" d="M 3345,18354 L 3345,18170 3906,18170 3906,18354 3345,18354 Z"/>
 <path fill="rgb(139,139,139)" stroke="none" d="M 3345,19472 L 3345,19289 3784,19289 3784,19472 3345,19472 Z"/>
 <path fill="rgb(139,139,139)" stroke="none" d="M 3345,20590 L 3345,20406 3924,20406 3924,20590 3345,20590 Z"/>
 <path fill="rgb(139,139,139)" stroke="none" d="M 3345,21708 L 3345,21524 3845,21524 3845,21708 3345,21708 Z"/>
 <path fill="rgb(139,139,139)" stroke="none" d="M 3345,22825 L 3345,22642 3678,22642 3678,22825 3345,22825 Z"/>
 <path fill="rgb(139,139,139)" stroke="none" d="M 3345,23943 L 3345,23759 3531,23759 3531,23943 3345,23943 Z"/>
 <path fill="rgb(139,139,139)" stroke="none" d="M 3345,25060 L 3345,24877 3448,24877 3448,25060 3345,25060 Z"/>
 <path fill="rgb(139,139,139)" stroke="none" d="M 3345,26178 L 3345,25995 3413,25995 3413,26178 3345,26178 Z"/>
 <path fill="rgb(139,139,139)" stroke="none" d="M 3345,27297 L 3345,27113 3405,27113 3405,27297 3345,27297 Z"/>
 <path fill="rgb(139,139,139)" stroke="none" d="M 3345,28414 L 3345,28231 3358,28231 3358,28414 3345,28414 Z"/>
 <path fill="rgb(139,139,139)" stroke="none" d="M 3345,29532 L 3345,29348 3350,29348 3350,29532 3345,29532 Z"/>
 <path fill="rgb(139,139,139)" stroke="none" d="M 3345,30649 L 3345,30466 3345,30466 3345,30649 Z"/>
 <path fill="rgb(139,139,139)" stroke="none" d="M 3345,31767 L 3345,31583 3345,31583 3345,31767 Z"/>
 <path fill="rgb(139,139,139)" stroke="none" d="M 3345,32885 L 3345,32701 3345,32701 3345,32885 Z"/>
 <text class="TextShape"><tspan class="TextParagraph" font-family="Calibri, sans-serif" font-size="318px" font-weight="400"><tspan class="TextPosition" x="1424" y="33088"><tspan fill="rgb(89,89,89)" stroke="none">Baikal T1 BFK</tspan></tspan></tspan></text>
 <text class="TextShape"><tspan class="TextParagraph" font-family="Calibri, sans-serif" font-size="318px" font-weight="400"><tspan class="TextPosition" x="1297" y="31971"><tspan fill="rgb(89,89,89)" stroke="none">Orange Pi Win</tspan></tspan></tspan></text>
 <text class="TextShape"><tspan class="TextParagraph" font-family="Calibri, sans-serif" font-size="318px" font-weight="400"><tspan class="TextPosition" x="1699" y="30852"><tspan fill="rgb(89,89,89)" stroke="none">Pentium III</tspan></tspan></tspan></text>
 <text class="TextShape"><tspan class="TextParagraph" font-family="Calibri, sans-serif" font-size="318px" font-weight="400"><tspan class="TextPosition" x="1487" y="29734"><tspan fill="rgb(89,89,89)" stroke="none">Raspberry PI</tspan></tspan></tspan></text>
 <text class="TextShape"><tspan class="TextParagraph" font-family="Calibri, sans-serif" font-size="318px" font-weight="400"><tspan class="TextPosition" x="1170" y="28617"><tspan fill="rgb(89,89,89)" stroke="none">Pentium M725</tspan></tspan></tspan></text>
 <text class="TextShape"><tspan class="TextParagraph" font-family="Calibri, sans-serif" font-size="318px" font-weight="400"><tspan class="TextPosition" x="1784" y="27499"><tspan fill="rgb(89,89,89)" stroke="none">Pentium 4</tspan></tspan></tspan></text>
 <text class="TextShape"><tspan class="TextParagraph" font-family="Calibri, sans-serif" font-size="318px" font-weight="400"><tspan class="TextPosition" x="1254" y="26382"><tspan fill="rgb(89,89,89)" stroke="none">Raspberry PI 3</tspan></tspan></tspan></text>
 <text class="TextShape"><tspan class="TextParagraph" font-family="Calibri, sans-serif" font-size="318px" font-weight="400"><tspan class="TextPosition" x="1805" y="25264"><tspan fill="rgb(89,89,89)" stroke="none">Odroid X2</tspan></tspan></tspan></text>
 <text class="TextShape"><tspan class="TextParagraph" font-family="Calibri, sans-serif" font-size="318px" font-weight="400"><tspan class="TextPosition" x="1297" y="24145"><tspan fill="rgb(89,89,89)" stroke="none">Orange Pi PC2</tspan></tspan></tspan></text>
 <text class="TextShape"><tspan class="TextParagraph" font-family="Calibri, sans-serif" font-size="318px" font-weight="400"><tspan class="TextPosition" x="1487" y="23028"><tspan fill="rgb(89,89,89)" stroke="none">Atom Z8350</tspan></tspan></tspan></text>
 <text class="TextShape"><tspan class="TextParagraph" font-family="Calibri, sans-serif" font-size="318px" font-weight="400"><tspan class="TextPosition" x="1720" y="21910"><tspan fill="rgb(89,89,89)" stroke="none">MBE1C-PC</tspan></tspan></tspan></text>
 <text class="TextShape"><tspan class="TextParagraph" font-family="Calibri, sans-serif" font-size="318px" font-weight="400"><tspan class="TextPosition" x="1762" y="20793"><tspan fill="rgb(89,89,89)" stroke="none">Odroid N2</tspan></tspan></tspan></text>
 <text class="TextShape"><tspan class="TextParagraph" font-family="Calibri, sans-serif" font-size="318px" font-weight="400"><tspan class="TextPosition" x="789" y="19675"><tspan fill="rgb(89,89,89)" stroke="none">Core 2 Duo T9400</tspan></tspan></tspan></text>
 <text class="TextShape"><tspan class="TextParagraph" font-family="Calibri, sans-serif" font-size="318px" font-weight="400"><tspan class="TextPosition" x="1339" y="18558"><tspan fill="rgb(89,89,89)" stroke="none">Core i3-m330</tspan></tspan></tspan></text>
 <text class="TextShape"><tspan class="TextParagraph" font-family="Calibri, sans-serif" font-size="318px" font-weight="400"><tspan class="TextPosition" x="1678" y="17439"><tspan fill="rgb(89,89,89)" stroke="none">E2S-PC401</tspan></tspan></tspan></text>
 <text class="TextShape"><tspan class="TextParagraph" font-family="Calibri, sans-serif" font-size="318px" font-weight="400"><tspan class="TextPosition" x="1233" y="16321"><tspan fill="rgb(89,89,89)" stroke="none">AMD A6-3650</tspan></tspan></tspan></text>
 <text class="TextShape"><tspan class="TextParagraph" font-family="Calibri, sans-serif" font-size="318px" font-weight="400"><tspan class="TextPosition" x="937" y="15204"><tspan fill="rgb(89,89,89)" stroke="none">Core i7-4700MQ</tspan></tspan></tspan></text>
 <text class="TextShape"><tspan class="TextParagraph" font-family="Calibri, sans-serif" font-size="318px" font-weight="400"><tspan class="TextPosition" x="1424" y="14086"><tspan fill="rgb(89,89,89)" stroke="none">Core i7-2600</tspan></tspan></tspan></text>
 <text class="TextShape"><tspan class="TextParagraph" font-family="Calibri, sans-serif" font-size="318px" font-weight="400"><tspan class="TextPosition" x="1318" y="12969"><tspan fill="rgb(89,89,89)" stroke="none">AWS Graviton</tspan></tspan></tspan></text>
 <text class="TextShape"><tspan class="TextParagraph" font-family="Calibri, sans-serif" font-size="318px" font-weight="400"><tspan class="TextPosition" x="1762" y="11851"><tspan fill="rgb(89,89,89)" stroke="none">E2S-EL2S4</tspan></tspan></tspan></text>
 <text class="TextShape"><tspan class="TextParagraph" font-family="Calibri, sans-serif" font-size="318px" font-weight="400"><tspan class="TextPosition" x="1762" y="10732"><tspan fill="rgb(89,89,89)" stroke="none">E8C-SWTX</tspan></tspan></tspan></text>
 <text class="TextShape"><tspan class="TextParagraph" font-family="Calibri, sans-serif" font-size="318px" font-weight="400"><tspan class="TextPosition" x="1657" y="9615"><tspan fill="rgb(89,89,89)" stroke="none">E8C2-1200</tspan></tspan></tspan></text>
 <text class="TextShape"><tspan class="TextParagraph" font-family="Calibri, sans-serif" font-size="318px" font-weight="400"><tspan class="TextPosition" x="2439" y="8497"><tspan fill="rgb(89,89,89)" stroke="none">E8C2</tspan></tspan></tspan></text>
 <text class="TextShape"><tspan class="TextParagraph" font-family="Calibri, sans-serif" font-size="318px" font-weight="400"><tspan class="TextPosition" x="1699" y="7380"><tspan fill="rgb(89,89,89)" stroke="none">Xeon 6128</tspan></tspan></tspan></text>
 <text class="TextShape"><tspan class="TextParagraph" font-family="Calibri, sans-serif" font-size="318px" font-weight="400"><tspan class="TextPosition" x="1657" y="6262"><tspan fill="rgb(89,89,89)" stroke="none">E8C2-1550</tspan></tspan></tspan></text>
 <text class="TextShape"><tspan class="TextParagraph" font-family="Calibri, sans-serif" font-size="318px" font-weight="400"><tspan class="TextPosition" x="1847" y="5144"><tspan fill="rgb(89,89,89)" stroke="none">E8C-E8C4</tspan></tspan></tspan></text>
 <text class="TextShape"><tspan class="TextParagraph" font-family="Calibri, sans-serif" font-size="318px" font-weight="400"><tspan class="TextPosition" x="1254" y="4027"><tspan fill="rgb(89,89,89)" stroke="none">E16C-APPROX</tspan></tspan></tspan></text>
 <text class="TextShape"><tspan class="TextParagraph" font-family="Calibri, sans-serif" font-size="318px" font-weight="400"><tspan class="TextPosition" x="3006" y="33906"><tspan fill="rgb(89,89,89)" stroke="none">.000.</tspan></tspan></tspan></text>
 <text class="TextShape"><tspan class="TextParagraph" font-family="Calibri, sans-serif" font-size="318px" font-weight="400"><tspan class="TextPosition" x="5705" y="33906"><tspan fill="rgb(89,89,89)" stroke="none">100000.000.</tspan></tspan></tspan></text>
 <text class="TextShape"><tspan class="TextParagraph" font-family="Calibri, sans-serif" font-size="318px" font-weight="400"><tspan class="TextPosition" x="8911" y="33906"><tspan fill="rgb(89,89,89)" stroke="none">200000.000.</tspan></tspan></tspan></text>
 <text class="TextShape"><tspan class="TextParagraph" font-family="Calibri, sans-serif" font-size="318px" font-weight="400"><tspan class="TextPosition" x="12118" y="33906"><tspan fill="rgb(89,89,89)" stroke="none">300000.000.</tspan></tspan></tspan></text>
 <text class="TextShape"><tspan class="TextParagraph" font-family="Calibri, sans-serif" font-size="318px" font-weight="400"><tspan class="TextPosition" x="15325" y="33906"><tspan fill="rgb(89,89,89)" stroke="none">400000.000.</tspan></tspan></tspan></text>
 <text class="TextShape"><tspan class="TextParagraph" font-family="Calibri, sans-serif" font-size="318px" font-weight="400"><tspan class="TextPosition" x="18532" y="33906"><tspan fill="rgb(89,89,89)" stroke="none">500000.000.</tspan></tspan></tspan></text>
 <text class="TextShape"><tspan class="TextParagraph" font-family="Calibri, sans-serif" font-size="318px" font-weight="400"><tspan class="TextPosition" x="21737" y="33906"><tspan fill="rgb(89,89,89)" stroke="none">600000.000.</tspan></tspan></tspan></text>
 <text class="TextShape"><tspan class="TextParagraph" font-family="Calibri, sans-serif" font-size="318px" font-weight="400"><tspan class="TextPosition" x="24944" y="33906"><tspan fill="rgb(89,89,89)" stroke="none">700000.000.</tspan></tspan></tspan></text>
 <text class="TextShape"><tspan class="TextParagraph" font-family="Calibri, sans-serif" font-size="318px" font-weight="400"><tspan class="TextPosition" x="28151" y="33906"><tspan fill="rgb(89,89,89)" stroke="none">800000.000.</tspan></tspan></tspan></text>
 <text class="TextShape"><tspan class="TextParagraph" font-family="Calibri, sans-serif" font-size="318px" font-weight="400"><tspan class="TextPosition" x="31358" y="33906"><tspan fill="rgb(89,89,89)" stroke="none">900000.000.</tspan></tspan></tspan></text>
 <text class="TextShape"><tspan class="TextParagraph" font-family="Calibri, sans-serif" font-size="318px" font-weight="400"><tspan class="TextPosition" x="34479" y="33906"><tspan fill="rgb(89,89,89)" stroke="none">1000000.000.</tspan></tspan></tspan></text>
 <text class="TextShape"><tspan class="TextParagraph" font-family="Calibri, sans-serif" font-size="318px" font-weight="400"><tspan class="TextPosition" x="3445" y="33309"><tspan fill="rgb(64,64,64)" stroke="none">0.00</tspan></tspan></tspan></text>
 <text class="TextShape"><tspan class="TextParagraph" font-family="Calibri, sans-serif" font-size="318px" font-weight="400"><tspan class="TextPosition" x="3445" y="32190"><tspan fill="rgb(64,64,64)" stroke="none">0.00</tspan></tspan></tspan></text>
 <text class="TextShape"><tspan class="TextParagraph" font-family="Calibri, sans-serif" font-size="318px" font-weight="400"><tspan class="TextPosition" x="3445" y="31072"><tspan fill="rgb(64,64,64)" stroke="none">0.00</tspan></tspan></tspan></text>
 <text class="TextShape"><tspan class="TextParagraph" font-family="Calibri, sans-serif" font-size="318px" font-weight="400"><tspan class="TextPosition" x="3451" y="29955"><tspan fill="rgb(64,64,64)" stroke="none">192</tspan></tspan></tspan></text>
 <text class="TextShape"><tspan class="TextParagraph" font-family="Calibri, sans-serif" font-size="318px" font-weight="400"><tspan class="TextPosition" x="3458" y="28837"><tspan fill="rgb(64,64,64)" stroke="none">408.00</tspan></tspan></tspan></text>
 <text class="TextShape"><tspan class="TextParagraph" font-family="Calibri, sans-serif" font-size="318px" font-weight="400"><tspan class="TextPosition" x="3504" y="27720"><tspan fill="rgb(64,64,64)" stroke="none">1,867.60</tspan></tspan></tspan></text>
 <text class="TextShape"><tspan class="TextParagraph" font-family="Calibri, sans-serif" font-size="318px" font-weight="400"><tspan class="TextPosition" x="3511" y="26602"><tspan fill="rgb(64,64,64)" stroke="none">2,081.00</tspan></tspan></tspan></text>
 <text class="TextShape"><tspan class="TextParagraph" font-family="Calibri, sans-serif" font-size="318px" font-weight="400"><tspan class="TextPosition" x="3550" y="25483"><tspan fill="rgb(64,64,64)" stroke="none">3,276.00</tspan></tspan></tspan></text>
 <text class="TextShape"><tspan class="TextParagraph" font-family="Calibri, sans-serif" font-size="318px" font-weight="400"><tspan class="TextPosition" x="3637" y="24366"><tspan fill="rgb(64,64,64)" stroke="none">6,033.00</tspan></tspan></tspan></text>
 <text class="TextShape"><tspan class="TextParagraph" font-family="Calibri, sans-serif" font-size="318px" font-weight="400"><tspan class="TextPosition" x="3786" y="23248"><tspan fill="rgb(64,64,64)" stroke="none">10,665.00</tspan></tspan></tspan></text>
 <text class="TextShape"><tspan class="TextParagraph" font-family="Calibri, sans-serif" font-size="318px" font-weight="400"><tspan class="TextPosition" x="3947" y="22131"><tspan fill="rgb(64,64,64)" stroke="none">15,676.00</tspan></tspan></tspan></text>
 <text class="TextShape"><tspan class="TextParagraph" font-family="Calibri, sans-serif" font-size="318px" font-weight="400"><tspan class="TextPosition" x="4130" y="21013"><tspan fill="rgb(64,64,64)" stroke="none">21,407.00</tspan></tspan></tspan></text>
 <text class="TextShape"><tspan class="TextParagraph" font-family="Calibri, sans-serif" font-size="318px" font-weight="400"><tspan class="TextPosition" x="4221" y="19896"><tspan fill="rgb(64,64,64)" stroke="none">24,236.00</tspan></tspan></tspan></text>
 <text class="TextShape"><tspan class="TextParagraph" font-family="Calibri, sans-serif" font-size="318px" font-weight="400"><tspan class="TextPosition" x="4249" y="18777"><tspan fill="rgb(64,64,64)" stroke="none">25,115.00</tspan></tspan></tspan></text>
 <text class="TextShape"><tspan class="TextParagraph" font-family="Calibri, sans-serif" font-size="318px" font-weight="400"><tspan class="TextPosition" x="4592" y="17659"><tspan fill="rgb(64,64,64)" stroke="none">35,782.00</tspan></tspan></tspan></text>
 <text class="TextShape"><tspan class="TextParagraph" font-family="Calibri, sans-serif" font-size="318px" font-weight="400"><tspan class="TextPosition" x="4798" y="16542"><tspan fill="rgb(64,64,64)" stroke="none">42,202.00</tspan></tspan></tspan></text>
 <text class="TextShape"><tspan class="TextParagraph" font-family="Calibri, sans-serif" font-size="318px" font-weight="400"><tspan class="TextPosition" x="5916" y="15424"><tspan fill="rgb(64,64,64)" stroke="none">77,071.00</tspan></tspan></tspan></text>
 <text class="TextShape"><tspan class="TextParagraph" font-family="Calibri, sans-serif" font-size="318px" font-weight="400"><tspan class="TextPosition" x="6072" y="14307"><tspan fill="rgb(64,64,64)" stroke="none">81,936.00</tspan></tspan></tspan></text>
 <text class="TextShape"><tspan class="TextParagraph" font-family="Calibri, sans-serif" font-size="318px" font-weight="400"><tspan class="TextPosition" x="7088" y="13189"><tspan fill="rgb(64,64,64)" stroke="none">113,635.00</tspan></tspan></tspan></text>
 <text class="TextShape"><tspan class="TextParagraph" font-family="Calibri, sans-serif" font-size="318px" font-weight="400"><tspan class="TextPosition" x="7171" y="12070"><tspan fill="rgb(64,64,64)" stroke="none">116,234.00</tspan></tspan></tspan></text>
 <text class="TextShape"><tspan class="TextParagraph" font-family="Calibri, sans-serif" font-size="318px" font-weight="400"><tspan class="TextPosition" x="8153" y="10953"><tspan fill="rgb(64,64,64)" stroke="none">146,865.00</tspan></tspan></tspan></text>
 <text class="TextShape"><tspan class="TextParagraph" font-family="Calibri, sans-serif" font-size="318px" font-weight="400"><tspan class="TextPosition" x="12182" y="9835"><tspan fill="rgb(64,64,64)" stroke="none">272,517.00</tspan></tspan></tspan></text>
 <text class="TextShape"><tspan class="TextParagraph" font-family="Calibri, sans-serif" font-size="318px" font-weight="400"><tspan class="TextPosition" x="13690" y="8718"><tspan fill="rgb(64,64,64)" stroke="none">319,533.87</tspan></tspan></tspan></text>
 <text class="TextShape"><tspan class="TextParagraph" font-family="Calibri, sans-serif" font-size="318px" font-weight="400"><tspan class="TextPosition" x="14013" y="7600"><tspan fill="rgb(64,64,64)" stroke="none">329,607.00</tspan></tspan></tspan></text>
 <text class="TextShape"><tspan class="TextParagraph" font-family="Calibri, sans-serif" font-size="318px" font-weight="400"><tspan class="TextPosition" x="14031" y="6482"><tspan fill="rgb(64,64,64)" stroke="none">330,185.00</tspan></tspan></tspan></text>
 <text class="TextShape"><tspan class="TextParagraph" font-family="Calibri, sans-serif" font-size="318px" font-weight="400"><tspan class="TextPosition" x="16346" y="5365"><tspan fill="rgb(64,64,64)" stroke="none">402,357.00</tspan></tspan></tspan></text>
 <text class="TextShape"><tspan class="TextParagraph" font-family="Calibri, sans-serif" font-size="318px" font-weight="400"><tspan class="TextPosition" x="30766" y="4246"><tspan fill="rgb(64,64,64)" stroke="none">852,090.32</tspan></tspan></tspan></text>
 <text class="TextShape"><tspan class="TextParagraph" font-family="Calibri, sans-serif" font-size="318px" font-weight="400"><tspan class="TextPosition" x="3445" y="33088"><tspan fill="rgb(64,64,64)" stroke="none">0.00</tspan></tspan></tspan></text>
 <text class="TextShape"><tspan class="TextParagraph" font-family="Calibri, sans-serif" font-size="318px" font-weight="400"><tspan class="TextPosition" x="3445" y="31971"><tspan fill="rgb(64,64,64)" stroke="none">0.00</tspan></tspan></tspan></text>
 <text class="TextShape"><tspan class="TextParagraph" font-family="Calibri, sans-serif" font-size="318px" font-weight="400"><tspan class="TextPosition" x="3445" y="30852"><tspan fill="rgb(64,64,64)" stroke="none">0.00</tspan></tspan></tspan></text>
 <text class="TextShape"><tspan class="TextParagraph" font-family="Calibri, sans-serif" font-size="318px" font-weight="400"><tspan class="TextPosition" x="3450" y="29734"><tspan fill="rgb(64,64,64)" stroke="none">176</tspan></tspan></tspan></text>
 <text class="TextShape"><tspan class="TextParagraph" font-family="Calibri, sans-serif" font-size="318px" font-weight="400"><tspan class="TextPosition" x="3458" y="28617"><tspan fill="rgb(64,64,64)" stroke="none">409.00</tspan></tspan></tspan></text>
 <text class="TextShape"><tspan class="TextParagraph" font-family="Calibri, sans-serif" font-size="318px" font-weight="400"><tspan class="TextPosition" x="3505" y="27499"><tspan fill="rgb(64,64,64)" stroke="none">1,872.43</tspan></tspan></tspan></text>
 <text class="TextShape"><tspan class="TextParagraph" font-family="Calibri, sans-serif" font-size="318px" font-weight="400"><tspan class="TextPosition" x="3513" y="26382"><tspan fill="rgb(64,64,64)" stroke="none">2,131.00</tspan></tspan></tspan></text>
 <text class="TextShape"><tspan class="TextParagraph" font-family="Calibri, sans-serif" font-size="318px" font-weight="400"><tspan class="TextPosition" x="3548" y="25264"><tspan fill="rgb(64,64,64)" stroke="none">3,230.00</tspan></tspan></tspan></text>
 <text class="TextShape"><tspan class="TextParagraph" font-family="Calibri, sans-serif" font-size="318px" font-weight="400"><tspan class="TextPosition" x="3630" y="24145"><tspan fill="rgb(64,64,64)" stroke="none">5,797.00</tspan></tspan></tspan></text>
 <text class="TextShape"><tspan class="TextParagraph" font-family="Calibri, sans-serif" font-size="318px" font-weight="400"><tspan class="TextPosition" x="3779" y="23028"><tspan fill="rgb(64,64,64)" stroke="none">10,456.00</tspan></tspan></tspan></text>
 <text class="TextShape"><tspan class="TextParagraph" font-family="Calibri, sans-serif" font-size="318px" font-weight="400"><tspan class="TextPosition" x="3945" y="21910"><tspan fill="rgb(64,64,64)" stroke="none">15,626.00</tspan></tspan></tspan></text>
 <text class="TextShape"><tspan class="TextParagraph" font-family="Calibri, sans-serif" font-size="318px" font-weight="400"><tspan class="TextPosition" x="4031" y="20793"><tspan fill="rgb(64,64,64)" stroke="none">18,311.00</tspan></tspan></tspan></text>
 <text class="TextShape"><tspan class="TextParagraph" font-family="Calibri, sans-serif" font-size="318px" font-weight="400"><tspan class="TextPosition" x="4218" y="19675"><tspan fill="rgb(64,64,64)" stroke="none">24,129.00</tspan></tspan></tspan></text>
 <text class="TextShape"><tspan class="TextParagraph" font-family="Calibri, sans-serif" font-size="318px" font-weight="400"><tspan class="TextPosition" x="4197" y="18558"><tspan fill="rgb(64,64,64)" stroke="none">23,494.00</tspan></tspan></tspan></text>
 <text class="TextShape"><tspan class="TextParagraph" font-family="Calibri, sans-serif" font-size="318px" font-weight="400"><tspan class="TextPosition" x="4591" y="17439"><tspan fill="rgb(64,64,64)" stroke="none">35,757.00</tspan></tspan></tspan></text>
 <text class="TextShape"><tspan class="TextParagraph" font-family="Calibri, sans-serif" font-size="318px" font-weight="400"><tspan class="TextPosition" x="4536" y="16321"><tspan fill="rgb(64,64,64)" stroke="none">34,047.00</tspan></tspan></tspan></text>
 <text class="TextShape"><tspan class="TextParagraph" font-family="Calibri, sans-serif" font-size="318px" font-weight="400"><tspan class="TextPosition" x="5928" y="15204"><tspan fill="rgb(64,64,64)" stroke="none">77,474.00</tspan></tspan></tspan></text>
 <text class="TextShape"><tspan class="TextParagraph" font-family="Calibri, sans-serif" font-size="318px" font-weight="400"><tspan class="TextPosition" x="6093" y="14086"><tspan fill="rgb(64,64,64)" stroke="none">82,606.00</tspan></tspan></tspan></text>
 <text class="TextShape"><tspan class="TextParagraph" font-family="Calibri, sans-serif" font-size="318px" font-weight="400"><tspan class="TextPosition" x="7210" y="12969"><tspan fill="rgb(64,64,64)" stroke="none">117,449.00</tspan></tspan></tspan></text>
 <text class="TextShape"><tspan class="TextParagraph" font-family="Calibri, sans-serif" font-size="318px" font-weight="400"><tspan class="TextPosition" x="7719" y="11851"><tspan fill="rgb(64,64,64)" stroke="none">133,304.00</tspan></tspan></tspan></text>
 <text class="TextShape"><tspan class="TextParagraph" font-family="Calibri, sans-serif" font-size="318px" font-weight="400"><tspan class="TextPosition" x="8585" y="10732"><tspan fill="rgb(64,64,64)" stroke="none">160,334.00</tspan></tspan></tspan></text>
 <text class="TextShape"><tspan class="TextParagraph" font-family="Calibri, sans-serif" font-size="318px" font-weight="400"><tspan class="TextPosition" x="13147" y="9615"><tspan fill="rgb(64,64,64)" stroke="none">302,580.00</tspan></tspan></tspan></text>
 <text class="TextShape"><tspan class="TextParagraph" font-family="Calibri, sans-serif" font-size="318px" font-weight="400"><tspan class="TextPosition" x="13885" y="8497"><tspan fill="rgb(64,64,64)" stroke="none">325,615.16</tspan></tspan></tspan></text>
 <text class="TextShape"><tspan class="TextParagraph" font-family="Calibri, sans-serif" font-size="318px" font-weight="400"><tspan class="TextPosition" x="14461" y="7380"><tspan fill="rgb(64,64,64)" stroke="none">343,556.00</tspan></tspan></tspan></text>
 <text class="TextShape"><tspan class="TextParagraph" font-family="Calibri, sans-serif" font-size="318px" font-weight="400"><tspan class="TextPosition" x="14233" y="6262"><tspan fill="rgb(64,64,64)" stroke="none">336,469.00</tspan></tspan></tspan></text>
 <text class="TextShape"><tspan class="TextParagraph" font-family="Calibri, sans-serif" font-size="318px" font-weight="400"><tspan class="TextPosition" x="18232" y="5144"><tspan fill="rgb(64,64,64)" stroke="none">461,200.00</tspan></tspan></tspan></text>
 <text class="TextShape"><tspan class="TextParagraph" font-family="Calibri, sans-serif" font-size="318px" font-weight="400"><tspan class="TextPosition" x="31287" y="4027"><tspan fill="rgb(64,64,64)" stroke="none">868,307.10</tspan></tspan></tspan></text>
 <text class="TextShape"><tspan class="TextParagraph" font-family="Calibri, sans-serif" font-size="318px" font-weight="400"><tspan class="TextPosition" x="3445" y="32868"><tspan fill="rgb(64,64,64)" stroke="none">0.00</tspan></tspan></tspan></text>
 <text class="TextShape"><tspan class="TextParagraph" font-family="Calibri, sans-serif" font-size="318px" font-weight="400"><tspan class="TextPosition" x="3445" y="31750"><tspan fill="rgb(64,64,64)" stroke="none">0</tspan></tspan></tspan></text>
 <text class="TextShape"><tspan class="TextParagraph" font-family="Calibri, sans-serif" font-size="318px" font-weight="400"><tspan class="TextPosition" x="3445" y="30633"><tspan fill="rgb(64,64,64)" stroke="none">0.00</tspan></tspan></tspan></text>
 <text class="TextShape"><tspan class="TextParagraph" font-family="Calibri, sans-serif" font-size="318px" font-weight="400"><tspan class="TextPosition" x="3450" y="29514"><tspan fill="rgb(64,64,64)" stroke="none">159</tspan></tspan></tspan></text>
 <text class="TextShape"><tspan class="TextParagraph" font-family="Calibri, sans-serif" font-size="318px" font-weight="400"><tspan class="TextPosition" x="3458" y="28396"><tspan fill="rgb(64,64,64)" stroke="none">406.00</tspan></tspan></tspan></text>
 <text class="TextShape"><tspan class="TextParagraph" font-family="Calibri, sans-serif" font-size="318px" font-weight="400"><tspan class="TextPosition" x="3505" y="27279"><tspan fill="rgb(64,64,64)" stroke="none">1,875.65</tspan></tspan></tspan></text>
 <text class="TextShape"><tspan class="TextParagraph" font-family="Calibri, sans-serif" font-size="318px" font-weight="400"><tspan class="TextPosition" x="3513" y="26161"><tspan fill="rgb(64,64,64)" stroke="none">2,141.00</tspan></tspan></tspan></text>
 <text class="TextShape"><tspan class="TextParagraph" font-family="Calibri, sans-serif" font-size="318px" font-weight="400"><tspan class="TextPosition" x="3548" y="25044"><tspan fill="rgb(64,64,64)" stroke="none">3,224.00</tspan></tspan></tspan></text>
 <text class="TextShape"><tspan class="TextParagraph" font-family="Calibri, sans-serif" font-size="318px" font-weight="400"><tspan class="TextPosition" x="3630" y="23926"><tspan fill="rgb(64,64,64)" stroke="none">5,826.00</tspan></tspan></tspan></text>
 <text class="TextShape"><tspan class="TextParagraph" font-family="Calibri, sans-serif" font-size="318px" font-weight="400"><tspan class="TextPosition" x="3778" y="22807"><tspan fill="rgb(64,64,64)" stroke="none">10,419.00</tspan></tspan></tspan></text>
 <text class="TextShape"><tspan class="TextParagraph" font-family="Calibri, sans-serif" font-size="318px" font-weight="400"><tspan class="TextPosition" x="3945" y="21690"><tspan fill="rgb(64,64,64)" stroke="none">15,641.00</tspan></tspan></tspan></text>
 <text class="TextShape"><tspan class="TextParagraph" font-family="Calibri, sans-serif" font-size="318px" font-weight="400"><tspan class="TextPosition" x="4024" y="20572"><tspan fill="rgb(64,64,64)" stroke="none">18,102.00</tspan></tspan></tspan></text>
 <text class="TextShape"><tspan class="TextParagraph" font-family="Calibri, sans-serif" font-size="318px" font-weight="400"><tspan class="TextPosition" x="3884" y="19455"><tspan fill="rgb(64,64,64)" stroke="none">13,724.00</tspan></tspan></tspan></text>
 <text class="TextShape"><tspan class="TextParagraph" font-family="Calibri, sans-serif" font-size="318px" font-weight="400"><tspan class="TextPosition" x="4006" y="18337"><tspan fill="rgb(64,64,64)" stroke="none">17,535.00</tspan></tspan></tspan></text>
 <text class="TextShape"><tspan class="TextParagraph" font-family="Calibri, sans-serif" font-size="318px" font-weight="400"><tspan class="TextPosition" x="4219" y="17219"><tspan fill="rgb(64,64,64)" stroke="none">24,169.00</tspan></tspan></tspan></text>
 <text class="TextShape"><tspan class="TextParagraph" font-family="Calibri, sans-serif" font-size="318px" font-weight="400"><tspan class="TextPosition" x="4304" y="16101"><tspan fill="rgb(64,64,64)" stroke="none">26,819.00</tspan></tspan></tspan></text>
 <text class="TextShape"><tspan class="TextParagraph" font-family="Calibri, sans-serif" font-size="318px" font-weight="400"><tspan class="TextPosition" x="5773" y="14983"><tspan fill="rgb(64,64,64)" stroke="none">72,623.00</tspan></tspan></tspan></text>
 <text class="TextShape"><tspan class="TextParagraph" font-family="Calibri, sans-serif" font-size="318px" font-weight="400"><tspan class="TextPosition" x="5642" y="13866"><tspan fill="rgb(64,64,64)" stroke="none">68,539.00</tspan></tspan></tspan></text>
 <text class="TextShape"><tspan class="TextParagraph" font-family="Calibri, sans-serif" font-size="318px" font-weight="400"><tspan class="TextPosition" x="6066" y="12748"><tspan fill="rgb(64,64,64)" stroke="none">81,767.00</tspan></tspan></tspan></text>
 <text class="TextShape"><tspan class="TextParagraph" font-family="Calibri, sans-serif" font-size="318px" font-weight="400"><tspan class="TextPosition" x="5327" y="11631"><tspan fill="rgb(64,64,64)" stroke="none">58,729.00</tspan></tspan></tspan></text>
 <text class="TextShape"><tspan class="TextParagraph" font-family="Calibri, sans-serif" font-size="318px" font-weight="400"><tspan class="TextPosition" x="5625" y="10513"><tspan fill="rgb(64,64,64)" stroke="none">68,001.00</tspan></tspan></tspan></text>
 <text class="TextShape"><tspan class="TextParagraph" font-family="Calibri, sans-serif" font-size="318px" font-weight="400"><tspan class="TextPosition" x="7832" y="9394"><tspan fill="rgb(64,64,64)" stroke="none">136,836.00</tspan></tspan></tspan></text>
 <text class="TextShape"><tspan class="TextParagraph" font-family="Calibri, sans-serif" font-size="318px" font-weight="400"><tspan class="TextPosition" x="7814" y="8277"><tspan fill="rgb(64,64,64)" stroke="none">136,266.77</tspan></tspan></tspan></text>
 <text class="TextShape"><tspan class="TextParagraph" font-family="Calibri, sans-serif" font-size="318px" font-weight="400"><tspan class="TextPosition" x="14324" y="7159"><tspan fill="rgb(64,64,64)" stroke="none">339,301.00</tspan></tspan></tspan></text>
 <text class="TextShape"><tspan class="TextParagraph" font-family="Calibri, sans-serif" font-size="318px" font-weight="400"><tspan class="TextPosition" x="7959" y="6042"><tspan fill="rgb(64,64,64)" stroke="none">140,809.00</tspan></tspan></tspan></text>
 <text class="TextShape"><tspan class="TextParagraph" font-family="Calibri, sans-serif" font-size="318px" font-weight="400"><tspan class="TextPosition" x="15591" y="4924"><tspan fill="rgb(64,64,64)" stroke="none">378,806.00</tspan></tspan></tspan></text>
 <text class="TextShape"><tspan class="TextParagraph" font-family="Calibri, sans-serif" font-size="318px" font-weight="400"><tspan class="TextPosition" x="15096" y="3806"><tspan fill="rgb(64,64,64)" stroke="none">363,378.06</tspan></tspan></tspan></text>
 <text class="TextShape"><tspan class="TextParagraph" font-family="Calibri Light" font-size="705px" font-weight="400"><tspan class="TextPosition" x="15255" y="1617"><tspan fill="rgb(89,89,89)" stroke="none">MP MFLOPS (32 ops/w)</tspan></tspan></tspan></text>
 <path fill="rgb(99,99,99)" stroke="none" d="M 21161,2537 L 21066,2537 21066,2347 21256,2347 21256,2537 21161,2537 Z"/>
 <path fill="rgb(180,180,180)" stroke="none" d="M 16705,2537 L 16610,2537 16610,2347 16800,2347 16800,2537 16705,2537 Z"/>
 <path fill="rgb(139,139,139)" stroke="none" d="M 12080,2537 L 11985,2537 11985,2347 12174,2347 12174,2537 12080,2537 Z"/>
 <text class="TextShape"><tspan class="TextParagraph" font-family="Calibri, sans-serif" font-size="318px" font-weight="400"><tspan class="TextPosition" x="12274" y="2516"><tspan fill="rgb(89,89,89)" stroke="none">32 ops/w – 10240000 4B words</tspan></tspan></tspan></text>
 <text class="TextShape"><tspan class="TextParagraph" font-family="Calibri, sans-serif" font-size="318px" font-weight="400"><tspan class="TextPosition" x="16900" y="2516"><tspan fill="rgb(89,89,89)" stroke="none">32 ops/w – 1024000 4B words</tspan></tspan></tspan></text>
 <text class="TextShape"><tspan class="TextParagraph" font-family="Calibri, sans-serif" font-size="318px" font-weight="400"><tspan class="TextPosition" x="21356" y="2516"><tspan fill="rgb(89,89,89)" stroke="none">32 ops/w – 102400 4B words</tspan></tspan></tspan></text>
</svg>