<?xml version="1.0" encoding="UTF-8"?>
<!DOCTYPE svg PUBLIC "-//W3C//DTD SVG 1.1//EN" "http://www.w3.org/Graphics/SVG/1.1/DTD/svg11.dtd">
<svg width="372mm" height="348mm" viewBox="0 0 37200 34800" version="1.1" xmlns="http://www.w3.org/2000/svg" xmlns:xlink="http://www.w3.org/1999/xlink" stroke-width="28.222" stroke-linejoin="round" xml:space="preserve">
 <path fill="rgb(68,114,196)" stroke="none" d="M 35,35 L 37132,35 37132,34764 35,34764 35,35 Z"/>
 <path fill="none" stroke="rgb(47,82,143)" stroke-width="35" d="M 17,18 L 37150,18 37150,34782 17,34782 17,18 Z"/>
 <path fill="rgb(255,255,255)" stroke="none" d="M 18584,34751 L 48,34751 48,48 37119,48 37119,34751 18584,34751 Z"/>
 <path fill="none" stroke="rgb(217,217,217)" stroke-width="26" stroke-linejoin="round" d="M 18584,34751 L 48,34751 48,48 37119,48 37119,34751 18584,34751 Z"/>
 <path fill="none" stroke="rgb(217,217,217)" stroke-width="26" stroke-linejoin="round" d="M 3345,3395 L 3345,33639"/>
 <path fill="none" stroke="rgb(217,217,217)" stroke-width="26" stroke-linejoin="round" d="M 7942,3395 L 7942,33639"/>
 <path fill="none" stroke="rgb(217,217,217)" stroke-width="26" stroke-linejoin="round" d="M 12540,3395 L 12540,33639"/>
 <path fill="none" stroke="rgb(217,217,217)" stroke-width="26" stroke-linejoin="round" d="M 17139,3395 L 17139,33639"/>
 <path fill="none" stroke="rgb(217,217,217)" stroke-width="26" stroke-linejoin="round" d="M 21736,3395 L 21736,33639"/>
 <path fill="none" stroke="rgb(217,217,217)" stroke-width="26" stroke-linejoin="round" d="M 26335,3395 L 26335,33639"/>
 <path fill="none" stroke="rgb(217,217,217)" stroke-width="26" stroke-linejoin="round" d="M 30933,3395 L 30933,33639"/>
 <path fill="none" stroke="rgb(217,217,217)" stroke-width="26" stroke-linejoin="round" d="M 35531,3395 L 35531,33639"/>
 <path fill="none" stroke="rgb(242,242,242)" stroke-width="26" stroke-linejoin="round" d="M 5643,3395 L 5643,33639"/>
 <path fill="none" stroke="rgb(242,242,242)" stroke-width="26" stroke-linejoin="round" d="M 10242,3395 L 10242,33639"/>
 <path fill="none" stroke="rgb(242,242,242)" stroke-width="26" stroke-linejoin="round" d="M 14839,3395 L 14839,33639"/>
 <path fill="none" stroke="rgb(242,242,242)" stroke-width="26" stroke-linejoin="round" d="M 19438,3395 L 19438,33639"/>
 <path fill="none" stroke="rgb(242,242,242)" stroke-width="26" stroke-linejoin="round" d="M 24036,3395 L 24036,33639"/>
 <path fill="none" stroke="rgb(242,242,242)" stroke-width="26" stroke-linejoin="round" d="M 28633,3395 L 28633,33639"/>
 <path fill="none" stroke="rgb(242,242,242)" stroke-width="26" stroke-linejoin="round" d="M 33232,3395 L 33232,33639"/>
 <path fill="none" stroke="rgb(217,217,217)" stroke-width="26" stroke-linejoin="round" d="M 3345,33639 L 3345,3395"/>
 <path fill="rgb(99,99,99)" stroke="none" d="M 3345,4268 L 3345,4084 32315,4084 32315,4268 3345,4268 Z"/>
 <path fill="rgb(99,99,99)" stroke="none" d="M 3345,5388 L 3345,5204 15983,5204 15983,5388 3345,5388 Z"/>
 <path fill="rgb(99,99,99)" stroke="none" d="M 3345,6508 L 3345,6324 12219,6324 12219,6508 3345,6508 Z"/>
 <path fill="rgb(99,99,99)" stroke="none" d="M 3345,7628 L 3345,7444 14570,7444 14570,7628 3345,7628 Z"/>
 <path fill="rgb(99,99,99)" stroke="none" d="M 3345,8748 L 3345,8564 14208,8564 14208,8748 3345,8748 Z"/>
 <path fill="rgb(99,99,99)" stroke="none" d="M 3345,9868 L 3345,9684 9840,9684 9840,9868 3345,9868 Z"/>
 <path fill="rgb(99,99,99)" stroke="none" d="M 3345,10988 L 3345,10805 7976,10805 7976,10988 3345,10988 Z"/>
 <path fill="rgb(99,99,99)" stroke="none" d="M 3345,12109 L 3345,11925 7501,11925 7501,12109 3345,12109 Z"/>
 <path fill="rgb(99,99,99)" stroke="none" d="M 3345,13229 L 3345,13045 7869,13045 7869,13229 3345,13229 Z"/>
 <path fill="rgb(99,99,99)" stroke="none" d="M 3345,14349 L 3345,14165 7189,14165 7189,14349 3345,14349 Z"/>
 <path fill="rgb(99,99,99)" stroke="none" d="M 3345,15469 L 3345,15285 7079,15285 7079,15469 3345,15469 Z"/>
 <path fill="rgb(99,99,99)" stroke="none" d="M 3345,16589 L 3345,16405 4799,16405 4799,16589 3345,16589 Z"/>
 <path fill="rgb(99,99,99)" stroke="none" d="M 3345,17709 L 3345,17525 4383,17525 4383,17709 3345,17709 Z"/>
 <path fill="rgb(99,99,99)" stroke="none" d="M 3345,18829 L 3345,18646 4081,18646 4081,18829 3345,18829 Z"/>
 <path fill="rgb(99,99,99)" stroke="none" d="M 3345,19950 L 3345,19766 4371,19766 4371,19950 3345,19950 Z"/>
 <path fill="rgb(99,99,99)" stroke="none" d="M 3345,21070 L 3345,20886 3824,20886 3824,21070 3345,21070 Z"/>
 <path fill="rgb(99,99,99)" stroke="none" d="M 3345,22190 L 3345,22006 4432,22006 4432,22190 3345,22190 Z"/>
 <path fill="rgb(99,99,99)" stroke="none" d="M 3345,23310 L 3345,23126 3893,23126 3893,23310 3345,23310 Z"/>
 <path fill="rgb(99,99,99)" stroke="none" d="M 3345,24430 L 3345,24246 3440,24246 3440,24430 3345,24430 Z"/>
 <path fill="rgb(99,99,99)" stroke="none" d="M 3345,25550 L 3345,25366 3647,25366 3647,25550 3345,25550 Z"/>
 <path fill="rgb(99,99,99)" stroke="none" d="M 3345,26670 L 3345,26486 3556,26486 3556,26670 3345,26670 Z"/>
 <path fill="rgb(99,99,99)" stroke="none" d="M 3345,27790 L 3345,27607 3406,27607 3406,27790 3345,27790 Z"/>
 <path fill="rgb(99,99,99)" stroke="none" d="M 3345,28911 L 3345,28727 3359,28727 3359,28911 3345,28911 Z"/>
 <path fill="rgb(99,99,99)" stroke="none" d="M 3345,30031 L 3345,29847 3349,29847 3349,30031 3345,30031 Z"/>
 <path fill="rgb(99,99,99)" stroke="none" d="M 3345,31151 L 3345,30967 3345,30967 3345,31151 Z"/>
 <path fill="rgb(99,99,99)" stroke="none" d="M 3345,32271 L 3345,32087 3345,32087 3345,32271 Z"/>
 <path fill="rgb(99,99,99)" stroke="none" d="M 3345,33391 L 3345,33207 3345,33207 3345,33391 Z"/>
 <path fill="rgb(180,180,180)" stroke="none" d="M 3345,4047 L 3345,3863 29058,3863 29058,4047 3345,4047 Z"/>
 <path fill="rgb(180,180,180)" stroke="none" d="M 3345,5167 L 3345,4983 17443,4983 17443,5167 3345,5167 Z"/>
 <path fill="rgb(180,180,180)" stroke="none" d="M 3345,6287 L 3345,6103 16192,6103 16192,6287 3345,6287 Z"/>
 <path fill="rgb(180,180,180)" stroke="none" d="M 3345,7407 L 3345,7223 13308,7223 13308,7407 3345,7407 Z"/>
 <path fill="rgb(180,180,180)" stroke="none" d="M 3345,8527 L 3345,8344 12987,8344 12987,8527 3345,8527 Z"/>
 <path fill="rgb(180,180,180)" stroke="none" d="M 3345,9648 L 3345,9464 12422,9464 12422,9648 3345,9648 Z"/>
 <path fill="rgb(180,180,180)" stroke="none" d="M 3345,10768 L 3345,10584 8934,10584 8934,10768 3345,10768 Z"/>
 <path fill="rgb(180,180,180)" stroke="none" d="M 3345,11888 L 3345,11704 7689,11704 7689,11888 3345,11888 Z"/>
 <path fill="rgb(180,180,180)" stroke="none" d="M 3345,13008 L 3345,12824 7627,12824 7627,13008 3345,13008 Z"/>
 <path fill="rgb(180,180,180)" stroke="none" d="M 3345,14128 L 3345,13944 7231,13944 7231,14128 3345,14128 Z"/>
 <path fill="rgb(180,180,180)" stroke="none" d="M 3345,15248 L 3345,15064 7024,15064 7024,15248 3345,15248 Z"/>
 <path fill="rgb(180,180,180)" stroke="none" d="M 3345,16368 L 3345,16184 4166,16184 4166,16368 3345,16368 Z"/>
 <path fill="rgb(180,180,180)" stroke="none" d="M 3345,17488 L 3345,17305 4160,17305 4160,17488 3345,17488 Z"/>
 <path fill="rgb(180,180,180)" stroke="none" d="M 3345,18609 L 3345,18425 4082,18425 4082,18609 3345,18609 Z"/>
 <path fill="rgb(180,180,180)" stroke="none" d="M 3345,19729 L 3345,19545 3906,19545 3906,19729 3345,19729 Z"/>
 <path fill="rgb(180,180,180)" stroke="none" d="M 3345,20849 L 3345,20665 3667,20665 3667,20849 3345,20849 Z"/>
 <path fill="rgb(180,180,180)" stroke="none" d="M 3345,21969 L 3345,21785 3592,21785 3592,21969 3345,21969 Z"/>
 <path fill="rgb(180,180,180)" stroke="none" d="M 3345,23089 L 3345,22905 3577,22905 3577,23089 3345,23089 Z"/>
 <path fill="rgb(180,180,180)" stroke="none" d="M 3345,24209 L 3345,24025 3436,24025 3436,24209 3345,24209 Z"/>
 <path fill="rgb(180,180,180)" stroke="none" d="M 3345,25329 L 3345,25145 3432,25145 3432,25329 3345,25329 Z"/>
 <path fill="rgb(180,180,180)" stroke="none" d="M 3345,26449 L 3345,26266 3423,26266 3423,26449 3345,26449 Z"/>
 <path fill="rgb(180,180,180)" stroke="none" d="M 3345,27570 L 3345,27386 3405,27386 3405,27570 3345,27570 Z"/>
 <path fill="rgb(180,180,180)" stroke="none" d="M 3345,28690 L 3345,28506 3358,28506 3358,28690 3345,28690 Z"/>
 <path fill="rgb(180,180,180)" stroke="none" d="M 3345,29810 L 3345,29626 3349,29626 3349,29810 3345,29810 Z"/>
 <path fill="rgb(180,180,180)" stroke="none" d="M 3345,30930 L 3345,30746 3345,30746 3345,30930 Z"/>
 <path fill="rgb(180,180,180)" stroke="none" d="M 3345,32050 L 3345,31866 3345,31866 3345,32050 Z"/>
 <path fill="rgb(180,180,180)" stroke="none" d="M 3345,33170 L 3345,32986 3345,32986 3345,33170 Z"/>
 <path fill="rgb(139,139,139)" stroke="none" d="M 3345,3826 L 3345,3642 7658,3642 7658,3826 3345,3826 Z"/>
 <path fill="rgb(139,139,139)" stroke="none" d="M 3345,4946 L 3345,4762 16375,4762 16375,4946 3345,4946 Z"/>
 <path fill="rgb(139,139,139)" stroke="none" d="M 3345,6066 L 3345,5882 16200,5882 16200,6066 3345,6066 Z"/>
 <path fill="rgb(139,139,139)" stroke="none" d="M 3345,7186 L 3345,7003 5016,7003 5016,7186 3345,7186 Z"/>
 <path fill="rgb(139,139,139)" stroke="none" d="M 3345,8307 L 3345,8123 4962,8123 4962,8307 3345,8307 Z"/>
 <path fill="rgb(139,139,139)" stroke="none" d="M 3345,9427 L 3345,9243 5012,9243 5012,9427 3345,9427 Z"/>
 <path fill="rgb(139,139,139)" stroke="none" d="M 3345,10547 L 3345,10363 4083,10363 4083,10547 3345,10547 Z"/>
 <path fill="rgb(139,139,139)" stroke="none" d="M 3345,11667 L 3345,11483 4304,11483 4304,11667 3345,11667 Z"/>
 <path fill="rgb(139,139,139)" stroke="none" d="M 3345,12787 L 3345,12603 4171,12603 4171,12787 3345,12787 Z"/>
 <path fill="rgb(139,139,139)" stroke="none" d="M 3345,13907 L 3345,13723 4155,13723 4155,13907 3345,13907 Z"/>
 <path fill="rgb(139,139,139)" stroke="none" d="M 3345,15027 L 3345,14843 4230,14843 4230,15027 3345,15027 Z"/>
 <path fill="rgb(139,139,139)" stroke="none" d="M 3345,16147 L 3345,15964 3741,15964 3741,16147 3345,16147 Z"/>
 <path fill="rgb(139,139,139)" stroke="none" d="M 3345,17268 L 3345,17084 3901,17084 3901,17268 3345,17268 Z"/>
 <path fill="rgb(139,139,139)" stroke="none" d="M 3345,18388 L 3345,18204 3519,18204 3519,18388 3345,18388 Z"/>
 <path fill="rgb(139,139,139)" stroke="none" d="M 3345,19508 L 3345,19324 3740,19324 3740,19508 3345,19508 Z"/>
 <path fill="rgb(139,139,139)" stroke="none" d="M 3345,20628 L 3345,20444 3666,20444 3666,20628 3345,20628 Z"/>
 <path fill="rgb(139,139,139)" stroke="none" d="M 3345,21748 L 3345,21564 3588,21564 3588,21748 3345,21748 Z"/>
 <path fill="rgb(139,139,139)" stroke="none" d="M 3345,22868 L 3345,22684 3537,22684 3537,22868 3345,22868 Z"/>
 <path fill="rgb(139,139,139)" stroke="none" d="M 3345,23988 L 3345,23805 3437,23805 3437,23988 3345,23988 Z"/>
 <path fill="rgb(139,139,139)" stroke="none" d="M 3345,25109 L 3345,24925 3432,24925 3432,25109 3345,25109 Z"/>
 <path fill="rgb(139,139,139)" stroke="none" d="M 3345,26229 L 3345,26045 3424,26045 3424,26229 3345,26229 Z"/>
 <path fill="rgb(139,139,139)" stroke="none" d="M 3345,27349 L 3345,27165 3401,27165 3401,27349 3345,27349 Z"/>
 <path fill="rgb(139,139,139)" stroke="none" d="M 3345,28469 L 3345,28285 3356,28285 3356,28469 3345,28469 Z"/>
 <path fill="rgb(139,139,139)" stroke="none" d="M 3345,29589 L 3345,29405 3348,29405 3348,29589 3345,29589 Z"/>
 <path fill="rgb(139,139,139)" stroke="none" d="M 3345,30709 L 3345,30525 3345,30525 3345,30709 Z"/>
 <path fill="rgb(139,139,139)" stroke="none" d="M 3345,31829 L 3345,31645 3345,31645 3345,31829 Z"/>
 <path fill="rgb(139,139,139)" stroke="none" d="M 3345,32949 L 3345,32766 3345,32766 3345,32949 Z"/>
 <text class="TextShape"><tspan class="TextParagraph" font-family="Calibri, sans-serif" font-size="318px" font-weight="400"><tspan class="TextPosition" x="1424" y="33153"><tspan fill="rgb(89,89,89)" stroke="none">Baikal T1 BFK</tspan></tspan></tspan></text>
 <text class="TextShape"><tspan class="TextParagraph" font-family="Calibri, sans-serif" font-size="318px" font-weight="400"><tspan class="TextPosition" x="1297" y="32033"><tspan fill="rgb(89,89,89)" stroke="none">Orange Pi Win</tspan></tspan></tspan></text>
 <text class="TextShape"><tspan class="TextParagraph" font-family="Calibri, sans-serif" font-size="318px" font-weight="400"><tspan class="TextPosition" x="1699" y="30912"><tspan fill="rgb(89,89,89)" stroke="none">Pentium III</tspan></tspan></tspan></text>
 <text class="TextShape"><tspan class="TextParagraph" font-family="Calibri, sans-serif" font-size="318px" font-weight="400"><tspan class="TextPosition" x="1487" y="29792"><tspan fill="rgb(89,89,89)" stroke="none">Raspberry PI</tspan></tspan></tspan></text>
 <text class="TextShape"><tspan class="TextParagraph" font-family="Calibri, sans-serif" font-size="318px" font-weight="400"><tspan class="TextPosition" x="1170" y="28672"><tspan fill="rgb(89,89,89)" stroke="none">Pentium M725</tspan></tspan></tspan></text>
 <text class="TextShape"><tspan class="TextParagraph" font-family="Calibri, sans-serif" font-size="318px" font-weight="400"><tspan class="TextPosition" x="1784" y="27552"><tspan fill="rgb(89,89,89)" stroke="none">Pentium 4</tspan></tspan></tspan></text>
 <text class="TextShape"><tspan class="TextParagraph" font-family="Calibri, sans-serif" font-size="318px" font-weight="400"><tspan class="TextPosition" x="1254" y="26432"><tspan fill="rgb(89,89,89)" stroke="none">Raspberry PI 3</tspan></tspan></tspan></text>
 <text class="TextShape"><tspan class="TextParagraph" font-family="Calibri, sans-serif" font-size="318px" font-weight="400"><tspan class="TextPosition" x="1297" y="25312"><tspan fill="rgb(89,89,89)" stroke="none">Orange Pi PC2</tspan></tspan></tspan></text>
 <text class="TextShape"><tspan class="TextParagraph" font-family="Calibri, sans-serif" font-size="318px" font-weight="400"><tspan class="TextPosition" x="1805" y="24192"><tspan fill="rgb(89,89,89)" stroke="none">Odroid X2</tspan></tspan></tspan></text>
 <text class="TextShape"><tspan class="TextParagraph" font-family="Calibri, sans-serif" font-size="318px" font-weight="400"><tspan class="TextPosition" x="1487" y="23072"><tspan fill="rgb(89,89,89)" stroke="none">Atom Z8350</tspan></tspan></tspan></text>
 <text class="TextShape"><tspan class="TextParagraph" font-family="Calibri, sans-serif" font-size="318px" font-weight="400"><tspan class="TextPosition" x="1762" y="21951"><tspan fill="rgb(89,89,89)" stroke="none">Odroid N2</tspan></tspan></tspan></text>
 <text class="TextShape"><tspan class="TextParagraph" font-family="Calibri, sans-serif" font-size="318px" font-weight="400"><tspan class="TextPosition" x="1720" y="20831"><tspan fill="rgb(89,89,89)" stroke="none">MBE1C-PC</tspan></tspan></tspan></text>
 <text class="TextShape"><tspan class="TextParagraph" font-family="Calibri, sans-serif" font-size="318px" font-weight="400"><tspan class="TextPosition" x="1339" y="19711"><tspan fill="rgb(89,89,89)" stroke="none">Core i3-m330</tspan></tspan></tspan></text>
 <text class="TextShape"><tspan class="TextParagraph" font-family="Calibri, sans-serif" font-size="318px" font-weight="400"><tspan class="TextPosition" x="789" y="18591"><tspan fill="rgb(89,89,89)" stroke="none">Core 2 Duo T9400</tspan></tspan></tspan></text>
 <text class="TextShape"><tspan class="TextParagraph" font-family="Calibri, sans-serif" font-size="318px" font-weight="400"><tspan class="TextPosition" x="1678" y="17471"><tspan fill="rgb(89,89,89)" stroke="none">E2S-PC401</tspan></tspan></tspan></text>
 <text class="TextShape"><tspan class="TextParagraph" font-family="Calibri, sans-serif" font-size="318px" font-weight="400"><tspan class="TextPosition" x="1233" y="16351"><tspan fill="rgb(89,89,89)" stroke="none">AMD A6-3650</tspan></tspan></tspan></text>
 <text class="TextShape"><tspan class="TextParagraph" font-family="Calibri, sans-serif" font-size="318px" font-weight="400"><tspan class="TextPosition" x="937" y="15231"><tspan fill="rgb(89,89,89)" stroke="none">Core i7-4700MQ</tspan></tspan></tspan></text>
 <text class="TextShape"><tspan class="TextParagraph" font-family="Calibri, sans-serif" font-size="318px" font-weight="400"><tspan class="TextPosition" x="1424" y="14111"><tspan fill="rgb(89,89,89)" stroke="none">Core i7-2600</tspan></tspan></tspan></text>
 <text class="TextShape"><tspan class="TextParagraph" font-family="Calibri, sans-serif" font-size="318px" font-weight="400"><tspan class="TextPosition" x="1762" y="12990"><tspan fill="rgb(89,89,89)" stroke="none">E8C-SWTX</tspan></tspan></tspan></text>
 <text class="TextShape"><tspan class="TextParagraph" font-family="Calibri, sans-serif" font-size="318px" font-weight="400"><tspan class="TextPosition" x="1318" y="11870"><tspan fill="rgb(89,89,89)" stroke="none">AWS Graviton</tspan></tspan></tspan></text>
 <text class="TextShape"><tspan class="TextParagraph" font-family="Calibri, sans-serif" font-size="318px" font-weight="400"><tspan class="TextPosition" x="1762" y="10750"><tspan fill="rgb(89,89,89)" stroke="none">E2S-EL2S4</tspan></tspan></tspan></text>
 <text class="TextShape"><tspan class="TextParagraph" font-family="Calibri, sans-serif" font-size="318px" font-weight="400"><tspan class="TextPosition" x="1657" y="9630"><tspan fill="rgb(89,89,89)" stroke="none">E8C2-1200</tspan></tspan></tspan></text>
 <text class="TextShape"><tspan class="TextParagraph" font-family="Calibri, sans-serif" font-size="318px" font-weight="400"><tspan class="TextPosition" x="2439" y="8510"><tspan fill="rgb(89,89,89)" stroke="none">E8C2</tspan></tspan></tspan></text>
 <text class="TextShape"><tspan class="TextParagraph" font-family="Calibri, sans-serif" font-size="318px" font-weight="400"><tspan class="TextPosition" x="1657" y="7390"><tspan fill="rgb(89,89,89)" stroke="none">E8C2-1550</tspan></tspan></tspan></text>
 <text class="TextShape"><tspan class="TextParagraph" font-family="Calibri, sans-serif" font-size="318px" font-weight="400"><tspan class="TextPosition" x="1847" y="6270"><tspan fill="rgb(89,89,89)" stroke="none">E8C-E8C4</tspan></tspan></tspan></text>
 <text class="TextShape"><tspan class="TextParagraph" font-family="Calibri, sans-serif" font-size="318px" font-weight="400"><tspan class="TextPosition" x="1699" y="5150"><tspan fill="rgb(89,89,89)" stroke="none">Xeon 6128</tspan></tspan></tspan></text>
 <text class="TextShape"><tspan class="TextParagraph" font-family="Calibri, sans-serif" font-size="318px" font-weight="400"><tspan class="TextPosition" x="1254" y="4029"><tspan fill="rgb(89,89,89)" stroke="none">E16C-APPROX</tspan></tspan></tspan></text>
 <text class="TextShape"><tspan class="TextParagraph" font-family="Calibri, sans-serif" font-size="318px" font-weight="400"><tspan class="TextPosition" x="3006" y="33972"><tspan fill="rgb(89,89,89)" stroke="none">.000.</tspan></tspan></tspan></text>
 <text class="TextShape"><tspan class="TextParagraph" font-family="Calibri, sans-serif" font-size="318px" font-weight="400"><tspan class="TextPosition" x="7096" y="33972"><tspan fill="rgb(89,89,89)" stroke="none">100000.000.</tspan></tspan></tspan></text>
 <text class="TextShape"><tspan class="TextParagraph" font-family="Calibri, sans-serif" font-size="318px" font-weight="400"><tspan class="TextPosition" x="11694" y="33972"><tspan fill="rgb(89,89,89)" stroke="none">200000.000.</tspan></tspan></tspan></text>
 <text class="TextShape"><tspan class="TextParagraph" font-family="Calibri, sans-serif" font-size="318px" font-weight="400"><tspan class="TextPosition" x="16293" y="33972"><tspan fill="rgb(89,89,89)" stroke="none">300000.000.</tspan></tspan></tspan></text>
 <text class="TextShape"><tspan class="TextParagraph" font-family="Calibri, sans-serif" font-size="318px" font-weight="400"><tspan class="TextPosition" x="20890" y="33972"><tspan fill="rgb(89,89,89)" stroke="none">400000.000.</tspan></tspan></tspan></text>
 <text class="TextShape"><tspan class="TextParagraph" font-family="Calibri, sans-serif" font-size="318px" font-weight="400"><tspan class="TextPosition" x="25489" y="33972"><tspan fill="rgb(89,89,89)" stroke="none">500000.000.</tspan></tspan></tspan></text>
 <text class="TextShape"><tspan class="TextParagraph" font-family="Calibri, sans-serif" font-size="318px" font-weight="400"><tspan class="TextPosition" x="30087" y="33972"><tspan fill="rgb(89,89,89)" stroke="none">600000.000.</tspan></tspan></tspan></text>
 <text class="TextShape"><tspan class="TextParagraph" font-family="Calibri, sans-serif" font-size="318px" font-weight="400"><tspan class="TextPosition" x="34685" y="33972"><tspan fill="rgb(89,89,89)" stroke="none">700000.000.</tspan></tspan></tspan></text>
 <text class="TextShape"><tspan class="TextParagraph" font-family="Calibri, sans-serif" font-size="318px" font-weight="400"><tspan class="TextPosition" x="3445" y="33374"><tspan fill="rgb(64,64,64)" stroke="none">0.00</tspan></tspan></tspan></text>
 <text class="TextShape"><tspan class="TextParagraph" font-family="Calibri, sans-serif" font-size="318px" font-weight="400"><tspan class="TextPosition" x="3445" y="32253"><tspan fill="rgb(64,64,64)" stroke="none">0.00</tspan></tspan></tspan></text>
 <text class="TextShape"><tspan class="TextParagraph" font-family="Calibri, sans-serif" font-size="318px" font-weight="400"><tspan class="TextPosition" x="3445" y="31133"><tspan fill="rgb(64,64,64)" stroke="none">0.00</tspan></tspan></tspan></text>
 <text class="TextShape"><tspan class="TextParagraph" font-family="Calibri, sans-serif" font-size="318px" font-weight="400"><tspan class="TextPosition" x="3449" y="30013"><tspan fill="rgb(64,64,64)" stroke="none">96</tspan></tspan></tspan></text>
 <text class="TextShape"><tspan class="TextParagraph" font-family="Calibri, sans-serif" font-size="318px" font-weight="400"><tspan class="TextPosition" x="3459" y="28893"><tspan fill="rgb(64,64,64)" stroke="none">309.00</tspan></tspan></tspan></text>
 <text class="TextShape"><tspan class="TextParagraph" font-family="Calibri, sans-serif" font-size="318px" font-weight="400"><tspan class="TextPosition" x="3505" y="27773"><tspan fill="rgb(64,64,64)" stroke="none">1,344.35</tspan></tspan></tspan></text>
 <text class="TextShape"><tspan class="TextParagraph" font-family="Calibri, sans-serif" font-size="318px" font-weight="400"><tspan class="TextPosition" x="3656" y="26653"><tspan fill="rgb(64,64,64)" stroke="none">4,621.00</tspan></tspan></tspan></text>
 <text class="TextShape"><tspan class="TextParagraph" font-family="Calibri, sans-serif" font-size="318px" font-weight="400"><tspan class="TextPosition" x="3747" y="25533"><tspan fill="rgb(64,64,64)" stroke="none">6,597.00</tspan></tspan></tspan></text>
 <text class="TextShape"><tspan class="TextParagraph" font-family="Calibri, sans-serif" font-size="318px" font-weight="400"><tspan class="TextPosition" x="3539" y="24413"><tspan fill="rgb(64,64,64)" stroke="none">2,077.00</tspan></tspan></tspan></text>
 <text class="TextShape"><tspan class="TextParagraph" font-family="Calibri, sans-serif" font-size="318px" font-weight="400"><tspan class="TextPosition" x="3993" y="23292"><tspan fill="rgb(64,64,64)" stroke="none">11,934.00</tspan></tspan></tspan></text>
 <text class="TextShape"><tspan class="TextParagraph" font-family="Calibri, sans-serif" font-size="318px" font-weight="400"><tspan class="TextPosition" x="4532" y="22172"><tspan fill="rgb(64,64,64)" stroke="none">23,657.00</tspan></tspan></tspan></text>
 <text class="TextShape"><tspan class="TextParagraph" font-family="Calibri, sans-serif" font-size="318px" font-weight="400"><tspan class="TextPosition" x="3924" y="21052"><tspan fill="rgb(64,64,64)" stroke="none">10,453.00</tspan></tspan></tspan></text>
 <text class="TextShape"><tspan class="TextParagraph" font-family="Calibri, sans-serif" font-size="318px" font-weight="400"><tspan class="TextPosition" x="4471" y="19932"><tspan fill="rgb(64,64,64)" stroke="none">22,321.00</tspan></tspan></tspan></text>
 <text class="TextShape"><tspan class="TextParagraph" font-family="Calibri, sans-serif" font-size="318px" font-weight="400"><tspan class="TextPosition" x="4181" y="18812"><tspan fill="rgb(64,64,64)" stroke="none">16,025.00</tspan></tspan></tspan></text>
 <text class="TextShape"><tspan class="TextParagraph" font-family="Calibri, sans-serif" font-size="318px" font-weight="400"><tspan class="TextPosition" x="4483" y="17692"><tspan fill="rgb(64,64,64)" stroke="none">22,592.00</tspan></tspan></tspan></text>
 <text class="TextShape"><tspan class="TextParagraph" font-family="Calibri, sans-serif" font-size="318px" font-weight="400"><tspan class="TextPosition" x="4898" y="16572"><tspan fill="rgb(64,64,64)" stroke="none">31,623.00</tspan></tspan></tspan></text>
 <text class="TextShape"><tspan class="TextParagraph" font-family="Calibri, sans-serif" font-size="318px" font-weight="400"><tspan class="TextPosition" x="7179" y="15452"><tspan fill="rgb(64,64,64)" stroke="none">81,235.00</tspan></tspan></tspan></text>
 <text class="TextShape"><tspan class="TextParagraph" font-family="Calibri, sans-serif" font-size="318px" font-weight="400"><tspan class="TextPosition" x="7289" y="14331"><tspan fill="rgb(64,64,64)" stroke="none">83,624.00</tspan></tspan></tspan></text>
 <text class="TextShape"><tspan class="TextParagraph" font-family="Calibri, sans-serif" font-size="318px" font-weight="400"><tspan class="TextPosition" x="7969" y="13211"><tspan fill="rgb(64,64,64)" stroke="none">98,423.00</tspan></tspan></tspan></text>
 <text class="TextShape"><tspan class="TextParagraph" font-family="Calibri, sans-serif" font-size="318px" font-weight="400"><tspan class="TextPosition" x="7600" y="12091"><tspan fill="rgb(64,64,64)" stroke="none">90,387.00</tspan></tspan></tspan></text>
 <text class="TextShape"><tspan class="TextParagraph" font-family="Calibri, sans-serif" font-size="318px" font-weight="400"><tspan class="TextPosition" x="8076" y="10971"><tspan fill="rgb(64,64,64)" stroke="none">100,732.00</tspan></tspan></tspan></text>
 <text class="TextShape"><tspan class="TextParagraph" font-family="Calibri, sans-serif" font-size="318px" font-weight="400"><tspan class="TextPosition" x="9940" y="9851"><tspan fill="rgb(64,64,64)" stroke="none">141,270.00</tspan></tspan></tspan></text>
 <text class="TextShape"><tspan class="TextParagraph" font-family="Calibri, sans-serif" font-size="318px" font-weight="400"><tspan class="TextPosition" x="14308" y="8731"><tspan fill="rgb(64,64,64)" stroke="none">236,270.32</tspan></tspan></tspan></text>
 <text class="TextShape"><tspan class="TextParagraph" font-family="Calibri, sans-serif" font-size="318px" font-weight="400"><tspan class="TextPosition" x="14670" y="7611"><tspan fill="rgb(64,64,64)" stroke="none">244,146.00</tspan></tspan></tspan></text>
 <text class="TextShape"><tspan class="TextParagraph" font-family="Calibri, sans-serif" font-size="318px" font-weight="400"><tspan class="TextPosition" x="12319" y="6490"><tspan fill="rgb(64,64,64)" stroke="none">193,019.00</tspan></tspan></tspan></text>
 <text class="TextShape"><tspan class="TextParagraph" font-family="Calibri, sans-serif" font-size="318px" font-weight="400"><tspan class="TextPosition" x="16083" y="5370"><tspan fill="rgb(64,64,64)" stroke="none">274,886.00</tspan></tspan></tspan></text>
 <text class="TextShape"><tspan class="TextParagraph" font-family="Calibri, sans-serif" font-size="318px" font-weight="400"><tspan class="TextPosition" x="32414" y="4250"><tspan fill="rgb(64,64,64)" stroke="none">630,054.19</tspan></tspan></tspan></text>
 <text class="TextShape"><tspan class="TextParagraph" font-family="Calibri, sans-serif" font-size="318px" font-weight="400"><tspan class="TextPosition" x="3445" y="33153"><tspan fill="rgb(64,64,64)" stroke="none">0.00</tspan></tspan></tspan></text>
 <text class="TextShape"><tspan class="TextParagraph" font-family="Calibri, sans-serif" font-size="318px" font-weight="400"><tspan class="TextPosition" x="3445" y="32033"><tspan fill="rgb(64,64,64)" stroke="none">0.00</tspan></tspan></tspan></text>
 <text class="TextShape"><tspan class="TextParagraph" font-family="Calibri, sans-serif" font-size="318px" font-weight="400"><tspan class="TextPosition" x="3445" y="30912"><tspan fill="rgb(64,64,64)" stroke="none">0.00</tspan></tspan></tspan></text>
 <text class="TextShape"><tspan class="TextParagraph" font-family="Calibri, sans-serif" font-size="318px" font-weight="400"><tspan class="TextPosition" x="3449" y="29792"><tspan fill="rgb(64,64,64)" stroke="none">88</tspan></tspan></tspan></text>
 <text class="TextShape"><tspan class="TextParagraph" font-family="Calibri, sans-serif" font-size="318px" font-weight="400"><tspan class="TextPosition" x="3458" y="28672"><tspan fill="rgb(64,64,64)" stroke="none">304.00</tspan></tspan></tspan></text>
 <text class="TextShape"><tspan class="TextParagraph" font-family="Calibri, sans-serif" font-size="318px" font-weight="400"><tspan class="TextPosition" x="3504" y="27552"><tspan fill="rgb(64,64,64)" stroke="none">1,315.37</tspan></tspan></tspan></text>
 <text class="TextShape"><tspan class="TextParagraph" font-family="Calibri, sans-serif" font-size="318px" font-weight="400"><tspan class="TextPosition" x="3522" y="26432"><tspan fill="rgb(64,64,64)" stroke="none">1,699.00</tspan></tspan></tspan></text>
 <text class="TextShape"><tspan class="TextParagraph" font-family="Calibri, sans-serif" font-size="318px" font-weight="400"><tspan class="TextPosition" x="3531" y="25312"><tspan fill="rgb(64,64,64)" stroke="none">1,909.00</tspan></tspan></tspan></text>
 <text class="TextShape"><tspan class="TextParagraph" font-family="Calibri, sans-serif" font-size="318px" font-weight="400"><tspan class="TextPosition" x="3535" y="24192"><tspan fill="rgb(64,64,64)" stroke="none">1,987.00</tspan></tspan></tspan></text>
 <text class="TextShape"><tspan class="TextParagraph" font-family="Calibri, sans-serif" font-size="318px" font-weight="400"><tspan class="TextPosition" x="3677" y="23072"><tspan fill="rgb(64,64,64)" stroke="none">5,077.00</tspan></tspan></tspan></text>
 <text class="TextShape"><tspan class="TextParagraph" font-family="Calibri, sans-serif" font-size="318px" font-weight="400"><tspan class="TextPosition" x="3692" y="21951"><tspan fill="rgb(64,64,64)" stroke="none">5,398.00</tspan></tspan></tspan></text>
 <text class="TextShape"><tspan class="TextParagraph" font-family="Calibri, sans-serif" font-size="318px" font-weight="400"><tspan class="TextPosition" x="3767" y="20831"><tspan fill="rgb(64,64,64)" stroke="none">7,041.00</tspan></tspan></tspan></text>
 <text class="TextShape"><tspan class="TextParagraph" font-family="Calibri, sans-serif" font-size="318px" font-weight="400"><tspan class="TextPosition" x="4006" y="19711"><tspan fill="rgb(64,64,64)" stroke="none">12,217.00</tspan></tspan></tspan></text>
 <text class="TextShape"><tspan class="TextParagraph" font-family="Calibri, sans-serif" font-size="318px" font-weight="400"><tspan class="TextPosition" x="4182" y="18591"><tspan fill="rgb(64,64,64)" stroke="none">16,043.00</tspan></tspan></tspan></text>
 <text class="TextShape"><tspan class="TextParagraph" font-family="Calibri, sans-serif" font-size="318px" font-weight="400"><tspan class="TextPosition" x="4260" y="17471"><tspan fill="rgb(64,64,64)" stroke="none">17,738.00</tspan></tspan></tspan></text>
 <text class="TextShape"><tspan class="TextParagraph" font-family="Calibri, sans-serif" font-size="318px" font-weight="400"><tspan class="TextPosition" x="4266" y="16351"><tspan fill="rgb(64,64,64)" stroke="none">17,883.00</tspan></tspan></tspan></text>
 <text class="TextShape"><tspan class="TextParagraph" font-family="Calibri, sans-serif" font-size="318px" font-weight="400"><tspan class="TextPosition" x="7124" y="15231"><tspan fill="rgb(64,64,64)" stroke="none">80,026.00</tspan></tspan></tspan></text>
 <text class="TextShape"><tspan class="TextParagraph" font-family="Calibri, sans-serif" font-size="318px" font-weight="400"><tspan class="TextPosition" x="7331" y="14111"><tspan fill="rgb(64,64,64)" stroke="none">84,536.00</tspan></tspan></tspan></text>
 <text class="TextShape"><tspan class="TextParagraph" font-family="Calibri, sans-serif" font-size="318px" font-weight="400"><tspan class="TextPosition" x="7727" y="12990"><tspan fill="rgb(64,64,64)" stroke="none">93,145.00</tspan></tspan></tspan></text>
 <text class="TextShape"><tspan class="TextParagraph" font-family="Calibri, sans-serif" font-size="318px" font-weight="400"><tspan class="TextPosition" x="7789" y="11870"><tspan fill="rgb(64,64,64)" stroke="none">94,494.00</tspan></tspan></tspan></text>
 <text class="TextShape"><tspan class="TextParagraph" font-family="Calibri, sans-serif" font-size="318px" font-weight="400"><tspan class="TextPosition" x="9033" y="10750"><tspan fill="rgb(64,64,64)" stroke="none">121,570.00</tspan></tspan></tspan></text>
 <text class="TextShape"><tspan class="TextParagraph" font-family="Calibri, sans-serif" font-size="318px" font-weight="400"><tspan class="TextPosition" x="12522" y="9630"><tspan fill="rgb(64,64,64)" stroke="none">197,423.00</tspan></tspan></tspan></text>
 <text class="TextShape"><tspan class="TextParagraph" font-family="Calibri, sans-serif" font-size="318px" font-weight="400"><tspan class="TextPosition" x="13087" y="8510"><tspan fill="rgb(64,64,64)" stroke="none">209,708.71</tspan></tspan></tspan></text>
 <text class="TextShape"><tspan class="TextParagraph" font-family="Calibri, sans-serif" font-size="318px" font-weight="400"><tspan class="TextPosition" x="13408" y="7390"><tspan fill="rgb(64,64,64)" stroke="none">216,699.00</tspan></tspan></tspan></text>
 <text class="TextShape"><tspan class="TextParagraph" font-family="Calibri, sans-serif" font-size="318px" font-weight="400"><tspan class="TextPosition" x="16292" y="6270"><tspan fill="rgb(64,64,64)" stroke="none">279,431.00</tspan></tspan></tspan></text>
 <text class="TextShape"><tspan class="TextParagraph" font-family="Calibri, sans-serif" font-size="318px" font-weight="400"><tspan class="TextPosition" x="17543" y="5150"><tspan fill="rgb(64,64,64)" stroke="none">306,624.00</tspan></tspan></tspan></text>
 <text class="TextShape"><tspan class="TextParagraph" font-family="Calibri, sans-serif" font-size="318px" font-weight="400"><tspan class="TextPosition" x="29158" y="4029"><tspan fill="rgb(64,64,64)" stroke="none">559,223.23</tspan></tspan></tspan></text>
 <text class="TextShape"><tspan class="TextParagraph" font-family="Calibri, sans-serif" font-size="318px" font-weight="400"><tspan class="TextPosition" x="3445" y="32932"><tspan fill="rgb(64,64,64)" stroke="none">0.00</tspan></tspan></tspan></text>
 <text class="TextShape"><tspan class="TextParagraph" font-family="Calibri, sans-serif" font-size="318px" font-weight="400"><tspan class="TextPosition" x="3445" y="31812"><tspan fill="rgb(64,64,64)" stroke="none">0.00</tspan></tspan></tspan></text>
 <text class="TextShape"><tspan class="TextParagraph" font-family="Calibri, sans-serif" font-size="318px" font-weight="400"><tspan class="TextPosition" x="3445" y="30692"><tspan fill="rgb(64,64,64)" stroke="none">0.00</tspan></tspan></tspan></text>
 <text class="TextShape"><tspan class="TextParagraph" font-family="Calibri, sans-serif" font-size="318px" font-weight="400"><tspan class="TextPosition" x="3448" y="29572"><tspan fill="rgb(64,64,64)" stroke="none">79.5</tspan></tspan></tspan></text>
 <text class="TextShape"><tspan class="TextParagraph" font-family="Calibri, sans-serif" font-size="318px" font-weight="400"><tspan class="TextPosition" x="3456" y="28451"><tspan fill="rgb(64,64,64)" stroke="none">243.00</tspan></tspan></tspan></text>
 <text class="TextShape"><tspan class="TextParagraph" font-family="Calibri, sans-serif" font-size="318px" font-weight="400"><tspan class="TextPosition" x="3500" y="27331"><tspan fill="rgb(64,64,64)" stroke="none">1,230.04</tspan></tspan></tspan></text>
 <text class="TextShape"><tspan class="TextParagraph" font-family="Calibri, sans-serif" font-size="318px" font-weight="400"><tspan class="TextPosition" x="3523" y="26211"><tspan fill="rgb(64,64,64)" stroke="none">1,737.00</tspan></tspan></tspan></text>
 <text class="TextShape"><tspan class="TextParagraph" font-family="Calibri, sans-serif" font-size="318px" font-weight="400"><tspan class="TextPosition" x="3531" y="25091"><tspan fill="rgb(64,64,64)" stroke="none">1,896.00</tspan></tspan></tspan></text>
 <text class="TextShape"><tspan class="TextParagraph" font-family="Calibri, sans-serif" font-size="318px" font-weight="400"><tspan class="TextPosition" x="3536" y="23971"><tspan fill="rgb(64,64,64)" stroke="none">2,015.00</tspan></tspan></tspan></text>
 <text class="TextShape"><tspan class="TextParagraph" font-family="Calibri, sans-serif" font-size="318px" font-weight="400"><tspan class="TextPosition" x="3637" y="22851"><tspan fill="rgb(64,64,64)" stroke="none">4,204.00</tspan></tspan></tspan></text>
 <text class="TextShape"><tspan class="TextParagraph" font-family="Calibri, sans-serif" font-size="318px" font-weight="400"><tspan class="TextPosition" x="3688" y="21731"><tspan fill="rgb(64,64,64)" stroke="none">5,318.00</tspan></tspan></tspan></text>
 <text class="TextShape"><tspan class="TextParagraph" font-family="Calibri, sans-serif" font-size="318px" font-weight="400"><tspan class="TextPosition" x="3766" y="20611"><tspan fill="rgb(64,64,64)" stroke="none">7,003.00</tspan></tspan></tspan></text>
 <text class="TextShape"><tspan class="TextParagraph" font-family="Calibri, sans-serif" font-size="318px" font-weight="400"><tspan class="TextPosition" x="3840" y="19490"><tspan fill="rgb(64,64,64)" stroke="none">8,613.00</tspan></tspan></tspan></text>
 <text class="TextShape"><tspan class="TextParagraph" font-family="Calibri, sans-serif" font-size="318px" font-weight="400"><tspan class="TextPosition" x="3619" y="18370"><tspan fill="rgb(64,64,64)" stroke="none">3,813.00</tspan></tspan></tspan></text>
 <text class="TextShape"><tspan class="TextParagraph" font-family="Calibri, sans-serif" font-size="318px" font-weight="400"><tspan class="TextPosition" x="4001" y="17250"><tspan fill="rgb(64,64,64)" stroke="none">12,125.00</tspan></tspan></tspan></text>
 <text class="TextShape"><tspan class="TextParagraph" font-family="Calibri, sans-serif" font-size="318px" font-weight="400"><tspan class="TextPosition" x="3841" y="16130"><tspan fill="rgb(64,64,64)" stroke="none">8,640.00</tspan></tspan></tspan></text>
 <text class="TextShape"><tspan class="TextParagraph" font-family="Calibri, sans-serif" font-size="318px" font-weight="400"><tspan class="TextPosition" x="4330" y="15010"><tspan fill="rgb(64,64,64)" stroke="none">19,272.00</tspan></tspan></tspan></text>
 <text class="TextShape"><tspan class="TextParagraph" font-family="Calibri, sans-serif" font-size="318px" font-weight="400"><tspan class="TextPosition" x="4255" y="13890"><tspan fill="rgb(64,64,64)" stroke="none">17,643.00</tspan></tspan></tspan></text>
 <text class="TextShape"><tspan class="TextParagraph" font-family="Calibri, sans-serif" font-size="318px" font-weight="400"><tspan class="TextPosition" x="4271" y="12770"><tspan fill="rgb(64,64,64)" stroke="none">17,994.00</tspan></tspan></tspan></text>
 <text class="TextShape"><tspan class="TextParagraph" font-family="Calibri, sans-serif" font-size="318px" font-weight="400"><tspan class="TextPosition" x="4404" y="11649"><tspan fill="rgb(64,64,64)" stroke="none">20,880.00</tspan></tspan></tspan></text>
 <text class="TextShape"><tspan class="TextParagraph" font-family="Calibri, sans-serif" font-size="318px" font-weight="400"><tspan class="TextPosition" x="4183" y="10529"><tspan fill="rgb(64,64,64)" stroke="none">16,075.00</tspan></tspan></tspan></text>
 <text class="TextShape"><tspan class="TextParagraph" font-family="Calibri, sans-serif" font-size="318px" font-weight="400"><tspan class="TextPosition" x="5112" y="9409"><tspan fill="rgb(64,64,64)" stroke="none">36,293.00</tspan></tspan></tspan></text>
 <text class="TextShape"><tspan class="TextParagraph" font-family="Calibri, sans-serif" font-size="318px" font-weight="400"><tspan class="TextPosition" x="5062" y="8289"><tspan fill="rgb(64,64,64)" stroke="none">35,186.13</tspan></tspan></tspan></text>
 <text class="TextShape"><tspan class="TextParagraph" font-family="Calibri, sans-serif" font-size="318px" font-weight="400"><tspan class="TextPosition" x="5116" y="7169"><tspan fill="rgb(64,64,64)" stroke="none">36,359.00</tspan></tspan></tspan></text>
 <text class="TextShape"><tspan class="TextParagraph" font-family="Calibri, sans-serif" font-size="318px" font-weight="400"><tspan class="TextPosition" x="16300" y="6049"><tspan fill="rgb(64,64,64)" stroke="none">279,598.00</tspan></tspan></tspan></text>
 <text class="TextShape"><tspan class="TextParagraph" font-family="Calibri, sans-serif" font-size="318px" font-weight="400"><tspan class="TextPosition" x="16475" y="4929"><tspan fill="rgb(64,64,64)" stroke="none">283,395.00</tspan></tspan></tspan></text>
 <text class="TextShape"><tspan class="TextParagraph" font-family="Calibri, sans-serif" font-size="318px" font-weight="400"><tspan class="TextPosition" x="7758" y="3809"><tspan fill="rgb(64,64,64)" stroke="none">93,829.68</tspan></tspan></tspan></text>
 <text class="TextShape"><tspan class="TextParagraph" font-family="Calibri Light" font-size="705px" font-weight="400"><tspan class="TextPosition" x="15453" y="1618"><tspan fill="rgb(89,89,89)" stroke="none">MP MFLOPS (8 ops/w)</tspan></tspan></tspan></text>
 <path fill="rgb(99,99,99)" stroke="none" d="M 21095,2538 L 21000,2538 21000,2348 21190,2348 21190,2538 21095,2538 Z"/>
 <path fill="rgb(180,180,180)" stroke="none" d="M 16808,2538 L 16713,2538 16713,2348 16903,2348 16903,2538 16808,2538 Z"/>
 <path fill="rgb(139,139,139)" stroke="none" d="M 12352,2538 L 12257,2538 12257,2348 12447,2348 12447,2538 12352,2538 Z"/>
 <text class="TextShape"><tspan class="TextParagraph" font-family="Calibri, sans-serif" font-size="318px" font-weight="400"><tspan class="TextPosition" x="12547" y="2517"><tspan fill="rgb(89,89,89)" stroke="none">8 ops/w – 10240000 4B words</tspan></tspan></tspan></text>
 <text class="TextShape"><tspan class="TextParagraph" font-family="Calibri, sans-serif" font-size="318px" font-weight="400"><tspan class="TextPosition" x="17003" y="2517"><tspan fill="rgb(89,89,89)" stroke="none">8 ops/w – 1024000 4B words</tspan></tspan></tspan></text>
 <text class="TextShape"><tspan class="TextParagraph" font-family="Calibri, sans-serif" font-size="318px" font-weight="400"><tspan class="TextPosition" x="21290" y="2517"><tspan fill="rgb(89,89,89)" stroke="none">8 ops/w – 102400 4B words</tspan></tspan></tspan></text>
</svg>