<?xml version="1.0" encoding="UTF-8"?>
<!DOCTYPE svg PUBLIC "-//W3C//DTD SVG 1.1//EN" "http://www.w3.org/Graphics/SVG/1.1/DTD/svg11.dtd">
<svg width="246mm" height="218mm" viewBox="0 0 24600 21800" version="1.1" xmlns="http://www.w3.org/2000/svg" xmlns:xlink="http://www.w3.org/1999/xlink" stroke-width="28.222" stroke-linejoin="round" xml:space="preserve">
 <path fill="rgb(255,255,255)" stroke="none" d="M 12279,21776 L 0,21776 0,0 24558,0 24558,21776 12279,21776 Z"/>
 <path fill="none" stroke="rgb(179,179,179)" stroke-linejoin="round" d="M 13674,20688 L 3621,20688 3621,1811 23727,1811 23727,20688 13674,20688 Z"/>
 <path fill="none" stroke="rgb(179,179,179)" stroke-linejoin="round" d="M 23727,20687 L 3621,20687"/>
 <path fill="none" stroke="rgb(179,179,179)" stroke-linejoin="round" d="M 23727,19987 L 3621,19987"/>
 <path fill="none" stroke="rgb(179,179,179)" stroke-linejoin="round" d="M 23727,19288 L 3621,19288"/>
 <path fill="none" stroke="rgb(179,179,179)" stroke-linejoin="round" d="M 23727,18589 L 3621,18589"/>
 <path fill="none" stroke="rgb(179,179,179)" stroke-linejoin="round" d="M 23727,17890 L 3621,17890"/>
 <path fill="none" stroke="rgb(179,179,179)" stroke-linejoin="round" d="M 23727,17191 L 3621,17191"/>
 <path fill="none" stroke="rgb(179,179,179)" stroke-linejoin="round" d="M 23727,16491 L 3621,16491"/>
 <path fill="none" stroke="rgb(179,179,179)" stroke-linejoin="round" d="M 23727,15792 L 3621,15792"/>
 <path fill="none" stroke="rgb(179,179,179)" stroke-linejoin="round" d="M 23727,15093 L 3621,15093"/>
 <path fill="none" stroke="rgb(179,179,179)" stroke-linejoin="round" d="M 23727,14394 L 3621,14394"/>
 <path fill="none" stroke="rgb(179,179,179)" stroke-linejoin="round" d="M 23727,13695 L 3621,13695"/>
 <path fill="none" stroke="rgb(179,179,179)" stroke-linejoin="round" d="M 23727,12995 L 3621,12995"/>
 <path fill="none" stroke="rgb(179,179,179)" stroke-linejoin="round" d="M 23727,12296 L 3621,12296"/>
 <path fill="none" stroke="rgb(179,179,179)" stroke-linejoin="round" d="M 23727,11597 L 3621,11597"/>
 <path fill="none" stroke="rgb(179,179,179)" stroke-linejoin="round" d="M 23727,10898 L 3621,10898"/>
 <path fill="none" stroke="rgb(179,179,179)" stroke-linejoin="round" d="M 23727,10200 L 3621,10200"/>
 <path fill="none" stroke="rgb(179,179,179)" stroke-linejoin="round" d="M 23727,9501 L 3621,9501"/>
 <path fill="none" stroke="rgb(179,179,179)" stroke-linejoin="round" d="M 23727,8801 L 3621,8801"/>
 <path fill="none" stroke="rgb(179,179,179)" stroke-linejoin="round" d="M 23727,8102 L 3621,8102"/>
 <path fill="none" stroke="rgb(179,179,179)" stroke-linejoin="round" d="M 23727,7403 L 3621,7403"/>
 <path fill="none" stroke="rgb(179,179,179)" stroke-linejoin="round" d="M 23727,6704 L 3621,6704"/>
 <path fill="none" stroke="rgb(179,179,179)" stroke-linejoin="round" d="M 23727,6005 L 3621,6005"/>
 <path fill="none" stroke="rgb(179,179,179)" stroke-linejoin="round" d="M 23727,5305 L 3621,5305"/>
 <path fill="none" stroke="rgb(179,179,179)" stroke-linejoin="round" d="M 23727,4606 L 3621,4606"/>
 <path fill="none" stroke="rgb(179,179,179)" stroke-linejoin="round" d="M 23727,3907 L 3621,3907"/>
 <path fill="none" stroke="rgb(179,179,179)" stroke-linejoin="round" d="M 23727,3208 L 3621,3208"/>
 <path fill="none" stroke="rgb(179,179,179)" stroke-linejoin="round" d="M 23727,2509 L 3621,2509"/>
 <path fill="none" stroke="rgb(179,179,179)" stroke-linejoin="round" d="M 23727,1810 L 3621,1810"/>
 <path fill="none" stroke="rgb(179,179,179)" stroke-linejoin="round" d="M 3621,1810 L 3621,20687"/>
 <path fill="none" stroke="rgb(179,179,179)" stroke-linejoin="round" d="M 6493,1810 L 6493,20687"/>
 <path fill="none" stroke="rgb(179,179,179)" stroke-linejoin="round" d="M 9365,1810 L 9365,20687"/>
 <path fill="none" stroke="rgb(179,179,179)" stroke-linejoin="round" d="M 12238,1810 L 12238,20687"/>
 <path fill="none" stroke="rgb(179,179,179)" stroke-linejoin="round" d="M 15109,1810 L 15109,20687"/>
 <path fill="none" stroke="rgb(179,179,179)" stroke-linejoin="round" d="M 17982,1810 L 17982,20687"/>
 <path fill="none" stroke="rgb(179,179,179)" stroke-linejoin="round" d="M 20854,1810 L 20854,20687"/>
 <path fill="none" stroke="rgb(179,179,179)" stroke-linejoin="round" d="M 23727,1810 L 23727,20687"/>
 <path fill="none" stroke="rgb(179,179,179)" stroke-linejoin="round" d="M 3471,20687 L 3621,20687"/>
 <path fill="none" stroke="rgb(179,179,179)" stroke-linejoin="round" d="M 3471,20687 L 3621,20687"/>
 <path fill="none" stroke="rgb(179,179,179)" stroke-linejoin="round" d="M 3471,19987 L 3621,19987"/>
 <path fill="none" stroke="rgb(179,179,179)" stroke-linejoin="round" d="M 3471,19987 L 3621,19987"/>
 <path fill="none" stroke="rgb(179,179,179)" stroke-linejoin="round" d="M 3471,19288 L 3621,19288"/>
 <path fill="none" stroke="rgb(179,179,179)" stroke-linejoin="round" d="M 3471,19288 L 3621,19288"/>
 <path fill="none" stroke="rgb(179,179,179)" stroke-linejoin="round" d="M 3471,18589 L 3621,18589"/>
 <path fill="none" stroke="rgb(179,179,179)" stroke-linejoin="round" d="M 3471,18589 L 3621,18589"/>
 <path fill="none" stroke="rgb(179,179,179)" stroke-linejoin="round" d="M 3471,17890 L 3621,17890"/>
 <path fill="none" stroke="rgb(179,179,179)" stroke-linejoin="round" d="M 3471,17890 L 3621,17890"/>
 <path fill="none" stroke="rgb(179,179,179)" stroke-linejoin="round" d="M 3471,17191 L 3621,17191"/>
 <path fill="none" stroke="rgb(179,179,179)" stroke-linejoin="round" d="M 3471,17191 L 3621,17191"/>
 <path fill="none" stroke="rgb(179,179,179)" stroke-linejoin="round" d="M 3471,16491 L 3621,16491"/>
 <path fill="none" stroke="rgb(179,179,179)" stroke-linejoin="round" d="M 3471,16491 L 3621,16491"/>
 <path fill="none" stroke="rgb(179,179,179)" stroke-linejoin="round" d="M 3471,15792 L 3621,15792"/>
 <path fill="none" stroke="rgb(179,179,179)" stroke-linejoin="round" d="M 3471,15792 L 3621,15792"/>
 <path fill="none" stroke="rgb(179,179,179)" stroke-linejoin="round" d="M 3471,15093 L 3621,15093"/>
 <path fill="none" stroke="rgb(179,179,179)" stroke-linejoin="round" d="M 3471,15093 L 3621,15093"/>
 <path fill="none" stroke="rgb(179,179,179)" stroke-linejoin="round" d="M 3471,14394 L 3621,14394"/>
 <path fill="none" stroke="rgb(179,179,179)" stroke-linejoin="round" d="M 3471,14394 L 3621,14394"/>
 <path fill="none" stroke="rgb(179,179,179)" stroke-linejoin="round" d="M 3471,13695 L 3621,13695"/>
 <path fill="none" stroke="rgb(179,179,179)" stroke-linejoin="round" d="M 3471,13695 L 3621,13695"/>
 <path fill="none" stroke="rgb(179,179,179)" stroke-linejoin="round" d="M 3471,12995 L 3621,12995"/>
 <path fill="none" stroke="rgb(179,179,179)" stroke-linejoin="round" d="M 3471,12995 L 3621,12995"/>
 <path fill="none" stroke="rgb(179,179,179)" stroke-linejoin="round" d="M 3471,12296 L 3621,12296"/>
 <path fill="none" stroke="rgb(179,179,179)" stroke-linejoin="round" d="M 3471,12296 L 3621,12296"/>
 <path fill="none" stroke="rgb(179,179,179)" stroke-linejoin="round" d="M 3471,11597 L 3621,11597"/>
 <path fill="none" stroke="rgb(179,179,179)" stroke-linejoin="round" d="M 3471,11597 L 3621,11597"/>
 <path fill="none" stroke="rgb(179,179,179)" stroke-linejoin="round" d="M 3471,10898 L 3621,10898"/>
 <path fill="none" stroke="rgb(179,179,179)" stroke-linejoin="round" d="M 3471,10898 L 3621,10898"/>
 <path fill="none" stroke="rgb(179,179,179)" stroke-linejoin="round" d="M 3471,10200 L 3621,10200"/>
 <path fill="none" stroke="rgb(179,179,179)" stroke-linejoin="round" d="M 3471,10200 L 3621,10200"/>
 <path fill="none" stroke="rgb(179,179,179)" stroke-linejoin="round" d="M 3471,9501 L 3621,9501"/>
 <path fill="none" stroke="rgb(179,179,179)" stroke-linejoin="round" d="M 3471,9501 L 3621,9501"/>
 <path fill="none" stroke="rgb(179,179,179)" stroke-linejoin="round" d="M 3471,8801 L 3621,8801"/>
 <path fill="none" stroke="rgb(179,179,179)" stroke-linejoin="round" d="M 3471,8801 L 3621,8801"/>
 <path fill="none" stroke="rgb(179,179,179)" stroke-linejoin="round" d="M 3471,8102 L 3621,8102"/>
 <path fill="none" stroke="rgb(179,179,179)" stroke-linejoin="round" d="M 3471,8102 L 3621,8102"/>
 <path fill="none" stroke="rgb(179,179,179)" stroke-linejoin="round" d="M 3471,7403 L 3621,7403"/>
 <path fill="none" stroke="rgb(179,179,179)" stroke-linejoin="round" d="M 3471,7403 L 3621,7403"/>
 <path fill="none" stroke="rgb(179,179,179)" stroke-linejoin="round" d="M 3471,6704 L 3621,6704"/>
 <path fill="none" stroke="rgb(179,179,179)" stroke-linejoin="round" d="M 3471,6704 L 3621,6704"/>
 <path fill="none" stroke="rgb(179,179,179)" stroke-linejoin="round" d="M 3471,6005 L 3621,6005"/>
 <path fill="none" stroke="rgb(179,179,179)" stroke-linejoin="round" d="M 3471,6005 L 3621,6005"/>
 <path fill="none" stroke="rgb(179,179,179)" stroke-linejoin="round" d="M 3471,5305 L 3621,5305"/>
 <path fill="none" stroke="rgb(179,179,179)" stroke-linejoin="round" d="M 3471,5305 L 3621,5305"/>
 <path fill="none" stroke="rgb(179,179,179)" stroke-linejoin="round" d="M 3471,4606 L 3621,4606"/>
 <path fill="none" stroke="rgb(179,179,179)" stroke-linejoin="round" d="M 3471,4606 L 3621,4606"/>
 <path fill="none" stroke="rgb(179,179,179)" stroke-linejoin="round" d="M 3471,3907 L 3621,3907"/>
 <path fill="none" stroke="rgb(179,179,179)" stroke-linejoin="round" d="M 3471,3907 L 3621,3907"/>
 <path fill="none" stroke="rgb(179,179,179)" stroke-linejoin="round" d="M 3471,3208 L 3621,3208"/>
 <path fill="none" stroke="rgb(179,179,179)" stroke-linejoin="round" d="M 3471,3208 L 3621,3208"/>
 <path fill="none" stroke="rgb(179,179,179)" stroke-linejoin="round" d="M 3471,2509 L 3621,2509"/>
 <path fill="none" stroke="rgb(179,179,179)" stroke-linejoin="round" d="M 3471,2509 L 3621,2509"/>
 <path fill="none" stroke="rgb(179,179,179)" stroke-linejoin="round" d="M 3471,1810 L 3621,1810"/>
 <path fill="none" stroke="rgb(179,179,179)" stroke-linejoin="round" d="M 3471,1810 L 3621,1810"/>
 <path fill="none" stroke="rgb(179,179,179)" stroke-linejoin="round" d="M 3621,20687 L 3621,1810"/>
 <path fill="none" stroke="rgb(179,179,179)" stroke-linejoin="round" d="M 3621,20837 L 3621,20687"/>
 <path fill="none" stroke="rgb(179,179,179)" stroke-linejoin="round" d="M 3621,20837 L 3621,20687"/>
 <path fill="none" stroke="rgb(179,179,179)" stroke-linejoin="round" d="M 6493,20837 L 6493,20687"/>
 <path fill="none" stroke="rgb(179,179,179)" stroke-linejoin="round" d="M 6493,20837 L 6493,20687"/>
 <path fill="none" stroke="rgb(179,179,179)" stroke-linejoin="round" d="M 9365,20837 L 9365,20687"/>
 <path fill="none" stroke="rgb(179,179,179)" stroke-linejoin="round" d="M 9365,20837 L 9365,20687"/>
 <path fill="none" stroke="rgb(179,179,179)" stroke-linejoin="round" d="M 12238,20837 L 12238,20687"/>
 <path fill="none" stroke="rgb(179,179,179)" stroke-linejoin="round" d="M 12238,20837 L 12238,20687"/>
 <path fill="none" stroke="rgb(179,179,179)" stroke-linejoin="round" d="M 15109,20837 L 15109,20687"/>
 <path fill="none" stroke="rgb(179,179,179)" stroke-linejoin="round" d="M 15109,20837 L 15109,20687"/>
 <path fill="none" stroke="rgb(179,179,179)" stroke-linejoin="round" d="M 17982,20837 L 17982,20687"/>
 <path fill="none" stroke="rgb(179,179,179)" stroke-linejoin="round" d="M 17982,20837 L 17982,20687"/>
 <path fill="none" stroke="rgb(179,179,179)" stroke-linejoin="round" d="M 20854,20837 L 20854,20687"/>
 <path fill="none" stroke="rgb(179,179,179)" stroke-linejoin="round" d="M 20854,20837 L 20854,20687"/>
 <path fill="none" stroke="rgb(179,179,179)" stroke-linejoin="round" d="M 23727,20837 L 23727,20687"/>
 <path fill="none" stroke="rgb(179,179,179)" stroke-linejoin="round" d="M 23727,20837 L 23727,20687"/>
 <path fill="none" stroke="rgb(179,179,179)" stroke-linejoin="round" d="M 3621,20687 L 23727,20687"/>
 <path fill="rgb(0,0,0)" stroke="none" d="M 3621,2334 L 3621,1984 20115,1984 20115,2334 3621,2334 Z"/>
 <path fill="rgb(0,0,0)" stroke="none" d="M 3621,3033 L 3621,2683 9769,2683 9769,3033 3621,3033 Z"/>
 <path fill="rgb(153,153,153)" stroke="none" d="M 3621,3732 L 3621,3383 9365,3383 9365,3732 3621,3732 Z"/>
 <path fill="rgb(0,0,0)" stroke="none" d="M 3621,4431 L 3621,4082 9301,4082 9301,4431 3621,4431 Z"/>
 <path fill="rgb(0,0,0)" stroke="none" d="M 3621,5131 L 3621,4781 8856,4781 8856,5131 3621,5131 Z"/>
 <path fill="rgb(0,0,0)" stroke="none" d="M 3621,5830 L 3621,5480 7979,5480 7979,5830 3621,5830 Z"/>
 <path fill="rgb(0,0,0)" stroke="none" d="M 3621,6529 L 3621,6179 6362,6179 6362,6529 3621,6529 Z"/>
 <path fill="rgb(0,0,0)" stroke="none" d="M 3621,7228 L 3621,6879 5931,6879 5931,7228 3621,7228 Z"/>
 <path fill="rgb(0,0,0)" stroke="none" d="M 3621,7927 L 3621,7578 5902,7578 5902,7927 3621,7927 Z"/>
 <path fill="rgb(0,0,0)" stroke="none" d="M 3621,8627 L 3621,8277 5834,8277 5834,8627 3621,8627 Z"/>
 <path fill="rgb(0,0,0)" stroke="none" d="M 3621,9326 L 3621,8976 5757,8976 5757,9326 3621,9326 Z"/>
 <path fill="rgb(0,0,0)" stroke="none" d="M 3621,10025 L 3621,9675 5528,9675 5528,10025 3621,10025 Z"/>
 <path fill="rgb(0,0,0)" stroke="none" d="M 3621,10724 L 3621,10375 5469,10375 5469,10724 3621,10724 Z"/>
 <path fill="rgb(0,0,0)" stroke="none" d="M 3621,11422 L 3621,11073 5240,11073 5240,11422 3621,11422 Z"/>
 <path fill="rgb(0,0,0)" stroke="none" d="M 3621,12121 L 3621,11772 5085,11772 5085,12121 3621,12121 Z"/>
 <path fill="rgb(0,0,0)" stroke="none" d="M 3621,12821 L 3621,12471 4721,12471 4721,12821 3621,12821 Z"/>
 <path fill="rgb(0,0,0)" stroke="none" d="M 3621,13520 L 3621,13170 4713,13170 4713,13520 3621,13520 Z"/>
 <path fill="rgb(0,0,0)" stroke="none" d="M 3621,14219 L 3621,13869 4234,13869 4234,14219 3621,14219 Z"/>
 <path fill="rgb(0,0,0)" stroke="none" d="M 3621,14918 L 3621,14569 4148,14569 4148,14918 3621,14918 Z"/>
 <path fill="rgb(0,0,0)" stroke="none" d="M 3621,15617 L 3621,15268 4123,15268 4123,15617 3621,15617 Z"/>
 <path fill="rgb(0,0,0)" stroke="none" d="M 3621,16317 L 3621,15967 4109,15967 4109,16317 3621,16317 Z"/>
 <path fill="rgb(0,0,0)" stroke="none" d="M 3621,17016 L 3621,16666 4056,16666 4056,17016 3621,17016 Z"/>
 <path fill="rgb(0,0,0)" stroke="none" d="M 3621,17715 L 3621,17365 4032,17365 4032,17715 3621,17715 Z"/>
 <path fill="rgb(0,0,0)" stroke="none" d="M 3621,18414 L 3621,18065 4009,18065 4009,18414 3621,18414 Z"/>
 <path fill="rgb(0,0,0)" stroke="none" d="M 3621,19113 L 3621,18764 3851,18764 3851,19113 3621,19113 Z"/>
 <path fill="rgb(0,0,0)" stroke="none" d="M 3621,19813 L 3621,19463 3759,19463 3759,19813 3621,19813 Z"/>
 <path fill="rgb(0,0,0)" stroke="none" d="M 3621,20512 L 3621,20162 3674,20162 3674,20512 3621,20512 Z"/>
 <text class="TextShape"><tspan class="TextParagraph" font-family="Liberation Sans, sans-serif" font-size="353px" font-weight="400"><tspan class="TextPosition" x="1275" y="20455"><tspan fill="rgb(0,0,0)" stroke="none">Raspberry PI</tspan></tspan></tspan></text>
 <text class="TextShape"><tspan class="TextParagraph" font-family="Liberation Sans, sans-serif" font-size="353px" font-weight="400"><tspan class="TextPosition" x="1106" y="19756"><tspan fill="rgb(0,0,0)" stroke="none">Pentium M725</tspan></tspan></tspan></text>
 <text class="TextShape"><tspan class="TextParagraph" font-family="Liberation Sans, sans-serif" font-size="353px" font-weight="400"><tspan class="TextPosition" x="1656" y="19057"><tspan fill="rgb(0,0,0)" stroke="none">Pentium III</tspan></tspan></tspan></text>
 <text class="TextShape"><tspan class="TextParagraph" font-family="Liberation Sans, sans-serif" font-size="353px" font-weight="400"><tspan class="TextPosition" x="1783" y="18357"><tspan fill="rgb(0,0,0)" stroke="none">Pentium 4</tspan></tspan></tspan></text>
 <text class="TextShape"><tspan class="TextParagraph" font-family="Liberation Sans, sans-serif" font-size="353px" font-weight="400"><tspan class="TextPosition" x="979" y="17658"><tspan fill="rgb(0,0,0)" stroke="none">Raspberry PI 3</tspan></tspan></tspan></text>
 <text class="TextShape"><tspan class="TextParagraph" font-family="Liberation Sans, sans-serif" font-size="353px" font-weight="400"><tspan class="TextPosition" x="1064" y="16959"><tspan fill="rgb(0,0,0)" stroke="none">Orange Pi Win</tspan></tspan></tspan></text>
 <text class="TextShape"><tspan class="TextParagraph" font-family="Liberation Sans, sans-serif" font-size="353px" font-weight="400"><tspan class="TextPosition" x="1000" y="16260"><tspan fill="rgb(0,0,0)" stroke="none">Orange Pi PC2</tspan></tspan></tspan></text>
 <text class="TextShape"><tspan class="TextParagraph" font-family="Liberation Sans, sans-serif" font-size="353px" font-weight="400"><tspan class="TextPosition" x="1106" y="15561"><tspan fill="rgb(0,0,0)" stroke="none">Baikal T1 BFK</tspan></tspan></tspan></text>
 <text class="TextShape"><tspan class="TextParagraph" font-family="Liberation Sans, sans-serif" font-size="353px" font-weight="400"><tspan class="TextPosition" x="1551" y="14861"><tspan fill="rgb(0,0,0)" stroke="none">MBE1C-PC</tspan></tspan></tspan></text>
 <text class="TextShape"><tspan class="TextParagraph" font-family="Liberation Sans, sans-serif" font-size="353px" font-weight="400"><tspan class="TextPosition" x="1783" y="14162"><tspan fill="rgb(0,0,0)" stroke="none">Odroid X2</tspan></tspan></tspan></text>
 <text class="TextShape"><tspan class="TextParagraph" font-family="Liberation Sans, sans-serif" font-size="353px" font-weight="400"><tspan class="TextPosition" x="1529" y="13463"><tspan fill="rgb(0,0,0)" stroke="none">E2S-PC401</tspan></tspan></tspan></text>
 <text class="TextShape"><tspan class="TextParagraph" font-family="Liberation Sans, sans-serif" font-size="353px" font-weight="400"><tspan class="TextPosition" x="1466" y="12764"><tspan fill="rgb(0,0,0)" stroke="none">Atom Z8350</tspan></tspan></tspan></text>
 <text class="TextShape"><tspan class="TextParagraph" font-family="Liberation Sans, sans-serif" font-size="353px" font-weight="400"><tspan class="TextPosition" x="1762" y="12065"><tspan fill="rgb(0,0,0)" stroke="none">Odroid N2</tspan></tspan></tspan></text>
 <text class="TextShape"><tspan class="TextParagraph" font-family="Liberation Sans, sans-serif" font-size="353px" font-weight="400"><tspan class="TextPosition" x="492" y="11366"><tspan fill="rgb(0,0,0)" stroke="none">Core 2 Duo T9400</tspan></tspan></tspan></text>
 <text class="TextShape"><tspan class="TextParagraph" font-family="Liberation Sans, sans-serif" font-size="353px" font-weight="400"><tspan class="TextPosition" x="1233" y="10666"><tspan fill="rgb(0,0,0)" stroke="none">Core i3-m330</tspan></tspan></tspan></text>
 <text class="TextShape"><tspan class="TextParagraph" font-family="Liberation Sans, sans-serif" font-size="353px" font-weight="400"><tspan class="TextPosition" x="1551" y="9967"><tspan fill="rgb(0,0,0)" stroke="none">E2S-EL2S4</tspan></tspan></tspan></text>
 <text class="TextShape"><tspan class="TextParagraph" font-family="Liberation Sans, sans-serif" font-size="353px" font-weight="400"><tspan class="TextPosition" x="1614" y="9268"><tspan fill="rgb(0,0,0)" stroke="none">E8C2-1200</tspan></tspan></tspan></text>
 <text class="TextShape"><tspan class="TextParagraph" font-family="Liberation Sans, sans-serif" font-size="353px" font-weight="400"><tspan class="TextPosition" x="1551" y="8569"><tspan fill="rgb(0,0,0)" stroke="none">E8C-SWTX</tspan></tspan></tspan></text>
 <text class="TextShape"><tspan class="TextParagraph" font-family="Liberation Sans, sans-serif" font-size="353px" font-weight="400"><tspan class="TextPosition" x="1170" y="7870"><tspan fill="rgb(0,0,0)" stroke="none">AMD A6-3650</tspan></tspan></tspan></text>
 <text class="TextShape"><tspan class="TextParagraph" font-family="Liberation Sans, sans-serif" font-size="353px" font-weight="400"><tspan class="TextPosition" x="2503" y="7170"><tspan fill="rgb(0,0,0)" stroke="none">E8C2</tspan></tspan></tspan></text>
 <text class="TextShape"><tspan class="TextParagraph" font-family="Liberation Sans, sans-serif" font-size="353px" font-weight="400"><tspan class="TextPosition" x="1614" y="6471"><tspan fill="rgb(0,0,0)" stroke="none">E8C2-1550</tspan></tspan></tspan></text>
 <text class="TextShape"><tspan class="TextParagraph" font-family="Liberation Sans, sans-serif" font-size="353px" font-weight="400"><tspan class="TextPosition" x="1106" y="5772"><tspan fill="rgb(0,0,0)" stroke="none">AWS Graviton</tspan></tspan></tspan></text>
 <text class="TextShape"><tspan class="TextParagraph" font-family="Liberation Sans, sans-serif" font-size="353px" font-weight="400"><tspan class="TextPosition" x="1699" y="5073"><tspan fill="rgb(0,0,0)" stroke="none">E8C-E8C4</tspan></tspan></tspan></text>
 <text class="TextShape"><tspan class="TextParagraph" font-family="Liberation Sans, sans-serif" font-size="353px" font-weight="400"><tspan class="TextPosition" x="767" y="4374"><tspan fill="rgb(0,0,0)" stroke="none">E16C-APPROX*</tspan></tspan></tspan></text>
 <text class="TextShape"><tspan class="TextParagraph" font-family="Liberation Sans, sans-serif" font-size="353px" font-weight="400"><tspan class="TextPosition" x="1339" y="3674"><tspan fill="rgb(0,0,0)" stroke="none">Core i7-2600</tspan></tspan></tspan></text>
 <text class="TextShape"><tspan class="TextParagraph" font-family="Liberation Sans, sans-serif" font-size="353px" font-weight="400"><tspan class="TextPosition" x="767" y="2975"><tspan fill="rgb(0,0,0)" stroke="none">Core i7-4700MQ</tspan></tspan></tspan></text>
 <text class="TextShape"><tspan class="TextParagraph" font-family="Liberation Sans, sans-serif" font-size="353px" font-weight="400"><tspan class="TextPosition" x="1699" y="2276"><tspan fill="rgb(0,0,0)" stroke="none">Xeon 6128</tspan></tspan></tspan></text>
 <text class="TextShape"><tspan class="TextParagraph" font-family="Liberation Sans, sans-serif" font-size="353px" font-weight="400"><tspan class="TextPosition" x="3282" y="21255"><tspan fill="rgb(0,0,0)" stroke="none">0.00</tspan></tspan></tspan></text>
 <text class="TextShape"><tspan class="TextParagraph" font-family="Liberation Sans, sans-serif" font-size="353px" font-weight="400"><tspan class="TextPosition" x="6154" y="21255"><tspan fill="rgb(0,0,0)" stroke="none">0.50</tspan></tspan></tspan></text>
 <text class="TextShape"><tspan class="TextParagraph" font-family="Liberation Sans, sans-serif" font-size="353px" font-weight="400"><tspan class="TextPosition" x="9026" y="21255"><tspan fill="rgb(0,0,0)" stroke="none">1.00</tspan></tspan></tspan></text>
 <text class="TextShape"><tspan class="TextParagraph" font-family="Liberation Sans, sans-serif" font-size="353px" font-weight="400"><tspan class="TextPosition" x="11899" y="21255"><tspan fill="rgb(0,0,0)" stroke="none">1.50</tspan></tspan></tspan></text>
 <text class="TextShape"><tspan class="TextParagraph" font-family="Liberation Sans, sans-serif" font-size="353px" font-weight="400"><tspan class="TextPosition" x="14771" y="21255"><tspan fill="rgb(0,0,0)" stroke="none">2.00</tspan></tspan></tspan></text>
 <text class="TextShape"><tspan class="TextParagraph" font-family="Liberation Sans, sans-serif" font-size="353px" font-weight="400"><tspan class="TextPosition" x="17644" y="21255"><tspan fill="rgb(0,0,0)" stroke="none">2.50</tspan></tspan></tspan></text>
 <text class="TextShape"><tspan class="TextParagraph" font-family="Liberation Sans, sans-serif" font-size="353px" font-weight="400"><tspan class="TextPosition" x="20516" y="21255"><tspan fill="rgb(0,0,0)" stroke="none">3.00</tspan></tspan></tspan></text>
 <text class="TextShape"><tspan class="TextParagraph" font-family="Liberation Sans, sans-serif" font-size="353px" font-weight="400"><tspan class="TextPosition" x="23389" y="21255"><tspan fill="rgb(0,0,0)" stroke="none">3.50</tspan></tspan></tspan></text>
 <text class="TextShape"><tspan class="TextParagraph" font-family="Liberation Sans, sans-serif" font-size="353px" font-weight="400"><tspan class="TextPosition" x="3774" y="20455"><tspan fill="rgb(0,0,0)" stroke="none">0.01</tspan></tspan></tspan></text>
 <text class="TextShape"><tspan class="TextParagraph" font-family="Liberation Sans, sans-serif" font-size="353px" font-weight="400"><tspan class="TextPosition" x="3859" y="19756"><tspan fill="rgb(0,0,0)" stroke="none">0.02</tspan></tspan></tspan></text>
 <text class="TextShape"><tspan class="TextParagraph" font-family="Liberation Sans, sans-serif" font-size="353px" font-weight="400"><tspan class="TextPosition" x="3951" y="19057"><tspan fill="rgb(0,0,0)" stroke="none">0.04</tspan></tspan></tspan></text>
 <text class="TextShape"><tspan class="TextParagraph" font-family="Liberation Sans, sans-serif" font-size="353px" font-weight="400"><tspan class="TextPosition" x="4109" y="18357"><tspan fill="rgb(0,0,0)" stroke="none">0.07</tspan></tspan></tspan></text>
 <text class="TextShape"><tspan class="TextParagraph" font-family="Liberation Sans, sans-serif" font-size="353px" font-weight="400"><tspan class="TextPosition" x="4132" y="17658"><tspan fill="rgb(0,0,0)" stroke="none">0.07</tspan></tspan></tspan></text>
 <text class="TextShape"><tspan class="TextParagraph" font-family="Liberation Sans, sans-serif" font-size="353px" font-weight="400"><tspan class="TextPosition" x="4156" y="16959"><tspan fill="rgb(0,0,0)" stroke="none">0.08</tspan></tspan></tspan></text>
 <text class="TextShape"><tspan class="TextParagraph" font-family="Liberation Sans, sans-serif" font-size="353px" font-weight="400"><tspan class="TextPosition" x="4209" y="16260"><tspan fill="rgb(0,0,0)" stroke="none">0.09</tspan></tspan></tspan></text>
 <text class="TextShape"><tspan class="TextParagraph" font-family="Liberation Sans, sans-serif" font-size="353px" font-weight="400"><tspan class="TextPosition" x="4223" y="15561"><tspan fill="rgb(0,0,0)" stroke="none">0.09</tspan></tspan></tspan></text>
 <text class="TextShape"><tspan class="TextParagraph" font-family="Liberation Sans, sans-serif" font-size="353px" font-weight="400"><tspan class="TextPosition" x="4248" y="14861"><tspan fill="rgb(0,0,0)" stroke="none">0.09</tspan></tspan></tspan></text>
 <text class="TextShape"><tspan class="TextParagraph" font-family="Liberation Sans, sans-serif" font-size="353px" font-weight="400"><tspan class="TextPosition" x="4334" y="14162"><tspan fill="rgb(0,0,0)" stroke="none">0.11</tspan></tspan></tspan></text>
 <text class="TextShape"><tspan class="TextParagraph" font-family="Liberation Sans, sans-serif" font-size="353px" font-weight="400"><tspan class="TextPosition" x="4813" y="13463"><tspan fill="rgb(0,0,0)" stroke="none">0.19</tspan></tspan></tspan></text>
 <text class="TextShape"><tspan class="TextParagraph" font-family="Liberation Sans, sans-serif" font-size="353px" font-weight="400"><tspan class="TextPosition" x="4821" y="12764"><tspan fill="rgb(0,0,0)" stroke="none">0.19</tspan></tspan></tspan></text>
 <text class="TextShape"><tspan class="TextParagraph" font-family="Liberation Sans, sans-serif" font-size="353px" font-weight="400"><tspan class="TextPosition" x="5185" y="12065"><tspan fill="rgb(0,0,0)" stroke="none">0.25</tspan></tspan></tspan></text>
 <text class="TextShape"><tspan class="TextParagraph" font-family="Liberation Sans, sans-serif" font-size="353px" font-weight="400"><tspan class="TextPosition" x="5340" y="11366"><tspan fill="rgb(0,0,0)" stroke="none">0.28</tspan></tspan></tspan></text>
 <text class="TextShape"><tspan class="TextParagraph" font-family="Liberation Sans, sans-serif" font-size="353px" font-weight="400"><tspan class="TextPosition" x="5569" y="10666"><tspan fill="rgb(0,0,0)" stroke="none">0.32</tspan></tspan></tspan></text>
 <text class="TextShape"><tspan class="TextParagraph" font-family="Liberation Sans, sans-serif" font-size="353px" font-weight="400"><tspan class="TextPosition" x="5628" y="9967"><tspan fill="rgb(0,0,0)" stroke="none">0.33</tspan></tspan></tspan></text>
 <text class="TextShape"><tspan class="TextParagraph" font-family="Liberation Sans, sans-serif" font-size="353px" font-weight="400"><tspan class="TextPosition" x="5857" y="9268"><tspan fill="rgb(0,0,0)" stroke="none">0.37</tspan></tspan></tspan></text>
 <text class="TextShape"><tspan class="TextParagraph" font-family="Liberation Sans, sans-serif" font-size="353px" font-weight="400"><tspan class="TextPosition" x="5934" y="8569"><tspan fill="rgb(0,0,0)" stroke="none">0.39</tspan></tspan></tspan></text>
 <text class="TextShape"><tspan class="TextParagraph" font-family="Liberation Sans, sans-serif" font-size="353px" font-weight="400"><tspan class="TextPosition" x="6002" y="7870"><tspan fill="rgb(0,0,0)" stroke="none">0.40</tspan></tspan></tspan></text>
 <text class="TextShape"><tspan class="TextParagraph" font-family="Liberation Sans, sans-serif" font-size="353px" font-weight="400"><tspan class="TextPosition" x="6031" y="7170"><tspan fill="rgb(0,0,0)" stroke="none">0.40</tspan></tspan></tspan></text>
 <text class="TextShape"><tspan class="TextParagraph" font-family="Liberation Sans, sans-serif" font-size="353px" font-weight="400"><tspan class="TextPosition" x="6462" y="6471"><tspan fill="rgb(0,0,0)" stroke="none">0.48</tspan></tspan></tspan></text>
 <text class="TextShape"><tspan class="TextParagraph" font-family="Liberation Sans, sans-serif" font-size="353px" font-weight="400"><tspan class="TextPosition" x="8079" y="5772"><tspan fill="rgb(0,0,0)" stroke="none">0.76</tspan></tspan></tspan></text>
 <text class="TextShape"><tspan class="TextParagraph" font-family="Liberation Sans, sans-serif" font-size="353px" font-weight="400"><tspan class="TextPosition" x="8956" y="5073"><tspan fill="rgb(0,0,0)" stroke="none">0.91</tspan></tspan></tspan></text>
 <text class="TextShape"><tspan class="TextParagraph" font-family="Liberation Sans, sans-serif" font-size="353px" font-weight="400"><tspan class="TextPosition" x="9401" y="4374"><tspan fill="rgb(0,0,0)" stroke="none">0.99</tspan></tspan></tspan></text>
 <text class="TextShape"><tspan class="TextParagraph" font-family="Liberation Sans, sans-serif" font-size="353px" font-weight="400"><tspan class="TextPosition" x="9465" y="3674"><tspan fill="rgb(0,0,0)" stroke="none">1.00</tspan></tspan></tspan></text>
 <text class="TextShape"><tspan class="TextParagraph" font-family="Liberation Sans, sans-serif" font-size="353px" font-weight="400"><tspan class="TextPosition" x="9869" y="2975"><tspan fill="rgb(0,0,0)" stroke="none">1.07</tspan></tspan></tspan></text>
 <text class="TextShape"><tspan class="TextParagraph" font-family="Liberation Sans, sans-serif" font-size="353px" font-weight="400"><tspan class="TextPosition" x="20215" y="2276"><tspan fill="rgb(0,0,0)" stroke="none">2.87</tspan></tspan></tspan></text>
 <text class="TextShape"><tspan class="TextParagraph" font-family="Liberation Sans, sans-serif" font-size="459px" font-weight="400"><tspan class="TextPosition" x="6119" y="1132"><tspan fill="rgb(0,0,0)" stroke="none">Общая производительность (Относительно Core i7-2600)</tspan></tspan></tspan></text>
</svg>