<?xml version="1.0" encoding="UTF-8"?>
<!DOCTYPE svg PUBLIC "-//W3C//DTD SVG 1.1//EN" "http://www.w3.org/Graphics/SVG/1.1/DTD/svg11.dtd">
<svg width="309mm" height="251mm" viewBox="0 0 30900 25100" version="1.1" xmlns="http://www.w3.org/2000/svg" xmlns:xlink="http://www.w3.org/1999/xlink" stroke-width="28.222" stroke-linejoin="round" xml:space="preserve">
 <path fill="rgb(68,114,196)" stroke="none" d="M 35,35 L 30874,35 30874,25075 35,25075 35,35 Z"/>
 <path fill="none" stroke="rgb(47,82,143)" stroke-width="35" d="M 18,18 L 30892,18 30892,25093 18,25093 18,18 Z"/>
 <path fill="rgb(255,255,255)" stroke="none" d="M 15455,25062 L 48,25062 48,48 30861,48 30861,25062 15455,25062 Z"/>
 <path fill="none" stroke="rgb(217,217,217)" stroke-width="26" stroke-linejoin="round" d="M 15455,25062 L 48,25062 48,48 30861,48 30861,25062 15455,25062 Z"/>
 <path fill="none" stroke="rgb(217,217,217)" stroke-width="26" stroke-linejoin="round" d="M 3219,3006 L 3219,24144"/>
 <path fill="none" stroke="rgb(217,217,217)" stroke-width="26" stroke-linejoin="round" d="M 7611,3006 L 7611,24144"/>
 <path fill="none" stroke="rgb(217,217,217)" stroke-width="26" stroke-linejoin="round" d="M 12002,3006 L 12002,24144"/>
 <path fill="none" stroke="rgb(217,217,217)" stroke-width="26" stroke-linejoin="round" d="M 16393,3006 L 16393,24144"/>
 <path fill="none" stroke="rgb(217,217,217)" stroke-width="26" stroke-linejoin="round" d="M 20785,3006 L 20785,24144"/>
 <path fill="none" stroke="rgb(217,217,217)" stroke-width="26" stroke-linejoin="round" d="M 25176,3006 L 25176,24144"/>
 <path fill="none" stroke="rgb(217,217,217)" stroke-width="26" stroke-linejoin="round" d="M 29567,3006 L 29567,24144"/>
 <path fill="none" stroke="rgb(242,242,242)" stroke-width="26" stroke-linejoin="round" d="M 5414,3006 L 5414,24144"/>
 <path fill="none" stroke="rgb(242,242,242)" stroke-width="26" stroke-linejoin="round" d="M 9806,3006 L 9806,24144"/>
 <path fill="none" stroke="rgb(242,242,242)" stroke-width="26" stroke-linejoin="round" d="M 14197,3006 L 14197,24144"/>
 <path fill="none" stroke="rgb(242,242,242)" stroke-width="26" stroke-linejoin="round" d="M 18588,3006 L 18588,24144"/>
 <path fill="none" stroke="rgb(242,242,242)" stroke-width="26" stroke-linejoin="round" d="M 22980,3006 L 22980,24144"/>
 <path fill="none" stroke="rgb(242,242,242)" stroke-width="26" stroke-linejoin="round" d="M 27371,3006 L 27371,24144"/>
 <path fill="none" stroke="rgb(217,217,217)" stroke-width="26" stroke-linejoin="round" d="M 3219,24144 L 3219,3006"/>
 <path fill="rgb(99,99,99)" stroke="none" d="M 3219,4406 L 3219,4239 13878,4239 13878,4406 3219,4406 Z"/>
 <path fill="rgb(99,99,99)" stroke="none" d="M 3219,6033 L 3219,5865 12315,5865 12315,6033 3219,6033 Z"/>
 <path fill="rgb(99,99,99)" stroke="none" d="M 3219,7658 L 3219,7490 11124,7490 11124,7658 3219,7658 Z"/>
 <path fill="rgb(99,99,99)" stroke="none" d="M 3219,9284 L 3219,9117 7838,9117 7838,9284 3219,9284 Z"/>
 <path fill="rgb(99,99,99)" stroke="none" d="M 3219,10911 L 3219,10743 7735,10743 7735,10911 3219,10911 Z"/>
 <path fill="rgb(99,99,99)" stroke="none" d="M 3219,12536 L 3219,12368 7622,12368 7622,12536 3219,12536 Z"/>
 <path fill="rgb(99,99,99)" stroke="none" d="M 3219,14162 L 3219,13995 5464,13995 5464,14162 3219,14162 Z"/>
 <path fill="rgb(99,99,99)" stroke="none" d="M 3219,15789 L 3219,15621 5455,15621 5455,15789 3219,15789 Z"/>
 <path fill="rgb(99,99,99)" stroke="none" d="M 3219,17414 L 3219,17246 5293,17246 5293,17414 3219,17414 Z"/>
 <path fill="rgb(99,99,99)" stroke="none" d="M 3219,19040 L 3219,18872 5281,18872 5281,19040 3219,19040 Z"/>
 <path fill="rgb(99,99,99)" stroke="none" d="M 3219,20666 L 3219,20498 4884,20498 4884,20666 3219,20666 Z"/>
 <path fill="rgb(99,99,99)" stroke="none" d="M 3219,22292 L 3219,22124 4061,22124 4061,22292 3219,22292 Z"/>
 <path fill="rgb(99,99,99)" stroke="none" d="M 3219,23918 L 3219,23750 3962,23750 3962,23918 3219,23918 Z"/>
 <path fill="rgb(180,180,180)" stroke="none" d="M 3219,4206 L 3219,4038 12051,4038 12051,4206 3219,4206 Z"/>
 <path fill="rgb(180,180,180)" stroke="none" d="M 3219,5831 L 3219,5663 10654,5663 10654,5831 3219,5831 Z"/>
 <path fill="rgb(180,180,180)" stroke="none" d="M 3219,7457 L 3219,7289 9885,7289 9885,7457 3219,7457 Z"/>
 <path fill="rgb(180,180,180)" stroke="none" d="M 3219,9083 L 3219,8916 6383,8916 6383,9083 3219,9083 Z"/>
 <path fill="rgb(180,180,180)" stroke="none" d="M 3219,10709 L 3219,10541 6625,10541 6625,10709 3219,10709 Z"/>
 <path fill="rgb(180,180,180)" stroke="none" d="M 3219,12335 L 3219,12167 6553,12167 6553,12335 3219,12335 Z"/>
 <path fill="rgb(180,180,180)" stroke="none" d="M 3219,13961 L 3219,13793 4253,13793 4253,13961 3219,13961 Z"/>
 <path fill="rgb(180,180,180)" stroke="none" d="M 3219,15587 L 3219,15419 4394,15419 4394,15587 3219,15587 Z"/>
 <path fill="rgb(180,180,180)" stroke="none" d="M 3219,17213 L 3219,17045 4390,17045 4390,17213 3219,17213 Z"/>
 <path fill="rgb(180,180,180)" stroke="none" d="M 3219,18838 L 3219,18671 4153,18671 4153,18838 3219,18838 Z"/>
 <path fill="rgb(180,180,180)" stroke="none" d="M 3219,20465 L 3219,20297 3987,20297 3987,20465 3219,20465 Z"/>
 <path fill="rgb(180,180,180)" stroke="none" d="M 3219,22090 L 3219,21922 3866,21922 3866,22090 3219,22090 Z"/>
 <path fill="rgb(180,180,180)" stroke="none" d="M 3219,23716 L 3219,23549 3880,23549 3880,23716 3219,23716 Z"/>
 <path fill="rgb(139,139,139)" stroke="none" d="M 3219,4004 L 3219,3836 10088,3836 10088,4004 3219,4004 Z"/>
 <path fill="rgb(139,139,139)" stroke="none" d="M 3219,5630 L 3219,5462 10243,5462 10243,5630 3219,5630 Z"/>
 <path fill="rgb(139,139,139)" stroke="none" d="M 3219,7256 L 3219,7088 10404,7088 10404,7256 3219,7256 Z"/>
 <path fill="rgb(139,139,139)" stroke="none" d="M 3219,8882 L 3219,8714 8493,8714 8493,8882 3219,8882 Z"/>
 <path fill="rgb(139,139,139)" stroke="none" d="M 3219,10508 L 3219,10340 7566,10340 7566,10508 3219,10508 Z"/>
 <path fill="rgb(139,139,139)" stroke="none" d="M 3219,12133 L 3219,11966 7466,11966 7466,12133 3219,12133 Z"/>
 <path fill="rgb(139,139,139)" stroke="none" d="M 3219,13760 L 3219,13592 5335,13592 5335,13760 3219,13760 Z"/>
 <path fill="rgb(139,139,139)" stroke="none" d="M 3219,15385 L 3219,15217 6377,15217 6377,15385 3219,15385 Z"/>
 <path fill="rgb(139,139,139)" stroke="none" d="M 3219,17011 L 3219,16844 5422,16844 5422,17011 3219,17011 Z"/>
 <path fill="rgb(139,139,139)" stroke="none" d="M 3219,18638 L 3219,18470 5178,18470 5178,18638 3219,18638 Z"/>
 <path fill="rgb(139,139,139)" stroke="none" d="M 3219,20263 L 3219,20095 4819,20095 4819,20263 3219,20263 Z"/>
 <path fill="rgb(139,139,139)" stroke="none" d="M 3219,21889 L 3219,21721 4462,21721 4462,21889 3219,21889 Z"/>
 <path fill="rgb(139,139,139)" stroke="none" d="M 3219,23515 L 3219,23347 4434,23347 4434,23515 3219,23515 Z"/>
 <path fill="rgb(41,41,41)" stroke="none" d="M 3219,3803 L 3219,3635 6526,3635 6526,3803 3219,3803 Z"/>
 <path fill="rgb(41,41,41)" stroke="none" d="M 3219,5428 L 3219,5261 5714,5261 5714,5428 3219,5428 Z"/>
 <path fill="rgb(41,41,41)" stroke="none" d="M 3219,7055 L 3219,6887 5481,6887 5481,7055 3219,7055 Z"/>
 <path fill="rgb(41,41,41)" stroke="none" d="M 3219,8680 L 3219,8512 4568,8512 4568,8680 3219,8680 Z"/>
 <path fill="rgb(41,41,41)" stroke="none" d="M 3219,10306 L 3219,10139 4734,10139 4734,10306 3219,10306 Z"/>
 <path fill="rgb(41,41,41)" stroke="none" d="M 3219,11933 L 3219,11765 4496,11765 4496,11933 3219,11933 Z"/>
 <path fill="rgb(41,41,41)" stroke="none" d="M 3219,13558 L 3219,13390 3800,13390 3800,13558 3219,13558 Z"/>
 <path fill="rgb(41,41,41)" stroke="none" d="M 3219,15184 L 3219,15016 4001,15016 4001,15184 3219,15184 Z"/>
 <path fill="rgb(41,41,41)" stroke="none" d="M 3219,16810 L 3219,16642 3592,16642 3592,16810 3219,16810 Z"/>
 <path fill="rgb(41,41,41)" stroke="none" d="M 3219,18436 L 3219,18268 3738,18268 3738,18436 3219,18436 Z"/>
 <path fill="rgb(41,41,41)" stroke="none" d="M 3219,20062 L 3219,19894 3645,19894 3645,20062 3219,20062 Z"/>
 <path fill="rgb(41,41,41)" stroke="none" d="M 3219,21688 L 3219,21520 3500,21520 3500,21688 3219,21688 Z"/>
 <path fill="rgb(41,41,41)" stroke="none" d="M 3219,23314 L 3219,23146 3556,23146 3556,23314 3219,23314 Z"/>
 <path fill="rgb(218,218,218)" stroke="none" d="M 3219,3601 L 3219,3433 15859,3433 15859,3601 3219,3601 Z"/>
 <path fill="rgb(218,218,218)" stroke="none" d="M 3219,5228 L 3219,5060 12653,5060 12653,5228 3219,5228 Z"/>
 <path fill="rgb(218,218,218)" stroke="none" d="M 3219,6853 L 3219,6685 11921,6685 11921,6853 3219,6853 Z"/>
 <path fill="rgb(218,218,218)" stroke="none" d="M 3219,8479 L 3219,8311 8136,8311 8136,8479 3219,8479 Z"/>
 <path fill="rgb(218,218,218)" stroke="none" d="M 3219,10105 L 3219,9937 8806,9937 8806,10105 3219,10105 Z"/>
 <path fill="rgb(218,218,218)" stroke="none" d="M 3219,11731 L 3219,11563 7319,11563 7319,11731 3219,11731 Z"/>
 <path fill="rgb(218,218,218)" stroke="none" d="M 3219,13357 L 3219,13189 4037,13189 4037,13357 3219,13357 Z"/>
 <path fill="rgb(218,218,218)" stroke="none" d="M 3219,14982 L 3219,14815 5402,14815 5402,14982 3219,14982 Z"/>
 <path fill="rgb(218,218,218)" stroke="none" d="M 3219,16609 L 3219,16441 4557,16441 4557,16609 3219,16609 Z"/>
 <path fill="rgb(218,218,218)" stroke="none" d="M 3219,18234 L 3219,18067 3950,18067 3950,18234 3219,18234 Z"/>
 <path fill="rgb(218,218,218)" stroke="none" d="M 3219,19860 L 3219,19693 3803,19693 3803,19860 3219,19860 Z"/>
 <path fill="rgb(218,218,218)" stroke="none" d="M 3219,21487 L 3219,21319 4034,21319 4034,21487 3219,21487 Z"/>
 <path fill="rgb(218,218,218)" stroke="none" d="M 3219,23112 L 3219,22944 3952,22944 3952,23112 3219,23112 Z"/>
 <path fill="rgb(171,171,171)" stroke="none" d="M 3219,3400 L 3219,3232 24869,3232 24869,3400 3219,3400 Z"/>
 <path fill="rgb(171,171,171)" stroke="none" d="M 3219,5026 L 3219,4858 22307,4858 22307,5026 3219,5026 Z"/>
 <path fill="rgb(171,171,171)" stroke="none" d="M 3219,6652 L 3219,6484 17924,6484 17924,6652 3219,6652 Z"/>
 <path fill="rgb(171,171,171)" stroke="none" d="M 3219,8277 L 3219,8110 11610,8110 11610,8277 3219,8277 Z"/>
 <path fill="rgb(171,171,171)" stroke="none" d="M 3219,9904 L 3219,9736 10945,9736 10945,9904 3219,9904 Z"/>
 <path fill="rgb(171,171,171)" stroke="none" d="M 3219,11529 L 3219,11361 12274,11361 12274,11529 3219,11529 Z"/>
 <path fill="rgb(171,171,171)" stroke="none" d="M 3219,13155 L 3219,12988 9899,12988 9899,13155 3219,13155 Z"/>
 <path fill="rgb(171,171,171)" stroke="none" d="M 3219,14782 L 3219,14614 7106,14614 7106,14782 3219,14782 Z"/>
 <path fill="rgb(171,171,171)" stroke="none" d="M 3219,16407 L 3219,16239 8501,16239 8501,16407 3219,16407 Z"/>
 <path fill="rgb(171,171,171)" stroke="none" d="M 3219,18033 L 3219,17865 9384,17865 9384,18033 3219,18033 Z"/>
 <path fill="rgb(171,171,171)" stroke="none" d="M 3219,19660 L 3219,19492 8168,19492 8168,19660 3219,19660 Z"/>
 <path fill="rgb(171,171,171)" stroke="none" d="M 3219,21285 L 3219,21117 4439,21117 4439,21285 3219,21285 Z"/>
 <path fill="rgb(171,171,171)" stroke="none" d="M 3219,22911 L 3219,22743 3988,22743 3988,22911 3219,22911 Z"/>
 <text class="TextShape"><tspan class="TextParagraph" font-family="Calibri, sans-serif" font-size="318px" font-weight="400"><tspan class="TextPosition" x="1172" y="23405"><tspan fill="rgb(89,89,89)" stroke="none">Orange Pi Win</tspan></tspan></tspan></text>
 <text class="TextShape"><tspan class="TextParagraph" font-family="Calibri, sans-serif" font-size="318px" font-weight="400"><tspan class="TextPosition" x="1172" y="21779"><tspan fill="rgb(89,89,89)" stroke="none">Orange Pi PC2</tspan></tspan></tspan></text>
 <text class="TextShape"><tspan class="TextParagraph" font-family="Calibri, sans-serif" font-size="318px" font-weight="400"><tspan class="TextPosition" x="1595" y="20153"><tspan fill="rgb(89,89,89)" stroke="none">MBE1C-PC</tspan></tspan></tspan></text>
 <text class="TextShape"><tspan class="TextParagraph" font-family="Calibri, sans-serif" font-size="318px" font-weight="400"><tspan class="TextPosition" x="1532" y="18527"><tspan fill="rgb(89,89,89)" stroke="none">E8C2-1200</tspan></tspan></tspan></text>
 <text class="TextShape"><tspan class="TextParagraph" font-family="Calibri, sans-serif" font-size="318px" font-weight="400"><tspan class="TextPosition" x="1532" y="16901"><tspan fill="rgb(89,89,89)" stroke="none">E8C2-1550</tspan></tspan></tspan></text>
 <text class="TextShape"><tspan class="TextParagraph" font-family="Calibri, sans-serif" font-size="318px" font-weight="400"><tspan class="TextPosition" x="1362" y="15276"><tspan fill="rgb(89,89,89)" stroke="none">Atom Z8350</tspan></tspan></tspan></text>
 <text class="TextShape"><tspan class="TextParagraph" font-family="Calibri, sans-serif" font-size="318px" font-weight="400"><tspan class="TextPosition" x="1637" y="13649"><tspan fill="rgb(89,89,89)" stroke="none">E8C-SWTX</tspan></tspan></tspan></text>
 <text class="TextShape"><tspan class="TextParagraph" font-family="Calibri, sans-serif" font-size="318px" font-weight="400"><tspan class="TextPosition" x="1214" y="12023"><tspan fill="rgb(89,89,89)" stroke="none">Core i3-m330</tspan></tspan></tspan></text>
 <text class="TextShape"><tspan class="TextParagraph" font-family="Calibri, sans-serif" font-size="318px" font-weight="400"><tspan class="TextPosition" x="1108" y="10398"><tspan fill="rgb(89,89,89)" stroke="none">AMD A6-3650</tspan></tspan></tspan></text>
 <text class="TextShape"><tspan class="TextParagraph" font-family="Calibri, sans-serif" font-size="318px" font-weight="400"><tspan class="TextPosition" x="664" y="8771"><tspan fill="rgb(89,89,89)" stroke="none">Core 2 Duo T9400</tspan></tspan></tspan></text>
 <text class="TextShape"><tspan class="TextParagraph" font-family="Calibri, sans-serif" font-size="318px" font-weight="400"><tspan class="TextPosition" x="1299" y="7146"><tspan fill="rgb(89,89,89)" stroke="none">Core i7-2600</tspan></tspan></tspan></text>
 <text class="TextShape"><tspan class="TextParagraph" font-family="Calibri, sans-serif" font-size="318px" font-weight="400"><tspan class="TextPosition" x="812" y="5520"><tspan fill="rgb(89,89,89)" stroke="none">Core i7-4700MQ</tspan></tspan></tspan></text>
 <text class="TextShape"><tspan class="TextParagraph" font-family="Calibri, sans-serif" font-size="318px" font-weight="400"><tspan class="TextPosition" x="1574" y="3893"><tspan fill="rgb(89,89,89)" stroke="none">Xeon 6128</tspan></tspan></tspan></text>
 <text class="TextShape"><tspan class="TextParagraph" font-family="Calibri, sans-serif" font-size="318px" font-weight="400"><tspan class="TextPosition" x="2881" y="24477"><tspan fill="rgb(89,89,89)" stroke="none">.000.</tspan></tspan></tspan></text>
 <text class="TextShape"><tspan class="TextParagraph" font-family="Calibri, sans-serif" font-size="318px" font-weight="400"><tspan class="TextPosition" x="6934" y="24477"><tspan fill="rgb(89,89,89)" stroke="none">1000.000.</tspan></tspan></tspan></text>
 <text class="TextShape"><tspan class="TextParagraph" font-family="Calibri, sans-serif" font-size="318px" font-weight="400"><tspan class="TextPosition" x="11325" y="24477"><tspan fill="rgb(89,89,89)" stroke="none">2000.000.</tspan></tspan></tspan></text>
 <text class="TextShape"><tspan class="TextParagraph" font-family="Calibri, sans-serif" font-size="318px" font-weight="400"><tspan class="TextPosition" x="15716" y="24477"><tspan fill="rgb(89,89,89)" stroke="none">3000.000.</tspan></tspan></tspan></text>
 <text class="TextShape"><tspan class="TextParagraph" font-family="Calibri, sans-serif" font-size="318px" font-weight="400"><tspan class="TextPosition" x="20108" y="24477"><tspan fill="rgb(89,89,89)" stroke="none">4000.000.</tspan></tspan></tspan></text>
 <text class="TextShape"><tspan class="TextParagraph" font-family="Calibri, sans-serif" font-size="318px" font-weight="400"><tspan class="TextPosition" x="24499" y="24477"><tspan fill="rgb(89,89,89)" stroke="none">5000.000.</tspan></tspan></tspan></text>
 <text class="TextShape"><tspan class="TextParagraph" font-family="Calibri, sans-serif" font-size="318px" font-weight="400"><tspan class="TextPosition" x="28890" y="24477"><tspan fill="rgb(89,89,89)" stroke="none">6000.000.</tspan></tspan></tspan></text>
 <text class="TextShape"><tspan class="TextParagraph" font-family="Calibri, sans-serif" font-size="318px" font-weight="400"><tspan class="TextPosition" x="4062" y="23909"><tspan fill="rgb(64,64,64)" stroke="none">169.22</tspan></tspan></tspan></text>
 <text class="TextShape"><tspan class="TextParagraph" font-family="Calibri, sans-serif" font-size="318px" font-weight="400"><tspan class="TextPosition" x="4161" y="22282"><tspan fill="rgb(64,64,64)" stroke="none">191.59</tspan></tspan></tspan></text>
 <text class="TextShape"><tspan class="TextParagraph" font-family="Calibri, sans-serif" font-size="318px" font-weight="400"><tspan class="TextPosition" x="4984" y="20656"><tspan fill="rgb(64,64,64)" stroke="none">379.23</tspan></tspan></tspan></text>
 <text class="TextShape"><tspan class="TextParagraph" font-family="Calibri, sans-serif" font-size="318px" font-weight="400"><tspan class="TextPosition" x="5380" y="19031"><tspan fill="rgb(64,64,64)" stroke="none">469.46</tspan></tspan></tspan></text>
 <text class="TextShape"><tspan class="TextParagraph" font-family="Calibri, sans-serif" font-size="318px" font-weight="400"><tspan class="TextPosition" x="5392" y="17404"><tspan fill="rgb(64,64,64)" stroke="none">472.24</tspan></tspan></tspan></text>
 <text class="TextShape"><tspan class="TextParagraph" font-family="Calibri, sans-serif" font-size="318px" font-weight="400"><tspan class="TextPosition" x="5555" y="15779"><tspan fill="rgb(64,64,64)" stroke="none">509.44</tspan></tspan></tspan></text>
 <text class="TextShape"><tspan class="TextParagraph" font-family="Calibri, sans-serif" font-size="318px" font-weight="400"><tspan class="TextPosition" x="5564" y="14153"><tspan fill="rgb(64,64,64)" stroke="none">511.43</tspan></tspan></tspan></text>
 <text class="TextShape"><tspan class="TextParagraph" font-family="Calibri, sans-serif" font-size="318px" font-weight="400"><tspan class="TextPosition" x="7722" y="12527"><tspan fill="rgb(64,64,64)" stroke="none">1,002.61</tspan></tspan></tspan></text>
 <text class="TextShape"><tspan class="TextParagraph" font-family="Calibri, sans-serif" font-size="318px" font-weight="400"><tspan class="TextPosition" x="7834" y="10901"><tspan fill="rgb(64,64,64)" stroke="none">1,028.44</tspan></tspan></tspan></text>
 <text class="TextShape"><tspan class="TextParagraph" font-family="Calibri, sans-serif" font-size="318px" font-weight="400"><tspan class="TextPosition" x="7938" y="9275"><tspan fill="rgb(64,64,64)" stroke="none">1,051.93</tspan></tspan></tspan></text>
 <text class="TextShape"><tspan class="TextParagraph" font-family="Calibri, sans-serif" font-size="318px" font-weight="400"><tspan class="TextPosition" x="11224" y="7649"><tspan fill="rgb(64,64,64)" stroke="none">1,800.00</tspan></tspan></tspan></text>
 <text class="TextShape"><tspan class="TextParagraph" font-family="Calibri, sans-serif" font-size="318px" font-weight="400"><tspan class="TextPosition" x="12415" y="6023"><tspan fill="rgb(64,64,64)" stroke="none">2,071.26</tspan></tspan></tspan></text>
 <text class="TextShape"><tspan class="TextParagraph" font-family="Calibri, sans-serif" font-size="318px" font-weight="400"><tspan class="TextPosition" x="13978" y="4397"><tspan fill="rgb(64,64,64)" stroke="none">2,427.42</tspan></tspan></tspan></text>
 <text class="TextShape"><tspan class="TextParagraph" font-family="Calibri, sans-serif" font-size="318px" font-weight="400"><tspan class="TextPosition" x="3980" y="23707"><tspan fill="rgb(64,64,64)" stroke="none">150.49</tspan></tspan></tspan></text>
 <text class="TextShape"><tspan class="TextParagraph" font-family="Calibri, sans-serif" font-size="318px" font-weight="400"><tspan class="TextPosition" x="3966" y="22081"><tspan fill="rgb(64,64,64)" stroke="none">147.36</tspan></tspan></tspan></text>
 <text class="TextShape"><tspan class="TextParagraph" font-family="Calibri, sans-serif" font-size="318px" font-weight="400"><tspan class="TextPosition" x="4087" y="20455"><tspan fill="rgb(64,64,64)" stroke="none">174.82</tspan></tspan></tspan></text>
 <text class="TextShape"><tspan class="TextParagraph" font-family="Calibri, sans-serif" font-size="318px" font-weight="400"><tspan class="TextPosition" x="4252" y="18829"><tspan fill="rgb(64,64,64)" stroke="none">212.71</tspan></tspan></tspan></text>
 <text class="TextShape"><tspan class="TextParagraph" font-family="Calibri, sans-serif" font-size="318px" font-weight="400"><tspan class="TextPosition" x="4490" y="17204"><tspan fill="rgb(64,64,64)" stroke="none">266.7</tspan></tspan></tspan></text>
 <text class="TextShape"><tspan class="TextParagraph" font-family="Calibri, sans-serif" font-size="318px" font-weight="400"><tspan class="TextPosition" x="4494" y="15577"><tspan fill="rgb(64,64,64)" stroke="none">267.60</tspan></tspan></tspan></text>
 <text class="TextShape"><tspan class="TextParagraph" font-family="Calibri, sans-serif" font-size="318px" font-weight="400"><tspan class="TextPosition" x="4353" y="13951"><tspan fill="rgb(64,64,64)" stroke="none">235.71</tspan></tspan></tspan></text>
 <text class="TextShape"><tspan class="TextParagraph" font-family="Calibri, sans-serif" font-size="318px" font-weight="400"><tspan class="TextPosition" x="6652" y="12326"><tspan fill="rgb(64,64,64)" stroke="none">759.27</tspan></tspan></tspan></text>
 <text class="TextShape"><tspan class="TextParagraph" font-family="Calibri, sans-serif" font-size="318px" font-weight="400"><tspan class="TextPosition" x="6725" y="10699"><tspan fill="rgb(64,64,64)" stroke="none">775.83</tspan></tspan></tspan></text>
 <text class="TextShape"><tspan class="TextParagraph" font-family="Calibri, sans-serif" font-size="318px" font-weight="400"><tspan class="TextPosition" x="6483" y="9073"><tspan fill="rgb(64,64,64)" stroke="none">720.56</tspan></tspan></tspan></text>
 <text class="TextShape"><tspan class="TextParagraph" font-family="Calibri, sans-serif" font-size="318px" font-weight="400"><tspan class="TextPosition" x="9985" y="7448"><tspan fill="rgb(64,64,64)" stroke="none">1,517.97</tspan></tspan></tspan></text>
 <text class="TextShape"><tspan class="TextParagraph" font-family="Calibri, sans-serif" font-size="318px" font-weight="400"><tspan class="TextPosition" x="10754" y="5821"><tspan fill="rgb(64,64,64)" stroke="none">1,693.12</tspan></tspan></tspan></text>
 <text class="TextShape"><tspan class="TextParagraph" font-family="Calibri, sans-serif" font-size="318px" font-weight="400"><tspan class="TextPosition" x="12151" y="4196"><tspan fill="rgb(64,64,64)" stroke="none">2,011.19</tspan></tspan></tspan></text>
 <text class="TextShape"><tspan class="TextParagraph" font-family="Calibri, sans-serif" font-size="318px" font-weight="400"><tspan class="TextPosition" x="4534" y="23505"><tspan fill="rgb(64,64,64)" stroke="none">276.78</tspan></tspan></tspan></text>
 <text class="TextShape"><tspan class="TextParagraph" font-family="Calibri, sans-serif" font-size="318px" font-weight="400"><tspan class="TextPosition" x="4562" y="21880"><tspan fill="rgb(64,64,64)" stroke="none">283.10</tspan></tspan></tspan></text>
 <text class="TextShape"><tspan class="TextParagraph" font-family="Calibri, sans-serif" font-size="318px" font-weight="400"><tspan class="TextPosition" x="4919" y="20254"><tspan fill="rgb(64,64,64)" stroke="none">364.42</tspan></tspan></tspan></text>
 <text class="TextShape"><tspan class="TextParagraph" font-family="Calibri, sans-serif" font-size="318px" font-weight="400"><tspan class="TextPosition" x="5278" y="18628"><tspan fill="rgb(64,64,64)" stroke="none">446.05</tspan></tspan></tspan></text>
 <text class="TextShape"><tspan class="TextParagraph" font-family="Calibri, sans-serif" font-size="318px" font-weight="400"><tspan class="TextPosition" x="5522" y="17002"><tspan fill="rgb(64,64,64)" stroke="none">501.81</tspan></tspan></tspan></text>
 <text class="TextShape"><tspan class="TextParagraph" font-family="Calibri, sans-serif" font-size="318px" font-weight="400"><tspan class="TextPosition" x="6477" y="15376"><tspan fill="rgb(64,64,64)" stroke="none">719.12</tspan></tspan></tspan></text>
 <text class="TextShape"><tspan class="TextParagraph" font-family="Calibri, sans-serif" font-size="318px" font-weight="400"><tspan class="TextPosition" x="5434" y="13750"><tspan fill="rgb(64,64,64)" stroke="none">481.74</tspan></tspan></tspan></text>
 <text class="TextShape"><tspan class="TextParagraph" font-family="Calibri, sans-serif" font-size="318px" font-weight="400"><tspan class="TextPosition" x="7566" y="12124"><tspan fill="rgb(64,64,64)" stroke="none">967.15</tspan></tspan></tspan></text>
 <text class="TextShape"><tspan class="TextParagraph" font-family="Calibri, sans-serif" font-size="318px" font-weight="400"><tspan class="TextPosition" x="7666" y="10499"><tspan fill="rgb(64,64,64)" stroke="none">989.81</tspan></tspan></tspan></text>
 <text class="TextShape"><tspan class="TextParagraph" font-family="Calibri, sans-serif" font-size="318px" font-weight="400"><tspan class="TextPosition" x="8593" y="8872"><tspan fill="rgb(64,64,64)" stroke="none">1,201.02</tspan></tspan></tspan></text>
 <text class="TextShape"><tspan class="TextParagraph" font-family="Calibri, sans-serif" font-size="318px" font-weight="400"><tspan class="TextPosition" x="10504" y="7246"><tspan fill="rgb(64,64,64)" stroke="none">1,636.33</tspan></tspan></tspan></text>
 <text class="TextShape"><tspan class="TextParagraph" font-family="Calibri, sans-serif" font-size="318px" font-weight="400"><tspan class="TextPosition" x="10343" y="5621"><tspan fill="rgb(64,64,64)" stroke="none">1,599.69</tspan></tspan></tspan></text>
 <text class="TextShape"><tspan class="TextParagraph" font-family="Calibri, sans-serif" font-size="318px" font-weight="400"><tspan class="TextPosition" x="10187" y="3994"><tspan fill="rgb(64,64,64)" stroke="none">1,564.17</tspan></tspan></tspan></text>
 <text class="TextShape"><tspan class="TextParagraph" font-family="Calibri, sans-serif" font-size="318px" font-weight="400"><tspan class="TextPosition" x="3656" y="23304"><tspan fill="rgb(64,64,64)" stroke="none">76.72</tspan></tspan></tspan></text>
 <text class="TextShape"><tspan class="TextParagraph" font-family="Calibri, sans-serif" font-size="318px" font-weight="400"><tspan class="TextPosition" x="3600" y="21678"><tspan fill="rgb(64,64,64)" stroke="none">64.07</tspan></tspan></tspan></text>
 <text class="TextShape"><tspan class="TextParagraph" font-family="Calibri, sans-serif" font-size="318px" font-weight="400"><tspan class="TextPosition" x="3745" y="20053"><tspan fill="rgb(64,64,64)" stroke="none">97.02</tspan></tspan></tspan></text>
 <text class="TextShape"><tspan class="TextParagraph" font-family="Calibri, sans-serif" font-size="318px" font-weight="400"><tspan class="TextPosition" x="3838" y="18426"><tspan fill="rgb(64,64,64)" stroke="none">118.25</tspan></tspan></tspan></text>
 <text class="TextShape"><tspan class="TextParagraph" font-family="Calibri, sans-serif" font-size="318px" font-weight="400"><tspan class="TextPosition" x="3692" y="16800"><tspan fill="rgb(64,64,64)" stroke="none">84.95</tspan></tspan></tspan></text>
 <text class="TextShape"><tspan class="TextParagraph" font-family="Calibri, sans-serif" font-size="318px" font-weight="400"><tspan class="TextPosition" x="4101" y="15175"><tspan fill="rgb(64,64,64)" stroke="none">178.04</tspan></tspan></tspan></text>
 <text class="TextShape"><tspan class="TextParagraph" font-family="Calibri, sans-serif" font-size="318px" font-weight="400"><tspan class="TextPosition" x="3900" y="13548"><tspan fill="rgb(64,64,64)" stroke="none">132.23</tspan></tspan></tspan></text>
 <text class="TextShape"><tspan class="TextParagraph" font-family="Calibri, sans-serif" font-size="318px" font-weight="400"><tspan class="TextPosition" x="4596" y="11923"><tspan fill="rgb(64,64,64)" stroke="none">290.85</tspan></tspan></tspan></text>
 <text class="TextShape"><tspan class="TextParagraph" font-family="Calibri, sans-serif" font-size="318px" font-weight="400"><tspan class="TextPosition" x="4834" y="10297"><tspan fill="rgb(64,64,64)" stroke="none">344.97</tspan></tspan></tspan></text>
 <text class="TextShape"><tspan class="TextParagraph" font-family="Calibri, sans-serif" font-size="318px" font-weight="400"><tspan class="TextPosition" x="4668" y="8671"><tspan fill="rgb(64,64,64)" stroke="none">307.36</tspan></tspan></tspan></text>
 <text class="TextShape"><tspan class="TextParagraph" font-family="Calibri, sans-serif" font-size="318px" font-weight="400"><tspan class="TextPosition" x="5581" y="7045"><tspan fill="rgb(64,64,64)" stroke="none">515.34</tspan></tspan></tspan></text>
 <text class="TextShape"><tspan class="TextParagraph" font-family="Calibri, sans-serif" font-size="318px" font-weight="400"><tspan class="TextPosition" x="5814" y="5419"><tspan fill="rgb(64,64,64)" stroke="none">568.17</tspan></tspan></tspan></text>
 <text class="TextShape"><tspan class="TextParagraph" font-family="Calibri, sans-serif" font-size="318px" font-weight="400"><tspan class="TextPosition" x="6625" y="3794"><tspan fill="rgb(64,64,64)" stroke="none">753.09</tspan></tspan></tspan></text>
 <text class="TextShape"><tspan class="TextParagraph" font-family="Calibri, sans-serif" font-size="318px" font-weight="400"><tspan class="TextPosition" x="4052" y="23103"><tspan fill="rgb(64,64,64)" stroke="none">166.98</tspan></tspan></tspan></text>
 <text class="TextShape"><tspan class="TextParagraph" font-family="Calibri, sans-serif" font-size="318px" font-weight="400"><tspan class="TextPosition" x="4134" y="21477"><tspan fill="rgb(64,64,64)" stroke="none">185.46</tspan></tspan></tspan></text>
 <text class="TextShape"><tspan class="TextParagraph" font-family="Calibri, sans-serif" font-size="318px" font-weight="400"><tspan class="TextPosition" x="3903" y="19851"><tspan fill="rgb(64,64,64)" stroke="none">132.92</tspan></tspan></tspan></text>
 <text class="TextShape"><tspan class="TextParagraph" font-family="Calibri, sans-serif" font-size="318px" font-weight="400"><tspan class="TextPosition" x="4050" y="18226"><tspan fill="rgb(64,64,64)" stroke="none">166.34</tspan></tspan></tspan></text>
 <text class="TextShape"><tspan class="TextParagraph" font-family="Calibri, sans-serif" font-size="318px" font-weight="400"><tspan class="TextPosition" x="4657" y="16599"><tspan fill="rgb(64,64,64)" stroke="none">304.82</tspan></tspan></tspan></text>
 <text class="TextShape"><tspan class="TextParagraph" font-family="Calibri, sans-serif" font-size="318px" font-weight="400"><tspan class="TextPosition" x="5502" y="14973"><tspan fill="rgb(64,64,64)" stroke="none">497.19</tspan></tspan></tspan></text>
 <text class="TextShape"><tspan class="TextParagraph" font-family="Calibri, sans-serif" font-size="318px" font-weight="400"><tspan class="TextPosition" x="4137" y="13348"><tspan fill="rgb(64,64,64)" stroke="none">186.18</tspan></tspan></tspan></text>
 <text class="TextShape"><tspan class="TextParagraph" font-family="Calibri, sans-serif" font-size="318px" font-weight="400"><tspan class="TextPosition" x="7419" y="11721"><tspan fill="rgb(64,64,64)" stroke="none">933.71</tspan></tspan></tspan></text>
 <text class="TextShape"><tspan class="TextParagraph" font-family="Calibri, sans-serif" font-size="318px" font-weight="400"><tspan class="TextPosition" x="8906" y="10095"><tspan fill="rgb(64,64,64)" stroke="none">1,272.17</tspan></tspan></tspan></text>
 <text class="TextShape"><tspan class="TextParagraph" font-family="Calibri, sans-serif" font-size="318px" font-weight="400"><tspan class="TextPosition" x="8236" y="8470"><tspan fill="rgb(64,64,64)" stroke="none">1,119.72</tspan></tspan></tspan></text>
 <text class="TextShape"><tspan class="TextParagraph" font-family="Calibri, sans-serif" font-size="318px" font-weight="400"><tspan class="TextPosition" x="12021" y="6843"><tspan fill="rgb(64,64,64)" stroke="none">1,981.74</tspan></tspan></tspan></text>
 <text class="TextShape"><tspan class="TextParagraph" font-family="Calibri, sans-serif" font-size="318px" font-weight="400"><tspan class="TextPosition" x="12753" y="5218"><tspan fill="rgb(64,64,64)" stroke="none">2,148.40</tspan></tspan></tspan></text>
 <text class="TextShape"><tspan class="TextParagraph" font-family="Calibri, sans-serif" font-size="318px" font-weight="400"><tspan class="TextPosition" x="15959" y="3592"><tspan fill="rgb(64,64,64)" stroke="none">2,878.47</tspan></tspan></tspan></text>
 <text class="TextShape"><tspan class="TextParagraph" font-family="Calibri, sans-serif" font-size="318px" font-weight="400"><tspan class="TextPosition" x="4088" y="22902"><tspan fill="rgb(64,64,64)" stroke="none">175.11</tspan></tspan></tspan></text>
 <text class="TextShape"><tspan class="TextParagraph" font-family="Calibri, sans-serif" font-size="318px" font-weight="400"><tspan class="TextPosition" x="4539" y="21275"><tspan fill="rgb(64,64,64)" stroke="none">277.94</tspan></tspan></tspan></text>
 <text class="TextShape"><tspan class="TextParagraph" font-family="Calibri, sans-serif" font-size="318px" font-weight="400"><tspan class="TextPosition" x="8268" y="19650"><tspan fill="rgb(64,64,64)" stroke="none">1126.98</tspan></tspan></tspan></text>
 <text class="TextShape"><tspan class="TextParagraph" font-family="Calibri, sans-serif" font-size="318px" font-weight="400"><tspan class="TextPosition" x="9484" y="18024"><tspan fill="rgb(64,64,64)" stroke="none">1,403.94</tspan></tspan></tspan></text>
 <text class="TextShape"><tspan class="TextParagraph" font-family="Calibri, sans-serif" font-size="318px" font-weight="400"><tspan class="TextPosition" x="8601" y="16398"><tspan fill="rgb(64,64,64)" stroke="none">1202.94</tspan></tspan></tspan></text>
 <text class="TextShape"><tspan class="TextParagraph" font-family="Calibri, sans-serif" font-size="318px" font-weight="400"><tspan class="TextPosition" x="7206" y="14772"><tspan fill="rgb(64,64,64)" stroke="none">885.27</tspan></tspan></tspan></text>
 <text class="TextShape"><tspan class="TextParagraph" font-family="Calibri, sans-serif" font-size="318px" font-weight="400"><tspan class="TextPosition" x="9999" y="13146"><tspan fill="rgb(64,64,64)" stroke="none">1521.26</tspan></tspan></tspan></text>
 <text class="TextShape"><tspan class="TextParagraph" font-family="Calibri, sans-serif" font-size="318px" font-weight="400"><tspan class="TextPosition" x="12374" y="11520"><tspan fill="rgb(64,64,64)" stroke="none">2,062.08</tspan></tspan></tspan></text>
 <text class="TextShape"><tspan class="TextParagraph" font-family="Calibri, sans-serif" font-size="318px" font-weight="400"><tspan class="TextPosition" x="11045" y="9894"><tspan fill="rgb(64,64,64)" stroke="none">1,759.44</tspan></tspan></tspan></text>
 <text class="TextShape"><tspan class="TextParagraph" font-family="Calibri, sans-serif" font-size="318px" font-weight="400"><tspan class="TextPosition" x="11710" y="8268"><tspan fill="rgb(64,64,64)" stroke="none">1,911.00</tspan></tspan></tspan></text>
 <text class="TextShape"><tspan class="TextParagraph" font-family="Calibri, sans-serif" font-size="318px" font-weight="400"><tspan class="TextPosition" x="18024" y="6643"><tspan fill="rgb(64,64,64)" stroke="none">3,348.64</tspan></tspan></tspan></text>
 <text class="TextShape"><tspan class="TextParagraph" font-family="Calibri, sans-serif" font-size="318px" font-weight="400"><tspan class="TextPosition" x="22407" y="5016"><tspan fill="rgb(64,64,64)" stroke="none">4,346.91</tspan></tspan></tspan></text>
 <text class="TextShape"><tspan class="TextParagraph" font-family="Calibri, sans-serif" font-size="318px" font-weight="400"><tspan class="TextPosition" x="24969" y="3390"><tspan fill="rgb(64,64,64)" stroke="none">4,930.18</tspan></tspan></tspan></text>
 <text class="TextShape"><tspan class="TextParagraph" font-family="Calibri Light" font-size="705px" font-weight="400"><tspan class="TextPosition" x="11637" y="1424"><tspan fill="rgb(89,89,89)" stroke="none">Scimark 2 (single-threaded)</tspan></tspan></tspan></text>
 <path fill="rgb(99,99,99)" stroke="none" d="M 18008,2344 L 17913,2344 17913,2154 18103,2154 18103,2344 18008,2344 Z"/>
 <path fill="rgb(180,180,180)" stroke="none" d="M 17063,2344 L 16968,2344 16968,2154 17158,2154 17158,2344 17063,2344 Z"/>
 <path fill="rgb(139,139,139)" stroke="none" d="M 16034,2344 L 15939,2344 15939,2154 16128,2154 16128,2344 16034,2344 Z"/>
 <path fill="rgb(41,41,41)" stroke="none" d="M 14010,2344 L 13915,2344 13915,2154 14105,2154 14105,2344 14010,2344 Z"/>
 <path fill="rgb(218,218,218)" stroke="none" d="M 11500,2344 L 11405,2344 11405,2154 11595,2154 11595,2344 11500,2344 Z"/>
 <path fill="rgb(171,171,171)" stroke="none" d="M 10661,2344 L 10566,2344 10566,2154 10756,2154 10756,2344 10661,2344 Z"/>
 <text class="TextShape"><tspan class="TextParagraph" font-family="Calibri, sans-serif" font-size="318px" font-weight="400"><tspan class="TextPosition" x="10856" y="2323"><tspan fill="rgb(89,89,89)" stroke="none">LU</tspan></tspan></tspan></text>
 <text class="TextShape"><tspan class="TextParagraph" font-family="Calibri, sans-serif" font-size="318px" font-weight="400"><tspan class="TextPosition" x="11695" y="2323"><tspan fill="rgb(89,89,89)" stroke="none">Sparse matmult</tspan></tspan></tspan></text>
 <text class="TextShape"><tspan class="TextParagraph" font-family="Calibri, sans-serif" font-size="318px" font-weight="400"><tspan class="TextPosition" x="14205" y="2323"><tspan fill="rgb(89,89,89)" stroke="none">MonteCarlo</tspan></tspan></tspan></text>
 <text class="TextShape"><tspan class="TextParagraph" font-family="Calibri, sans-serif" font-size="318px" font-weight="400"><tspan class="TextPosition" x="16228" y="2323"><tspan fill="rgb(89,89,89)" stroke="none">SOR</tspan></tspan></tspan></text>
 <text class="TextShape"><tspan class="TextParagraph" font-family="Calibri, sans-serif" font-size="318px" font-weight="400"><tspan class="TextPosition" x="17257" y="2323"><tspan fill="rgb(89,89,89)" stroke="none">FFT</tspan></tspan></tspan></text>
 <text class="TextShape"><tspan class="TextParagraph" font-family="Calibri, sans-serif" font-size="318px" font-weight="400"><tspan class="TextPosition" x="18203" y="2323"><tspan fill="rgb(89,89,89)" stroke="none">Composite Score</tspan></tspan></tspan></text>
</svg>