<?xml version="1.0" encoding="UTF-8"?>
<!DOCTYPE svg PUBLIC "-//W3C//DTD SVG 1.1//EN" "http://www.w3.org/Graphics/SVG/1.1/DTD/svg11.dtd">
<svg width="207mm" height="181mm" viewBox="0 0 20700 18100" version="1.1" xmlns="http://www.w3.org/2000/svg" xmlns:xlink="http://www.w3.org/1999/xlink" stroke-width="28.222" stroke-linejoin="round" xml:space="preserve">
 <path fill="rgb(255,255,255)" stroke="none" d="M 10343,18105 L 13,18105 13,13 20672,13 20672,18105 10343,18105 Z"/>
 <path fill="none" stroke="rgb(217,217,217)" stroke-width="26" stroke-linejoin="round" d="M 10343,18105 L 13,18105 13,13 20672,13 20672,18105 10343,18105 Z"/>
 <path fill="none" stroke="rgb(217,217,217)" stroke-width="26" stroke-linejoin="round" d="M 3582,2112 L 3582,17273"/>
 <path fill="none" stroke="rgb(217,217,217)" stroke-width="26" stroke-linejoin="round" d="M 5873,2112 L 5873,17273"/>
 <path fill="none" stroke="rgb(217,217,217)" stroke-width="26" stroke-linejoin="round" d="M 8165,2112 L 8165,17273"/>
 <path fill="none" stroke="rgb(217,217,217)" stroke-width="26" stroke-linejoin="round" d="M 10457,2112 L 10457,17273"/>
 <path fill="none" stroke="rgb(217,217,217)" stroke-width="26" stroke-linejoin="round" d="M 12748,2112 L 12748,17273"/>
 <path fill="none" stroke="rgb(217,217,217)" stroke-width="26" stroke-linejoin="round" d="M 15040,2112 L 15040,17273"/>
 <path fill="none" stroke="rgb(217,217,217)" stroke-width="26" stroke-linejoin="round" d="M 17332,2112 L 17332,17273"/>
 <path fill="none" stroke="rgb(217,217,217)" stroke-width="26" stroke-linejoin="round" d="M 19624,2112 L 19624,17273"/>
 <path fill="none" stroke="rgb(242,242,242)" stroke-width="26" stroke-linejoin="round" d="M 4040,2112 L 4040,17273"/>
 <path fill="none" stroke="rgb(242,242,242)" stroke-width="26" stroke-linejoin="round" d="M 4498,2112 L 4498,17273"/>
 <path fill="none" stroke="rgb(242,242,242)" stroke-width="26" stroke-linejoin="round" d="M 4957,2112 L 4957,17273"/>
 <path fill="none" stroke="rgb(242,242,242)" stroke-width="26" stroke-linejoin="round" d="M 5415,2112 L 5415,17273"/>
 <path fill="none" stroke="rgb(242,242,242)" stroke-width="26" stroke-linejoin="round" d="M 6332,2112 L 6332,17273"/>
 <path fill="none" stroke="rgb(242,242,242)" stroke-width="26" stroke-linejoin="round" d="M 6790,2112 L 6790,17273"/>
 <path fill="none" stroke="rgb(242,242,242)" stroke-width="26" stroke-linejoin="round" d="M 7249,2112 L 7249,17273"/>
 <path fill="none" stroke="rgb(242,242,242)" stroke-width="26" stroke-linejoin="round" d="M 7707,2112 L 7707,17273"/>
 <path fill="none" stroke="rgb(242,242,242)" stroke-width="26" stroke-linejoin="round" d="M 8624,2112 L 8624,17273"/>
 <path fill="none" stroke="rgb(242,242,242)" stroke-width="26" stroke-linejoin="round" d="M 9082,2112 L 9082,17273"/>
 <path fill="none" stroke="rgb(242,242,242)" stroke-width="26" stroke-linejoin="round" d="M 9541,2112 L 9541,17273"/>
 <path fill="none" stroke="rgb(242,242,242)" stroke-width="26" stroke-linejoin="round" d="M 9999,2112 L 9999,17273"/>
 <path fill="none" stroke="rgb(242,242,242)" stroke-width="26" stroke-linejoin="round" d="M 10916,2112 L 10916,17273"/>
 <path fill="none" stroke="rgb(242,242,242)" stroke-width="26" stroke-linejoin="round" d="M 11374,2112 L 11374,17273"/>
 <path fill="none" stroke="rgb(242,242,242)" stroke-width="26" stroke-linejoin="round" d="M 11832,2112 L 11832,17273"/>
 <path fill="none" stroke="rgb(242,242,242)" stroke-width="26" stroke-linejoin="round" d="M 12290,2112 L 12290,17273"/>
 <path fill="none" stroke="rgb(242,242,242)" stroke-width="26" stroke-linejoin="round" d="M 13207,2112 L 13207,17273"/>
 <path fill="none" stroke="rgb(242,242,242)" stroke-width="26" stroke-linejoin="round" d="M 13665,2112 L 13665,17273"/>
 <path fill="none" stroke="rgb(242,242,242)" stroke-width="26" stroke-linejoin="round" d="M 14124,2112 L 14124,17273"/>
 <path fill="none" stroke="rgb(242,242,242)" stroke-width="26" stroke-linejoin="round" d="M 14582,2112 L 14582,17273"/>
 <path fill="none" stroke="rgb(242,242,242)" stroke-width="26" stroke-linejoin="round" d="M 15499,2112 L 15499,17273"/>
 <path fill="none" stroke="rgb(242,242,242)" stroke-width="26" stroke-linejoin="round" d="M 15957,2112 L 15957,17273"/>
 <path fill="none" stroke="rgb(242,242,242)" stroke-width="26" stroke-linejoin="round" d="M 16416,2112 L 16416,17273"/>
 <path fill="none" stroke="rgb(242,242,242)" stroke-width="26" stroke-linejoin="round" d="M 16874,2112 L 16874,17273"/>
 <path fill="none" stroke="rgb(242,242,242)" stroke-width="26" stroke-linejoin="round" d="M 17791,2112 L 17791,17273"/>
 <path fill="none" stroke="rgb(242,242,242)" stroke-width="26" stroke-linejoin="round" d="M 18249,2112 L 18249,17273"/>
 <path fill="none" stroke="rgb(242,242,242)" stroke-width="26" stroke-linejoin="round" d="M 18708,2112 L 18708,17273"/>
 <path fill="none" stroke="rgb(242,242,242)" stroke-width="26" stroke-linejoin="round" d="M 19166,2112 L 19166,17273"/>
 <path fill="none" stroke="rgb(217,217,217)" stroke-width="26" stroke-linejoin="round" d="M 3433,17273 L 3582,17273"/>
 <path fill="none" stroke="rgb(217,217,217)" stroke-width="26" stroke-linejoin="round" d="M 3433,16711 L 3582,16711"/>
 <path fill="none" stroke="rgb(217,217,217)" stroke-width="26" stroke-linejoin="round" d="M 3433,16150 L 3582,16150"/>
 <path fill="none" stroke="rgb(217,217,217)" stroke-width="26" stroke-linejoin="round" d="M 3433,15589 L 3582,15589"/>
 <path fill="none" stroke="rgb(217,217,217)" stroke-width="26" stroke-linejoin="round" d="M 3433,15027 L 3582,15027"/>
 <path fill="none" stroke="rgb(217,217,217)" stroke-width="26" stroke-linejoin="round" d="M 3433,14465 L 3582,14465"/>
 <path fill="none" stroke="rgb(217,217,217)" stroke-width="26" stroke-linejoin="round" d="M 3433,13904 L 3582,13904"/>
 <path fill="none" stroke="rgb(217,217,217)" stroke-width="26" stroke-linejoin="round" d="M 3433,13342 L 3582,13342"/>
 <path fill="none" stroke="rgb(217,217,217)" stroke-width="26" stroke-linejoin="round" d="M 3433,12781 L 3582,12781"/>
 <path fill="none" stroke="rgb(217,217,217)" stroke-width="26" stroke-linejoin="round" d="M 3433,12220 L 3582,12220"/>
 <path fill="none" stroke="rgb(217,217,217)" stroke-width="26" stroke-linejoin="round" d="M 3433,11658 L 3582,11658"/>
 <path fill="none" stroke="rgb(217,217,217)" stroke-width="26" stroke-linejoin="round" d="M 3433,11096 L 3582,11096"/>
 <path fill="none" stroke="rgb(217,217,217)" stroke-width="26" stroke-linejoin="round" d="M 3433,10535 L 3582,10535"/>
 <path fill="none" stroke="rgb(217,217,217)" stroke-width="26" stroke-linejoin="round" d="M 3433,9973 L 3582,9973"/>
 <path fill="none" stroke="rgb(217,217,217)" stroke-width="26" stroke-linejoin="round" d="M 3433,9412 L 3582,9412"/>
 <path fill="none" stroke="rgb(217,217,217)" stroke-width="26" stroke-linejoin="round" d="M 3433,8850 L 3582,8850"/>
 <path fill="none" stroke="rgb(217,217,217)" stroke-width="26" stroke-linejoin="round" d="M 3433,8289 L 3582,8289"/>
 <path fill="none" stroke="rgb(217,217,217)" stroke-width="26" stroke-linejoin="round" d="M 3433,7727 L 3582,7727"/>
 <path fill="none" stroke="rgb(217,217,217)" stroke-width="26" stroke-linejoin="round" d="M 3433,7166 L 3582,7166"/>
 <path fill="none" stroke="rgb(217,217,217)" stroke-width="26" stroke-linejoin="round" d="M 3433,6604 L 3582,6604"/>
 <path fill="none" stroke="rgb(217,217,217)" stroke-width="26" stroke-linejoin="round" d="M 3433,6043 L 3582,6043"/>
 <path fill="none" stroke="rgb(217,217,217)" stroke-width="26" stroke-linejoin="round" d="M 3433,5482 L 3582,5482"/>
 <path fill="none" stroke="rgb(217,217,217)" stroke-width="26" stroke-linejoin="round" d="M 3433,4920 L 3582,4920"/>
 <path fill="none" stroke="rgb(217,217,217)" stroke-width="26" stroke-linejoin="round" d="M 3433,4359 L 3582,4359"/>
 <path fill="none" stroke="rgb(217,217,217)" stroke-width="26" stroke-linejoin="round" d="M 3433,3797 L 3582,3797"/>
 <path fill="none" stroke="rgb(217,217,217)" stroke-width="26" stroke-linejoin="round" d="M 3433,3235 L 3582,3235"/>
 <path fill="none" stroke="rgb(217,217,217)" stroke-width="26" stroke-linejoin="round" d="M 3433,2674 L 3582,2674"/>
 <path fill="none" stroke="rgb(217,217,217)" stroke-width="26" stroke-linejoin="round" d="M 3433,2112 L 3582,2112"/>
 <path fill="none" stroke="rgb(217,217,217)" stroke-width="26" stroke-linejoin="round" d="M 3582,17273 L 3582,2112"/>
 <path fill="rgb(99,99,99)" stroke="none" d="M 3582,2469 L 3582,2317 17774,2317 17774,2469 3582,2469 Z"/>
 <path fill="rgb(99,99,99)" stroke="none" d="M 3582,3030 L 3582,2879 9719,2879 9719,3030 3582,3030 Z"/>
 <path fill="rgb(99,99,99)" stroke="none" d="M 3582,3593 L 3582,3440 8709,3440 8709,3593 3582,3593 Z"/>
 <path fill="rgb(99,99,99)" stroke="none" d="M 3582,4154 L 3582,4001 7891,4001 7891,4154 3582,4154 Z"/>
 <path fill="rgb(99,99,99)" stroke="none" d="M 3582,4715 L 3582,4563 7619,4563 7619,4715 3582,4715 Z"/>
 <path fill="rgb(99,99,99)" stroke="none" d="M 3582,5277 L 3582,5124 7171,5124 7171,5277 3582,5277 Z"/>
 <path fill="rgb(99,99,99)" stroke="none" d="M 3582,5838 L 3582,5686 5391,5686 5391,5838 3582,5838 Z"/>
 <path fill="rgb(99,99,99)" stroke="none" d="M 3582,6399 L 3582,6248 5251,6248 5251,6399 3582,6399 Z"/>
 <path fill="rgb(99,99,99)" stroke="none" d="M 3582,6962 L 3582,6809 5251,6809 5251,6962 3582,6962 Z"/>
 <path fill="rgb(99,99,99)" stroke="none" d="M 3582,7523 L 3582,7370 5069,7370 5069,7523 3582,7523 Z"/>
 <path fill="rgb(99,99,99)" stroke="none" d="M 3582,8084 L 3582,7932 5005,7932 5005,8084 3582,8084 Z"/>
 <path fill="rgb(99,99,99)" stroke="none" d="M 3582,8646 L 3582,8493 4970,8493 4970,8646 3582,8646 Z"/>
 <path fill="rgb(99,99,99)" stroke="none" d="M 3582,9207 L 3582,9055 4720,9055 4720,9207 3582,9207 Z"/>
 <path fill="rgb(99,99,99)" stroke="none" d="M 3582,9768 L 3582,9617 4594,9617 4594,9768 3582,9768 Z"/>
 <path fill="rgb(99,99,99)" stroke="none" d="M 3582,10331 L 3582,10178 4342,10178 4342,10331 3582,10331 Z"/>
 <path fill="rgb(99,99,99)" stroke="none" d="M 3582,10892 L 3582,10739 4178,10739 4178,10892 3582,10892 Z"/>
 <path fill="rgb(99,99,99)" stroke="none" d="M 3582,11453 L 3582,11301 4074,11301 4074,11453 3582,11453 Z"/>
 <path fill="rgb(99,99,99)" stroke="none" d="M 3582,12015 L 3582,11862 4017,11862 4017,12015 3582,12015 Z"/>
 <path fill="rgb(99,99,99)" stroke="none" d="M 3582,12576 L 3582,12423 3900,12423 3900,12576 3582,12576 Z"/>
 <path fill="rgb(99,99,99)" stroke="none" d="M 3582,13137 L 3582,12986 3863,12986 3863,13137 3582,13137 Z"/>
 <path fill="rgb(99,99,99)" stroke="none" d="M 3582,13700 L 3582,13547 3794,13547 3794,13700 3582,13700 Z"/>
 <path fill="rgb(99,99,99)" stroke="none" d="M 3582,14261 L 3582,14108 3732,14108 3732,14261 3582,14261 Z"/>
 <path fill="rgb(99,99,99)" stroke="none" d="M 3582,14822 L 3582,14670 3722,14670 3722,14822 3582,14822 Z"/>
 <path fill="rgb(99,99,99)" stroke="none" d="M 3582,15384 L 3582,15231 3710,15231 3710,15384 3582,15384 Z"/>
 <path fill="rgb(99,99,99)" stroke="none" d="M 3582,15945 L 3582,15792 3675,15792 3675,15945 3582,15945 Z"/>
 <path fill="rgb(99,99,99)" stroke="none" d="M 3582,16506 L 3582,16355 3640,16355 3640,16506 3582,16506 Z"/>
 <path fill="rgb(99,99,99)" stroke="none" d="M 3582,17069 L 3582,16916 3613,16916 3613,17069 3582,17069 Z"/>
 <text class="TextShape"><tspan class="TextParagraph" font-family="Calibri, sans-serif" font-size="318px" font-weight="400"><tspan class="TextPosition" x="1324" y="17098"><tspan fill="rgb(89,89,89)" stroke="none">Raspberry PI</tspan></tspan></tspan></text>
 <text class="TextShape"><tspan class="TextParagraph" font-family="Calibri, sans-serif" font-size="318px" font-weight="400"><tspan class="TextPosition" x="1008" y="16537"><tspan fill="rgb(89,89,89)" stroke="none">Pentium M725</tspan></tspan></tspan></text>
 <text class="TextShape"><tspan class="TextParagraph" font-family="Calibri, sans-serif" font-size="318px" font-weight="400"><tspan class="TextPosition" x="1589" y="15976"><tspan fill="rgb(89,89,89)" stroke="none">Pentium III</tspan></tspan></tspan></text>
 <text class="TextShape"><tspan class="TextParagraph" font-family="Calibri, sans-serif" font-size="318px" font-weight="400"><tspan class="TextPosition" x="1695" y="15414"><tspan fill="rgb(89,89,89)" stroke="none">Pentium 4</tspan></tspan></tspan></text>
 <text class="TextShape"><tspan class="TextParagraph" font-family="Calibri, sans-serif" font-size="318px" font-weight="400"><tspan class="TextPosition" x="1192" y="14852"><tspan fill="rgb(89,89,89)" stroke="none">Baikal T1 BFK</tspan></tspan></tspan></text>
 <text class="TextShape"><tspan class="TextParagraph" font-family="Calibri, sans-serif" font-size="318px" font-weight="400"><tspan class="TextPosition" x="1721" y="14291"><tspan fill="rgb(89,89,89)" stroke="none">MBE1C-PC</tspan></tspan></tspan></text>
 <text class="TextShape"><tspan class="TextParagraph" font-family="Calibri, sans-serif" font-size="318px" font-weight="400"><tspan class="TextPosition" x="1087" y="13729"><tspan fill="rgb(89,89,89)" stroke="none">Orange Pi Win</tspan></tspan></tspan></text>
 <text class="TextShape"><tspan class="TextParagraph" font-family="Calibri, sans-serif" font-size="318px" font-weight="400"><tspan class="TextPosition" x="1562" y="13168"><tspan fill="rgb(89,89,89)" stroke="none">E2S-PC401</tspan></tspan></tspan></text>
 <text class="TextShape"><tspan class="TextParagraph" font-family="Calibri, sans-serif" font-size="318px" font-weight="400"><tspan class="TextPosition" x="1008" y="12607"><tspan fill="rgb(89,89,89)" stroke="none">Raspberry PI 3</tspan></tspan></tspan></text>
 <text class="TextShape"><tspan class="TextParagraph" font-family="Calibri, sans-serif" font-size="318px" font-weight="400"><tspan class="TextPosition" x="1087" y="12045"><tspan fill="rgb(89,89,89)" stroke="none">Orange Pi PC2</tspan></tspan></tspan></text>
 <text class="TextShape"><tspan class="TextParagraph" font-family="Calibri, sans-serif" font-size="318px" font-weight="400"><tspan class="TextPosition" x="1747" y="11483"><tspan fill="rgb(89,89,89)" stroke="none">Odroid X2</tspan></tspan></tspan></text>
 <text class="TextShape"><tspan class="TextParagraph" font-family="Calibri, sans-serif" font-size="318px" font-weight="400"><tspan class="TextPosition" x="426" y="10922"><tspan fill="rgb(89,89,89)" stroke="none">Core 2 Duo T9400</tspan></tspan></tspan></text>
 <text class="TextShape"><tspan class="TextParagraph" font-family="Calibri, sans-serif" font-size="318px" font-weight="400"><tspan class="TextPosition" x="1324" y="10360"><tspan fill="rgb(89,89,89)" stroke="none">Atom Z8350</tspan></tspan></tspan></text>
 <text class="TextShape"><tspan class="TextParagraph" font-family="Calibri, sans-serif" font-size="318px" font-weight="400"><tspan class="TextPosition" x="1165" y="9799"><tspan fill="rgb(89,89,89)" stroke="none">Core i3-m330</tspan></tspan></tspan></text>
 <text class="TextShape"><tspan class="TextParagraph" font-family="Calibri, sans-serif" font-size="318px" font-weight="400"><tspan class="TextPosition" x="1721" y="9238"><tspan fill="rgb(89,89,89)" stroke="none">Odroid N2</tspan></tspan></tspan></text>
 <text class="TextShape"><tspan class="TextParagraph" font-family="Calibri, sans-serif" font-size="318px" font-weight="400"><tspan class="TextPosition" x="1140" y="8676"><tspan fill="rgb(89,89,89)" stroke="none">AMD A6-3650</tspan></tspan></tspan></text>
 <text class="TextShape"><tspan class="TextParagraph" font-family="Calibri, sans-serif" font-size="318px" font-weight="400"><tspan class="TextPosition" x="1536" y="8114"><tspan fill="rgb(89,89,89)" stroke="none">E8C2-1200</tspan></tspan></tspan></text>
 <text class="TextShape"><tspan class="TextParagraph" font-family="Calibri, sans-serif" font-size="318px" font-weight="400"><tspan class="TextPosition" x="1668" y="7553"><tspan fill="rgb(89,89,89)" stroke="none">E8C-SWTX</tspan></tspan></tspan></text>
 <text class="TextShape"><tspan class="TextParagraph" font-family="Calibri, sans-serif" font-size="318px" font-weight="400"><tspan class="TextPosition" x="2487" y="6991"><tspan fill="rgb(89,89,89)" stroke="none">E8C2</tspan></tspan></tspan></text>
 <text class="TextShape"><tspan class="TextParagraph" font-family="Calibri, sans-serif" font-size="318px" font-weight="400"><tspan class="TextPosition" x="1536" y="6430"><tspan fill="rgb(89,89,89)" stroke="none">E8C2-1550</tspan></tspan></tspan></text>
 <text class="TextShape"><tspan class="TextParagraph" font-family="Calibri, sans-serif" font-size="318px" font-weight="400"><tspan class="TextPosition" x="1562" y="5869"><tspan fill="rgb(89,89,89)" stroke="none">E2S-EL2S4</tspan></tspan></tspan></text>
 <text class="TextShape"><tspan class="TextParagraph" font-family="Calibri, sans-serif" font-size="318px" font-weight="400"><tspan class="TextPosition" x="1271" y="5307"><tspan fill="rgb(89,89,89)" stroke="none">Core i7-2600</tspan></tspan></tspan></text>
 <text class="TextShape"><tspan class="TextParagraph" font-family="Calibri, sans-serif" font-size="318px" font-weight="400"><tspan class="TextPosition" x="770" y="4745"><tspan fill="rgb(89,89,89)" stroke="none">Core i7-4700MQ</tspan></tspan></tspan></text>
 <text class="TextShape"><tspan class="TextParagraph" font-family="Calibri, sans-serif" font-size="318px" font-weight="400"><tspan class="TextPosition" x="981" y="4184"><tspan fill="rgb(89,89,89)" stroke="none">E16C-APPROX*</tspan></tspan></tspan></text>
 <text class="TextShape"><tspan class="TextParagraph" font-family="Calibri, sans-serif" font-size="318px" font-weight="400"><tspan class="TextPosition" x="1140" y="3622"><tspan fill="rgb(89,89,89)" stroke="none">AWS Graviton</tspan></tspan></tspan></text>
 <text class="TextShape"><tspan class="TextParagraph" font-family="Calibri, sans-serif" font-size="318px" font-weight="400"><tspan class="TextPosition" x="1747" y="3061"><tspan fill="rgb(89,89,89)" stroke="none">E8C-E8C4</tspan></tspan></tspan></text>
 <text class="TextShape"><tspan class="TextParagraph" font-family="Calibri, sans-serif" font-size="318px" font-weight="400"><tspan class="TextPosition" x="1589" y="2500"><tspan fill="rgb(89,89,89)" stroke="none">Xeon 6128</tspan></tspan></tspan></text>
 <text class="TextShape"><tspan class="TextParagraph" font-family="Calibri, sans-serif" font-size="318px" font-weight="400"><tspan class="TextPosition" x="3477" y="17664"><tspan fill="rgb(89,89,89)" stroke="none">0</tspan></tspan></tspan></text>
 <text class="TextShape"><tspan class="TextParagraph" font-family="Calibri, sans-serif" font-size="318px" font-weight="400"><tspan class="TextPosition" x="5346" y="17664"><tspan fill="rgb(89,89,89)" stroke="none">20000</tspan></tspan></tspan></text>
 <text class="TextShape"><tspan class="TextParagraph" font-family="Calibri, sans-serif" font-size="318px" font-weight="400"><tspan class="TextPosition" x="7638" y="17664"><tspan fill="rgb(89,89,89)" stroke="none">40000</tspan></tspan></tspan></text>
 <text class="TextShape"><tspan class="TextParagraph" font-family="Calibri, sans-serif" font-size="318px" font-weight="400"><tspan class="TextPosition" x="9930" y="17664"><tspan fill="rgb(89,89,89)" stroke="none">60000</tspan></tspan></tspan></text>
 <text class="TextShape"><tspan class="TextParagraph" font-family="Calibri, sans-serif" font-size="318px" font-weight="400"><tspan class="TextPosition" x="12221" y="17664"><tspan fill="rgb(89,89,89)" stroke="none">80000</tspan></tspan></tspan></text>
 <text class="TextShape"><tspan class="TextParagraph" font-family="Calibri, sans-serif" font-size="318px" font-weight="400"><tspan class="TextPosition" x="14407" y="17664"><tspan fill="rgb(89,89,89)" stroke="none">100000</tspan></tspan></tspan></text>
 <text class="TextShape"><tspan class="TextParagraph" font-family="Calibri, sans-serif" font-size="318px" font-weight="400"><tspan class="TextPosition" x="16699" y="17664"><tspan fill="rgb(89,89,89)" stroke="none">120000</tspan></tspan></tspan></text>
 <text class="TextShape"><tspan class="TextParagraph" font-family="Calibri, sans-serif" font-size="318px" font-weight="400"><tspan class="TextPosition" x="18991" y="17664"><tspan fill="rgb(89,89,89)" stroke="none">140000</tspan></tspan></tspan></text>
 <text class="TextShape"><tspan class="TextParagraph" font-family="Calibri, sans-serif" font-size="318px" font-weight="400"><tspan class="TextPosition" x="3713" y="17098"><tspan fill="rgb(64,64,64)" stroke="none">270,5</tspan></tspan></tspan></text>
 <text class="TextShape"><tspan class="TextParagraph" font-family="Calibri, sans-serif" font-size="318px" font-weight="400"><tspan class="TextPosition" x="3740" y="16537"><tspan fill="rgb(64,64,64)" stroke="none">506,94</tspan></tspan></tspan></text>
 <text class="TextShape"><tspan class="TextParagraph" font-family="Calibri, sans-serif" font-size="318px" font-weight="400"><tspan class="TextPosition" x="3775" y="15976"><tspan fill="rgb(64,64,64)" stroke="none">816</tspan></tspan></tspan></text>
 <text class="TextShape"><tspan class="TextParagraph" font-family="Calibri, sans-serif" font-size="318px" font-weight="400"><tspan class="TextPosition" x="3810" y="15414"><tspan fill="rgb(64,64,64)" stroke="none">1119</tspan></tspan></tspan></text>
 <text class="TextShape"><tspan class="TextParagraph" font-family="Calibri, sans-serif" font-size="318px" font-weight="400"><tspan class="TextPosition" x="3822" y="14852"><tspan fill="rgb(64,64,64)" stroke="none">1227</tspan></tspan></tspan></text>
 <text class="TextShape"><tspan class="TextParagraph" font-family="Calibri, sans-serif" font-size="318px" font-weight="400"><tspan class="TextPosition" x="3832" y="14291"><tspan fill="rgb(64,64,64)" stroke="none">1312</tspan></tspan></tspan></text>
 <text class="TextShape"><tspan class="TextParagraph" font-family="Calibri, sans-serif" font-size="318px" font-weight="400"><tspan class="TextPosition" x="3894" y="13729"><tspan fill="rgb(64,64,64)" stroke="none">1854</tspan></tspan></tspan></text>
 <text class="TextShape"><tspan class="TextParagraph" font-family="Calibri, sans-serif" font-size="318px" font-weight="400"><tspan class="TextPosition" x="3963" y="13168"><tspan fill="rgb(64,64,64)" stroke="none">2455</tspan></tspan></tspan></text>
 <text class="TextShape"><tspan class="TextParagraph" font-family="Calibri, sans-serif" font-size="318px" font-weight="400"><tspan class="TextPosition" x="4000" y="12607"><tspan fill="rgb(64,64,64)" stroke="none">2779,8</tspan></tspan></tspan></text>
 <text class="TextShape"><tspan class="TextParagraph" font-family="Calibri, sans-serif" font-size="318px" font-weight="400"><tspan class="TextPosition" x="4117" y="12045"><tspan fill="rgb(64,64,64)" stroke="none">3798</tspan></tspan></tspan></text>
 <text class="TextShape"><tspan class="TextParagraph" font-family="Calibri, sans-serif" font-size="318px" font-weight="400"><tspan class="TextPosition" x="4174" y="11483"><tspan fill="rgb(64,64,64)" stroke="none">4291</tspan></tspan></tspan></text>
 <text class="TextShape"><tspan class="TextParagraph" font-family="Calibri, sans-serif" font-size="318px" font-weight="400"><tspan class="TextPosition" x="4277" y="10922"><tspan fill="rgb(64,64,64)" stroke="none">5195</tspan></tspan></tspan></text>
 <text class="TextShape"><tspan class="TextParagraph" font-family="Calibri, sans-serif" font-size="318px" font-weight="400"><tspan class="TextPosition" x="4442" y="10360"><tspan fill="rgb(64,64,64)" stroke="none">6636</tspan></tspan></tspan></text>
 <text class="TextShape"><tspan class="TextParagraph" font-family="Calibri, sans-serif" font-size="318px" font-weight="400"><tspan class="TextPosition" x="4694" y="9799"><tspan fill="rgb(64,64,64)" stroke="none">8837</tspan></tspan></tspan></text>
 <text class="TextShape"><tspan class="TextParagraph" font-family="Calibri, sans-serif" font-size="318px" font-weight="400"><tspan class="TextPosition" x="4820" y="9238"><tspan fill="rgb(64,64,64)" stroke="none">9931</tspan></tspan></tspan></text>
 <text class="TextShape"><tspan class="TextParagraph" font-family="Calibri, sans-serif" font-size="318px" font-weight="400"><tspan class="TextPosition" x="5069" y="8676"><tspan fill="rgb(64,64,64)" stroke="none">12113</tspan></tspan></tspan></text>
 <text class="TextShape"><tspan class="TextParagraph" font-family="Calibri, sans-serif" font-size="318px" font-weight="400"><tspan class="TextPosition" x="5105" y="8114"><tspan fill="rgb(64,64,64)" stroke="none">12420</tspan></tspan></tspan></text>
 <text class="TextShape"><tspan class="TextParagraph" font-family="Calibri, sans-serif" font-size="318px" font-weight="400"><tspan class="TextPosition" x="5169" y="7553"><tspan fill="rgb(64,64,64)" stroke="none">12980</tspan></tspan></tspan></text>
 <text class="TextShape"><tspan class="TextParagraph" font-family="Calibri, sans-serif" font-size="318px" font-weight="400"><tspan class="TextPosition" x="5351" y="6991"><tspan fill="rgb(64,64,64)" stroke="none">14571,94</tspan></tspan></tspan></text>
 <text class="TextShape"><tspan class="TextParagraph" font-family="Calibri, sans-serif" font-size="318px" font-weight="400"><tspan class="TextPosition" x="5351" y="6430"><tspan fill="rgb(64,64,64)" stroke="none">14571,94</tspan></tspan></tspan></text>
 <text class="TextShape"><tspan class="TextParagraph" font-family="Calibri, sans-serif" font-size="318px" font-weight="400"><tspan class="TextPosition" x="5491" y="5869"><tspan fill="rgb(64,64,64)" stroke="none">15790</tspan></tspan></tspan></text>
 <text class="TextShape"><tspan class="TextParagraph" font-family="Calibri, sans-serif" font-size="318px" font-weight="400"><tspan class="TextPosition" x="7271" y="5307"><tspan fill="rgb(64,64,64)" stroke="none">31319</tspan></tspan></tspan></text>
 <text class="TextShape"><tspan class="TextParagraph" font-family="Calibri, sans-serif" font-size="318px" font-weight="400"><tspan class="TextPosition" x="7719" y="4745"><tspan fill="rgb(64,64,64)" stroke="none">35234</tspan></tspan></tspan></text>
 <text class="TextShape"><tspan class="TextParagraph" font-family="Calibri, sans-serif" font-size="318px" font-weight="400"><tspan class="TextPosition" x="7991" y="4184"><tspan fill="rgb(64,64,64)" stroke="none">37 605,01</tspan></tspan></tspan></text>
 <text class="TextShape"><tspan class="TextParagraph" font-family="Calibri, sans-serif" font-size="318px" font-weight="400"><tspan class="TextPosition" x="8809" y="3622"><tspan fill="rgb(64,64,64)" stroke="none">44741</tspan></tspan></tspan></text>
 <text class="TextShape"><tspan class="TextParagraph" font-family="Calibri, sans-serif" font-size="318px" font-weight="400"><tspan class="TextPosition" x="9819" y="3061"><tspan fill="rgb(64,64,64)" stroke="none">53563</tspan></tspan></tspan></text>
 <text class="TextShape"><tspan class="TextParagraph" font-family="Calibri, sans-serif" font-size="318px" font-weight="400"><tspan class="TextPosition" x="17874" y="2500"><tspan fill="rgb(64,64,64)" stroke="none">123854</tspan></tspan></tspan></text>
 <text class="TextShape"><tspan class="TextParagraph" font-family="Calibri Light" font-size="705px" font-weight="400"><tspan class="TextPosition" x="2309" y="1381"><tspan fill="rgb(89,89,89)" stroke="none">Whetstone Single Precision (multi-threaded)</tspan></tspan></tspan></text>
</svg>