<?xml version="1.0" encoding="UTF-8"?>
<!DOCTYPE svg PUBLIC "-//W3C//DTD SVG 1.1//EN" "http://www.w3.org/Graphics/SVG/1.1/DTD/svg11.dtd">
<svg width="207mm" height="181mm" viewBox="0 0 20700 18100" version="1.1" xmlns="http://www.w3.org/2000/svg" xmlns:xlink="http://www.w3.org/1999/xlink" stroke-width="28.222" stroke-linejoin="round" xml:space="preserve">
 <path fill="rgb(255,255,255)" stroke="none" d="M 10343,18105 L 13,18105 13,13 20672,13 20672,18105 10343,18105 Z"/>
 <path fill="none" stroke="rgb(217,217,217)" stroke-width="26" stroke-linejoin="round" d="M 10343,18105 L 13,18105 13,13 20672,13 20672,18105 10343,18105 Z"/>
 <path fill="none" stroke="rgb(217,217,217)" stroke-width="26" stroke-linejoin="round" d="M 3582,2112 L 3582,17273"/>
 <path fill="none" stroke="rgb(217,217,217)" stroke-width="26" stroke-linejoin="round" d="M 5382,2112 L 5382,17273"/>
 <path fill="none" stroke="rgb(217,217,217)" stroke-width="26" stroke-linejoin="round" d="M 7182,2112 L 7182,17273"/>
 <path fill="none" stroke="rgb(217,217,217)" stroke-width="26" stroke-linejoin="round" d="M 8982,2112 L 8982,17273"/>
 <path fill="none" stroke="rgb(217,217,217)" stroke-width="26" stroke-linejoin="round" d="M 10782,2112 L 10782,17273"/>
 <path fill="none" stroke="rgb(217,217,217)" stroke-width="26" stroke-linejoin="round" d="M 12582,2112 L 12582,17273"/>
 <path fill="none" stroke="rgb(217,217,217)" stroke-width="26" stroke-linejoin="round" d="M 14382,2112 L 14382,17273"/>
 <path fill="none" stroke="rgb(217,217,217)" stroke-width="26" stroke-linejoin="round" d="M 16182,2112 L 16182,17273"/>
 <path fill="none" stroke="rgb(217,217,217)" stroke-width="26" stroke-linejoin="round" d="M 17982,2112 L 17982,17273"/>
 <path fill="none" stroke="rgb(217,217,217)" stroke-width="26" stroke-linejoin="round" d="M 19782,2112 L 19782,17273"/>
 <path fill="none" stroke="rgb(242,242,242)" stroke-width="26" stroke-linejoin="round" d="M 3942,2112 L 3942,17273"/>
 <path fill="none" stroke="rgb(242,242,242)" stroke-width="26" stroke-linejoin="round" d="M 4301,2112 L 4301,17273"/>
 <path fill="none" stroke="rgb(242,242,242)" stroke-width="26" stroke-linejoin="round" d="M 4662,2112 L 4662,17273"/>
 <path fill="none" stroke="rgb(242,242,242)" stroke-width="26" stroke-linejoin="round" d="M 5021,2112 L 5021,17273"/>
 <path fill="none" stroke="rgb(242,242,242)" stroke-width="26" stroke-linejoin="round" d="M 5742,2112 L 5742,17273"/>
 <path fill="none" stroke="rgb(242,242,242)" stroke-width="26" stroke-linejoin="round" d="M 6102,2112 L 6102,17273"/>
 <path fill="none" stroke="rgb(242,242,242)" stroke-width="26" stroke-linejoin="round" d="M 6462,2112 L 6462,17273"/>
 <path fill="none" stroke="rgb(242,242,242)" stroke-width="26" stroke-linejoin="round" d="M 6822,2112 L 6822,17273"/>
 <path fill="none" stroke="rgb(242,242,242)" stroke-width="26" stroke-linejoin="round" d="M 7542,2112 L 7542,17273"/>
 <path fill="none" stroke="rgb(242,242,242)" stroke-width="26" stroke-linejoin="round" d="M 7902,2112 L 7902,17273"/>
 <path fill="none" stroke="rgb(242,242,242)" stroke-width="26" stroke-linejoin="round" d="M 8262,2112 L 8262,17273"/>
 <path fill="none" stroke="rgb(242,242,242)" stroke-width="26" stroke-linejoin="round" d="M 8622,2112 L 8622,17273"/>
 <path fill="none" stroke="rgb(242,242,242)" stroke-width="26" stroke-linejoin="round" d="M 9342,2112 L 9342,17273"/>
 <path fill="none" stroke="rgb(242,242,242)" stroke-width="26" stroke-linejoin="round" d="M 9701,2112 L 9701,17273"/>
 <path fill="none" stroke="rgb(242,242,242)" stroke-width="26" stroke-linejoin="round" d="M 10062,2112 L 10062,17273"/>
 <path fill="none" stroke="rgb(242,242,242)" stroke-width="26" stroke-linejoin="round" d="M 10421,2112 L 10421,17273"/>
 <path fill="none" stroke="rgb(242,242,242)" stroke-width="26" stroke-linejoin="round" d="M 11141,2112 L 11141,17273"/>
 <path fill="none" stroke="rgb(242,242,242)" stroke-width="26" stroke-linejoin="round" d="M 11502,2112 L 11502,17273"/>
 <path fill="none" stroke="rgb(242,242,242)" stroke-width="26" stroke-linejoin="round" d="M 11862,2112 L 11862,17273"/>
 <path fill="none" stroke="rgb(242,242,242)" stroke-width="26" stroke-linejoin="round" d="M 12222,2112 L 12222,17273"/>
 <path fill="none" stroke="rgb(242,242,242)" stroke-width="26" stroke-linejoin="round" d="M 12942,2112 L 12942,17273"/>
 <path fill="none" stroke="rgb(242,242,242)" stroke-width="26" stroke-linejoin="round" d="M 13302,2112 L 13302,17273"/>
 <path fill="none" stroke="rgb(242,242,242)" stroke-width="26" stroke-linejoin="round" d="M 13662,2112 L 13662,17273"/>
 <path fill="none" stroke="rgb(242,242,242)" stroke-width="26" stroke-linejoin="round" d="M 14022,2112 L 14022,17273"/>
 <path fill="none" stroke="rgb(242,242,242)" stroke-width="26" stroke-linejoin="round" d="M 14742,2112 L 14742,17273"/>
 <path fill="none" stroke="rgb(242,242,242)" stroke-width="26" stroke-linejoin="round" d="M 15101,2112 L 15101,17273"/>
 <path fill="none" stroke="rgb(242,242,242)" stroke-width="26" stroke-linejoin="round" d="M 15462,2112 L 15462,17273"/>
 <path fill="none" stroke="rgb(242,242,242)" stroke-width="26" stroke-linejoin="round" d="M 15821,2112 L 15821,17273"/>
 <path fill="none" stroke="rgb(242,242,242)" stroke-width="26" stroke-linejoin="round" d="M 16541,2112 L 16541,17273"/>
 <path fill="none" stroke="rgb(242,242,242)" stroke-width="26" stroke-linejoin="round" d="M 16902,2112 L 16902,17273"/>
 <path fill="none" stroke="rgb(242,242,242)" stroke-width="26" stroke-linejoin="round" d="M 17261,2112 L 17261,17273"/>
 <path fill="none" stroke="rgb(242,242,242)" stroke-width="26" stroke-linejoin="round" d="M 17622,2112 L 17622,17273"/>
 <path fill="none" stroke="rgb(242,242,242)" stroke-width="26" stroke-linejoin="round" d="M 18342,2112 L 18342,17273"/>
 <path fill="none" stroke="rgb(242,242,242)" stroke-width="26" stroke-linejoin="round" d="M 18702,2112 L 18702,17273"/>
 <path fill="none" stroke="rgb(242,242,242)" stroke-width="26" stroke-linejoin="round" d="M 19062,2112 L 19062,17273"/>
 <path fill="none" stroke="rgb(242,242,242)" stroke-width="26" stroke-linejoin="round" d="M 19422,2112 L 19422,17273"/>
 <path fill="none" stroke="rgb(217,217,217)" stroke-width="26" stroke-linejoin="round" d="M 3433,17273 L 3582,17273"/>
 <path fill="none" stroke="rgb(217,217,217)" stroke-width="26" stroke-linejoin="round" d="M 3433,16711 L 3582,16711"/>
 <path fill="none" stroke="rgb(217,217,217)" stroke-width="26" stroke-linejoin="round" d="M 3433,16150 L 3582,16150"/>
 <path fill="none" stroke="rgb(217,217,217)" stroke-width="26" stroke-linejoin="round" d="M 3433,15589 L 3582,15589"/>
 <path fill="none" stroke="rgb(217,217,217)" stroke-width="26" stroke-linejoin="round" d="M 3433,15027 L 3582,15027"/>
 <path fill="none" stroke="rgb(217,217,217)" stroke-width="26" stroke-linejoin="round" d="M 3433,14465 L 3582,14465"/>
 <path fill="none" stroke="rgb(217,217,217)" stroke-width="26" stroke-linejoin="round" d="M 3433,13904 L 3582,13904"/>
 <path fill="none" stroke="rgb(217,217,217)" stroke-width="26" stroke-linejoin="round" d="M 3433,13342 L 3582,13342"/>
 <path fill="none" stroke="rgb(217,217,217)" stroke-width="26" stroke-linejoin="round" d="M 3433,12781 L 3582,12781"/>
 <path fill="none" stroke="rgb(217,217,217)" stroke-width="26" stroke-linejoin="round" d="M 3433,12220 L 3582,12220"/>
 <path fill="none" stroke="rgb(217,217,217)" stroke-width="26" stroke-linejoin="round" d="M 3433,11658 L 3582,11658"/>
 <path fill="none" stroke="rgb(217,217,217)" stroke-width="26" stroke-linejoin="round" d="M 3433,11096 L 3582,11096"/>
 <path fill="none" stroke="rgb(217,217,217)" stroke-width="26" stroke-linejoin="round" d="M 3433,10535 L 3582,10535"/>
 <path fill="none" stroke="rgb(217,217,217)" stroke-width="26" stroke-linejoin="round" d="M 3433,9973 L 3582,9973"/>
 <path fill="none" stroke="rgb(217,217,217)" stroke-width="26" stroke-linejoin="round" d="M 3433,9412 L 3582,9412"/>
 <path fill="none" stroke="rgb(217,217,217)" stroke-width="26" stroke-linejoin="round" d="M 3433,8850 L 3582,8850"/>
 <path fill="none" stroke="rgb(217,217,217)" stroke-width="26" stroke-linejoin="round" d="M 3433,8289 L 3582,8289"/>
 <path fill="none" stroke="rgb(217,217,217)" stroke-width="26" stroke-linejoin="round" d="M 3433,7727 L 3582,7727"/>
 <path fill="none" stroke="rgb(217,217,217)" stroke-width="26" stroke-linejoin="round" d="M 3433,7166 L 3582,7166"/>
 <path fill="none" stroke="rgb(217,217,217)" stroke-width="26" stroke-linejoin="round" d="M 3433,6604 L 3582,6604"/>
 <path fill="none" stroke="rgb(217,217,217)" stroke-width="26" stroke-linejoin="round" d="M 3433,6043 L 3582,6043"/>
 <path fill="none" stroke="rgb(217,217,217)" stroke-width="26" stroke-linejoin="round" d="M 3433,5482 L 3582,5482"/>
 <path fill="none" stroke="rgb(217,217,217)" stroke-width="26" stroke-linejoin="round" d="M 3433,4920 L 3582,4920"/>
 <path fill="none" stroke="rgb(217,217,217)" stroke-width="26" stroke-linejoin="round" d="M 3433,4359 L 3582,4359"/>
 <path fill="none" stroke="rgb(217,217,217)" stroke-width="26" stroke-linejoin="round" d="M 3433,3797 L 3582,3797"/>
 <path fill="none" stroke="rgb(217,217,217)" stroke-width="26" stroke-linejoin="round" d="M 3433,3235 L 3582,3235"/>
 <path fill="none" stroke="rgb(217,217,217)" stroke-width="26" stroke-linejoin="round" d="M 3433,2674 L 3582,2674"/>
 <path fill="none" stroke="rgb(217,217,217)" stroke-width="26" stroke-linejoin="round" d="M 3433,2112 L 3582,2112"/>
 <path fill="none" stroke="rgb(217,217,217)" stroke-width="26" stroke-linejoin="round" d="M 3582,17273 L 3582,2112"/>
 <path fill="rgb(99,99,99)" stroke="none" d="M 3582,2469 L 3582,2317 18415,2317 18415,2469 3582,2469 Z"/>
 <path fill="rgb(99,99,99)" stroke="none" d="M 3582,3030 L 3582,2879 16695,2879 16695,3030 3582,3030 Z"/>
 <path fill="rgb(99,99,99)" stroke="none" d="M 3582,3593 L 3582,3440 11161,3440 11161,3593 3582,3593 Z"/>
 <path fill="rgb(99,99,99)" stroke="none" d="M 3582,4154 L 3582,4001 10585,4001 10585,4154 3582,4154 Z"/>
 <path fill="rgb(99,99,99)" stroke="none" d="M 3582,4715 L 3582,4563 10350,4563 10350,4715 3582,4715 Z"/>
 <path fill="rgb(99,99,99)" stroke="none" d="M 3582,5277 L 3582,5124 8866,5124 8866,5277 3582,5277 Z"/>
 <path fill="rgb(99,99,99)" stroke="none" d="M 3582,5838 L 3582,5686 7307,5686 7307,5838 3582,5838 Z"/>
 <path fill="rgb(99,99,99)" stroke="none" d="M 3582,6399 L 3582,6248 7177,6248 7177,6399 3582,6399 Z"/>
 <path fill="rgb(99,99,99)" stroke="none" d="M 3582,6962 L 3582,6809 7079,6809 7079,6962 3582,6962 Z"/>
 <path fill="rgb(99,99,99)" stroke="none" d="M 3582,7523 L 3582,7370 6966,7370 6966,7523 3582,7523 Z"/>
 <path fill="rgb(99,99,99)" stroke="none" d="M 3582,8084 L 3582,7932 6898,7932 6898,8084 3582,8084 Z"/>
 <path fill="rgb(99,99,99)" stroke="none" d="M 3582,8646 L 3582,8493 5568,8493 5568,8646 3582,8646 Z"/>
 <path fill="rgb(99,99,99)" stroke="none" d="M 3582,9207 L 3582,9055 5259,9055 5259,9207 3582,9207 Z"/>
 <path fill="rgb(99,99,99)" stroke="none" d="M 3582,9768 L 3582,9617 5241,9617 5241,9768 3582,9768 Z"/>
 <path fill="rgb(99,99,99)" stroke="none" d="M 3582,10331 L 3582,10178 5073,10178 5073,10331 3582,10331 Z"/>
 <path fill="rgb(99,99,99)" stroke="none" d="M 3582,10892 L 3582,10739 4769,10739 4769,10892 3582,10892 Z"/>
 <path fill="rgb(99,99,99)" stroke="none" d="M 3582,11453 L 3582,11301 4687,11301 4687,11453 3582,11453 Z"/>
 <path fill="rgb(99,99,99)" stroke="none" d="M 3582,12015 L 3582,11862 4490,11862 4490,12015 3582,12015 Z"/>
 <path fill="rgb(99,99,99)" stroke="none" d="M 3582,12576 L 3582,12423 4416,12423 4416,12576 3582,12576 Z"/>
 <path fill="rgb(99,99,99)" stroke="none" d="M 3582,13137 L 3582,12986 4321,12986 4321,13137 3582,13137 Z"/>
 <path fill="rgb(99,99,99)" stroke="none" d="M 3582,13700 L 3582,13547 4079,13547 4079,13700 3582,13700 Z"/>
 <path fill="rgb(99,99,99)" stroke="none" d="M 3582,14261 L 3582,14108 4062,14108 4062,14261 3582,14261 Z"/>
 <path fill="rgb(99,99,99)" stroke="none" d="M 3582,14822 L 3582,14670 3950,14670 3950,14822 3582,14822 Z"/>
 <path fill="rgb(99,99,99)" stroke="none" d="M 3582,15384 L 3582,15231 3876,15231 3876,15384 3582,15384 Z"/>
 <path fill="rgb(99,99,99)" stroke="none" d="M 3582,15945 L 3582,15792 3721,15792 3721,15945 3582,15945 Z"/>
 <path fill="rgb(99,99,99)" stroke="none" d="M 3582,16506 L 3582,16355 3713,16355 3713,16506 3582,16506 Z"/>
 <path fill="rgb(99,99,99)" stroke="none" d="M 3582,17069 L 3582,16916 3696,16916 3696,17069 3582,17069 Z"/>
 <text class="TextShape"><tspan class="TextParagraph" font-family="Calibri, sans-serif" font-size="318px" font-weight="400"><tspan class="TextPosition" x="1008" y="17098"><tspan fill="rgb(89,89,89)" stroke="none">Pentium M725</tspan></tspan></tspan></text>
 <text class="TextShape"><tspan class="TextParagraph" font-family="Calibri, sans-serif" font-size="318px" font-weight="400"><tspan class="TextPosition" x="1695" y="16537"><tspan fill="rgb(89,89,89)" stroke="none">Pentium 4</tspan></tspan></tspan></text>
 <text class="TextShape"><tspan class="TextParagraph" font-family="Calibri, sans-serif" font-size="318px" font-weight="400"><tspan class="TextPosition" x="1324" y="15976"><tspan fill="rgb(89,89,89)" stroke="none">Raspberry PI</tspan></tspan></tspan></text>
 <text class="TextShape"><tspan class="TextParagraph" font-family="Calibri, sans-serif" font-size="318px" font-weight="400"><tspan class="TextPosition" x="1589" y="15414"><tspan fill="rgb(89,89,89)" stroke="none">Pentium III</tspan></tspan></tspan></text>
 <text class="TextShape"><tspan class="TextParagraph" font-family="Calibri, sans-serif" font-size="318px" font-weight="400"><tspan class="TextPosition" x="1192" y="14852"><tspan fill="rgb(89,89,89)" stroke="none">Baikal T1 BFK</tspan></tspan></tspan></text>
 <text class="TextShape"><tspan class="TextParagraph" font-family="Calibri, sans-serif" font-size="318px" font-weight="400"><tspan class="TextPosition" x="1721" y="14291"><tspan fill="rgb(89,89,89)" stroke="none">MBE1C-PC</tspan></tspan></tspan></text>
 <text class="TextShape"><tspan class="TextParagraph" font-family="Calibri, sans-serif" font-size="318px" font-weight="400"><tspan class="TextPosition" x="1087" y="13729"><tspan fill="rgb(89,89,89)" stroke="none">Orange Pi Win</tspan></tspan></tspan></text>
 <text class="TextShape"><tspan class="TextParagraph" font-family="Calibri, sans-serif" font-size="318px" font-weight="400"><tspan class="TextPosition" x="426" y="13168"><tspan fill="rgb(89,89,89)" stroke="none">Core 2 Duo T9400</tspan></tspan></tspan></text>
 <text class="TextShape"><tspan class="TextParagraph" font-family="Calibri, sans-serif" font-size="318px" font-weight="400"><tspan class="TextPosition" x="1008" y="12607"><tspan fill="rgb(89,89,89)" stroke="none">Raspberry PI 3</tspan></tspan></tspan></text>
 <text class="TextShape"><tspan class="TextParagraph" font-family="Calibri, sans-serif" font-size="318px" font-weight="400"><tspan class="TextPosition" x="1747" y="12045"><tspan fill="rgb(89,89,89)" stroke="none">Odroid X2</tspan></tspan></tspan></text>
 <text class="TextShape"><tspan class="TextParagraph" font-family="Calibri, sans-serif" font-size="318px" font-weight="400"><tspan class="TextPosition" x="1562" y="11483"><tspan fill="rgb(89,89,89)" stroke="none">E2S-PC401</tspan></tspan></tspan></text>
 <text class="TextShape"><tspan class="TextParagraph" font-family="Calibri, sans-serif" font-size="318px" font-weight="400"><tspan class="TextPosition" x="1087" y="10922"><tspan fill="rgb(89,89,89)" stroke="none">Orange Pi PC2</tspan></tspan></tspan></text>
 <text class="TextShape"><tspan class="TextParagraph" font-family="Calibri, sans-serif" font-size="318px" font-weight="400"><tspan class="TextPosition" x="1165" y="10360"><tspan fill="rgb(89,89,89)" stroke="none">Core i3-m330</tspan></tspan></tspan></text>
 <text class="TextShape"><tspan class="TextParagraph" font-family="Calibri, sans-serif" font-size="318px" font-weight="400"><tspan class="TextPosition" x="1324" y="9799"><tspan fill="rgb(89,89,89)" stroke="none">Atom Z8350</tspan></tspan></tspan></text>
 <text class="TextShape"><tspan class="TextParagraph" font-family="Calibri, sans-serif" font-size="318px" font-weight="400"><tspan class="TextPosition" x="1140" y="9238"><tspan fill="rgb(89,89,89)" stroke="none">AMD A6-3650</tspan></tspan></tspan></text>
 <text class="TextShape"><tspan class="TextParagraph" font-family="Calibri, sans-serif" font-size="318px" font-weight="400"><tspan class="TextPosition" x="1721" y="8676"><tspan fill="rgb(89,89,89)" stroke="none">Odroid N2</tspan></tspan></tspan></text>
 <text class="TextShape"><tspan class="TextParagraph" font-family="Calibri, sans-serif" font-size="318px" font-weight="400"><tspan class="TextPosition" x="1271" y="8114"><tspan fill="rgb(89,89,89)" stroke="none">Core i7-2600</tspan></tspan></tspan></text>
 <text class="TextShape"><tspan class="TextParagraph" font-family="Calibri, sans-serif" font-size="318px" font-weight="400"><tspan class="TextPosition" x="1536" y="7553"><tspan fill="rgb(89,89,89)" stroke="none">E8C2-1550</tspan></tspan></tspan></text>
 <text class="TextShape"><tspan class="TextParagraph" font-family="Calibri, sans-serif" font-size="318px" font-weight="400"><tspan class="TextPosition" x="2487" y="6991"><tspan fill="rgb(89,89,89)" stroke="none">E8C2</tspan></tspan></tspan></text>
 <text class="TextShape"><tspan class="TextParagraph" font-family="Calibri, sans-serif" font-size="318px" font-weight="400"><tspan class="TextPosition" x="1668" y="6430"><tspan fill="rgb(89,89,89)" stroke="none">E8C-SWTX</tspan></tspan></tspan></text>
 <text class="TextShape"><tspan class="TextParagraph" font-family="Calibri, sans-serif" font-size="318px" font-weight="400"><tspan class="TextPosition" x="1536" y="5869"><tspan fill="rgb(89,89,89)" stroke="none">E8C2-1200</tspan></tspan></tspan></text>
 <text class="TextShape"><tspan class="TextParagraph" font-family="Calibri, sans-serif" font-size="318px" font-weight="400"><tspan class="TextPosition" x="770" y="5307"><tspan fill="rgb(89,89,89)" stroke="none">Core i7-4700MQ</tspan></tspan></tspan></text>
 <text class="TextShape"><tspan class="TextParagraph" font-family="Calibri, sans-serif" font-size="318px" font-weight="400"><tspan class="TextPosition" x="981" y="4745"><tspan fill="rgb(89,89,89)" stroke="none">E16C-APPROX*</tspan></tspan></tspan></text>
 <text class="TextShape"><tspan class="TextParagraph" font-family="Calibri, sans-serif" font-size="318px" font-weight="400"><tspan class="TextPosition" x="1140" y="4184"><tspan fill="rgb(89,89,89)" stroke="none">AWS Graviton</tspan></tspan></tspan></text>
 <text class="TextShape"><tspan class="TextParagraph" font-family="Calibri, sans-serif" font-size="318px" font-weight="400"><tspan class="TextPosition" x="1562" y="3622"><tspan fill="rgb(89,89,89)" stroke="none">E2S-EL2S4</tspan></tspan></tspan></text>
 <text class="TextShape"><tspan class="TextParagraph" font-family="Calibri, sans-serif" font-size="318px" font-weight="400"><tspan class="TextPosition" x="1589" y="3061"><tspan fill="rgb(89,89,89)" stroke="none">Xeon 6128</tspan></tspan></tspan></text>
 <text class="TextShape"><tspan class="TextParagraph" font-family="Calibri, sans-serif" font-size="318px" font-weight="400"><tspan class="TextPosition" x="1747" y="2500"><tspan fill="rgb(89,89,89)" stroke="none">E8C-E8C4</tspan></tspan></tspan></text>
 <text class="TextShape"><tspan class="TextParagraph" font-family="Calibri, sans-serif" font-size="318px" font-weight="400"><tspan class="TextPosition" x="3212" y="17664"><tspan fill="rgb(89,89,89)" stroke="none">0,00</tspan></tspan></tspan></text>
 <text class="TextShape"><tspan class="TextParagraph" font-family="Calibri, sans-serif" font-size="318px" font-weight="400"><tspan class="TextPosition" x="5012" y="17664"><tspan fill="rgb(89,89,89)" stroke="none">5,00</tspan></tspan></tspan></text>
 <text class="TextShape"><tspan class="TextParagraph" font-family="Calibri, sans-serif" font-size="318px" font-weight="400"><tspan class="TextPosition" x="6706" y="17664"><tspan fill="rgb(89,89,89)" stroke="none">10,00</tspan></tspan></tspan></text>
 <text class="TextShape"><tspan class="TextParagraph" font-family="Calibri, sans-serif" font-size="318px" font-weight="400"><tspan class="TextPosition" x="8506" y="17664"><tspan fill="rgb(89,89,89)" stroke="none">15,00</tspan></tspan></tspan></text>
 <text class="TextShape"><tspan class="TextParagraph" font-family="Calibri, sans-serif" font-size="318px" font-weight="400"><tspan class="TextPosition" x="10306" y="17664"><tspan fill="rgb(89,89,89)" stroke="none">20,00</tspan></tspan></tspan></text>
 <text class="TextShape"><tspan class="TextParagraph" font-family="Calibri, sans-serif" font-size="318px" font-weight="400"><tspan class="TextPosition" x="12106" y="17664"><tspan fill="rgb(89,89,89)" stroke="none">25,00</tspan></tspan></tspan></text>
 <text class="TextShape"><tspan class="TextParagraph" font-family="Calibri, sans-serif" font-size="318px" font-weight="400"><tspan class="TextPosition" x="13906" y="17664"><tspan fill="rgb(89,89,89)" stroke="none">30,00</tspan></tspan></tspan></text>
 <text class="TextShape"><tspan class="TextParagraph" font-family="Calibri, sans-serif" font-size="318px" font-weight="400"><tspan class="TextPosition" x="15706" y="17664"><tspan fill="rgb(89,89,89)" stroke="none">35,00</tspan></tspan></tspan></text>
 <text class="TextShape"><tspan class="TextParagraph" font-family="Calibri, sans-serif" font-size="318px" font-weight="400"><tspan class="TextPosition" x="17506" y="17664"><tspan fill="rgb(89,89,89)" stroke="none">40,00</tspan></tspan></tspan></text>
 <text class="TextShape"><tspan class="TextParagraph" font-family="Calibri, sans-serif" font-size="318px" font-weight="400"><tspan class="TextPosition" x="19306" y="17664"><tspan fill="rgb(89,89,89)" stroke="none">45,00</tspan></tspan></tspan></text>
 <text class="TextShape"><tspan class="TextParagraph" font-family="Calibri, sans-serif" font-size="318px" font-weight="400"><tspan class="TextPosition" x="3796" y="17098"><tspan fill="rgb(64,64,64)" stroke="none">0,32</tspan></tspan></tspan></text>
 <text class="TextShape"><tspan class="TextParagraph" font-family="Calibri, sans-serif" font-size="318px" font-weight="400"><tspan class="TextPosition" x="3813" y="16537"><tspan fill="rgb(64,64,64)" stroke="none">0,36</tspan></tspan></tspan></text>
 <text class="TextShape"><tspan class="TextParagraph" font-family="Calibri, sans-serif" font-size="318px" font-weight="400"><tspan class="TextPosition" x="3821" y="15976"><tspan fill="rgb(64,64,64)" stroke="none">0,39</tspan></tspan></tspan></text>
 <text class="TextShape"><tspan class="TextParagraph" font-family="Calibri, sans-serif" font-size="318px" font-weight="400"><tspan class="TextPosition" x="3976" y="15414"><tspan fill="rgb(64,64,64)" stroke="none">0,82</tspan></tspan></tspan></text>
 <text class="TextShape"><tspan class="TextParagraph" font-family="Calibri, sans-serif" font-size="318px" font-weight="400"><tspan class="TextPosition" x="4050" y="14852"><tspan fill="rgb(64,64,64)" stroke="none">1,02</tspan></tspan></tspan></text>
 <text class="TextShape"><tspan class="TextParagraph" font-family="Calibri, sans-serif" font-size="318px" font-weight="400"><tspan class="TextPosition" x="4162" y="14291"><tspan fill="rgb(64,64,64)" stroke="none">1,33</tspan></tspan></tspan></text>
 <text class="TextShape"><tspan class="TextParagraph" font-family="Calibri, sans-serif" font-size="318px" font-weight="400"><tspan class="TextPosition" x="4179" y="13729"><tspan fill="rgb(64,64,64)" stroke="none">1,38</tspan></tspan></tspan></text>
 <text class="TextShape"><tspan class="TextParagraph" font-family="Calibri, sans-serif" font-size="318px" font-weight="400"><tspan class="TextPosition" x="4421" y="13168"><tspan fill="rgb(64,64,64)" stroke="none">2,05</tspan></tspan></tspan></text>
 <text class="TextShape"><tspan class="TextParagraph" font-family="Calibri, sans-serif" font-size="318px" font-weight="400"><tspan class="TextPosition" x="4516" y="12607"><tspan fill="rgb(64,64,64)" stroke="none">2,32</tspan></tspan></tspan></text>
 <text class="TextShape"><tspan class="TextParagraph" font-family="Calibri, sans-serif" font-size="318px" font-weight="400"><tspan class="TextPosition" x="4590" y="12045"><tspan fill="rgb(64,64,64)" stroke="none">2,52</tspan></tspan></tspan></text>
 <text class="TextShape"><tspan class="TextParagraph" font-family="Calibri, sans-serif" font-size="318px" font-weight="400"><tspan class="TextPosition" x="4787" y="11483"><tspan fill="rgb(64,64,64)" stroke="none">3,07</tspan></tspan></tspan></text>
 <text class="TextShape"><tspan class="TextParagraph" font-family="Calibri, sans-serif" font-size="318px" font-weight="400"><tspan class="TextPosition" x="4869" y="10922"><tspan fill="rgb(64,64,64)" stroke="none">3,30</tspan></tspan></tspan></text>
 <text class="TextShape"><tspan class="TextParagraph" font-family="Calibri, sans-serif" font-size="318px" font-weight="400"><tspan class="TextPosition" x="5173" y="10360"><tspan fill="rgb(64,64,64)" stroke="none">4,14</tspan></tspan></tspan></text>
 <text class="TextShape"><tspan class="TextParagraph" font-family="Calibri, sans-serif" font-size="318px" font-weight="400"><tspan class="TextPosition" x="5341" y="9799"><tspan fill="rgb(64,64,64)" stroke="none">4,61</tspan></tspan></tspan></text>
 <text class="TextShape"><tspan class="TextParagraph" font-family="Calibri, sans-serif" font-size="318px" font-weight="400"><tspan class="TextPosition" x="5359" y="9238"><tspan fill="rgb(64,64,64)" stroke="none">4,66</tspan></tspan></tspan></text>
 <text class="TextShape"><tspan class="TextParagraph" font-family="Calibri, sans-serif" font-size="318px" font-weight="400"><tspan class="TextPosition" x="5668" y="8676"><tspan fill="rgb(64,64,64)" stroke="none">5,52</tspan></tspan></tspan></text>
 <text class="TextShape"><tspan class="TextParagraph" font-family="Calibri, sans-serif" font-size="318px" font-weight="400"><tspan class="TextPosition" x="6998" y="8114"><tspan fill="rgb(64,64,64)" stroke="none">9,21</tspan></tspan></tspan></text>
 <text class="TextShape"><tspan class="TextParagraph" font-family="Calibri, sans-serif" font-size="318px" font-weight="400"><tspan class="TextPosition" x="7066" y="7553"><tspan fill="rgb(64,64,64)" stroke="none">9,40</tspan></tspan></tspan></text>
 <text class="TextShape"><tspan class="TextParagraph" font-family="Calibri, sans-serif" font-size="318px" font-weight="400"><tspan class="TextPosition" x="7179" y="6991"><tspan fill="rgb(64,64,64)" stroke="none">9,71</tspan></tspan></tspan></text>
 <text class="TextShape"><tspan class="TextParagraph" font-family="Calibri, sans-serif" font-size="318px" font-weight="400"><tspan class="TextPosition" x="7277" y="6430"><tspan fill="rgb(64,64,64)" stroke="none">9,98</tspan></tspan></tspan></text>
 <text class="TextShape"><tspan class="TextParagraph" font-family="Calibri, sans-serif" font-size="318px" font-weight="400"><tspan class="TextPosition" x="7407" y="5869"><tspan fill="rgb(64,64,64)" stroke="none">10,35</tspan></tspan></tspan></text>
 <text class="TextShape"><tspan class="TextParagraph" font-family="Calibri, sans-serif" font-size="318px" font-weight="400"><tspan class="TextPosition" x="8966" y="5307"><tspan fill="rgb(64,64,64)" stroke="none">14,68</tspan></tspan></tspan></text>
 <text class="TextShape"><tspan class="TextParagraph" font-family="Calibri, sans-serif" font-size="318px" font-weight="400"><tspan class="TextPosition" x="10450" y="4745"><tspan fill="rgb(64,64,64)" stroke="none">18,80</tspan></tspan></tspan></text>
 <text class="TextShape"><tspan class="TextParagraph" font-family="Calibri, sans-serif" font-size="318px" font-weight="400"><tspan class="TextPosition" x="10685" y="4184"><tspan fill="rgb(64,64,64)" stroke="none">19,45</tspan></tspan></tspan></text>
 <text class="TextShape"><tspan class="TextParagraph" font-family="Calibri, sans-serif" font-size="318px" font-weight="400"><tspan class="TextPosition" x="11261" y="3622"><tspan fill="rgb(64,64,64)" stroke="none">21,05</tspan></tspan></tspan></text>
 <text class="TextShape"><tspan class="TextParagraph" font-family="Calibri, sans-serif" font-size="318px" font-weight="400"><tspan class="TextPosition" x="16795" y="3061"><tspan fill="rgb(64,64,64)" stroke="none">36,43</tspan></tspan></tspan></text>
 <text class="TextShape"><tspan class="TextParagraph" font-family="Calibri, sans-serif" font-size="318px" font-weight="400"><tspan class="TextPosition" x="18515" y="2500"><tspan fill="rgb(64,64,64)" stroke="none">41,20</tspan></tspan></tspan></text>
 <text class="TextShape"><tspan class="TextParagraph" font-family="Calibri Light" font-size="705px" font-weight="400"><tspan class="TextPosition" x="275" y="1381"><tspan fill="rgb(89,89,89)" stroke="none">Whetstone Single Precision (Per 1 MHz, multi-threaded)</tspan></tspan></tspan></text>
</svg>